G04 #@! TF.GenerationSoftware,KiCad,Pcbnew,10.0.5*
G04 #@! TF.CreationDate,2026-08-10T10:17:43+02:00*
G04 #@! TF.ProjectId,4reel_ee,34726565-6c5f-4656-952e-6b696361645f,rev?*
G04 #@! TF.SameCoordinates,Original*
G04 #@! TF.FileFunction,AssemblyDrawing,Top*
%FSLAX46Y46*%
G04 Gerber Fmt 4.6, Leading zero omitted, Abs format (unit mm)*
G04 Created by KiCad (PCBNEW 10.0.5) date 2026-08-10 10:17:43*
%MOMM*%
%LPD*%
G01*
G04 APERTURE LIST*
%ADD10C,0.040000*%
%ADD11C,0.060000*%
%ADD12C,0.150000*%
%ADD13C,0.075000*%
%ADD14C,0.080000*%
%ADD15C,0.100000*%
G04 APERTURE END LIST*
D10*
X166639285Y-100889765D02*
X166627381Y-100901670D01*
X166627381Y-100901670D02*
X166591666Y-100913574D01*
X166591666Y-100913574D02*
X166567857Y-100913574D01*
X166567857Y-100913574D02*
X166532143Y-100901670D01*
X166532143Y-100901670D02*
X166508333Y-100877860D01*
X166508333Y-100877860D02*
X166496428Y-100854050D01*
X166496428Y-100854050D02*
X166484524Y-100806431D01*
X166484524Y-100806431D02*
X166484524Y-100770717D01*
X166484524Y-100770717D02*
X166496428Y-100723098D01*
X166496428Y-100723098D02*
X166508333Y-100699289D01*
X166508333Y-100699289D02*
X166532143Y-100675479D01*
X166532143Y-100675479D02*
X166567857Y-100663574D01*
X166567857Y-100663574D02*
X166591666Y-100663574D01*
X166591666Y-100663574D02*
X166627381Y-100675479D01*
X166627381Y-100675479D02*
X166639285Y-100687384D01*
X166853571Y-100746908D02*
X166853571Y-100913574D01*
X166794047Y-100651670D02*
X166734524Y-100830241D01*
X166734524Y-100830241D02*
X166889285Y-100830241D01*
X167020238Y-100770717D02*
X166996428Y-100758812D01*
X166996428Y-100758812D02*
X166984523Y-100746908D01*
X166984523Y-100746908D02*
X166972619Y-100723098D01*
X166972619Y-100723098D02*
X166972619Y-100711193D01*
X166972619Y-100711193D02*
X166984523Y-100687384D01*
X166984523Y-100687384D02*
X166996428Y-100675479D01*
X166996428Y-100675479D02*
X167020238Y-100663574D01*
X167020238Y-100663574D02*
X167067857Y-100663574D01*
X167067857Y-100663574D02*
X167091666Y-100675479D01*
X167091666Y-100675479D02*
X167103571Y-100687384D01*
X167103571Y-100687384D02*
X167115476Y-100711193D01*
X167115476Y-100711193D02*
X167115476Y-100723098D01*
X167115476Y-100723098D02*
X167103571Y-100746908D01*
X167103571Y-100746908D02*
X167091666Y-100758812D01*
X167091666Y-100758812D02*
X167067857Y-100770717D01*
X167067857Y-100770717D02*
X167020238Y-100770717D01*
X167020238Y-100770717D02*
X166996428Y-100782622D01*
X166996428Y-100782622D02*
X166984523Y-100794527D01*
X166984523Y-100794527D02*
X166972619Y-100818336D01*
X166972619Y-100818336D02*
X166972619Y-100865955D01*
X166972619Y-100865955D02*
X166984523Y-100889765D01*
X166984523Y-100889765D02*
X166996428Y-100901670D01*
X166996428Y-100901670D02*
X167020238Y-100913574D01*
X167020238Y-100913574D02*
X167067857Y-100913574D01*
X167067857Y-100913574D02*
X167091666Y-100901670D01*
X167091666Y-100901670D02*
X167103571Y-100889765D01*
X167103571Y-100889765D02*
X167115476Y-100865955D01*
X167115476Y-100865955D02*
X167115476Y-100818336D01*
X167115476Y-100818336D02*
X167103571Y-100794527D01*
X167103571Y-100794527D02*
X167091666Y-100782622D01*
X167091666Y-100782622D02*
X167067857Y-100770717D01*
X132889765Y-88910714D02*
X132901670Y-88922618D01*
X132901670Y-88922618D02*
X132913574Y-88958333D01*
X132913574Y-88958333D02*
X132913574Y-88982142D01*
X132913574Y-88982142D02*
X132901670Y-89017856D01*
X132901670Y-89017856D02*
X132877860Y-89041666D01*
X132877860Y-89041666D02*
X132854050Y-89053571D01*
X132854050Y-89053571D02*
X132806431Y-89065475D01*
X132806431Y-89065475D02*
X132770717Y-89065475D01*
X132770717Y-89065475D02*
X132723098Y-89053571D01*
X132723098Y-89053571D02*
X132699289Y-89041666D01*
X132699289Y-89041666D02*
X132675479Y-89017856D01*
X132675479Y-89017856D02*
X132663574Y-88982142D01*
X132663574Y-88982142D02*
X132663574Y-88958333D01*
X132663574Y-88958333D02*
X132675479Y-88922618D01*
X132675479Y-88922618D02*
X132687384Y-88910714D01*
X132687384Y-88815475D02*
X132675479Y-88803571D01*
X132675479Y-88803571D02*
X132663574Y-88779761D01*
X132663574Y-88779761D02*
X132663574Y-88720237D01*
X132663574Y-88720237D02*
X132675479Y-88696428D01*
X132675479Y-88696428D02*
X132687384Y-88684523D01*
X132687384Y-88684523D02*
X132711193Y-88672618D01*
X132711193Y-88672618D02*
X132735003Y-88672618D01*
X132735003Y-88672618D02*
X132770717Y-88684523D01*
X132770717Y-88684523D02*
X132913574Y-88827380D01*
X132913574Y-88827380D02*
X132913574Y-88672618D01*
X132687384Y-88577380D02*
X132675479Y-88565476D01*
X132675479Y-88565476D02*
X132663574Y-88541666D01*
X132663574Y-88541666D02*
X132663574Y-88482142D01*
X132663574Y-88482142D02*
X132675479Y-88458333D01*
X132675479Y-88458333D02*
X132687384Y-88446428D01*
X132687384Y-88446428D02*
X132711193Y-88434523D01*
X132711193Y-88434523D02*
X132735003Y-88434523D01*
X132735003Y-88434523D02*
X132770717Y-88446428D01*
X132770717Y-88446428D02*
X132913574Y-88589285D01*
X132913574Y-88589285D02*
X132913574Y-88434523D01*
D11*
X70592857Y-106973627D02*
X70466191Y-106973627D01*
X70466191Y-107172675D02*
X70466191Y-106792675D01*
X70466191Y-106792675D02*
X70647143Y-106792675D01*
X70791905Y-107172675D02*
X70791905Y-106792675D01*
X70972857Y-107172675D02*
X70972857Y-106792675D01*
X70972857Y-106792675D02*
X71063333Y-106792675D01*
X71063333Y-106792675D02*
X71117619Y-106810770D01*
X71117619Y-106810770D02*
X71153809Y-106846960D01*
X71153809Y-106846960D02*
X71171904Y-106883151D01*
X71171904Y-106883151D02*
X71190000Y-106955532D01*
X71190000Y-106955532D02*
X71190000Y-107009818D01*
X71190000Y-107009818D02*
X71171904Y-107082199D01*
X71171904Y-107082199D02*
X71153809Y-107118389D01*
X71153809Y-107118389D02*
X71117619Y-107154580D01*
X71117619Y-107154580D02*
X71063333Y-107172675D01*
X71063333Y-107172675D02*
X70972857Y-107172675D01*
X71316666Y-106792675D02*
X71551904Y-106792675D01*
X71551904Y-106792675D02*
X71425238Y-106937437D01*
X71425238Y-106937437D02*
X71479523Y-106937437D01*
X71479523Y-106937437D02*
X71515714Y-106955532D01*
X71515714Y-106955532D02*
X71533809Y-106973627D01*
X71533809Y-106973627D02*
X71551904Y-107009818D01*
X71551904Y-107009818D02*
X71551904Y-107100294D01*
X71551904Y-107100294D02*
X71533809Y-107136484D01*
X71533809Y-107136484D02*
X71515714Y-107154580D01*
X71515714Y-107154580D02*
X71479523Y-107172675D01*
X71479523Y-107172675D02*
X71370952Y-107172675D01*
X71370952Y-107172675D02*
X71334761Y-107154580D01*
X71334761Y-107154580D02*
X71316666Y-107136484D01*
D10*
X86989765Y-98360714D02*
X87001670Y-98372618D01*
X87001670Y-98372618D02*
X87013574Y-98408333D01*
X87013574Y-98408333D02*
X87013574Y-98432142D01*
X87013574Y-98432142D02*
X87001670Y-98467856D01*
X87001670Y-98467856D02*
X86977860Y-98491666D01*
X86977860Y-98491666D02*
X86954050Y-98503571D01*
X86954050Y-98503571D02*
X86906431Y-98515475D01*
X86906431Y-98515475D02*
X86870717Y-98515475D01*
X86870717Y-98515475D02*
X86823098Y-98503571D01*
X86823098Y-98503571D02*
X86799289Y-98491666D01*
X86799289Y-98491666D02*
X86775479Y-98467856D01*
X86775479Y-98467856D02*
X86763574Y-98432142D01*
X86763574Y-98432142D02*
X86763574Y-98408333D01*
X86763574Y-98408333D02*
X86775479Y-98372618D01*
X86775479Y-98372618D02*
X86787384Y-98360714D01*
X86763574Y-98146428D02*
X86763574Y-98194047D01*
X86763574Y-98194047D02*
X86775479Y-98217856D01*
X86775479Y-98217856D02*
X86787384Y-98229761D01*
X86787384Y-98229761D02*
X86823098Y-98253571D01*
X86823098Y-98253571D02*
X86870717Y-98265475D01*
X86870717Y-98265475D02*
X86965955Y-98265475D01*
X86965955Y-98265475D02*
X86989765Y-98253571D01*
X86989765Y-98253571D02*
X87001670Y-98241666D01*
X87001670Y-98241666D02*
X87013574Y-98217856D01*
X87013574Y-98217856D02*
X87013574Y-98170237D01*
X87013574Y-98170237D02*
X87001670Y-98146428D01*
X87001670Y-98146428D02*
X86989765Y-98134523D01*
X86989765Y-98134523D02*
X86965955Y-98122618D01*
X86965955Y-98122618D02*
X86906431Y-98122618D01*
X86906431Y-98122618D02*
X86882622Y-98134523D01*
X86882622Y-98134523D02*
X86870717Y-98146428D01*
X86870717Y-98146428D02*
X86858812Y-98170237D01*
X86858812Y-98170237D02*
X86858812Y-98217856D01*
X86858812Y-98217856D02*
X86870717Y-98241666D01*
X86870717Y-98241666D02*
X86882622Y-98253571D01*
X86882622Y-98253571D02*
X86906431Y-98265475D01*
X86763574Y-98039285D02*
X86763574Y-97872619D01*
X86763574Y-97872619D02*
X87013574Y-97979761D01*
X166639285Y-97894765D02*
X166627381Y-97906670D01*
X166627381Y-97906670D02*
X166591666Y-97918574D01*
X166591666Y-97918574D02*
X166567857Y-97918574D01*
X166567857Y-97918574D02*
X166532143Y-97906670D01*
X166532143Y-97906670D02*
X166508333Y-97882860D01*
X166508333Y-97882860D02*
X166496428Y-97859050D01*
X166496428Y-97859050D02*
X166484524Y-97811431D01*
X166484524Y-97811431D02*
X166484524Y-97775717D01*
X166484524Y-97775717D02*
X166496428Y-97728098D01*
X166496428Y-97728098D02*
X166508333Y-97704289D01*
X166508333Y-97704289D02*
X166532143Y-97680479D01*
X166532143Y-97680479D02*
X166567857Y-97668574D01*
X166567857Y-97668574D02*
X166591666Y-97668574D01*
X166591666Y-97668574D02*
X166627381Y-97680479D01*
X166627381Y-97680479D02*
X166639285Y-97692384D01*
X166853571Y-97751908D02*
X166853571Y-97918574D01*
X166794047Y-97656670D02*
X166734524Y-97835241D01*
X166734524Y-97835241D02*
X166889285Y-97835241D01*
X166972619Y-97692384D02*
X166984523Y-97680479D01*
X166984523Y-97680479D02*
X167008333Y-97668574D01*
X167008333Y-97668574D02*
X167067857Y-97668574D01*
X167067857Y-97668574D02*
X167091666Y-97680479D01*
X167091666Y-97680479D02*
X167103571Y-97692384D01*
X167103571Y-97692384D02*
X167115476Y-97716193D01*
X167115476Y-97716193D02*
X167115476Y-97740003D01*
X167115476Y-97740003D02*
X167103571Y-97775717D01*
X167103571Y-97775717D02*
X166960714Y-97918574D01*
X166960714Y-97918574D02*
X167115476Y-97918574D01*
D12*
X70238095Y-88454819D02*
X70238095Y-87454819D01*
X70238095Y-87931009D02*
X70809523Y-87931009D01*
X70809523Y-88454819D02*
X70809523Y-87454819D01*
X71809523Y-88454819D02*
X71238095Y-88454819D01*
X71523809Y-88454819D02*
X71523809Y-87454819D01*
X71523809Y-87454819D02*
X71428571Y-87597676D01*
X71428571Y-87597676D02*
X71333333Y-87692914D01*
X71333333Y-87692914D02*
X71238095Y-87740533D01*
D10*
X126389765Y-88910714D02*
X126401670Y-88922618D01*
X126401670Y-88922618D02*
X126413574Y-88958333D01*
X126413574Y-88958333D02*
X126413574Y-88982142D01*
X126413574Y-88982142D02*
X126401670Y-89017856D01*
X126401670Y-89017856D02*
X126377860Y-89041666D01*
X126377860Y-89041666D02*
X126354050Y-89053571D01*
X126354050Y-89053571D02*
X126306431Y-89065475D01*
X126306431Y-89065475D02*
X126270717Y-89065475D01*
X126270717Y-89065475D02*
X126223098Y-89053571D01*
X126223098Y-89053571D02*
X126199289Y-89041666D01*
X126199289Y-89041666D02*
X126175479Y-89017856D01*
X126175479Y-89017856D02*
X126163574Y-88982142D01*
X126163574Y-88982142D02*
X126163574Y-88958333D01*
X126163574Y-88958333D02*
X126175479Y-88922618D01*
X126175479Y-88922618D02*
X126187384Y-88910714D01*
X126187384Y-88815475D02*
X126175479Y-88803571D01*
X126175479Y-88803571D02*
X126163574Y-88779761D01*
X126163574Y-88779761D02*
X126163574Y-88720237D01*
X126163574Y-88720237D02*
X126175479Y-88696428D01*
X126175479Y-88696428D02*
X126187384Y-88684523D01*
X126187384Y-88684523D02*
X126211193Y-88672618D01*
X126211193Y-88672618D02*
X126235003Y-88672618D01*
X126235003Y-88672618D02*
X126270717Y-88684523D01*
X126270717Y-88684523D02*
X126413574Y-88827380D01*
X126413574Y-88827380D02*
X126413574Y-88672618D01*
X126163574Y-88446428D02*
X126163574Y-88565476D01*
X126163574Y-88565476D02*
X126282622Y-88577380D01*
X126282622Y-88577380D02*
X126270717Y-88565476D01*
X126270717Y-88565476D02*
X126258812Y-88541666D01*
X126258812Y-88541666D02*
X126258812Y-88482142D01*
X126258812Y-88482142D02*
X126270717Y-88458333D01*
X126270717Y-88458333D02*
X126282622Y-88446428D01*
X126282622Y-88446428D02*
X126306431Y-88434523D01*
X126306431Y-88434523D02*
X126365955Y-88434523D01*
X126365955Y-88434523D02*
X126389765Y-88446428D01*
X126389765Y-88446428D02*
X126401670Y-88458333D01*
X126401670Y-88458333D02*
X126413574Y-88482142D01*
X126413574Y-88482142D02*
X126413574Y-88541666D01*
X126413574Y-88541666D02*
X126401670Y-88565476D01*
X126401670Y-88565476D02*
X126389765Y-88577380D01*
X107732857Y-108518200D02*
X107646190Y-108394391D01*
X107584285Y-108518200D02*
X107584285Y-108258200D01*
X107584285Y-108258200D02*
X107683333Y-108258200D01*
X107683333Y-108258200D02*
X107708095Y-108270581D01*
X107708095Y-108270581D02*
X107720476Y-108282962D01*
X107720476Y-108282962D02*
X107732857Y-108307724D01*
X107732857Y-108307724D02*
X107732857Y-108344867D01*
X107732857Y-108344867D02*
X107720476Y-108369629D01*
X107720476Y-108369629D02*
X107708095Y-108382010D01*
X107708095Y-108382010D02*
X107683333Y-108394391D01*
X107683333Y-108394391D02*
X107584285Y-108394391D01*
X107819523Y-108258200D02*
X107980476Y-108258200D01*
X107980476Y-108258200D02*
X107893809Y-108357248D01*
X107893809Y-108357248D02*
X107930952Y-108357248D01*
X107930952Y-108357248D02*
X107955714Y-108369629D01*
X107955714Y-108369629D02*
X107968095Y-108382010D01*
X107968095Y-108382010D02*
X107980476Y-108406772D01*
X107980476Y-108406772D02*
X107980476Y-108468677D01*
X107980476Y-108468677D02*
X107968095Y-108493439D01*
X107968095Y-108493439D02*
X107955714Y-108505820D01*
X107955714Y-108505820D02*
X107930952Y-108518200D01*
X107930952Y-108518200D02*
X107856666Y-108518200D01*
X107856666Y-108518200D02*
X107831904Y-108505820D01*
X107831904Y-108505820D02*
X107819523Y-108493439D01*
X108141428Y-108258200D02*
X108166190Y-108258200D01*
X108166190Y-108258200D02*
X108190952Y-108270581D01*
X108190952Y-108270581D02*
X108203333Y-108282962D01*
X108203333Y-108282962D02*
X108215714Y-108307724D01*
X108215714Y-108307724D02*
X108228095Y-108357248D01*
X108228095Y-108357248D02*
X108228095Y-108419153D01*
X108228095Y-108419153D02*
X108215714Y-108468677D01*
X108215714Y-108468677D02*
X108203333Y-108493439D01*
X108203333Y-108493439D02*
X108190952Y-108505820D01*
X108190952Y-108505820D02*
X108166190Y-108518200D01*
X108166190Y-108518200D02*
X108141428Y-108518200D01*
X108141428Y-108518200D02*
X108116666Y-108505820D01*
X108116666Y-108505820D02*
X108104285Y-108493439D01*
X108104285Y-108493439D02*
X108091904Y-108468677D01*
X108091904Y-108468677D02*
X108079523Y-108419153D01*
X108079523Y-108419153D02*
X108079523Y-108357248D01*
X108079523Y-108357248D02*
X108091904Y-108307724D01*
X108091904Y-108307724D02*
X108104285Y-108282962D01*
X108104285Y-108282962D02*
X108116666Y-108270581D01*
X108116666Y-108270581D02*
X108141428Y-108258200D01*
X108839285Y-93389765D02*
X108827381Y-93401670D01*
X108827381Y-93401670D02*
X108791666Y-93413574D01*
X108791666Y-93413574D02*
X108767857Y-93413574D01*
X108767857Y-93413574D02*
X108732143Y-93401670D01*
X108732143Y-93401670D02*
X108708333Y-93377860D01*
X108708333Y-93377860D02*
X108696428Y-93354050D01*
X108696428Y-93354050D02*
X108684524Y-93306431D01*
X108684524Y-93306431D02*
X108684524Y-93270717D01*
X108684524Y-93270717D02*
X108696428Y-93223098D01*
X108696428Y-93223098D02*
X108708333Y-93199289D01*
X108708333Y-93199289D02*
X108732143Y-93175479D01*
X108732143Y-93175479D02*
X108767857Y-93163574D01*
X108767857Y-93163574D02*
X108791666Y-93163574D01*
X108791666Y-93163574D02*
X108827381Y-93175479D01*
X108827381Y-93175479D02*
X108839285Y-93187384D01*
X108922619Y-93163574D02*
X109089285Y-93163574D01*
X109089285Y-93163574D02*
X108982143Y-93413574D01*
X109160714Y-93163574D02*
X109315476Y-93163574D01*
X109315476Y-93163574D02*
X109232142Y-93258812D01*
X109232142Y-93258812D02*
X109267857Y-93258812D01*
X109267857Y-93258812D02*
X109291666Y-93270717D01*
X109291666Y-93270717D02*
X109303571Y-93282622D01*
X109303571Y-93282622D02*
X109315476Y-93306431D01*
X109315476Y-93306431D02*
X109315476Y-93365955D01*
X109315476Y-93365955D02*
X109303571Y-93389765D01*
X109303571Y-93389765D02*
X109291666Y-93401670D01*
X109291666Y-93401670D02*
X109267857Y-93413574D01*
X109267857Y-93413574D02*
X109196428Y-93413574D01*
X109196428Y-93413574D02*
X109172619Y-93401670D01*
X109172619Y-93401670D02*
X109160714Y-93389765D01*
D12*
X120966666Y-104004819D02*
X121538094Y-104004819D01*
X121252380Y-105004819D02*
X121252380Y-104004819D01*
X122252380Y-104957200D02*
X122157142Y-105004819D01*
X122157142Y-105004819D02*
X121966666Y-105004819D01*
X121966666Y-105004819D02*
X121871428Y-104957200D01*
X121871428Y-104957200D02*
X121823809Y-104861961D01*
X121823809Y-104861961D02*
X121823809Y-104481009D01*
X121823809Y-104481009D02*
X121871428Y-104385771D01*
X121871428Y-104385771D02*
X121966666Y-104338152D01*
X121966666Y-104338152D02*
X122157142Y-104338152D01*
X122157142Y-104338152D02*
X122252380Y-104385771D01*
X122252380Y-104385771D02*
X122299999Y-104481009D01*
X122299999Y-104481009D02*
X122299999Y-104576247D01*
X122299999Y-104576247D02*
X121823809Y-104671485D01*
X122680952Y-104957200D02*
X122776190Y-105004819D01*
X122776190Y-105004819D02*
X122966666Y-105004819D01*
X122966666Y-105004819D02*
X123061904Y-104957200D01*
X123061904Y-104957200D02*
X123109523Y-104861961D01*
X123109523Y-104861961D02*
X123109523Y-104814342D01*
X123109523Y-104814342D02*
X123061904Y-104719104D01*
X123061904Y-104719104D02*
X122966666Y-104671485D01*
X122966666Y-104671485D02*
X122823809Y-104671485D01*
X122823809Y-104671485D02*
X122728571Y-104623866D01*
X122728571Y-104623866D02*
X122680952Y-104528628D01*
X122680952Y-104528628D02*
X122680952Y-104481009D01*
X122680952Y-104481009D02*
X122728571Y-104385771D01*
X122728571Y-104385771D02*
X122823809Y-104338152D01*
X122823809Y-104338152D02*
X122966666Y-104338152D01*
X122966666Y-104338152D02*
X123061904Y-104385771D01*
X123395238Y-104338152D02*
X123776190Y-104338152D01*
X123538095Y-104004819D02*
X123538095Y-104861961D01*
X123538095Y-104861961D02*
X123585714Y-104957200D01*
X123585714Y-104957200D02*
X123680952Y-105004819D01*
X123680952Y-105004819D02*
X123776190Y-105004819D01*
X124109524Y-105004819D02*
X124109524Y-104004819D01*
X124109524Y-104004819D02*
X124490476Y-104004819D01*
X124490476Y-104004819D02*
X124585714Y-104052438D01*
X124585714Y-104052438D02*
X124633333Y-104100057D01*
X124633333Y-104100057D02*
X124680952Y-104195295D01*
X124680952Y-104195295D02*
X124680952Y-104338152D01*
X124680952Y-104338152D02*
X124633333Y-104433390D01*
X124633333Y-104433390D02*
X124585714Y-104481009D01*
X124585714Y-104481009D02*
X124490476Y-104528628D01*
X124490476Y-104528628D02*
X124109524Y-104528628D01*
X125252381Y-105004819D02*
X125157143Y-104957200D01*
X125157143Y-104957200D02*
X125109524Y-104909580D01*
X125109524Y-104909580D02*
X125061905Y-104814342D01*
X125061905Y-104814342D02*
X125061905Y-104528628D01*
X125061905Y-104528628D02*
X125109524Y-104433390D01*
X125109524Y-104433390D02*
X125157143Y-104385771D01*
X125157143Y-104385771D02*
X125252381Y-104338152D01*
X125252381Y-104338152D02*
X125395238Y-104338152D01*
X125395238Y-104338152D02*
X125490476Y-104385771D01*
X125490476Y-104385771D02*
X125538095Y-104433390D01*
X125538095Y-104433390D02*
X125585714Y-104528628D01*
X125585714Y-104528628D02*
X125585714Y-104814342D01*
X125585714Y-104814342D02*
X125538095Y-104909580D01*
X125538095Y-104909580D02*
X125490476Y-104957200D01*
X125490476Y-104957200D02*
X125395238Y-105004819D01*
X125395238Y-105004819D02*
X125252381Y-105004819D01*
X126014286Y-105004819D02*
X126014286Y-104338152D01*
X126014286Y-104004819D02*
X125966667Y-104052438D01*
X125966667Y-104052438D02*
X126014286Y-104100057D01*
X126014286Y-104100057D02*
X126061905Y-104052438D01*
X126061905Y-104052438D02*
X126014286Y-104004819D01*
X126014286Y-104004819D02*
X126014286Y-104100057D01*
X126490476Y-104338152D02*
X126490476Y-105004819D01*
X126490476Y-104433390D02*
X126538095Y-104385771D01*
X126538095Y-104385771D02*
X126633333Y-104338152D01*
X126633333Y-104338152D02*
X126776190Y-104338152D01*
X126776190Y-104338152D02*
X126871428Y-104385771D01*
X126871428Y-104385771D02*
X126919047Y-104481009D01*
X126919047Y-104481009D02*
X126919047Y-105004819D01*
X127252381Y-104338152D02*
X127633333Y-104338152D01*
X127395238Y-104004819D02*
X127395238Y-104861961D01*
X127395238Y-104861961D02*
X127442857Y-104957200D01*
X127442857Y-104957200D02*
X127538095Y-105004819D01*
X127538095Y-105004819D02*
X127633333Y-105004819D01*
X123038095Y-101004819D02*
X123609523Y-101004819D01*
X123323809Y-102004819D02*
X123323809Y-101004819D01*
X123942857Y-102004819D02*
X123942857Y-101004819D01*
X123942857Y-101004819D02*
X124323809Y-101004819D01*
X124323809Y-101004819D02*
X124419047Y-101052438D01*
X124419047Y-101052438D02*
X124466666Y-101100057D01*
X124466666Y-101100057D02*
X124514285Y-101195295D01*
X124514285Y-101195295D02*
X124514285Y-101338152D01*
X124514285Y-101338152D02*
X124466666Y-101433390D01*
X124466666Y-101433390D02*
X124419047Y-101481009D01*
X124419047Y-101481009D02*
X124323809Y-101528628D01*
X124323809Y-101528628D02*
X123942857Y-101528628D01*
X125371428Y-101004819D02*
X125180952Y-101004819D01*
X125180952Y-101004819D02*
X125085714Y-101052438D01*
X125085714Y-101052438D02*
X125038095Y-101100057D01*
X125038095Y-101100057D02*
X124942857Y-101242914D01*
X124942857Y-101242914D02*
X124895238Y-101433390D01*
X124895238Y-101433390D02*
X124895238Y-101814342D01*
X124895238Y-101814342D02*
X124942857Y-101909580D01*
X124942857Y-101909580D02*
X124990476Y-101957200D01*
X124990476Y-101957200D02*
X125085714Y-102004819D01*
X125085714Y-102004819D02*
X125276190Y-102004819D01*
X125276190Y-102004819D02*
X125371428Y-101957200D01*
X125371428Y-101957200D02*
X125419047Y-101909580D01*
X125419047Y-101909580D02*
X125466666Y-101814342D01*
X125466666Y-101814342D02*
X125466666Y-101576247D01*
X125466666Y-101576247D02*
X125419047Y-101481009D01*
X125419047Y-101481009D02*
X125371428Y-101433390D01*
X125371428Y-101433390D02*
X125276190Y-101385771D01*
X125276190Y-101385771D02*
X125085714Y-101385771D01*
X125085714Y-101385771D02*
X124990476Y-101433390D01*
X124990476Y-101433390D02*
X124942857Y-101481009D01*
X124942857Y-101481009D02*
X124895238Y-101576247D01*
X181738095Y-88454819D02*
X181738095Y-87454819D01*
X181738095Y-87931009D02*
X182309523Y-87931009D01*
X182309523Y-88454819D02*
X182309523Y-87454819D01*
X182738095Y-87550057D02*
X182785714Y-87502438D01*
X182785714Y-87502438D02*
X182880952Y-87454819D01*
X182880952Y-87454819D02*
X183119047Y-87454819D01*
X183119047Y-87454819D02*
X183214285Y-87502438D01*
X183214285Y-87502438D02*
X183261904Y-87550057D01*
X183261904Y-87550057D02*
X183309523Y-87645295D01*
X183309523Y-87645295D02*
X183309523Y-87740533D01*
X183309523Y-87740533D02*
X183261904Y-87883390D01*
X183261904Y-87883390D02*
X182690476Y-88454819D01*
X182690476Y-88454819D02*
X183309523Y-88454819D01*
D10*
X85222265Y-91388714D02*
X85234170Y-91400618D01*
X85234170Y-91400618D02*
X85246074Y-91436333D01*
X85246074Y-91436333D02*
X85246074Y-91460142D01*
X85246074Y-91460142D02*
X85234170Y-91495856D01*
X85234170Y-91495856D02*
X85210360Y-91519666D01*
X85210360Y-91519666D02*
X85186550Y-91531571D01*
X85186550Y-91531571D02*
X85138931Y-91543475D01*
X85138931Y-91543475D02*
X85103217Y-91543475D01*
X85103217Y-91543475D02*
X85055598Y-91531571D01*
X85055598Y-91531571D02*
X85031789Y-91519666D01*
X85031789Y-91519666D02*
X85007979Y-91495856D01*
X85007979Y-91495856D02*
X84996074Y-91460142D01*
X84996074Y-91460142D02*
X84996074Y-91436333D01*
X84996074Y-91436333D02*
X85007979Y-91400618D01*
X85007979Y-91400618D02*
X85019884Y-91388714D01*
X84996074Y-91162523D02*
X84996074Y-91281571D01*
X84996074Y-91281571D02*
X85115122Y-91293475D01*
X85115122Y-91293475D02*
X85103217Y-91281571D01*
X85103217Y-91281571D02*
X85091312Y-91257761D01*
X85091312Y-91257761D02*
X85091312Y-91198237D01*
X85091312Y-91198237D02*
X85103217Y-91174428D01*
X85103217Y-91174428D02*
X85115122Y-91162523D01*
X85115122Y-91162523D02*
X85138931Y-91150618D01*
X85138931Y-91150618D02*
X85198455Y-91150618D01*
X85198455Y-91150618D02*
X85222265Y-91162523D01*
X85222265Y-91162523D02*
X85234170Y-91174428D01*
X85234170Y-91174428D02*
X85246074Y-91198237D01*
X85246074Y-91198237D02*
X85246074Y-91257761D01*
X85246074Y-91257761D02*
X85234170Y-91281571D01*
X85234170Y-91281571D02*
X85222265Y-91293475D01*
X84996074Y-90936333D02*
X84996074Y-90983952D01*
X84996074Y-90983952D02*
X85007979Y-91007761D01*
X85007979Y-91007761D02*
X85019884Y-91019666D01*
X85019884Y-91019666D02*
X85055598Y-91043476D01*
X85055598Y-91043476D02*
X85103217Y-91055380D01*
X85103217Y-91055380D02*
X85198455Y-91055380D01*
X85198455Y-91055380D02*
X85222265Y-91043476D01*
X85222265Y-91043476D02*
X85234170Y-91031571D01*
X85234170Y-91031571D02*
X85246074Y-91007761D01*
X85246074Y-91007761D02*
X85246074Y-90960142D01*
X85246074Y-90960142D02*
X85234170Y-90936333D01*
X85234170Y-90936333D02*
X85222265Y-90924428D01*
X85222265Y-90924428D02*
X85198455Y-90912523D01*
X85198455Y-90912523D02*
X85138931Y-90912523D01*
X85138931Y-90912523D02*
X85115122Y-90924428D01*
X85115122Y-90924428D02*
X85103217Y-90936333D01*
X85103217Y-90936333D02*
X85091312Y-90960142D01*
X85091312Y-90960142D02*
X85091312Y-91007761D01*
X85091312Y-91007761D02*
X85103217Y-91031571D01*
X85103217Y-91031571D02*
X85115122Y-91043476D01*
X85115122Y-91043476D02*
X85138931Y-91055380D01*
X162639285Y-94789765D02*
X162627381Y-94801670D01*
X162627381Y-94801670D02*
X162591666Y-94813574D01*
X162591666Y-94813574D02*
X162567857Y-94813574D01*
X162567857Y-94813574D02*
X162532143Y-94801670D01*
X162532143Y-94801670D02*
X162508333Y-94777860D01*
X162508333Y-94777860D02*
X162496428Y-94754050D01*
X162496428Y-94754050D02*
X162484524Y-94706431D01*
X162484524Y-94706431D02*
X162484524Y-94670717D01*
X162484524Y-94670717D02*
X162496428Y-94623098D01*
X162496428Y-94623098D02*
X162508333Y-94599289D01*
X162508333Y-94599289D02*
X162532143Y-94575479D01*
X162532143Y-94575479D02*
X162567857Y-94563574D01*
X162567857Y-94563574D02*
X162591666Y-94563574D01*
X162591666Y-94563574D02*
X162627381Y-94575479D01*
X162627381Y-94575479D02*
X162639285Y-94587384D01*
X162853571Y-94646908D02*
X162853571Y-94813574D01*
X162794047Y-94551670D02*
X162734524Y-94730241D01*
X162734524Y-94730241D02*
X162889285Y-94730241D01*
X163091666Y-94563574D02*
X163044047Y-94563574D01*
X163044047Y-94563574D02*
X163020238Y-94575479D01*
X163020238Y-94575479D02*
X163008333Y-94587384D01*
X163008333Y-94587384D02*
X162984523Y-94623098D01*
X162984523Y-94623098D02*
X162972619Y-94670717D01*
X162972619Y-94670717D02*
X162972619Y-94765955D01*
X162972619Y-94765955D02*
X162984523Y-94789765D01*
X162984523Y-94789765D02*
X162996428Y-94801670D01*
X162996428Y-94801670D02*
X163020238Y-94813574D01*
X163020238Y-94813574D02*
X163067857Y-94813574D01*
X163067857Y-94813574D02*
X163091666Y-94801670D01*
X163091666Y-94801670D02*
X163103571Y-94789765D01*
X163103571Y-94789765D02*
X163115476Y-94765955D01*
X163115476Y-94765955D02*
X163115476Y-94706431D01*
X163115476Y-94706431D02*
X163103571Y-94682622D01*
X163103571Y-94682622D02*
X163091666Y-94670717D01*
X163091666Y-94670717D02*
X163067857Y-94658812D01*
X163067857Y-94658812D02*
X163020238Y-94658812D01*
X163020238Y-94658812D02*
X162996428Y-94670717D01*
X162996428Y-94670717D02*
X162984523Y-94682622D01*
X162984523Y-94682622D02*
X162972619Y-94706431D01*
X122339285Y-95989765D02*
X122327381Y-96001670D01*
X122327381Y-96001670D02*
X122291666Y-96013574D01*
X122291666Y-96013574D02*
X122267857Y-96013574D01*
X122267857Y-96013574D02*
X122232143Y-96001670D01*
X122232143Y-96001670D02*
X122208333Y-95977860D01*
X122208333Y-95977860D02*
X122196428Y-95954050D01*
X122196428Y-95954050D02*
X122184524Y-95906431D01*
X122184524Y-95906431D02*
X122184524Y-95870717D01*
X122184524Y-95870717D02*
X122196428Y-95823098D01*
X122196428Y-95823098D02*
X122208333Y-95799289D01*
X122208333Y-95799289D02*
X122232143Y-95775479D01*
X122232143Y-95775479D02*
X122267857Y-95763574D01*
X122267857Y-95763574D02*
X122291666Y-95763574D01*
X122291666Y-95763574D02*
X122327381Y-95775479D01*
X122327381Y-95775479D02*
X122339285Y-95787384D01*
X122434524Y-95787384D02*
X122446428Y-95775479D01*
X122446428Y-95775479D02*
X122470238Y-95763574D01*
X122470238Y-95763574D02*
X122529762Y-95763574D01*
X122529762Y-95763574D02*
X122553571Y-95775479D01*
X122553571Y-95775479D02*
X122565476Y-95787384D01*
X122565476Y-95787384D02*
X122577381Y-95811193D01*
X122577381Y-95811193D02*
X122577381Y-95835003D01*
X122577381Y-95835003D02*
X122565476Y-95870717D01*
X122565476Y-95870717D02*
X122422619Y-96013574D01*
X122422619Y-96013574D02*
X122577381Y-96013574D01*
X122791666Y-95763574D02*
X122744047Y-95763574D01*
X122744047Y-95763574D02*
X122720238Y-95775479D01*
X122720238Y-95775479D02*
X122708333Y-95787384D01*
X122708333Y-95787384D02*
X122684523Y-95823098D01*
X122684523Y-95823098D02*
X122672619Y-95870717D01*
X122672619Y-95870717D02*
X122672619Y-95965955D01*
X122672619Y-95965955D02*
X122684523Y-95989765D01*
X122684523Y-95989765D02*
X122696428Y-96001670D01*
X122696428Y-96001670D02*
X122720238Y-96013574D01*
X122720238Y-96013574D02*
X122767857Y-96013574D01*
X122767857Y-96013574D02*
X122791666Y-96001670D01*
X122791666Y-96001670D02*
X122803571Y-95989765D01*
X122803571Y-95989765D02*
X122815476Y-95965955D01*
X122815476Y-95965955D02*
X122815476Y-95906431D01*
X122815476Y-95906431D02*
X122803571Y-95882622D01*
X122803571Y-95882622D02*
X122791666Y-95870717D01*
X122791666Y-95870717D02*
X122767857Y-95858812D01*
X122767857Y-95858812D02*
X122720238Y-95858812D01*
X122720238Y-95858812D02*
X122696428Y-95870717D01*
X122696428Y-95870717D02*
X122684523Y-95882622D01*
X122684523Y-95882622D02*
X122672619Y-95906431D01*
D13*
X148979761Y-101102409D02*
X148813095Y-100864314D01*
X148694047Y-101102409D02*
X148694047Y-100602409D01*
X148694047Y-100602409D02*
X148884523Y-100602409D01*
X148884523Y-100602409D02*
X148932142Y-100626219D01*
X148932142Y-100626219D02*
X148955952Y-100650028D01*
X148955952Y-100650028D02*
X148979761Y-100697647D01*
X148979761Y-100697647D02*
X148979761Y-100769076D01*
X148979761Y-100769076D02*
X148955952Y-100816695D01*
X148955952Y-100816695D02*
X148932142Y-100840504D01*
X148932142Y-100840504D02*
X148884523Y-100864314D01*
X148884523Y-100864314D02*
X148694047Y-100864314D01*
X149194047Y-101102409D02*
X149194047Y-100602409D01*
X149194047Y-100602409D02*
X149479761Y-101102409D01*
X149479761Y-101102409D02*
X149479761Y-100602409D01*
X149694048Y-100650028D02*
X149717857Y-100626219D01*
X149717857Y-100626219D02*
X149765476Y-100602409D01*
X149765476Y-100602409D02*
X149884524Y-100602409D01*
X149884524Y-100602409D02*
X149932143Y-100626219D01*
X149932143Y-100626219D02*
X149955952Y-100650028D01*
X149955952Y-100650028D02*
X149979762Y-100697647D01*
X149979762Y-100697647D02*
X149979762Y-100745266D01*
X149979762Y-100745266D02*
X149955952Y-100816695D01*
X149955952Y-100816695D02*
X149670238Y-101102409D01*
X149670238Y-101102409D02*
X149979762Y-101102409D01*
D12*
X137138095Y-105689819D02*
X137138095Y-106499342D01*
X137138095Y-106499342D02*
X137185714Y-106594580D01*
X137185714Y-106594580D02*
X137233333Y-106642200D01*
X137233333Y-106642200D02*
X137328571Y-106689819D01*
X137328571Y-106689819D02*
X137519047Y-106689819D01*
X137519047Y-106689819D02*
X137614285Y-106642200D01*
X137614285Y-106642200D02*
X137661904Y-106594580D01*
X137661904Y-106594580D02*
X137709523Y-106499342D01*
X137709523Y-106499342D02*
X137709523Y-105689819D01*
X138090476Y-105689819D02*
X138757142Y-105689819D01*
X138757142Y-105689819D02*
X138328571Y-106689819D01*
D10*
X90739285Y-95489765D02*
X90727381Y-95501670D01*
X90727381Y-95501670D02*
X90691666Y-95513574D01*
X90691666Y-95513574D02*
X90667857Y-95513574D01*
X90667857Y-95513574D02*
X90632143Y-95501670D01*
X90632143Y-95501670D02*
X90608333Y-95477860D01*
X90608333Y-95477860D02*
X90596428Y-95454050D01*
X90596428Y-95454050D02*
X90584524Y-95406431D01*
X90584524Y-95406431D02*
X90584524Y-95370717D01*
X90584524Y-95370717D02*
X90596428Y-95323098D01*
X90596428Y-95323098D02*
X90608333Y-95299289D01*
X90608333Y-95299289D02*
X90632143Y-95275479D01*
X90632143Y-95275479D02*
X90667857Y-95263574D01*
X90667857Y-95263574D02*
X90691666Y-95263574D01*
X90691666Y-95263574D02*
X90727381Y-95275479D01*
X90727381Y-95275479D02*
X90739285Y-95287384D01*
X90822619Y-95263574D02*
X90989285Y-95263574D01*
X90989285Y-95263574D02*
X90882143Y-95513574D01*
X91215476Y-95513574D02*
X91072619Y-95513574D01*
X91144047Y-95513574D02*
X91144047Y-95263574D01*
X91144047Y-95263574D02*
X91120238Y-95299289D01*
X91120238Y-95299289D02*
X91096428Y-95323098D01*
X91096428Y-95323098D02*
X91072619Y-95335003D01*
X88422265Y-89288714D02*
X88434170Y-89300618D01*
X88434170Y-89300618D02*
X88446074Y-89336333D01*
X88446074Y-89336333D02*
X88446074Y-89360142D01*
X88446074Y-89360142D02*
X88434170Y-89395856D01*
X88434170Y-89395856D02*
X88410360Y-89419666D01*
X88410360Y-89419666D02*
X88386550Y-89431571D01*
X88386550Y-89431571D02*
X88338931Y-89443475D01*
X88338931Y-89443475D02*
X88303217Y-89443475D01*
X88303217Y-89443475D02*
X88255598Y-89431571D01*
X88255598Y-89431571D02*
X88231789Y-89419666D01*
X88231789Y-89419666D02*
X88207979Y-89395856D01*
X88207979Y-89395856D02*
X88196074Y-89360142D01*
X88196074Y-89360142D02*
X88196074Y-89336333D01*
X88196074Y-89336333D02*
X88207979Y-89300618D01*
X88207979Y-89300618D02*
X88219884Y-89288714D01*
X88196074Y-89074428D02*
X88196074Y-89122047D01*
X88196074Y-89122047D02*
X88207979Y-89145856D01*
X88207979Y-89145856D02*
X88219884Y-89157761D01*
X88219884Y-89157761D02*
X88255598Y-89181571D01*
X88255598Y-89181571D02*
X88303217Y-89193475D01*
X88303217Y-89193475D02*
X88398455Y-89193475D01*
X88398455Y-89193475D02*
X88422265Y-89181571D01*
X88422265Y-89181571D02*
X88434170Y-89169666D01*
X88434170Y-89169666D02*
X88446074Y-89145856D01*
X88446074Y-89145856D02*
X88446074Y-89098237D01*
X88446074Y-89098237D02*
X88434170Y-89074428D01*
X88434170Y-89074428D02*
X88422265Y-89062523D01*
X88422265Y-89062523D02*
X88398455Y-89050618D01*
X88398455Y-89050618D02*
X88338931Y-89050618D01*
X88338931Y-89050618D02*
X88315122Y-89062523D01*
X88315122Y-89062523D02*
X88303217Y-89074428D01*
X88303217Y-89074428D02*
X88291312Y-89098237D01*
X88291312Y-89098237D02*
X88291312Y-89145856D01*
X88291312Y-89145856D02*
X88303217Y-89169666D01*
X88303217Y-89169666D02*
X88315122Y-89181571D01*
X88315122Y-89181571D02*
X88338931Y-89193475D01*
X88279408Y-88836333D02*
X88446074Y-88836333D01*
X88184170Y-88895857D02*
X88362741Y-88955380D01*
X88362741Y-88955380D02*
X88362741Y-88800619D01*
X90739285Y-91489765D02*
X90727381Y-91501670D01*
X90727381Y-91501670D02*
X90691666Y-91513574D01*
X90691666Y-91513574D02*
X90667857Y-91513574D01*
X90667857Y-91513574D02*
X90632143Y-91501670D01*
X90632143Y-91501670D02*
X90608333Y-91477860D01*
X90608333Y-91477860D02*
X90596428Y-91454050D01*
X90596428Y-91454050D02*
X90584524Y-91406431D01*
X90584524Y-91406431D02*
X90584524Y-91370717D01*
X90584524Y-91370717D02*
X90596428Y-91323098D01*
X90596428Y-91323098D02*
X90608333Y-91299289D01*
X90608333Y-91299289D02*
X90632143Y-91275479D01*
X90632143Y-91275479D02*
X90667857Y-91263574D01*
X90667857Y-91263574D02*
X90691666Y-91263574D01*
X90691666Y-91263574D02*
X90727381Y-91275479D01*
X90727381Y-91275479D02*
X90739285Y-91287384D01*
X90953571Y-91263574D02*
X90905952Y-91263574D01*
X90905952Y-91263574D02*
X90882143Y-91275479D01*
X90882143Y-91275479D02*
X90870238Y-91287384D01*
X90870238Y-91287384D02*
X90846428Y-91323098D01*
X90846428Y-91323098D02*
X90834524Y-91370717D01*
X90834524Y-91370717D02*
X90834524Y-91465955D01*
X90834524Y-91465955D02*
X90846428Y-91489765D01*
X90846428Y-91489765D02*
X90858333Y-91501670D01*
X90858333Y-91501670D02*
X90882143Y-91513574D01*
X90882143Y-91513574D02*
X90929762Y-91513574D01*
X90929762Y-91513574D02*
X90953571Y-91501670D01*
X90953571Y-91501670D02*
X90965476Y-91489765D01*
X90965476Y-91489765D02*
X90977381Y-91465955D01*
X90977381Y-91465955D02*
X90977381Y-91406431D01*
X90977381Y-91406431D02*
X90965476Y-91382622D01*
X90965476Y-91382622D02*
X90953571Y-91370717D01*
X90953571Y-91370717D02*
X90929762Y-91358812D01*
X90929762Y-91358812D02*
X90882143Y-91358812D01*
X90882143Y-91358812D02*
X90858333Y-91370717D01*
X90858333Y-91370717D02*
X90846428Y-91382622D01*
X90846428Y-91382622D02*
X90834524Y-91406431D01*
X91060714Y-91263574D02*
X91215476Y-91263574D01*
X91215476Y-91263574D02*
X91132142Y-91358812D01*
X91132142Y-91358812D02*
X91167857Y-91358812D01*
X91167857Y-91358812D02*
X91191666Y-91370717D01*
X91191666Y-91370717D02*
X91203571Y-91382622D01*
X91203571Y-91382622D02*
X91215476Y-91406431D01*
X91215476Y-91406431D02*
X91215476Y-91465955D01*
X91215476Y-91465955D02*
X91203571Y-91489765D01*
X91203571Y-91489765D02*
X91191666Y-91501670D01*
X91191666Y-91501670D02*
X91167857Y-91513574D01*
X91167857Y-91513574D02*
X91096428Y-91513574D01*
X91096428Y-91513574D02*
X91072619Y-91501670D01*
X91072619Y-91501670D02*
X91060714Y-91489765D01*
D11*
X182092857Y-92973627D02*
X181966191Y-92973627D01*
X181966191Y-93172675D02*
X181966191Y-92792675D01*
X181966191Y-92792675D02*
X182147143Y-92792675D01*
X182291905Y-93172675D02*
X182291905Y-92792675D01*
X182472857Y-93172675D02*
X182472857Y-92792675D01*
X182472857Y-92792675D02*
X182563333Y-92792675D01*
X182563333Y-92792675D02*
X182617619Y-92810770D01*
X182617619Y-92810770D02*
X182653809Y-92846960D01*
X182653809Y-92846960D02*
X182671904Y-92883151D01*
X182671904Y-92883151D02*
X182690000Y-92955532D01*
X182690000Y-92955532D02*
X182690000Y-93009818D01*
X182690000Y-93009818D02*
X182671904Y-93082199D01*
X182671904Y-93082199D02*
X182653809Y-93118389D01*
X182653809Y-93118389D02*
X182617619Y-93154580D01*
X182617619Y-93154580D02*
X182563333Y-93172675D01*
X182563333Y-93172675D02*
X182472857Y-93172675D01*
X183015714Y-92919341D02*
X183015714Y-93172675D01*
X182925238Y-92774580D02*
X182834761Y-93046008D01*
X182834761Y-93046008D02*
X183070000Y-93046008D01*
D10*
X118313574Y-96009523D02*
X118063574Y-96009523D01*
X118063574Y-96009523D02*
X118063574Y-95949999D01*
X118063574Y-95949999D02*
X118075479Y-95914285D01*
X118075479Y-95914285D02*
X118099289Y-95890475D01*
X118099289Y-95890475D02*
X118123098Y-95878570D01*
X118123098Y-95878570D02*
X118170717Y-95866666D01*
X118170717Y-95866666D02*
X118206431Y-95866666D01*
X118206431Y-95866666D02*
X118254050Y-95878570D01*
X118254050Y-95878570D02*
X118277860Y-95890475D01*
X118277860Y-95890475D02*
X118301670Y-95914285D01*
X118301670Y-95914285D02*
X118313574Y-95949999D01*
X118313574Y-95949999D02*
X118313574Y-96009523D01*
X118313574Y-95628570D02*
X118313574Y-95771427D01*
X118313574Y-95699999D02*
X118063574Y-95699999D01*
X118063574Y-95699999D02*
X118099289Y-95723808D01*
X118099289Y-95723808D02*
X118123098Y-95747618D01*
X118123098Y-95747618D02*
X118135003Y-95771427D01*
X90739285Y-96489765D02*
X90727381Y-96501670D01*
X90727381Y-96501670D02*
X90691666Y-96513574D01*
X90691666Y-96513574D02*
X90667857Y-96513574D01*
X90667857Y-96513574D02*
X90632143Y-96501670D01*
X90632143Y-96501670D02*
X90608333Y-96477860D01*
X90608333Y-96477860D02*
X90596428Y-96454050D01*
X90596428Y-96454050D02*
X90584524Y-96406431D01*
X90584524Y-96406431D02*
X90584524Y-96370717D01*
X90584524Y-96370717D02*
X90596428Y-96323098D01*
X90596428Y-96323098D02*
X90608333Y-96299289D01*
X90608333Y-96299289D02*
X90632143Y-96275479D01*
X90632143Y-96275479D02*
X90667857Y-96263574D01*
X90667857Y-96263574D02*
X90691666Y-96263574D01*
X90691666Y-96263574D02*
X90727381Y-96275479D01*
X90727381Y-96275479D02*
X90739285Y-96287384D01*
X90953571Y-96263574D02*
X90905952Y-96263574D01*
X90905952Y-96263574D02*
X90882143Y-96275479D01*
X90882143Y-96275479D02*
X90870238Y-96287384D01*
X90870238Y-96287384D02*
X90846428Y-96323098D01*
X90846428Y-96323098D02*
X90834524Y-96370717D01*
X90834524Y-96370717D02*
X90834524Y-96465955D01*
X90834524Y-96465955D02*
X90846428Y-96489765D01*
X90846428Y-96489765D02*
X90858333Y-96501670D01*
X90858333Y-96501670D02*
X90882143Y-96513574D01*
X90882143Y-96513574D02*
X90929762Y-96513574D01*
X90929762Y-96513574D02*
X90953571Y-96501670D01*
X90953571Y-96501670D02*
X90965476Y-96489765D01*
X90965476Y-96489765D02*
X90977381Y-96465955D01*
X90977381Y-96465955D02*
X90977381Y-96406431D01*
X90977381Y-96406431D02*
X90965476Y-96382622D01*
X90965476Y-96382622D02*
X90953571Y-96370717D01*
X90953571Y-96370717D02*
X90929762Y-96358812D01*
X90929762Y-96358812D02*
X90882143Y-96358812D01*
X90882143Y-96358812D02*
X90858333Y-96370717D01*
X90858333Y-96370717D02*
X90846428Y-96382622D01*
X90846428Y-96382622D02*
X90834524Y-96406431D01*
X91203571Y-96263574D02*
X91084523Y-96263574D01*
X91084523Y-96263574D02*
X91072619Y-96382622D01*
X91072619Y-96382622D02*
X91084523Y-96370717D01*
X91084523Y-96370717D02*
X91108333Y-96358812D01*
X91108333Y-96358812D02*
X91167857Y-96358812D01*
X91167857Y-96358812D02*
X91191666Y-96370717D01*
X91191666Y-96370717D02*
X91203571Y-96382622D01*
X91203571Y-96382622D02*
X91215476Y-96406431D01*
X91215476Y-96406431D02*
X91215476Y-96465955D01*
X91215476Y-96465955D02*
X91203571Y-96489765D01*
X91203571Y-96489765D02*
X91191666Y-96501670D01*
X91191666Y-96501670D02*
X91167857Y-96513574D01*
X91167857Y-96513574D02*
X91108333Y-96513574D01*
X91108333Y-96513574D02*
X91084523Y-96501670D01*
X91084523Y-96501670D02*
X91072619Y-96489765D01*
X87415700Y-90285142D02*
X87291891Y-90371809D01*
X87415700Y-90433714D02*
X87155700Y-90433714D01*
X87155700Y-90433714D02*
X87155700Y-90334666D01*
X87155700Y-90334666D02*
X87168081Y-90309904D01*
X87168081Y-90309904D02*
X87180462Y-90297523D01*
X87180462Y-90297523D02*
X87205224Y-90285142D01*
X87205224Y-90285142D02*
X87242367Y-90285142D01*
X87242367Y-90285142D02*
X87267129Y-90297523D01*
X87267129Y-90297523D02*
X87279510Y-90309904D01*
X87279510Y-90309904D02*
X87291891Y-90334666D01*
X87291891Y-90334666D02*
X87291891Y-90433714D01*
X87155700Y-90198476D02*
X87155700Y-90037523D01*
X87155700Y-90037523D02*
X87254748Y-90124190D01*
X87254748Y-90124190D02*
X87254748Y-90087047D01*
X87254748Y-90087047D02*
X87267129Y-90062285D01*
X87267129Y-90062285D02*
X87279510Y-90049904D01*
X87279510Y-90049904D02*
X87304272Y-90037523D01*
X87304272Y-90037523D02*
X87366177Y-90037523D01*
X87366177Y-90037523D02*
X87390939Y-90049904D01*
X87390939Y-90049904D02*
X87403320Y-90062285D01*
X87403320Y-90062285D02*
X87415700Y-90087047D01*
X87415700Y-90087047D02*
X87415700Y-90161333D01*
X87415700Y-90161333D02*
X87403320Y-90186095D01*
X87403320Y-90186095D02*
X87390939Y-90198476D01*
X87180462Y-89938476D02*
X87168081Y-89926095D01*
X87168081Y-89926095D02*
X87155700Y-89901333D01*
X87155700Y-89901333D02*
X87155700Y-89839428D01*
X87155700Y-89839428D02*
X87168081Y-89814666D01*
X87168081Y-89814666D02*
X87180462Y-89802285D01*
X87180462Y-89802285D02*
X87205224Y-89789904D01*
X87205224Y-89789904D02*
X87229986Y-89789904D01*
X87229986Y-89789904D02*
X87267129Y-89802285D01*
X87267129Y-89802285D02*
X87415700Y-89950857D01*
X87415700Y-89950857D02*
X87415700Y-89789904D01*
X118318200Y-98167142D02*
X118194391Y-98253809D01*
X118318200Y-98315714D02*
X118058200Y-98315714D01*
X118058200Y-98315714D02*
X118058200Y-98216666D01*
X118058200Y-98216666D02*
X118070581Y-98191904D01*
X118070581Y-98191904D02*
X118082962Y-98179523D01*
X118082962Y-98179523D02*
X118107724Y-98167142D01*
X118107724Y-98167142D02*
X118144867Y-98167142D01*
X118144867Y-98167142D02*
X118169629Y-98179523D01*
X118169629Y-98179523D02*
X118182010Y-98191904D01*
X118182010Y-98191904D02*
X118194391Y-98216666D01*
X118194391Y-98216666D02*
X118194391Y-98315714D01*
X118082962Y-98068095D02*
X118070581Y-98055714D01*
X118070581Y-98055714D02*
X118058200Y-98030952D01*
X118058200Y-98030952D02*
X118058200Y-97969047D01*
X118058200Y-97969047D02*
X118070581Y-97944285D01*
X118070581Y-97944285D02*
X118082962Y-97931904D01*
X118082962Y-97931904D02*
X118107724Y-97919523D01*
X118107724Y-97919523D02*
X118132486Y-97919523D01*
X118132486Y-97919523D02*
X118169629Y-97931904D01*
X118169629Y-97931904D02*
X118318200Y-98080476D01*
X118318200Y-98080476D02*
X118318200Y-97919523D01*
X118058200Y-97832857D02*
X118058200Y-97671904D01*
X118058200Y-97671904D02*
X118157248Y-97758571D01*
X118157248Y-97758571D02*
X118157248Y-97721428D01*
X118157248Y-97721428D02*
X118169629Y-97696666D01*
X118169629Y-97696666D02*
X118182010Y-97684285D01*
X118182010Y-97684285D02*
X118206772Y-97671904D01*
X118206772Y-97671904D02*
X118268677Y-97671904D01*
X118268677Y-97671904D02*
X118293439Y-97684285D01*
X118293439Y-97684285D02*
X118305820Y-97696666D01*
X118305820Y-97696666D02*
X118318200Y-97721428D01*
X118318200Y-97721428D02*
X118318200Y-97795714D01*
X118318200Y-97795714D02*
X118305820Y-97820476D01*
X118305820Y-97820476D02*
X118293439Y-97832857D01*
D12*
X104316666Y-92704819D02*
X104888094Y-92704819D01*
X104602380Y-93704819D02*
X104602380Y-92704819D01*
X105602380Y-93657200D02*
X105507142Y-93704819D01*
X105507142Y-93704819D02*
X105316666Y-93704819D01*
X105316666Y-93704819D02*
X105221428Y-93657200D01*
X105221428Y-93657200D02*
X105173809Y-93561961D01*
X105173809Y-93561961D02*
X105173809Y-93181009D01*
X105173809Y-93181009D02*
X105221428Y-93085771D01*
X105221428Y-93085771D02*
X105316666Y-93038152D01*
X105316666Y-93038152D02*
X105507142Y-93038152D01*
X105507142Y-93038152D02*
X105602380Y-93085771D01*
X105602380Y-93085771D02*
X105649999Y-93181009D01*
X105649999Y-93181009D02*
X105649999Y-93276247D01*
X105649999Y-93276247D02*
X105173809Y-93371485D01*
X106030952Y-93657200D02*
X106126190Y-93704819D01*
X106126190Y-93704819D02*
X106316666Y-93704819D01*
X106316666Y-93704819D02*
X106411904Y-93657200D01*
X106411904Y-93657200D02*
X106459523Y-93561961D01*
X106459523Y-93561961D02*
X106459523Y-93514342D01*
X106459523Y-93514342D02*
X106411904Y-93419104D01*
X106411904Y-93419104D02*
X106316666Y-93371485D01*
X106316666Y-93371485D02*
X106173809Y-93371485D01*
X106173809Y-93371485D02*
X106078571Y-93323866D01*
X106078571Y-93323866D02*
X106030952Y-93228628D01*
X106030952Y-93228628D02*
X106030952Y-93181009D01*
X106030952Y-93181009D02*
X106078571Y-93085771D01*
X106078571Y-93085771D02*
X106173809Y-93038152D01*
X106173809Y-93038152D02*
X106316666Y-93038152D01*
X106316666Y-93038152D02*
X106411904Y-93085771D01*
X106745238Y-93038152D02*
X107126190Y-93038152D01*
X106888095Y-92704819D02*
X106888095Y-93561961D01*
X106888095Y-93561961D02*
X106935714Y-93657200D01*
X106935714Y-93657200D02*
X107030952Y-93704819D01*
X107030952Y-93704819D02*
X107126190Y-93704819D01*
X107459524Y-93704819D02*
X107459524Y-92704819D01*
X107459524Y-92704819D02*
X107840476Y-92704819D01*
X107840476Y-92704819D02*
X107935714Y-92752438D01*
X107935714Y-92752438D02*
X107983333Y-92800057D01*
X107983333Y-92800057D02*
X108030952Y-92895295D01*
X108030952Y-92895295D02*
X108030952Y-93038152D01*
X108030952Y-93038152D02*
X107983333Y-93133390D01*
X107983333Y-93133390D02*
X107935714Y-93181009D01*
X107935714Y-93181009D02*
X107840476Y-93228628D01*
X107840476Y-93228628D02*
X107459524Y-93228628D01*
X108602381Y-93704819D02*
X108507143Y-93657200D01*
X108507143Y-93657200D02*
X108459524Y-93609580D01*
X108459524Y-93609580D02*
X108411905Y-93514342D01*
X108411905Y-93514342D02*
X108411905Y-93228628D01*
X108411905Y-93228628D02*
X108459524Y-93133390D01*
X108459524Y-93133390D02*
X108507143Y-93085771D01*
X108507143Y-93085771D02*
X108602381Y-93038152D01*
X108602381Y-93038152D02*
X108745238Y-93038152D01*
X108745238Y-93038152D02*
X108840476Y-93085771D01*
X108840476Y-93085771D02*
X108888095Y-93133390D01*
X108888095Y-93133390D02*
X108935714Y-93228628D01*
X108935714Y-93228628D02*
X108935714Y-93514342D01*
X108935714Y-93514342D02*
X108888095Y-93609580D01*
X108888095Y-93609580D02*
X108840476Y-93657200D01*
X108840476Y-93657200D02*
X108745238Y-93704819D01*
X108745238Y-93704819D02*
X108602381Y-93704819D01*
X109364286Y-93704819D02*
X109364286Y-93038152D01*
X109364286Y-92704819D02*
X109316667Y-92752438D01*
X109316667Y-92752438D02*
X109364286Y-92800057D01*
X109364286Y-92800057D02*
X109411905Y-92752438D01*
X109411905Y-92752438D02*
X109364286Y-92704819D01*
X109364286Y-92704819D02*
X109364286Y-92800057D01*
X109840476Y-93038152D02*
X109840476Y-93704819D01*
X109840476Y-93133390D02*
X109888095Y-93085771D01*
X109888095Y-93085771D02*
X109983333Y-93038152D01*
X109983333Y-93038152D02*
X110126190Y-93038152D01*
X110126190Y-93038152D02*
X110221428Y-93085771D01*
X110221428Y-93085771D02*
X110269047Y-93181009D01*
X110269047Y-93181009D02*
X110269047Y-93704819D01*
X110602381Y-93038152D02*
X110983333Y-93038152D01*
X110745238Y-92704819D02*
X110745238Y-93561961D01*
X110745238Y-93561961D02*
X110792857Y-93657200D01*
X110792857Y-93657200D02*
X110888095Y-93704819D01*
X110888095Y-93704819D02*
X110983333Y-93704819D01*
X106388095Y-89704819D02*
X106959523Y-89704819D01*
X106673809Y-90704819D02*
X106673809Y-89704819D01*
X107292857Y-90704819D02*
X107292857Y-89704819D01*
X107292857Y-89704819D02*
X107673809Y-89704819D01*
X107673809Y-89704819D02*
X107769047Y-89752438D01*
X107769047Y-89752438D02*
X107816666Y-89800057D01*
X107816666Y-89800057D02*
X107864285Y-89895295D01*
X107864285Y-89895295D02*
X107864285Y-90038152D01*
X107864285Y-90038152D02*
X107816666Y-90133390D01*
X107816666Y-90133390D02*
X107769047Y-90181009D01*
X107769047Y-90181009D02*
X107673809Y-90228628D01*
X107673809Y-90228628D02*
X107292857Y-90228628D01*
X108721428Y-90038152D02*
X108721428Y-90704819D01*
X108483333Y-89657200D02*
X108245238Y-90371485D01*
X108245238Y-90371485D02*
X108864285Y-90371485D01*
X181838095Y-112554819D02*
X181838095Y-111554819D01*
X181838095Y-112031009D02*
X182409523Y-112031009D01*
X182409523Y-112554819D02*
X182409523Y-111554819D01*
X183314285Y-111888152D02*
X183314285Y-112554819D01*
X183076190Y-111507200D02*
X182838095Y-112221485D01*
X182838095Y-112221485D02*
X183457142Y-112221485D01*
D10*
X122065357Y-102208200D02*
X121978690Y-102084391D01*
X121916785Y-102208200D02*
X121916785Y-101948200D01*
X121916785Y-101948200D02*
X122015833Y-101948200D01*
X122015833Y-101948200D02*
X122040595Y-101960581D01*
X122040595Y-101960581D02*
X122052976Y-101972962D01*
X122052976Y-101972962D02*
X122065357Y-101997724D01*
X122065357Y-101997724D02*
X122065357Y-102034867D01*
X122065357Y-102034867D02*
X122052976Y-102059629D01*
X122052976Y-102059629D02*
X122040595Y-102072010D01*
X122040595Y-102072010D02*
X122015833Y-102084391D01*
X122015833Y-102084391D02*
X121916785Y-102084391D01*
X122164404Y-101972962D02*
X122176785Y-101960581D01*
X122176785Y-101960581D02*
X122201547Y-101948200D01*
X122201547Y-101948200D02*
X122263452Y-101948200D01*
X122263452Y-101948200D02*
X122288214Y-101960581D01*
X122288214Y-101960581D02*
X122300595Y-101972962D01*
X122300595Y-101972962D02*
X122312976Y-101997724D01*
X122312976Y-101997724D02*
X122312976Y-102022486D01*
X122312976Y-102022486D02*
X122300595Y-102059629D01*
X122300595Y-102059629D02*
X122152023Y-102208200D01*
X122152023Y-102208200D02*
X122312976Y-102208200D01*
X122560595Y-102208200D02*
X122412023Y-102208200D01*
X122486309Y-102208200D02*
X122486309Y-101948200D01*
X122486309Y-101948200D02*
X122461547Y-101985343D01*
X122461547Y-101985343D02*
X122436785Y-102010105D01*
X122436785Y-102010105D02*
X122412023Y-102022486D01*
X129768200Y-110202142D02*
X129644391Y-110288809D01*
X129768200Y-110350714D02*
X129508200Y-110350714D01*
X129508200Y-110350714D02*
X129508200Y-110251666D01*
X129508200Y-110251666D02*
X129520581Y-110226904D01*
X129520581Y-110226904D02*
X129532962Y-110214523D01*
X129532962Y-110214523D02*
X129557724Y-110202142D01*
X129557724Y-110202142D02*
X129594867Y-110202142D01*
X129594867Y-110202142D02*
X129619629Y-110214523D01*
X129619629Y-110214523D02*
X129632010Y-110226904D01*
X129632010Y-110226904D02*
X129644391Y-110251666D01*
X129644391Y-110251666D02*
X129644391Y-110350714D01*
X129768200Y-109954523D02*
X129768200Y-110103095D01*
X129768200Y-110028809D02*
X129508200Y-110028809D01*
X129508200Y-110028809D02*
X129545343Y-110053571D01*
X129545343Y-110053571D02*
X129570105Y-110078333D01*
X129570105Y-110078333D02*
X129582486Y-110103095D01*
X129594867Y-109731666D02*
X129768200Y-109731666D01*
X129495820Y-109793571D02*
X129681534Y-109855476D01*
X129681534Y-109855476D02*
X129681534Y-109694523D01*
X164689765Y-98360714D02*
X164701670Y-98372618D01*
X164701670Y-98372618D02*
X164713574Y-98408333D01*
X164713574Y-98408333D02*
X164713574Y-98432142D01*
X164713574Y-98432142D02*
X164701670Y-98467856D01*
X164701670Y-98467856D02*
X164677860Y-98491666D01*
X164677860Y-98491666D02*
X164654050Y-98503571D01*
X164654050Y-98503571D02*
X164606431Y-98515475D01*
X164606431Y-98515475D02*
X164570717Y-98515475D01*
X164570717Y-98515475D02*
X164523098Y-98503571D01*
X164523098Y-98503571D02*
X164499289Y-98491666D01*
X164499289Y-98491666D02*
X164475479Y-98467856D01*
X164475479Y-98467856D02*
X164463574Y-98432142D01*
X164463574Y-98432142D02*
X164463574Y-98408333D01*
X164463574Y-98408333D02*
X164475479Y-98372618D01*
X164475479Y-98372618D02*
X164487384Y-98360714D01*
X164546908Y-98146428D02*
X164713574Y-98146428D01*
X164451670Y-98205952D02*
X164630241Y-98265475D01*
X164630241Y-98265475D02*
X164630241Y-98110714D01*
X164713574Y-97884523D02*
X164713574Y-98027380D01*
X164713574Y-97955952D02*
X164463574Y-97955952D01*
X164463574Y-97955952D02*
X164499289Y-97979761D01*
X164499289Y-97979761D02*
X164523098Y-98003571D01*
X164523098Y-98003571D02*
X164535003Y-98027380D01*
D13*
X143679761Y-101102409D02*
X143513095Y-100864314D01*
X143394047Y-101102409D02*
X143394047Y-100602409D01*
X143394047Y-100602409D02*
X143584523Y-100602409D01*
X143584523Y-100602409D02*
X143632142Y-100626219D01*
X143632142Y-100626219D02*
X143655952Y-100650028D01*
X143655952Y-100650028D02*
X143679761Y-100697647D01*
X143679761Y-100697647D02*
X143679761Y-100769076D01*
X143679761Y-100769076D02*
X143655952Y-100816695D01*
X143655952Y-100816695D02*
X143632142Y-100840504D01*
X143632142Y-100840504D02*
X143584523Y-100864314D01*
X143584523Y-100864314D02*
X143394047Y-100864314D01*
X143894047Y-101102409D02*
X143894047Y-100602409D01*
X143894047Y-100602409D02*
X144179761Y-101102409D01*
X144179761Y-101102409D02*
X144179761Y-100602409D01*
X144679762Y-101102409D02*
X144394048Y-101102409D01*
X144536905Y-101102409D02*
X144536905Y-100602409D01*
X144536905Y-100602409D02*
X144489286Y-100673838D01*
X144489286Y-100673838D02*
X144441667Y-100721457D01*
X144441667Y-100721457D02*
X144394048Y-100745266D01*
D12*
X70238095Y-112454819D02*
X70238095Y-111454819D01*
X70238095Y-111931009D02*
X70809523Y-111931009D01*
X70809523Y-112454819D02*
X70809523Y-111454819D01*
X71190476Y-111454819D02*
X71809523Y-111454819D01*
X71809523Y-111454819D02*
X71476190Y-111835771D01*
X71476190Y-111835771D02*
X71619047Y-111835771D01*
X71619047Y-111835771D02*
X71714285Y-111883390D01*
X71714285Y-111883390D02*
X71761904Y-111931009D01*
X71761904Y-111931009D02*
X71809523Y-112026247D01*
X71809523Y-112026247D02*
X71809523Y-112264342D01*
X71809523Y-112264342D02*
X71761904Y-112359580D01*
X71761904Y-112359580D02*
X71714285Y-112407200D01*
X71714285Y-112407200D02*
X71619047Y-112454819D01*
X71619047Y-112454819D02*
X71333333Y-112454819D01*
X71333333Y-112454819D02*
X71238095Y-112407200D01*
X71238095Y-112407200D02*
X71190476Y-112359580D01*
D10*
X90739285Y-92489765D02*
X90727381Y-92501670D01*
X90727381Y-92501670D02*
X90691666Y-92513574D01*
X90691666Y-92513574D02*
X90667857Y-92513574D01*
X90667857Y-92513574D02*
X90632143Y-92501670D01*
X90632143Y-92501670D02*
X90608333Y-92477860D01*
X90608333Y-92477860D02*
X90596428Y-92454050D01*
X90596428Y-92454050D02*
X90584524Y-92406431D01*
X90584524Y-92406431D02*
X90584524Y-92370717D01*
X90584524Y-92370717D02*
X90596428Y-92323098D01*
X90596428Y-92323098D02*
X90608333Y-92299289D01*
X90608333Y-92299289D02*
X90632143Y-92275479D01*
X90632143Y-92275479D02*
X90667857Y-92263574D01*
X90667857Y-92263574D02*
X90691666Y-92263574D01*
X90691666Y-92263574D02*
X90727381Y-92275479D01*
X90727381Y-92275479D02*
X90739285Y-92287384D01*
X90953571Y-92263574D02*
X90905952Y-92263574D01*
X90905952Y-92263574D02*
X90882143Y-92275479D01*
X90882143Y-92275479D02*
X90870238Y-92287384D01*
X90870238Y-92287384D02*
X90846428Y-92323098D01*
X90846428Y-92323098D02*
X90834524Y-92370717D01*
X90834524Y-92370717D02*
X90834524Y-92465955D01*
X90834524Y-92465955D02*
X90846428Y-92489765D01*
X90846428Y-92489765D02*
X90858333Y-92501670D01*
X90858333Y-92501670D02*
X90882143Y-92513574D01*
X90882143Y-92513574D02*
X90929762Y-92513574D01*
X90929762Y-92513574D02*
X90953571Y-92501670D01*
X90953571Y-92501670D02*
X90965476Y-92489765D01*
X90965476Y-92489765D02*
X90977381Y-92465955D01*
X90977381Y-92465955D02*
X90977381Y-92406431D01*
X90977381Y-92406431D02*
X90965476Y-92382622D01*
X90965476Y-92382622D02*
X90953571Y-92370717D01*
X90953571Y-92370717D02*
X90929762Y-92358812D01*
X90929762Y-92358812D02*
X90882143Y-92358812D01*
X90882143Y-92358812D02*
X90858333Y-92370717D01*
X90858333Y-92370717D02*
X90846428Y-92382622D01*
X90846428Y-92382622D02*
X90834524Y-92406431D01*
X91215476Y-92513574D02*
X91072619Y-92513574D01*
X91144047Y-92513574D02*
X91144047Y-92263574D01*
X91144047Y-92263574D02*
X91120238Y-92299289D01*
X91120238Y-92299289D02*
X91096428Y-92323098D01*
X91096428Y-92323098D02*
X91072619Y-92335003D01*
X90739285Y-93489765D02*
X90727381Y-93501670D01*
X90727381Y-93501670D02*
X90691666Y-93513574D01*
X90691666Y-93513574D02*
X90667857Y-93513574D01*
X90667857Y-93513574D02*
X90632143Y-93501670D01*
X90632143Y-93501670D02*
X90608333Y-93477860D01*
X90608333Y-93477860D02*
X90596428Y-93454050D01*
X90596428Y-93454050D02*
X90584524Y-93406431D01*
X90584524Y-93406431D02*
X90584524Y-93370717D01*
X90584524Y-93370717D02*
X90596428Y-93323098D01*
X90596428Y-93323098D02*
X90608333Y-93299289D01*
X90608333Y-93299289D02*
X90632143Y-93275479D01*
X90632143Y-93275479D02*
X90667857Y-93263574D01*
X90667857Y-93263574D02*
X90691666Y-93263574D01*
X90691666Y-93263574D02*
X90727381Y-93275479D01*
X90727381Y-93275479D02*
X90739285Y-93287384D01*
X90953571Y-93263574D02*
X90905952Y-93263574D01*
X90905952Y-93263574D02*
X90882143Y-93275479D01*
X90882143Y-93275479D02*
X90870238Y-93287384D01*
X90870238Y-93287384D02*
X90846428Y-93323098D01*
X90846428Y-93323098D02*
X90834524Y-93370717D01*
X90834524Y-93370717D02*
X90834524Y-93465955D01*
X90834524Y-93465955D02*
X90846428Y-93489765D01*
X90846428Y-93489765D02*
X90858333Y-93501670D01*
X90858333Y-93501670D02*
X90882143Y-93513574D01*
X90882143Y-93513574D02*
X90929762Y-93513574D01*
X90929762Y-93513574D02*
X90953571Y-93501670D01*
X90953571Y-93501670D02*
X90965476Y-93489765D01*
X90965476Y-93489765D02*
X90977381Y-93465955D01*
X90977381Y-93465955D02*
X90977381Y-93406431D01*
X90977381Y-93406431D02*
X90965476Y-93382622D01*
X90965476Y-93382622D02*
X90953571Y-93370717D01*
X90953571Y-93370717D02*
X90929762Y-93358812D01*
X90929762Y-93358812D02*
X90882143Y-93358812D01*
X90882143Y-93358812D02*
X90858333Y-93370717D01*
X90858333Y-93370717D02*
X90846428Y-93382622D01*
X90846428Y-93382622D02*
X90834524Y-93406431D01*
X91132142Y-93263574D02*
X91155952Y-93263574D01*
X91155952Y-93263574D02*
X91179761Y-93275479D01*
X91179761Y-93275479D02*
X91191666Y-93287384D01*
X91191666Y-93287384D02*
X91203571Y-93311193D01*
X91203571Y-93311193D02*
X91215476Y-93358812D01*
X91215476Y-93358812D02*
X91215476Y-93418336D01*
X91215476Y-93418336D02*
X91203571Y-93465955D01*
X91203571Y-93465955D02*
X91191666Y-93489765D01*
X91191666Y-93489765D02*
X91179761Y-93501670D01*
X91179761Y-93501670D02*
X91155952Y-93513574D01*
X91155952Y-93513574D02*
X91132142Y-93513574D01*
X91132142Y-93513574D02*
X91108333Y-93501670D01*
X91108333Y-93501670D02*
X91096428Y-93489765D01*
X91096428Y-93489765D02*
X91084523Y-93465955D01*
X91084523Y-93465955D02*
X91072619Y-93418336D01*
X91072619Y-93418336D02*
X91072619Y-93358812D01*
X91072619Y-93358812D02*
X91084523Y-93311193D01*
X91084523Y-93311193D02*
X91096428Y-93287384D01*
X91096428Y-93287384D02*
X91108333Y-93275479D01*
X91108333Y-93275479D02*
X91132142Y-93263574D01*
X134632857Y-96418200D02*
X134546190Y-96294391D01*
X134484285Y-96418200D02*
X134484285Y-96158200D01*
X134484285Y-96158200D02*
X134583333Y-96158200D01*
X134583333Y-96158200D02*
X134608095Y-96170581D01*
X134608095Y-96170581D02*
X134620476Y-96182962D01*
X134620476Y-96182962D02*
X134632857Y-96207724D01*
X134632857Y-96207724D02*
X134632857Y-96244867D01*
X134632857Y-96244867D02*
X134620476Y-96269629D01*
X134620476Y-96269629D02*
X134608095Y-96282010D01*
X134608095Y-96282010D02*
X134583333Y-96294391D01*
X134583333Y-96294391D02*
X134484285Y-96294391D01*
X134731904Y-96182962D02*
X134744285Y-96170581D01*
X134744285Y-96170581D02*
X134769047Y-96158200D01*
X134769047Y-96158200D02*
X134830952Y-96158200D01*
X134830952Y-96158200D02*
X134855714Y-96170581D01*
X134855714Y-96170581D02*
X134868095Y-96182962D01*
X134868095Y-96182962D02*
X134880476Y-96207724D01*
X134880476Y-96207724D02*
X134880476Y-96232486D01*
X134880476Y-96232486D02*
X134868095Y-96269629D01*
X134868095Y-96269629D02*
X134719523Y-96418200D01*
X134719523Y-96418200D02*
X134880476Y-96418200D01*
X135103333Y-96158200D02*
X135053809Y-96158200D01*
X135053809Y-96158200D02*
X135029047Y-96170581D01*
X135029047Y-96170581D02*
X135016666Y-96182962D01*
X135016666Y-96182962D02*
X134991904Y-96220105D01*
X134991904Y-96220105D02*
X134979523Y-96269629D01*
X134979523Y-96269629D02*
X134979523Y-96368677D01*
X134979523Y-96368677D02*
X134991904Y-96393439D01*
X134991904Y-96393439D02*
X135004285Y-96405820D01*
X135004285Y-96405820D02*
X135029047Y-96418200D01*
X135029047Y-96418200D02*
X135078571Y-96418200D01*
X135078571Y-96418200D02*
X135103333Y-96405820D01*
X135103333Y-96405820D02*
X135115714Y-96393439D01*
X135115714Y-96393439D02*
X135128095Y-96368677D01*
X135128095Y-96368677D02*
X135128095Y-96306772D01*
X135128095Y-96306772D02*
X135115714Y-96282010D01*
X135115714Y-96282010D02*
X135103333Y-96269629D01*
X135103333Y-96269629D02*
X135078571Y-96257248D01*
X135078571Y-96257248D02*
X135029047Y-96257248D01*
X135029047Y-96257248D02*
X135004285Y-96269629D01*
X135004285Y-96269629D02*
X134991904Y-96282010D01*
X134991904Y-96282010D02*
X134979523Y-96306772D01*
X128389765Y-88910714D02*
X128401670Y-88922618D01*
X128401670Y-88922618D02*
X128413574Y-88958333D01*
X128413574Y-88958333D02*
X128413574Y-88982142D01*
X128413574Y-88982142D02*
X128401670Y-89017856D01*
X128401670Y-89017856D02*
X128377860Y-89041666D01*
X128377860Y-89041666D02*
X128354050Y-89053571D01*
X128354050Y-89053571D02*
X128306431Y-89065475D01*
X128306431Y-89065475D02*
X128270717Y-89065475D01*
X128270717Y-89065475D02*
X128223098Y-89053571D01*
X128223098Y-89053571D02*
X128199289Y-89041666D01*
X128199289Y-89041666D02*
X128175479Y-89017856D01*
X128175479Y-89017856D02*
X128163574Y-88982142D01*
X128163574Y-88982142D02*
X128163574Y-88958333D01*
X128163574Y-88958333D02*
X128175479Y-88922618D01*
X128175479Y-88922618D02*
X128187384Y-88910714D01*
X128413574Y-88672618D02*
X128413574Y-88815475D01*
X128413574Y-88744047D02*
X128163574Y-88744047D01*
X128163574Y-88744047D02*
X128199289Y-88767856D01*
X128199289Y-88767856D02*
X128223098Y-88791666D01*
X128223098Y-88791666D02*
X128235003Y-88815475D01*
X128270717Y-88529761D02*
X128258812Y-88553571D01*
X128258812Y-88553571D02*
X128246908Y-88565476D01*
X128246908Y-88565476D02*
X128223098Y-88577380D01*
X128223098Y-88577380D02*
X128211193Y-88577380D01*
X128211193Y-88577380D02*
X128187384Y-88565476D01*
X128187384Y-88565476D02*
X128175479Y-88553571D01*
X128175479Y-88553571D02*
X128163574Y-88529761D01*
X128163574Y-88529761D02*
X128163574Y-88482142D01*
X128163574Y-88482142D02*
X128175479Y-88458333D01*
X128175479Y-88458333D02*
X128187384Y-88446428D01*
X128187384Y-88446428D02*
X128211193Y-88434523D01*
X128211193Y-88434523D02*
X128223098Y-88434523D01*
X128223098Y-88434523D02*
X128246908Y-88446428D01*
X128246908Y-88446428D02*
X128258812Y-88458333D01*
X128258812Y-88458333D02*
X128270717Y-88482142D01*
X128270717Y-88482142D02*
X128270717Y-88529761D01*
X128270717Y-88529761D02*
X128282622Y-88553571D01*
X128282622Y-88553571D02*
X128294527Y-88565476D01*
X128294527Y-88565476D02*
X128318336Y-88577380D01*
X128318336Y-88577380D02*
X128365955Y-88577380D01*
X128365955Y-88577380D02*
X128389765Y-88565476D01*
X128389765Y-88565476D02*
X128401670Y-88553571D01*
X128401670Y-88553571D02*
X128413574Y-88529761D01*
X128413574Y-88529761D02*
X128413574Y-88482142D01*
X128413574Y-88482142D02*
X128401670Y-88458333D01*
X128401670Y-88458333D02*
X128389765Y-88446428D01*
X128389765Y-88446428D02*
X128365955Y-88434523D01*
X128365955Y-88434523D02*
X128318336Y-88434523D01*
X128318336Y-88434523D02*
X128294527Y-88446428D01*
X128294527Y-88446428D02*
X128282622Y-88458333D01*
X128282622Y-88458333D02*
X128270717Y-88482142D01*
X119318200Y-98167142D02*
X119194391Y-98253809D01*
X119318200Y-98315714D02*
X119058200Y-98315714D01*
X119058200Y-98315714D02*
X119058200Y-98216666D01*
X119058200Y-98216666D02*
X119070581Y-98191904D01*
X119070581Y-98191904D02*
X119082962Y-98179523D01*
X119082962Y-98179523D02*
X119107724Y-98167142D01*
X119107724Y-98167142D02*
X119144867Y-98167142D01*
X119144867Y-98167142D02*
X119169629Y-98179523D01*
X119169629Y-98179523D02*
X119182010Y-98191904D01*
X119182010Y-98191904D02*
X119194391Y-98216666D01*
X119194391Y-98216666D02*
X119194391Y-98315714D01*
X119082962Y-98068095D02*
X119070581Y-98055714D01*
X119070581Y-98055714D02*
X119058200Y-98030952D01*
X119058200Y-98030952D02*
X119058200Y-97969047D01*
X119058200Y-97969047D02*
X119070581Y-97944285D01*
X119070581Y-97944285D02*
X119082962Y-97931904D01*
X119082962Y-97931904D02*
X119107724Y-97919523D01*
X119107724Y-97919523D02*
X119132486Y-97919523D01*
X119132486Y-97919523D02*
X119169629Y-97931904D01*
X119169629Y-97931904D02*
X119318200Y-98080476D01*
X119318200Y-98080476D02*
X119318200Y-97919523D01*
X119144867Y-97696666D02*
X119318200Y-97696666D01*
X119045820Y-97758571D02*
X119231534Y-97820476D01*
X119231534Y-97820476D02*
X119231534Y-97659523D01*
X127418200Y-88917142D02*
X127294391Y-89003809D01*
X127418200Y-89065714D02*
X127158200Y-89065714D01*
X127158200Y-89065714D02*
X127158200Y-88966666D01*
X127158200Y-88966666D02*
X127170581Y-88941904D01*
X127170581Y-88941904D02*
X127182962Y-88929523D01*
X127182962Y-88929523D02*
X127207724Y-88917142D01*
X127207724Y-88917142D02*
X127244867Y-88917142D01*
X127244867Y-88917142D02*
X127269629Y-88929523D01*
X127269629Y-88929523D02*
X127282010Y-88941904D01*
X127282010Y-88941904D02*
X127294391Y-88966666D01*
X127294391Y-88966666D02*
X127294391Y-89065714D01*
X127182962Y-88818095D02*
X127170581Y-88805714D01*
X127170581Y-88805714D02*
X127158200Y-88780952D01*
X127158200Y-88780952D02*
X127158200Y-88719047D01*
X127158200Y-88719047D02*
X127170581Y-88694285D01*
X127170581Y-88694285D02*
X127182962Y-88681904D01*
X127182962Y-88681904D02*
X127207724Y-88669523D01*
X127207724Y-88669523D02*
X127232486Y-88669523D01*
X127232486Y-88669523D02*
X127269629Y-88681904D01*
X127269629Y-88681904D02*
X127418200Y-88830476D01*
X127418200Y-88830476D02*
X127418200Y-88669523D01*
X127158200Y-88434285D02*
X127158200Y-88558095D01*
X127158200Y-88558095D02*
X127282010Y-88570476D01*
X127282010Y-88570476D02*
X127269629Y-88558095D01*
X127269629Y-88558095D02*
X127257248Y-88533333D01*
X127257248Y-88533333D02*
X127257248Y-88471428D01*
X127257248Y-88471428D02*
X127269629Y-88446666D01*
X127269629Y-88446666D02*
X127282010Y-88434285D01*
X127282010Y-88434285D02*
X127306772Y-88421904D01*
X127306772Y-88421904D02*
X127368677Y-88421904D01*
X127368677Y-88421904D02*
X127393439Y-88434285D01*
X127393439Y-88434285D02*
X127405820Y-88446666D01*
X127405820Y-88446666D02*
X127418200Y-88471428D01*
X127418200Y-88471428D02*
X127418200Y-88533333D01*
X127418200Y-88533333D02*
X127405820Y-88558095D01*
X127405820Y-88558095D02*
X127393439Y-88570476D01*
X88989765Y-98360714D02*
X89001670Y-98372618D01*
X89001670Y-98372618D02*
X89013574Y-98408333D01*
X89013574Y-98408333D02*
X89013574Y-98432142D01*
X89013574Y-98432142D02*
X89001670Y-98467856D01*
X89001670Y-98467856D02*
X88977860Y-98491666D01*
X88977860Y-98491666D02*
X88954050Y-98503571D01*
X88954050Y-98503571D02*
X88906431Y-98515475D01*
X88906431Y-98515475D02*
X88870717Y-98515475D01*
X88870717Y-98515475D02*
X88823098Y-98503571D01*
X88823098Y-98503571D02*
X88799289Y-98491666D01*
X88799289Y-98491666D02*
X88775479Y-98467856D01*
X88775479Y-98467856D02*
X88763574Y-98432142D01*
X88763574Y-98432142D02*
X88763574Y-98408333D01*
X88763574Y-98408333D02*
X88775479Y-98372618D01*
X88775479Y-98372618D02*
X88787384Y-98360714D01*
X88763574Y-98146428D02*
X88763574Y-98194047D01*
X88763574Y-98194047D02*
X88775479Y-98217856D01*
X88775479Y-98217856D02*
X88787384Y-98229761D01*
X88787384Y-98229761D02*
X88823098Y-98253571D01*
X88823098Y-98253571D02*
X88870717Y-98265475D01*
X88870717Y-98265475D02*
X88965955Y-98265475D01*
X88965955Y-98265475D02*
X88989765Y-98253571D01*
X88989765Y-98253571D02*
X89001670Y-98241666D01*
X89001670Y-98241666D02*
X89013574Y-98217856D01*
X89013574Y-98217856D02*
X89013574Y-98170237D01*
X89013574Y-98170237D02*
X89001670Y-98146428D01*
X89001670Y-98146428D02*
X88989765Y-98134523D01*
X88989765Y-98134523D02*
X88965955Y-98122618D01*
X88965955Y-98122618D02*
X88906431Y-98122618D01*
X88906431Y-98122618D02*
X88882622Y-98134523D01*
X88882622Y-98134523D02*
X88870717Y-98146428D01*
X88870717Y-98146428D02*
X88858812Y-98170237D01*
X88858812Y-98170237D02*
X88858812Y-98217856D01*
X88858812Y-98217856D02*
X88870717Y-98241666D01*
X88870717Y-98241666D02*
X88882622Y-98253571D01*
X88882622Y-98253571D02*
X88906431Y-98265475D01*
X88763574Y-97908333D02*
X88763574Y-97955952D01*
X88763574Y-97955952D02*
X88775479Y-97979761D01*
X88775479Y-97979761D02*
X88787384Y-97991666D01*
X88787384Y-97991666D02*
X88823098Y-98015476D01*
X88823098Y-98015476D02*
X88870717Y-98027380D01*
X88870717Y-98027380D02*
X88965955Y-98027380D01*
X88965955Y-98027380D02*
X88989765Y-98015476D01*
X88989765Y-98015476D02*
X89001670Y-98003571D01*
X89001670Y-98003571D02*
X89013574Y-97979761D01*
X89013574Y-97979761D02*
X89013574Y-97932142D01*
X89013574Y-97932142D02*
X89001670Y-97908333D01*
X89001670Y-97908333D02*
X88989765Y-97896428D01*
X88989765Y-97896428D02*
X88965955Y-97884523D01*
X88965955Y-97884523D02*
X88906431Y-97884523D01*
X88906431Y-97884523D02*
X88882622Y-97896428D01*
X88882622Y-97896428D02*
X88870717Y-97908333D01*
X88870717Y-97908333D02*
X88858812Y-97932142D01*
X88858812Y-97932142D02*
X88858812Y-97979761D01*
X88858812Y-97979761D02*
X88870717Y-98003571D01*
X88870717Y-98003571D02*
X88882622Y-98015476D01*
X88882622Y-98015476D02*
X88906431Y-98027380D01*
X165489765Y-91360714D02*
X165501670Y-91372618D01*
X165501670Y-91372618D02*
X165513574Y-91408333D01*
X165513574Y-91408333D02*
X165513574Y-91432142D01*
X165513574Y-91432142D02*
X165501670Y-91467856D01*
X165501670Y-91467856D02*
X165477860Y-91491666D01*
X165477860Y-91491666D02*
X165454050Y-91503571D01*
X165454050Y-91503571D02*
X165406431Y-91515475D01*
X165406431Y-91515475D02*
X165370717Y-91515475D01*
X165370717Y-91515475D02*
X165323098Y-91503571D01*
X165323098Y-91503571D02*
X165299289Y-91491666D01*
X165299289Y-91491666D02*
X165275479Y-91467856D01*
X165275479Y-91467856D02*
X165263574Y-91432142D01*
X165263574Y-91432142D02*
X165263574Y-91408333D01*
X165263574Y-91408333D02*
X165275479Y-91372618D01*
X165275479Y-91372618D02*
X165287384Y-91360714D01*
X165263574Y-91134523D02*
X165263574Y-91253571D01*
X165263574Y-91253571D02*
X165382622Y-91265475D01*
X165382622Y-91265475D02*
X165370717Y-91253571D01*
X165370717Y-91253571D02*
X165358812Y-91229761D01*
X165358812Y-91229761D02*
X165358812Y-91170237D01*
X165358812Y-91170237D02*
X165370717Y-91146428D01*
X165370717Y-91146428D02*
X165382622Y-91134523D01*
X165382622Y-91134523D02*
X165406431Y-91122618D01*
X165406431Y-91122618D02*
X165465955Y-91122618D01*
X165465955Y-91122618D02*
X165489765Y-91134523D01*
X165489765Y-91134523D02*
X165501670Y-91146428D01*
X165501670Y-91146428D02*
X165513574Y-91170237D01*
X165513574Y-91170237D02*
X165513574Y-91229761D01*
X165513574Y-91229761D02*
X165501670Y-91253571D01*
X165501670Y-91253571D02*
X165489765Y-91265475D01*
X165263574Y-91039285D02*
X165263574Y-90884523D01*
X165263574Y-90884523D02*
X165358812Y-90967857D01*
X165358812Y-90967857D02*
X165358812Y-90932142D01*
X165358812Y-90932142D02*
X165370717Y-90908333D01*
X165370717Y-90908333D02*
X165382622Y-90896428D01*
X165382622Y-90896428D02*
X165406431Y-90884523D01*
X165406431Y-90884523D02*
X165465955Y-90884523D01*
X165465955Y-90884523D02*
X165489765Y-90896428D01*
X165489765Y-90896428D02*
X165501670Y-90908333D01*
X165501670Y-90908333D02*
X165513574Y-90932142D01*
X165513574Y-90932142D02*
X165513574Y-91003571D01*
X165513574Y-91003571D02*
X165501670Y-91027380D01*
X165501670Y-91027380D02*
X165489765Y-91039285D01*
X119089765Y-103760714D02*
X119101670Y-103772618D01*
X119101670Y-103772618D02*
X119113574Y-103808333D01*
X119113574Y-103808333D02*
X119113574Y-103832142D01*
X119113574Y-103832142D02*
X119101670Y-103867856D01*
X119101670Y-103867856D02*
X119077860Y-103891666D01*
X119077860Y-103891666D02*
X119054050Y-103903571D01*
X119054050Y-103903571D02*
X119006431Y-103915475D01*
X119006431Y-103915475D02*
X118970717Y-103915475D01*
X118970717Y-103915475D02*
X118923098Y-103903571D01*
X118923098Y-103903571D02*
X118899289Y-103891666D01*
X118899289Y-103891666D02*
X118875479Y-103867856D01*
X118875479Y-103867856D02*
X118863574Y-103832142D01*
X118863574Y-103832142D02*
X118863574Y-103808333D01*
X118863574Y-103808333D02*
X118875479Y-103772618D01*
X118875479Y-103772618D02*
X118887384Y-103760714D01*
X118863574Y-103534523D02*
X118863574Y-103653571D01*
X118863574Y-103653571D02*
X118982622Y-103665475D01*
X118982622Y-103665475D02*
X118970717Y-103653571D01*
X118970717Y-103653571D02*
X118958812Y-103629761D01*
X118958812Y-103629761D02*
X118958812Y-103570237D01*
X118958812Y-103570237D02*
X118970717Y-103546428D01*
X118970717Y-103546428D02*
X118982622Y-103534523D01*
X118982622Y-103534523D02*
X119006431Y-103522618D01*
X119006431Y-103522618D02*
X119065955Y-103522618D01*
X119065955Y-103522618D02*
X119089765Y-103534523D01*
X119089765Y-103534523D02*
X119101670Y-103546428D01*
X119101670Y-103546428D02*
X119113574Y-103570237D01*
X119113574Y-103570237D02*
X119113574Y-103629761D01*
X119113574Y-103629761D02*
X119101670Y-103653571D01*
X119101670Y-103653571D02*
X119089765Y-103665475D01*
X118946908Y-103308333D02*
X119113574Y-103308333D01*
X118851670Y-103367857D02*
X119030241Y-103427380D01*
X119030241Y-103427380D02*
X119030241Y-103272619D01*
D14*
X83959649Y-90111333D02*
X83959649Y-90349428D01*
X83959649Y-90349428D02*
X83459649Y-90349428D01*
X83459649Y-89992285D02*
X83459649Y-89658952D01*
X83459649Y-89658952D02*
X83959649Y-89873237D01*
D10*
X89989765Y-98360714D02*
X90001670Y-98372618D01*
X90001670Y-98372618D02*
X90013574Y-98408333D01*
X90013574Y-98408333D02*
X90013574Y-98432142D01*
X90013574Y-98432142D02*
X90001670Y-98467856D01*
X90001670Y-98467856D02*
X89977860Y-98491666D01*
X89977860Y-98491666D02*
X89954050Y-98503571D01*
X89954050Y-98503571D02*
X89906431Y-98515475D01*
X89906431Y-98515475D02*
X89870717Y-98515475D01*
X89870717Y-98515475D02*
X89823098Y-98503571D01*
X89823098Y-98503571D02*
X89799289Y-98491666D01*
X89799289Y-98491666D02*
X89775479Y-98467856D01*
X89775479Y-98467856D02*
X89763574Y-98432142D01*
X89763574Y-98432142D02*
X89763574Y-98408333D01*
X89763574Y-98408333D02*
X89775479Y-98372618D01*
X89775479Y-98372618D02*
X89787384Y-98360714D01*
X89763574Y-98146428D02*
X89763574Y-98194047D01*
X89763574Y-98194047D02*
X89775479Y-98217856D01*
X89775479Y-98217856D02*
X89787384Y-98229761D01*
X89787384Y-98229761D02*
X89823098Y-98253571D01*
X89823098Y-98253571D02*
X89870717Y-98265475D01*
X89870717Y-98265475D02*
X89965955Y-98265475D01*
X89965955Y-98265475D02*
X89989765Y-98253571D01*
X89989765Y-98253571D02*
X90001670Y-98241666D01*
X90001670Y-98241666D02*
X90013574Y-98217856D01*
X90013574Y-98217856D02*
X90013574Y-98170237D01*
X90013574Y-98170237D02*
X90001670Y-98146428D01*
X90001670Y-98146428D02*
X89989765Y-98134523D01*
X89989765Y-98134523D02*
X89965955Y-98122618D01*
X89965955Y-98122618D02*
X89906431Y-98122618D01*
X89906431Y-98122618D02*
X89882622Y-98134523D01*
X89882622Y-98134523D02*
X89870717Y-98146428D01*
X89870717Y-98146428D02*
X89858812Y-98170237D01*
X89858812Y-98170237D02*
X89858812Y-98217856D01*
X89858812Y-98217856D02*
X89870717Y-98241666D01*
X89870717Y-98241666D02*
X89882622Y-98253571D01*
X89882622Y-98253571D02*
X89906431Y-98265475D01*
X90013574Y-98003571D02*
X90013574Y-97955952D01*
X90013574Y-97955952D02*
X90001670Y-97932142D01*
X90001670Y-97932142D02*
X89989765Y-97920238D01*
X89989765Y-97920238D02*
X89954050Y-97896428D01*
X89954050Y-97896428D02*
X89906431Y-97884523D01*
X89906431Y-97884523D02*
X89811193Y-97884523D01*
X89811193Y-97884523D02*
X89787384Y-97896428D01*
X89787384Y-97896428D02*
X89775479Y-97908333D01*
X89775479Y-97908333D02*
X89763574Y-97932142D01*
X89763574Y-97932142D02*
X89763574Y-97979761D01*
X89763574Y-97979761D02*
X89775479Y-98003571D01*
X89775479Y-98003571D02*
X89787384Y-98015476D01*
X89787384Y-98015476D02*
X89811193Y-98027380D01*
X89811193Y-98027380D02*
X89870717Y-98027380D01*
X89870717Y-98027380D02*
X89894527Y-98015476D01*
X89894527Y-98015476D02*
X89906431Y-98003571D01*
X89906431Y-98003571D02*
X89918336Y-97979761D01*
X89918336Y-97979761D02*
X89918336Y-97932142D01*
X89918336Y-97932142D02*
X89906431Y-97908333D01*
X89906431Y-97908333D02*
X89894527Y-97896428D01*
X89894527Y-97896428D02*
X89870717Y-97884523D01*
X130018200Y-101117142D02*
X129894391Y-101203809D01*
X130018200Y-101265714D02*
X129758200Y-101265714D01*
X129758200Y-101265714D02*
X129758200Y-101166666D01*
X129758200Y-101166666D02*
X129770581Y-101141904D01*
X129770581Y-101141904D02*
X129782962Y-101129523D01*
X129782962Y-101129523D02*
X129807724Y-101117142D01*
X129807724Y-101117142D02*
X129844867Y-101117142D01*
X129844867Y-101117142D02*
X129869629Y-101129523D01*
X129869629Y-101129523D02*
X129882010Y-101141904D01*
X129882010Y-101141904D02*
X129894391Y-101166666D01*
X129894391Y-101166666D02*
X129894391Y-101265714D01*
X130018200Y-100869523D02*
X130018200Y-101018095D01*
X130018200Y-100943809D02*
X129758200Y-100943809D01*
X129758200Y-100943809D02*
X129795343Y-100968571D01*
X129795343Y-100968571D02*
X129820105Y-100993333D01*
X129820105Y-100993333D02*
X129832486Y-101018095D01*
X129758200Y-100646666D02*
X129758200Y-100696190D01*
X129758200Y-100696190D02*
X129770581Y-100720952D01*
X129770581Y-100720952D02*
X129782962Y-100733333D01*
X129782962Y-100733333D02*
X129820105Y-100758095D01*
X129820105Y-100758095D02*
X129869629Y-100770476D01*
X129869629Y-100770476D02*
X129968677Y-100770476D01*
X129968677Y-100770476D02*
X129993439Y-100758095D01*
X129993439Y-100758095D02*
X130005820Y-100745714D01*
X130005820Y-100745714D02*
X130018200Y-100720952D01*
X130018200Y-100720952D02*
X130018200Y-100671428D01*
X130018200Y-100671428D02*
X130005820Y-100646666D01*
X130005820Y-100646666D02*
X129993439Y-100634285D01*
X129993439Y-100634285D02*
X129968677Y-100621904D01*
X129968677Y-100621904D02*
X129906772Y-100621904D01*
X129906772Y-100621904D02*
X129882010Y-100634285D01*
X129882010Y-100634285D02*
X129869629Y-100646666D01*
X129869629Y-100646666D02*
X129857248Y-100671428D01*
X129857248Y-100671428D02*
X129857248Y-100720952D01*
X129857248Y-100720952D02*
X129869629Y-100745714D01*
X129869629Y-100745714D02*
X129882010Y-100758095D01*
X129882010Y-100758095D02*
X129906772Y-100770476D01*
D12*
X106741666Y-92204819D02*
X107313094Y-92204819D01*
X107027380Y-93204819D02*
X107027380Y-92204819D01*
X108027380Y-93157200D02*
X107932142Y-93204819D01*
X107932142Y-93204819D02*
X107741666Y-93204819D01*
X107741666Y-93204819D02*
X107646428Y-93157200D01*
X107646428Y-93157200D02*
X107598809Y-93061961D01*
X107598809Y-93061961D02*
X107598809Y-92681009D01*
X107598809Y-92681009D02*
X107646428Y-92585771D01*
X107646428Y-92585771D02*
X107741666Y-92538152D01*
X107741666Y-92538152D02*
X107932142Y-92538152D01*
X107932142Y-92538152D02*
X108027380Y-92585771D01*
X108027380Y-92585771D02*
X108074999Y-92681009D01*
X108074999Y-92681009D02*
X108074999Y-92776247D01*
X108074999Y-92776247D02*
X107598809Y-92871485D01*
X108455952Y-93157200D02*
X108551190Y-93204819D01*
X108551190Y-93204819D02*
X108741666Y-93204819D01*
X108741666Y-93204819D02*
X108836904Y-93157200D01*
X108836904Y-93157200D02*
X108884523Y-93061961D01*
X108884523Y-93061961D02*
X108884523Y-93014342D01*
X108884523Y-93014342D02*
X108836904Y-92919104D01*
X108836904Y-92919104D02*
X108741666Y-92871485D01*
X108741666Y-92871485D02*
X108598809Y-92871485D01*
X108598809Y-92871485D02*
X108503571Y-92823866D01*
X108503571Y-92823866D02*
X108455952Y-92728628D01*
X108455952Y-92728628D02*
X108455952Y-92681009D01*
X108455952Y-92681009D02*
X108503571Y-92585771D01*
X108503571Y-92585771D02*
X108598809Y-92538152D01*
X108598809Y-92538152D02*
X108741666Y-92538152D01*
X108741666Y-92538152D02*
X108836904Y-92585771D01*
X109170238Y-92538152D02*
X109551190Y-92538152D01*
X109313095Y-92204819D02*
X109313095Y-93061961D01*
X109313095Y-93061961D02*
X109360714Y-93157200D01*
X109360714Y-93157200D02*
X109455952Y-93204819D01*
X109455952Y-93204819D02*
X109551190Y-93204819D01*
X109884524Y-93204819D02*
X109884524Y-92204819D01*
X109884524Y-92204819D02*
X110265476Y-92204819D01*
X110265476Y-92204819D02*
X110360714Y-92252438D01*
X110360714Y-92252438D02*
X110408333Y-92300057D01*
X110408333Y-92300057D02*
X110455952Y-92395295D01*
X110455952Y-92395295D02*
X110455952Y-92538152D01*
X110455952Y-92538152D02*
X110408333Y-92633390D01*
X110408333Y-92633390D02*
X110360714Y-92681009D01*
X110360714Y-92681009D02*
X110265476Y-92728628D01*
X110265476Y-92728628D02*
X109884524Y-92728628D01*
X111027381Y-93204819D02*
X110932143Y-93157200D01*
X110932143Y-93157200D02*
X110884524Y-93109580D01*
X110884524Y-93109580D02*
X110836905Y-93014342D01*
X110836905Y-93014342D02*
X110836905Y-92728628D01*
X110836905Y-92728628D02*
X110884524Y-92633390D01*
X110884524Y-92633390D02*
X110932143Y-92585771D01*
X110932143Y-92585771D02*
X111027381Y-92538152D01*
X111027381Y-92538152D02*
X111170238Y-92538152D01*
X111170238Y-92538152D02*
X111265476Y-92585771D01*
X111265476Y-92585771D02*
X111313095Y-92633390D01*
X111313095Y-92633390D02*
X111360714Y-92728628D01*
X111360714Y-92728628D02*
X111360714Y-93014342D01*
X111360714Y-93014342D02*
X111313095Y-93109580D01*
X111313095Y-93109580D02*
X111265476Y-93157200D01*
X111265476Y-93157200D02*
X111170238Y-93204819D01*
X111170238Y-93204819D02*
X111027381Y-93204819D01*
X111789286Y-93204819D02*
X111789286Y-92538152D01*
X111789286Y-92204819D02*
X111741667Y-92252438D01*
X111741667Y-92252438D02*
X111789286Y-92300057D01*
X111789286Y-92300057D02*
X111836905Y-92252438D01*
X111836905Y-92252438D02*
X111789286Y-92204819D01*
X111789286Y-92204819D02*
X111789286Y-92300057D01*
X112265476Y-92538152D02*
X112265476Y-93204819D01*
X112265476Y-92633390D02*
X112313095Y-92585771D01*
X112313095Y-92585771D02*
X112408333Y-92538152D01*
X112408333Y-92538152D02*
X112551190Y-92538152D01*
X112551190Y-92538152D02*
X112646428Y-92585771D01*
X112646428Y-92585771D02*
X112694047Y-92681009D01*
X112694047Y-92681009D02*
X112694047Y-93204819D01*
X113027381Y-92538152D02*
X113408333Y-92538152D01*
X113170238Y-92204819D02*
X113170238Y-93061961D01*
X113170238Y-93061961D02*
X113217857Y-93157200D01*
X113217857Y-93157200D02*
X113313095Y-93204819D01*
X113313095Y-93204819D02*
X113408333Y-93204819D01*
X108813095Y-89204819D02*
X109384523Y-89204819D01*
X109098809Y-90204819D02*
X109098809Y-89204819D01*
X109717857Y-90204819D02*
X109717857Y-89204819D01*
X109717857Y-89204819D02*
X110098809Y-89204819D01*
X110098809Y-89204819D02*
X110194047Y-89252438D01*
X110194047Y-89252438D02*
X110241666Y-89300057D01*
X110241666Y-89300057D02*
X110289285Y-89395295D01*
X110289285Y-89395295D02*
X110289285Y-89538152D01*
X110289285Y-89538152D02*
X110241666Y-89633390D01*
X110241666Y-89633390D02*
X110194047Y-89681009D01*
X110194047Y-89681009D02*
X110098809Y-89728628D01*
X110098809Y-89728628D02*
X109717857Y-89728628D01*
X110622619Y-89204819D02*
X111241666Y-89204819D01*
X111241666Y-89204819D02*
X110908333Y-89585771D01*
X110908333Y-89585771D02*
X111051190Y-89585771D01*
X111051190Y-89585771D02*
X111146428Y-89633390D01*
X111146428Y-89633390D02*
X111194047Y-89681009D01*
X111194047Y-89681009D02*
X111241666Y-89776247D01*
X111241666Y-89776247D02*
X111241666Y-90014342D01*
X111241666Y-90014342D02*
X111194047Y-90109580D01*
X111194047Y-90109580D02*
X111146428Y-90157200D01*
X111146428Y-90157200D02*
X111051190Y-90204819D01*
X111051190Y-90204819D02*
X110765476Y-90204819D01*
X110765476Y-90204819D02*
X110670238Y-90157200D01*
X110670238Y-90157200D02*
X110622619Y-90109580D01*
D13*
X121581547Y-103677409D02*
X121581547Y-104082171D01*
X121581547Y-104082171D02*
X121605357Y-104129790D01*
X121605357Y-104129790D02*
X121629166Y-104153600D01*
X121629166Y-104153600D02*
X121676785Y-104177409D01*
X121676785Y-104177409D02*
X121772023Y-104177409D01*
X121772023Y-104177409D02*
X121819642Y-104153600D01*
X121819642Y-104153600D02*
X121843452Y-104129790D01*
X121843452Y-104129790D02*
X121867261Y-104082171D01*
X121867261Y-104082171D02*
X121867261Y-103677409D01*
X122176786Y-103891695D02*
X122129167Y-103867885D01*
X122129167Y-103867885D02*
X122105357Y-103844076D01*
X122105357Y-103844076D02*
X122081548Y-103796457D01*
X122081548Y-103796457D02*
X122081548Y-103772647D01*
X122081548Y-103772647D02*
X122105357Y-103725028D01*
X122105357Y-103725028D02*
X122129167Y-103701219D01*
X122129167Y-103701219D02*
X122176786Y-103677409D01*
X122176786Y-103677409D02*
X122272024Y-103677409D01*
X122272024Y-103677409D02*
X122319643Y-103701219D01*
X122319643Y-103701219D02*
X122343452Y-103725028D01*
X122343452Y-103725028D02*
X122367262Y-103772647D01*
X122367262Y-103772647D02*
X122367262Y-103796457D01*
X122367262Y-103796457D02*
X122343452Y-103844076D01*
X122343452Y-103844076D02*
X122319643Y-103867885D01*
X122319643Y-103867885D02*
X122272024Y-103891695D01*
X122272024Y-103891695D02*
X122176786Y-103891695D01*
X122176786Y-103891695D02*
X122129167Y-103915504D01*
X122129167Y-103915504D02*
X122105357Y-103939314D01*
X122105357Y-103939314D02*
X122081548Y-103986933D01*
X122081548Y-103986933D02*
X122081548Y-104082171D01*
X122081548Y-104082171D02*
X122105357Y-104129790D01*
X122105357Y-104129790D02*
X122129167Y-104153600D01*
X122129167Y-104153600D02*
X122176786Y-104177409D01*
X122176786Y-104177409D02*
X122272024Y-104177409D01*
X122272024Y-104177409D02*
X122319643Y-104153600D01*
X122319643Y-104153600D02*
X122343452Y-104129790D01*
X122343452Y-104129790D02*
X122367262Y-104082171D01*
X122367262Y-104082171D02*
X122367262Y-103986933D01*
X122367262Y-103986933D02*
X122343452Y-103939314D01*
X122343452Y-103939314D02*
X122319643Y-103915504D01*
X122319643Y-103915504D02*
X122272024Y-103891695D01*
D10*
X134639285Y-93039765D02*
X134627381Y-93051670D01*
X134627381Y-93051670D02*
X134591666Y-93063574D01*
X134591666Y-93063574D02*
X134567857Y-93063574D01*
X134567857Y-93063574D02*
X134532143Y-93051670D01*
X134532143Y-93051670D02*
X134508333Y-93027860D01*
X134508333Y-93027860D02*
X134496428Y-93004050D01*
X134496428Y-93004050D02*
X134484524Y-92956431D01*
X134484524Y-92956431D02*
X134484524Y-92920717D01*
X134484524Y-92920717D02*
X134496428Y-92873098D01*
X134496428Y-92873098D02*
X134508333Y-92849289D01*
X134508333Y-92849289D02*
X134532143Y-92825479D01*
X134532143Y-92825479D02*
X134567857Y-92813574D01*
X134567857Y-92813574D02*
X134591666Y-92813574D01*
X134591666Y-92813574D02*
X134627381Y-92825479D01*
X134627381Y-92825479D02*
X134639285Y-92837384D01*
X134734524Y-92837384D02*
X134746428Y-92825479D01*
X134746428Y-92825479D02*
X134770238Y-92813574D01*
X134770238Y-92813574D02*
X134829762Y-92813574D01*
X134829762Y-92813574D02*
X134853571Y-92825479D01*
X134853571Y-92825479D02*
X134865476Y-92837384D01*
X134865476Y-92837384D02*
X134877381Y-92861193D01*
X134877381Y-92861193D02*
X134877381Y-92885003D01*
X134877381Y-92885003D02*
X134865476Y-92920717D01*
X134865476Y-92920717D02*
X134722619Y-93063574D01*
X134722619Y-93063574D02*
X134877381Y-93063574D01*
X135032142Y-92813574D02*
X135055952Y-92813574D01*
X135055952Y-92813574D02*
X135079761Y-92825479D01*
X135079761Y-92825479D02*
X135091666Y-92837384D01*
X135091666Y-92837384D02*
X135103571Y-92861193D01*
X135103571Y-92861193D02*
X135115476Y-92908812D01*
X135115476Y-92908812D02*
X135115476Y-92968336D01*
X135115476Y-92968336D02*
X135103571Y-93015955D01*
X135103571Y-93015955D02*
X135091666Y-93039765D01*
X135091666Y-93039765D02*
X135079761Y-93051670D01*
X135079761Y-93051670D02*
X135055952Y-93063574D01*
X135055952Y-93063574D02*
X135032142Y-93063574D01*
X135032142Y-93063574D02*
X135008333Y-93051670D01*
X135008333Y-93051670D02*
X134996428Y-93039765D01*
X134996428Y-93039765D02*
X134984523Y-93015955D01*
X134984523Y-93015955D02*
X134972619Y-92968336D01*
X134972619Y-92968336D02*
X134972619Y-92908812D01*
X134972619Y-92908812D02*
X134984523Y-92861193D01*
X134984523Y-92861193D02*
X134996428Y-92837384D01*
X134996428Y-92837384D02*
X135008333Y-92825479D01*
X135008333Y-92825479D02*
X135032142Y-92813574D01*
X87989765Y-98360714D02*
X88001670Y-98372618D01*
X88001670Y-98372618D02*
X88013574Y-98408333D01*
X88013574Y-98408333D02*
X88013574Y-98432142D01*
X88013574Y-98432142D02*
X88001670Y-98467856D01*
X88001670Y-98467856D02*
X87977860Y-98491666D01*
X87977860Y-98491666D02*
X87954050Y-98503571D01*
X87954050Y-98503571D02*
X87906431Y-98515475D01*
X87906431Y-98515475D02*
X87870717Y-98515475D01*
X87870717Y-98515475D02*
X87823098Y-98503571D01*
X87823098Y-98503571D02*
X87799289Y-98491666D01*
X87799289Y-98491666D02*
X87775479Y-98467856D01*
X87775479Y-98467856D02*
X87763574Y-98432142D01*
X87763574Y-98432142D02*
X87763574Y-98408333D01*
X87763574Y-98408333D02*
X87775479Y-98372618D01*
X87775479Y-98372618D02*
X87787384Y-98360714D01*
X87763574Y-98146428D02*
X87763574Y-98194047D01*
X87763574Y-98194047D02*
X87775479Y-98217856D01*
X87775479Y-98217856D02*
X87787384Y-98229761D01*
X87787384Y-98229761D02*
X87823098Y-98253571D01*
X87823098Y-98253571D02*
X87870717Y-98265475D01*
X87870717Y-98265475D02*
X87965955Y-98265475D01*
X87965955Y-98265475D02*
X87989765Y-98253571D01*
X87989765Y-98253571D02*
X88001670Y-98241666D01*
X88001670Y-98241666D02*
X88013574Y-98217856D01*
X88013574Y-98217856D02*
X88013574Y-98170237D01*
X88013574Y-98170237D02*
X88001670Y-98146428D01*
X88001670Y-98146428D02*
X87989765Y-98134523D01*
X87989765Y-98134523D02*
X87965955Y-98122618D01*
X87965955Y-98122618D02*
X87906431Y-98122618D01*
X87906431Y-98122618D02*
X87882622Y-98134523D01*
X87882622Y-98134523D02*
X87870717Y-98146428D01*
X87870717Y-98146428D02*
X87858812Y-98170237D01*
X87858812Y-98170237D02*
X87858812Y-98217856D01*
X87858812Y-98217856D02*
X87870717Y-98241666D01*
X87870717Y-98241666D02*
X87882622Y-98253571D01*
X87882622Y-98253571D02*
X87906431Y-98265475D01*
X87870717Y-97979761D02*
X87858812Y-98003571D01*
X87858812Y-98003571D02*
X87846908Y-98015476D01*
X87846908Y-98015476D02*
X87823098Y-98027380D01*
X87823098Y-98027380D02*
X87811193Y-98027380D01*
X87811193Y-98027380D02*
X87787384Y-98015476D01*
X87787384Y-98015476D02*
X87775479Y-98003571D01*
X87775479Y-98003571D02*
X87763574Y-97979761D01*
X87763574Y-97979761D02*
X87763574Y-97932142D01*
X87763574Y-97932142D02*
X87775479Y-97908333D01*
X87775479Y-97908333D02*
X87787384Y-97896428D01*
X87787384Y-97896428D02*
X87811193Y-97884523D01*
X87811193Y-97884523D02*
X87823098Y-97884523D01*
X87823098Y-97884523D02*
X87846908Y-97896428D01*
X87846908Y-97896428D02*
X87858812Y-97908333D01*
X87858812Y-97908333D02*
X87870717Y-97932142D01*
X87870717Y-97932142D02*
X87870717Y-97979761D01*
X87870717Y-97979761D02*
X87882622Y-98003571D01*
X87882622Y-98003571D02*
X87894527Y-98015476D01*
X87894527Y-98015476D02*
X87918336Y-98027380D01*
X87918336Y-98027380D02*
X87965955Y-98027380D01*
X87965955Y-98027380D02*
X87989765Y-98015476D01*
X87989765Y-98015476D02*
X88001670Y-98003571D01*
X88001670Y-98003571D02*
X88013574Y-97979761D01*
X88013574Y-97979761D02*
X88013574Y-97932142D01*
X88013574Y-97932142D02*
X88001670Y-97908333D01*
X88001670Y-97908333D02*
X87989765Y-97896428D01*
X87989765Y-97896428D02*
X87965955Y-97884523D01*
X87965955Y-97884523D02*
X87918336Y-97884523D01*
X87918336Y-97884523D02*
X87894527Y-97896428D01*
X87894527Y-97896428D02*
X87882622Y-97908333D01*
X87882622Y-97908333D02*
X87870717Y-97932142D01*
D14*
X170127149Y-99483333D02*
X170127149Y-99721428D01*
X170127149Y-99721428D02*
X169627149Y-99721428D01*
X169627149Y-99078571D02*
X169627149Y-99316666D01*
X169627149Y-99316666D02*
X169865244Y-99340475D01*
X169865244Y-99340475D02*
X169841435Y-99316666D01*
X169841435Y-99316666D02*
X169817625Y-99269047D01*
X169817625Y-99269047D02*
X169817625Y-99149999D01*
X169817625Y-99149999D02*
X169841435Y-99102380D01*
X169841435Y-99102380D02*
X169865244Y-99078571D01*
X169865244Y-99078571D02*
X169912863Y-99054761D01*
X169912863Y-99054761D02*
X170031911Y-99054761D01*
X170031911Y-99054761D02*
X170079530Y-99078571D01*
X170079530Y-99078571D02*
X170103340Y-99102380D01*
X170103340Y-99102380D02*
X170127149Y-99149999D01*
X170127149Y-99149999D02*
X170127149Y-99269047D01*
X170127149Y-99269047D02*
X170103340Y-99316666D01*
X170103340Y-99316666D02*
X170079530Y-99340475D01*
D10*
X134118200Y-105867142D02*
X133994391Y-105953809D01*
X134118200Y-106015714D02*
X133858200Y-106015714D01*
X133858200Y-106015714D02*
X133858200Y-105916666D01*
X133858200Y-105916666D02*
X133870581Y-105891904D01*
X133870581Y-105891904D02*
X133882962Y-105879523D01*
X133882962Y-105879523D02*
X133907724Y-105867142D01*
X133907724Y-105867142D02*
X133944867Y-105867142D01*
X133944867Y-105867142D02*
X133969629Y-105879523D01*
X133969629Y-105879523D02*
X133982010Y-105891904D01*
X133982010Y-105891904D02*
X133994391Y-105916666D01*
X133994391Y-105916666D02*
X133994391Y-106015714D01*
X134118200Y-105619523D02*
X134118200Y-105768095D01*
X134118200Y-105693809D02*
X133858200Y-105693809D01*
X133858200Y-105693809D02*
X133895343Y-105718571D01*
X133895343Y-105718571D02*
X133920105Y-105743333D01*
X133920105Y-105743333D02*
X133932486Y-105768095D01*
X133969629Y-105470952D02*
X133957248Y-105495714D01*
X133957248Y-105495714D02*
X133944867Y-105508095D01*
X133944867Y-105508095D02*
X133920105Y-105520476D01*
X133920105Y-105520476D02*
X133907724Y-105520476D01*
X133907724Y-105520476D02*
X133882962Y-105508095D01*
X133882962Y-105508095D02*
X133870581Y-105495714D01*
X133870581Y-105495714D02*
X133858200Y-105470952D01*
X133858200Y-105470952D02*
X133858200Y-105421428D01*
X133858200Y-105421428D02*
X133870581Y-105396666D01*
X133870581Y-105396666D02*
X133882962Y-105384285D01*
X133882962Y-105384285D02*
X133907724Y-105371904D01*
X133907724Y-105371904D02*
X133920105Y-105371904D01*
X133920105Y-105371904D02*
X133944867Y-105384285D01*
X133944867Y-105384285D02*
X133957248Y-105396666D01*
X133957248Y-105396666D02*
X133969629Y-105421428D01*
X133969629Y-105421428D02*
X133969629Y-105470952D01*
X133969629Y-105470952D02*
X133982010Y-105495714D01*
X133982010Y-105495714D02*
X133994391Y-105508095D01*
X133994391Y-105508095D02*
X134019153Y-105520476D01*
X134019153Y-105520476D02*
X134068677Y-105520476D01*
X134068677Y-105520476D02*
X134093439Y-105508095D01*
X134093439Y-105508095D02*
X134105820Y-105495714D01*
X134105820Y-105495714D02*
X134118200Y-105470952D01*
X134118200Y-105470952D02*
X134118200Y-105421428D01*
X134118200Y-105421428D02*
X134105820Y-105396666D01*
X134105820Y-105396666D02*
X134093439Y-105384285D01*
X134093439Y-105384285D02*
X134068677Y-105371904D01*
X134068677Y-105371904D02*
X134019153Y-105371904D01*
X134019153Y-105371904D02*
X133994391Y-105384285D01*
X133994391Y-105384285D02*
X133982010Y-105396666D01*
X133982010Y-105396666D02*
X133969629Y-105421428D01*
X113968200Y-110617142D02*
X113844391Y-110703809D01*
X113968200Y-110765714D02*
X113708200Y-110765714D01*
X113708200Y-110765714D02*
X113708200Y-110666666D01*
X113708200Y-110666666D02*
X113720581Y-110641904D01*
X113720581Y-110641904D02*
X113732962Y-110629523D01*
X113732962Y-110629523D02*
X113757724Y-110617142D01*
X113757724Y-110617142D02*
X113794867Y-110617142D01*
X113794867Y-110617142D02*
X113819629Y-110629523D01*
X113819629Y-110629523D02*
X113832010Y-110641904D01*
X113832010Y-110641904D02*
X113844391Y-110666666D01*
X113844391Y-110666666D02*
X113844391Y-110765714D01*
X113708200Y-110530476D02*
X113708200Y-110369523D01*
X113708200Y-110369523D02*
X113807248Y-110456190D01*
X113807248Y-110456190D02*
X113807248Y-110419047D01*
X113807248Y-110419047D02*
X113819629Y-110394285D01*
X113819629Y-110394285D02*
X113832010Y-110381904D01*
X113832010Y-110381904D02*
X113856772Y-110369523D01*
X113856772Y-110369523D02*
X113918677Y-110369523D01*
X113918677Y-110369523D02*
X113943439Y-110381904D01*
X113943439Y-110381904D02*
X113955820Y-110394285D01*
X113955820Y-110394285D02*
X113968200Y-110419047D01*
X113968200Y-110419047D02*
X113968200Y-110493333D01*
X113968200Y-110493333D02*
X113955820Y-110518095D01*
X113955820Y-110518095D02*
X113943439Y-110530476D01*
X113968200Y-110121904D02*
X113968200Y-110270476D01*
X113968200Y-110196190D02*
X113708200Y-110196190D01*
X113708200Y-110196190D02*
X113745343Y-110220952D01*
X113745343Y-110220952D02*
X113770105Y-110245714D01*
X113770105Y-110245714D02*
X113782486Y-110270476D01*
X109189765Y-99160714D02*
X109201670Y-99172618D01*
X109201670Y-99172618D02*
X109213574Y-99208333D01*
X109213574Y-99208333D02*
X109213574Y-99232142D01*
X109213574Y-99232142D02*
X109201670Y-99267856D01*
X109201670Y-99267856D02*
X109177860Y-99291666D01*
X109177860Y-99291666D02*
X109154050Y-99303571D01*
X109154050Y-99303571D02*
X109106431Y-99315475D01*
X109106431Y-99315475D02*
X109070717Y-99315475D01*
X109070717Y-99315475D02*
X109023098Y-99303571D01*
X109023098Y-99303571D02*
X108999289Y-99291666D01*
X108999289Y-99291666D02*
X108975479Y-99267856D01*
X108975479Y-99267856D02*
X108963574Y-99232142D01*
X108963574Y-99232142D02*
X108963574Y-99208333D01*
X108963574Y-99208333D02*
X108975479Y-99172618D01*
X108975479Y-99172618D02*
X108987384Y-99160714D01*
X108963574Y-99077380D02*
X108963574Y-98910714D01*
X108963574Y-98910714D02*
X109213574Y-99017856D01*
X109046908Y-98708333D02*
X109213574Y-98708333D01*
X108951670Y-98767857D02*
X109130241Y-98827380D01*
X109130241Y-98827380D02*
X109130241Y-98672619D01*
X111718200Y-91367142D02*
X111594391Y-91453809D01*
X111718200Y-91515714D02*
X111458200Y-91515714D01*
X111458200Y-91515714D02*
X111458200Y-91416666D01*
X111458200Y-91416666D02*
X111470581Y-91391904D01*
X111470581Y-91391904D02*
X111482962Y-91379523D01*
X111482962Y-91379523D02*
X111507724Y-91367142D01*
X111507724Y-91367142D02*
X111544867Y-91367142D01*
X111544867Y-91367142D02*
X111569629Y-91379523D01*
X111569629Y-91379523D02*
X111582010Y-91391904D01*
X111582010Y-91391904D02*
X111594391Y-91416666D01*
X111594391Y-91416666D02*
X111594391Y-91515714D01*
X111718200Y-91119523D02*
X111718200Y-91268095D01*
X111718200Y-91193809D02*
X111458200Y-91193809D01*
X111458200Y-91193809D02*
X111495343Y-91218571D01*
X111495343Y-91218571D02*
X111520105Y-91243333D01*
X111520105Y-91243333D02*
X111532486Y-91268095D01*
X111718200Y-90871904D02*
X111718200Y-91020476D01*
X111718200Y-90946190D02*
X111458200Y-90946190D01*
X111458200Y-90946190D02*
X111495343Y-90970952D01*
X111495343Y-90970952D02*
X111520105Y-90995714D01*
X111520105Y-90995714D02*
X111532486Y-91020476D01*
D12*
X120966666Y-106004819D02*
X121538094Y-106004819D01*
X121252380Y-107004819D02*
X121252380Y-106004819D01*
X122252380Y-106957200D02*
X122157142Y-107004819D01*
X122157142Y-107004819D02*
X121966666Y-107004819D01*
X121966666Y-107004819D02*
X121871428Y-106957200D01*
X121871428Y-106957200D02*
X121823809Y-106861961D01*
X121823809Y-106861961D02*
X121823809Y-106481009D01*
X121823809Y-106481009D02*
X121871428Y-106385771D01*
X121871428Y-106385771D02*
X121966666Y-106338152D01*
X121966666Y-106338152D02*
X122157142Y-106338152D01*
X122157142Y-106338152D02*
X122252380Y-106385771D01*
X122252380Y-106385771D02*
X122299999Y-106481009D01*
X122299999Y-106481009D02*
X122299999Y-106576247D01*
X122299999Y-106576247D02*
X121823809Y-106671485D01*
X122680952Y-106957200D02*
X122776190Y-107004819D01*
X122776190Y-107004819D02*
X122966666Y-107004819D01*
X122966666Y-107004819D02*
X123061904Y-106957200D01*
X123061904Y-106957200D02*
X123109523Y-106861961D01*
X123109523Y-106861961D02*
X123109523Y-106814342D01*
X123109523Y-106814342D02*
X123061904Y-106719104D01*
X123061904Y-106719104D02*
X122966666Y-106671485D01*
X122966666Y-106671485D02*
X122823809Y-106671485D01*
X122823809Y-106671485D02*
X122728571Y-106623866D01*
X122728571Y-106623866D02*
X122680952Y-106528628D01*
X122680952Y-106528628D02*
X122680952Y-106481009D01*
X122680952Y-106481009D02*
X122728571Y-106385771D01*
X122728571Y-106385771D02*
X122823809Y-106338152D01*
X122823809Y-106338152D02*
X122966666Y-106338152D01*
X122966666Y-106338152D02*
X123061904Y-106385771D01*
X123395238Y-106338152D02*
X123776190Y-106338152D01*
X123538095Y-106004819D02*
X123538095Y-106861961D01*
X123538095Y-106861961D02*
X123585714Y-106957200D01*
X123585714Y-106957200D02*
X123680952Y-107004819D01*
X123680952Y-107004819D02*
X123776190Y-107004819D01*
X124109524Y-107004819D02*
X124109524Y-106004819D01*
X124109524Y-106004819D02*
X124490476Y-106004819D01*
X124490476Y-106004819D02*
X124585714Y-106052438D01*
X124585714Y-106052438D02*
X124633333Y-106100057D01*
X124633333Y-106100057D02*
X124680952Y-106195295D01*
X124680952Y-106195295D02*
X124680952Y-106338152D01*
X124680952Y-106338152D02*
X124633333Y-106433390D01*
X124633333Y-106433390D02*
X124585714Y-106481009D01*
X124585714Y-106481009D02*
X124490476Y-106528628D01*
X124490476Y-106528628D02*
X124109524Y-106528628D01*
X125252381Y-107004819D02*
X125157143Y-106957200D01*
X125157143Y-106957200D02*
X125109524Y-106909580D01*
X125109524Y-106909580D02*
X125061905Y-106814342D01*
X125061905Y-106814342D02*
X125061905Y-106528628D01*
X125061905Y-106528628D02*
X125109524Y-106433390D01*
X125109524Y-106433390D02*
X125157143Y-106385771D01*
X125157143Y-106385771D02*
X125252381Y-106338152D01*
X125252381Y-106338152D02*
X125395238Y-106338152D01*
X125395238Y-106338152D02*
X125490476Y-106385771D01*
X125490476Y-106385771D02*
X125538095Y-106433390D01*
X125538095Y-106433390D02*
X125585714Y-106528628D01*
X125585714Y-106528628D02*
X125585714Y-106814342D01*
X125585714Y-106814342D02*
X125538095Y-106909580D01*
X125538095Y-106909580D02*
X125490476Y-106957200D01*
X125490476Y-106957200D02*
X125395238Y-107004819D01*
X125395238Y-107004819D02*
X125252381Y-107004819D01*
X126014286Y-107004819D02*
X126014286Y-106338152D01*
X126014286Y-106004819D02*
X125966667Y-106052438D01*
X125966667Y-106052438D02*
X126014286Y-106100057D01*
X126014286Y-106100057D02*
X126061905Y-106052438D01*
X126061905Y-106052438D02*
X126014286Y-106004819D01*
X126014286Y-106004819D02*
X126014286Y-106100057D01*
X126490476Y-106338152D02*
X126490476Y-107004819D01*
X126490476Y-106433390D02*
X126538095Y-106385771D01*
X126538095Y-106385771D02*
X126633333Y-106338152D01*
X126633333Y-106338152D02*
X126776190Y-106338152D01*
X126776190Y-106338152D02*
X126871428Y-106385771D01*
X126871428Y-106385771D02*
X126919047Y-106481009D01*
X126919047Y-106481009D02*
X126919047Y-107004819D01*
X127252381Y-106338152D02*
X127633333Y-106338152D01*
X127395238Y-106004819D02*
X127395238Y-106861961D01*
X127395238Y-106861961D02*
X127442857Y-106957200D01*
X127442857Y-106957200D02*
X127538095Y-107004819D01*
X127538095Y-107004819D02*
X127633333Y-107004819D01*
X123038095Y-103004819D02*
X123609523Y-103004819D01*
X123323809Y-104004819D02*
X123323809Y-103004819D01*
X123942857Y-104004819D02*
X123942857Y-103004819D01*
X123942857Y-103004819D02*
X124323809Y-103004819D01*
X124323809Y-103004819D02*
X124419047Y-103052438D01*
X124419047Y-103052438D02*
X124466666Y-103100057D01*
X124466666Y-103100057D02*
X124514285Y-103195295D01*
X124514285Y-103195295D02*
X124514285Y-103338152D01*
X124514285Y-103338152D02*
X124466666Y-103433390D01*
X124466666Y-103433390D02*
X124419047Y-103481009D01*
X124419047Y-103481009D02*
X124323809Y-103528628D01*
X124323809Y-103528628D02*
X123942857Y-103528628D01*
X125419047Y-103004819D02*
X124942857Y-103004819D01*
X124942857Y-103004819D02*
X124895238Y-103481009D01*
X124895238Y-103481009D02*
X124942857Y-103433390D01*
X124942857Y-103433390D02*
X125038095Y-103385771D01*
X125038095Y-103385771D02*
X125276190Y-103385771D01*
X125276190Y-103385771D02*
X125371428Y-103433390D01*
X125371428Y-103433390D02*
X125419047Y-103481009D01*
X125419047Y-103481009D02*
X125466666Y-103576247D01*
X125466666Y-103576247D02*
X125466666Y-103814342D01*
X125466666Y-103814342D02*
X125419047Y-103909580D01*
X125419047Y-103909580D02*
X125371428Y-103957200D01*
X125371428Y-103957200D02*
X125276190Y-104004819D01*
X125276190Y-104004819D02*
X125038095Y-104004819D01*
X125038095Y-104004819D02*
X124942857Y-103957200D01*
X124942857Y-103957200D02*
X124895238Y-103909580D01*
D10*
X162634285Y-93789765D02*
X162622381Y-93801670D01*
X162622381Y-93801670D02*
X162586666Y-93813574D01*
X162586666Y-93813574D02*
X162562857Y-93813574D01*
X162562857Y-93813574D02*
X162527143Y-93801670D01*
X162527143Y-93801670D02*
X162503333Y-93777860D01*
X162503333Y-93777860D02*
X162491428Y-93754050D01*
X162491428Y-93754050D02*
X162479524Y-93706431D01*
X162479524Y-93706431D02*
X162479524Y-93670717D01*
X162479524Y-93670717D02*
X162491428Y-93623098D01*
X162491428Y-93623098D02*
X162503333Y-93599289D01*
X162503333Y-93599289D02*
X162527143Y-93575479D01*
X162527143Y-93575479D02*
X162562857Y-93563574D01*
X162562857Y-93563574D02*
X162586666Y-93563574D01*
X162586666Y-93563574D02*
X162622381Y-93575479D01*
X162622381Y-93575479D02*
X162634285Y-93587384D01*
X162848571Y-93646908D02*
X162848571Y-93813574D01*
X162789047Y-93551670D02*
X162729524Y-93730241D01*
X162729524Y-93730241D02*
X162884285Y-93730241D01*
X163027142Y-93563574D02*
X163050952Y-93563574D01*
X163050952Y-93563574D02*
X163074761Y-93575479D01*
X163074761Y-93575479D02*
X163086666Y-93587384D01*
X163086666Y-93587384D02*
X163098571Y-93611193D01*
X163098571Y-93611193D02*
X163110476Y-93658812D01*
X163110476Y-93658812D02*
X163110476Y-93718336D01*
X163110476Y-93718336D02*
X163098571Y-93765955D01*
X163098571Y-93765955D02*
X163086666Y-93789765D01*
X163086666Y-93789765D02*
X163074761Y-93801670D01*
X163074761Y-93801670D02*
X163050952Y-93813574D01*
X163050952Y-93813574D02*
X163027142Y-93813574D01*
X163027142Y-93813574D02*
X163003333Y-93801670D01*
X163003333Y-93801670D02*
X162991428Y-93789765D01*
X162991428Y-93789765D02*
X162979523Y-93765955D01*
X162979523Y-93765955D02*
X162967619Y-93718336D01*
X162967619Y-93718336D02*
X162967619Y-93658812D01*
X162967619Y-93658812D02*
X162979523Y-93611193D01*
X162979523Y-93611193D02*
X162991428Y-93587384D01*
X162991428Y-93587384D02*
X163003333Y-93575479D01*
X163003333Y-93575479D02*
X163027142Y-93563574D01*
X120222265Y-103760714D02*
X120234170Y-103772618D01*
X120234170Y-103772618D02*
X120246074Y-103808333D01*
X120246074Y-103808333D02*
X120246074Y-103832142D01*
X120246074Y-103832142D02*
X120234170Y-103867856D01*
X120234170Y-103867856D02*
X120210360Y-103891666D01*
X120210360Y-103891666D02*
X120186550Y-103903571D01*
X120186550Y-103903571D02*
X120138931Y-103915475D01*
X120138931Y-103915475D02*
X120103217Y-103915475D01*
X120103217Y-103915475D02*
X120055598Y-103903571D01*
X120055598Y-103903571D02*
X120031789Y-103891666D01*
X120031789Y-103891666D02*
X120007979Y-103867856D01*
X120007979Y-103867856D02*
X119996074Y-103832142D01*
X119996074Y-103832142D02*
X119996074Y-103808333D01*
X119996074Y-103808333D02*
X120007979Y-103772618D01*
X120007979Y-103772618D02*
X120019884Y-103760714D01*
X120079408Y-103546428D02*
X120246074Y-103546428D01*
X119984170Y-103605952D02*
X120162741Y-103665475D01*
X120162741Y-103665475D02*
X120162741Y-103510714D01*
X120246074Y-103403571D02*
X120246074Y-103355952D01*
X120246074Y-103355952D02*
X120234170Y-103332142D01*
X120234170Y-103332142D02*
X120222265Y-103320238D01*
X120222265Y-103320238D02*
X120186550Y-103296428D01*
X120186550Y-103296428D02*
X120138931Y-103284523D01*
X120138931Y-103284523D02*
X120043693Y-103284523D01*
X120043693Y-103284523D02*
X120019884Y-103296428D01*
X120019884Y-103296428D02*
X120007979Y-103308333D01*
X120007979Y-103308333D02*
X119996074Y-103332142D01*
X119996074Y-103332142D02*
X119996074Y-103379761D01*
X119996074Y-103379761D02*
X120007979Y-103403571D01*
X120007979Y-103403571D02*
X120019884Y-103415476D01*
X120019884Y-103415476D02*
X120043693Y-103427380D01*
X120043693Y-103427380D02*
X120103217Y-103427380D01*
X120103217Y-103427380D02*
X120127027Y-103415476D01*
X120127027Y-103415476D02*
X120138931Y-103403571D01*
X120138931Y-103403571D02*
X120150836Y-103379761D01*
X120150836Y-103379761D02*
X120150836Y-103332142D01*
X120150836Y-103332142D02*
X120138931Y-103308333D01*
X120138931Y-103308333D02*
X120127027Y-103296428D01*
X120127027Y-103296428D02*
X120103217Y-103284523D01*
X122055357Y-105908200D02*
X121968690Y-105784391D01*
X121906785Y-105908200D02*
X121906785Y-105648200D01*
X121906785Y-105648200D02*
X122005833Y-105648200D01*
X122005833Y-105648200D02*
X122030595Y-105660581D01*
X122030595Y-105660581D02*
X122042976Y-105672962D01*
X122042976Y-105672962D02*
X122055357Y-105697724D01*
X122055357Y-105697724D02*
X122055357Y-105734867D01*
X122055357Y-105734867D02*
X122042976Y-105759629D01*
X122042976Y-105759629D02*
X122030595Y-105772010D01*
X122030595Y-105772010D02*
X122005833Y-105784391D01*
X122005833Y-105784391D02*
X121906785Y-105784391D01*
X122154404Y-105672962D02*
X122166785Y-105660581D01*
X122166785Y-105660581D02*
X122191547Y-105648200D01*
X122191547Y-105648200D02*
X122253452Y-105648200D01*
X122253452Y-105648200D02*
X122278214Y-105660581D01*
X122278214Y-105660581D02*
X122290595Y-105672962D01*
X122290595Y-105672962D02*
X122302976Y-105697724D01*
X122302976Y-105697724D02*
X122302976Y-105722486D01*
X122302976Y-105722486D02*
X122290595Y-105759629D01*
X122290595Y-105759629D02*
X122142023Y-105908200D01*
X122142023Y-105908200D02*
X122302976Y-105908200D01*
X122402023Y-105672962D02*
X122414404Y-105660581D01*
X122414404Y-105660581D02*
X122439166Y-105648200D01*
X122439166Y-105648200D02*
X122501071Y-105648200D01*
X122501071Y-105648200D02*
X122525833Y-105660581D01*
X122525833Y-105660581D02*
X122538214Y-105672962D01*
X122538214Y-105672962D02*
X122550595Y-105697724D01*
X122550595Y-105697724D02*
X122550595Y-105722486D01*
X122550595Y-105722486D02*
X122538214Y-105759629D01*
X122538214Y-105759629D02*
X122389642Y-105908200D01*
X122389642Y-105908200D02*
X122550595Y-105908200D01*
X162639285Y-92789765D02*
X162627381Y-92801670D01*
X162627381Y-92801670D02*
X162591666Y-92813574D01*
X162591666Y-92813574D02*
X162567857Y-92813574D01*
X162567857Y-92813574D02*
X162532143Y-92801670D01*
X162532143Y-92801670D02*
X162508333Y-92777860D01*
X162508333Y-92777860D02*
X162496428Y-92754050D01*
X162496428Y-92754050D02*
X162484524Y-92706431D01*
X162484524Y-92706431D02*
X162484524Y-92670717D01*
X162484524Y-92670717D02*
X162496428Y-92623098D01*
X162496428Y-92623098D02*
X162508333Y-92599289D01*
X162508333Y-92599289D02*
X162532143Y-92575479D01*
X162532143Y-92575479D02*
X162567857Y-92563574D01*
X162567857Y-92563574D02*
X162591666Y-92563574D01*
X162591666Y-92563574D02*
X162627381Y-92575479D01*
X162627381Y-92575479D02*
X162639285Y-92587384D01*
X162853571Y-92646908D02*
X162853571Y-92813574D01*
X162794047Y-92551670D02*
X162734524Y-92730241D01*
X162734524Y-92730241D02*
X162889285Y-92730241D01*
X162960714Y-92563574D02*
X163127380Y-92563574D01*
X163127380Y-92563574D02*
X163020238Y-92813574D01*
X112718200Y-91367142D02*
X112594391Y-91453809D01*
X112718200Y-91515714D02*
X112458200Y-91515714D01*
X112458200Y-91515714D02*
X112458200Y-91416666D01*
X112458200Y-91416666D02*
X112470581Y-91391904D01*
X112470581Y-91391904D02*
X112482962Y-91379523D01*
X112482962Y-91379523D02*
X112507724Y-91367142D01*
X112507724Y-91367142D02*
X112544867Y-91367142D01*
X112544867Y-91367142D02*
X112569629Y-91379523D01*
X112569629Y-91379523D02*
X112582010Y-91391904D01*
X112582010Y-91391904D02*
X112594391Y-91416666D01*
X112594391Y-91416666D02*
X112594391Y-91515714D01*
X112718200Y-91119523D02*
X112718200Y-91268095D01*
X112718200Y-91193809D02*
X112458200Y-91193809D01*
X112458200Y-91193809D02*
X112495343Y-91218571D01*
X112495343Y-91218571D02*
X112520105Y-91243333D01*
X112520105Y-91243333D02*
X112532486Y-91268095D01*
X112482962Y-91020476D02*
X112470581Y-91008095D01*
X112470581Y-91008095D02*
X112458200Y-90983333D01*
X112458200Y-90983333D02*
X112458200Y-90921428D01*
X112458200Y-90921428D02*
X112470581Y-90896666D01*
X112470581Y-90896666D02*
X112482962Y-90884285D01*
X112482962Y-90884285D02*
X112507724Y-90871904D01*
X112507724Y-90871904D02*
X112532486Y-90871904D01*
X112532486Y-90871904D02*
X112569629Y-90884285D01*
X112569629Y-90884285D02*
X112718200Y-91032857D01*
X112718200Y-91032857D02*
X112718200Y-90871904D01*
X138332857Y-103118200D02*
X138246190Y-102994391D01*
X138184285Y-103118200D02*
X138184285Y-102858200D01*
X138184285Y-102858200D02*
X138283333Y-102858200D01*
X138283333Y-102858200D02*
X138308095Y-102870581D01*
X138308095Y-102870581D02*
X138320476Y-102882962D01*
X138320476Y-102882962D02*
X138332857Y-102907724D01*
X138332857Y-102907724D02*
X138332857Y-102944867D01*
X138332857Y-102944867D02*
X138320476Y-102969629D01*
X138320476Y-102969629D02*
X138308095Y-102982010D01*
X138308095Y-102982010D02*
X138283333Y-102994391D01*
X138283333Y-102994391D02*
X138184285Y-102994391D01*
X138580476Y-103118200D02*
X138431904Y-103118200D01*
X138506190Y-103118200D02*
X138506190Y-102858200D01*
X138506190Y-102858200D02*
X138481428Y-102895343D01*
X138481428Y-102895343D02*
X138456666Y-102920105D01*
X138456666Y-102920105D02*
X138431904Y-102932486D01*
X138667142Y-102858200D02*
X138840476Y-102858200D01*
X138840476Y-102858200D02*
X138729047Y-103118200D01*
X168589765Y-98360714D02*
X168601670Y-98372618D01*
X168601670Y-98372618D02*
X168613574Y-98408333D01*
X168613574Y-98408333D02*
X168613574Y-98432142D01*
X168613574Y-98432142D02*
X168601670Y-98467856D01*
X168601670Y-98467856D02*
X168577860Y-98491666D01*
X168577860Y-98491666D02*
X168554050Y-98503571D01*
X168554050Y-98503571D02*
X168506431Y-98515475D01*
X168506431Y-98515475D02*
X168470717Y-98515475D01*
X168470717Y-98515475D02*
X168423098Y-98503571D01*
X168423098Y-98503571D02*
X168399289Y-98491666D01*
X168399289Y-98491666D02*
X168375479Y-98467856D01*
X168375479Y-98467856D02*
X168363574Y-98432142D01*
X168363574Y-98432142D02*
X168363574Y-98408333D01*
X168363574Y-98408333D02*
X168375479Y-98372618D01*
X168375479Y-98372618D02*
X168387384Y-98360714D01*
X168363574Y-98134523D02*
X168363574Y-98253571D01*
X168363574Y-98253571D02*
X168482622Y-98265475D01*
X168482622Y-98265475D02*
X168470717Y-98253571D01*
X168470717Y-98253571D02*
X168458812Y-98229761D01*
X168458812Y-98229761D02*
X168458812Y-98170237D01*
X168458812Y-98170237D02*
X168470717Y-98146428D01*
X168470717Y-98146428D02*
X168482622Y-98134523D01*
X168482622Y-98134523D02*
X168506431Y-98122618D01*
X168506431Y-98122618D02*
X168565955Y-98122618D01*
X168565955Y-98122618D02*
X168589765Y-98134523D01*
X168589765Y-98134523D02*
X168601670Y-98146428D01*
X168601670Y-98146428D02*
X168613574Y-98170237D01*
X168613574Y-98170237D02*
X168613574Y-98229761D01*
X168613574Y-98229761D02*
X168601670Y-98253571D01*
X168601670Y-98253571D02*
X168589765Y-98265475D01*
X168363574Y-97896428D02*
X168363574Y-98015476D01*
X168363574Y-98015476D02*
X168482622Y-98027380D01*
X168482622Y-98027380D02*
X168470717Y-98015476D01*
X168470717Y-98015476D02*
X168458812Y-97991666D01*
X168458812Y-97991666D02*
X168458812Y-97932142D01*
X168458812Y-97932142D02*
X168470717Y-97908333D01*
X168470717Y-97908333D02*
X168482622Y-97896428D01*
X168482622Y-97896428D02*
X168506431Y-97884523D01*
X168506431Y-97884523D02*
X168565955Y-97884523D01*
X168565955Y-97884523D02*
X168589765Y-97896428D01*
X168589765Y-97896428D02*
X168601670Y-97908333D01*
X168601670Y-97908333D02*
X168613574Y-97932142D01*
X168613574Y-97932142D02*
X168613574Y-97991666D01*
X168613574Y-97991666D02*
X168601670Y-98015476D01*
X168601670Y-98015476D02*
X168589765Y-98027380D01*
X163714765Y-98385714D02*
X163726670Y-98397618D01*
X163726670Y-98397618D02*
X163738574Y-98433333D01*
X163738574Y-98433333D02*
X163738574Y-98457142D01*
X163738574Y-98457142D02*
X163726670Y-98492856D01*
X163726670Y-98492856D02*
X163702860Y-98516666D01*
X163702860Y-98516666D02*
X163679050Y-98528571D01*
X163679050Y-98528571D02*
X163631431Y-98540475D01*
X163631431Y-98540475D02*
X163595717Y-98540475D01*
X163595717Y-98540475D02*
X163548098Y-98528571D01*
X163548098Y-98528571D02*
X163524289Y-98516666D01*
X163524289Y-98516666D02*
X163500479Y-98492856D01*
X163500479Y-98492856D02*
X163488574Y-98457142D01*
X163488574Y-98457142D02*
X163488574Y-98433333D01*
X163488574Y-98433333D02*
X163500479Y-98397618D01*
X163500479Y-98397618D02*
X163512384Y-98385714D01*
X163571908Y-98171428D02*
X163738574Y-98171428D01*
X163476670Y-98230952D02*
X163655241Y-98290475D01*
X163655241Y-98290475D02*
X163655241Y-98135714D01*
X163488574Y-97921428D02*
X163488574Y-98040476D01*
X163488574Y-98040476D02*
X163607622Y-98052380D01*
X163607622Y-98052380D02*
X163595717Y-98040476D01*
X163595717Y-98040476D02*
X163583812Y-98016666D01*
X163583812Y-98016666D02*
X163583812Y-97957142D01*
X163583812Y-97957142D02*
X163595717Y-97933333D01*
X163595717Y-97933333D02*
X163607622Y-97921428D01*
X163607622Y-97921428D02*
X163631431Y-97909523D01*
X163631431Y-97909523D02*
X163690955Y-97909523D01*
X163690955Y-97909523D02*
X163714765Y-97921428D01*
X163714765Y-97921428D02*
X163726670Y-97933333D01*
X163726670Y-97933333D02*
X163738574Y-97957142D01*
X163738574Y-97957142D02*
X163738574Y-98016666D01*
X163738574Y-98016666D02*
X163726670Y-98040476D01*
X163726670Y-98040476D02*
X163714765Y-98052380D01*
X162539285Y-96889765D02*
X162527381Y-96901670D01*
X162527381Y-96901670D02*
X162491666Y-96913574D01*
X162491666Y-96913574D02*
X162467857Y-96913574D01*
X162467857Y-96913574D02*
X162432143Y-96901670D01*
X162432143Y-96901670D02*
X162408333Y-96877860D01*
X162408333Y-96877860D02*
X162396428Y-96854050D01*
X162396428Y-96854050D02*
X162384524Y-96806431D01*
X162384524Y-96806431D02*
X162384524Y-96770717D01*
X162384524Y-96770717D02*
X162396428Y-96723098D01*
X162396428Y-96723098D02*
X162408333Y-96699289D01*
X162408333Y-96699289D02*
X162432143Y-96675479D01*
X162432143Y-96675479D02*
X162467857Y-96663574D01*
X162467857Y-96663574D02*
X162491666Y-96663574D01*
X162491666Y-96663574D02*
X162527381Y-96675479D01*
X162527381Y-96675479D02*
X162539285Y-96687384D01*
X162753571Y-96746908D02*
X162753571Y-96913574D01*
X162694047Y-96651670D02*
X162634524Y-96830241D01*
X162634524Y-96830241D02*
X162789285Y-96830241D01*
X162991666Y-96746908D02*
X162991666Y-96913574D01*
X162932142Y-96651670D02*
X162872619Y-96830241D01*
X162872619Y-96830241D02*
X163027380Y-96830241D01*
X86671785Y-91712765D02*
X86659881Y-91724670D01*
X86659881Y-91724670D02*
X86624166Y-91736574D01*
X86624166Y-91736574D02*
X86600357Y-91736574D01*
X86600357Y-91736574D02*
X86564643Y-91724670D01*
X86564643Y-91724670D02*
X86540833Y-91700860D01*
X86540833Y-91700860D02*
X86528928Y-91677050D01*
X86528928Y-91677050D02*
X86517024Y-91629431D01*
X86517024Y-91629431D02*
X86517024Y-91593717D01*
X86517024Y-91593717D02*
X86528928Y-91546098D01*
X86528928Y-91546098D02*
X86540833Y-91522289D01*
X86540833Y-91522289D02*
X86564643Y-91498479D01*
X86564643Y-91498479D02*
X86600357Y-91486574D01*
X86600357Y-91486574D02*
X86624166Y-91486574D01*
X86624166Y-91486574D02*
X86659881Y-91498479D01*
X86659881Y-91498479D02*
X86671785Y-91510384D01*
X86755119Y-91486574D02*
X86921785Y-91486574D01*
X86921785Y-91486574D02*
X86814643Y-91736574D01*
X87064642Y-91486574D02*
X87088452Y-91486574D01*
X87088452Y-91486574D02*
X87112261Y-91498479D01*
X87112261Y-91498479D02*
X87124166Y-91510384D01*
X87124166Y-91510384D02*
X87136071Y-91534193D01*
X87136071Y-91534193D02*
X87147976Y-91581812D01*
X87147976Y-91581812D02*
X87147976Y-91641336D01*
X87147976Y-91641336D02*
X87136071Y-91688955D01*
X87136071Y-91688955D02*
X87124166Y-91712765D01*
X87124166Y-91712765D02*
X87112261Y-91724670D01*
X87112261Y-91724670D02*
X87088452Y-91736574D01*
X87088452Y-91736574D02*
X87064642Y-91736574D01*
X87064642Y-91736574D02*
X87040833Y-91724670D01*
X87040833Y-91724670D02*
X87028928Y-91712765D01*
X87028928Y-91712765D02*
X87017023Y-91688955D01*
X87017023Y-91688955D02*
X87005119Y-91641336D01*
X87005119Y-91641336D02*
X87005119Y-91581812D01*
X87005119Y-91581812D02*
X87017023Y-91534193D01*
X87017023Y-91534193D02*
X87028928Y-91510384D01*
X87028928Y-91510384D02*
X87040833Y-91498479D01*
X87040833Y-91498479D02*
X87064642Y-91486574D01*
D11*
X70592857Y-92973627D02*
X70466191Y-92973627D01*
X70466191Y-93172675D02*
X70466191Y-92792675D01*
X70466191Y-92792675D02*
X70647143Y-92792675D01*
X70791905Y-93172675D02*
X70791905Y-92792675D01*
X70972857Y-93172675D02*
X70972857Y-92792675D01*
X70972857Y-92792675D02*
X71063333Y-92792675D01*
X71063333Y-92792675D02*
X71117619Y-92810770D01*
X71117619Y-92810770D02*
X71153809Y-92846960D01*
X71153809Y-92846960D02*
X71171904Y-92883151D01*
X71171904Y-92883151D02*
X71190000Y-92955532D01*
X71190000Y-92955532D02*
X71190000Y-93009818D01*
X71190000Y-93009818D02*
X71171904Y-93082199D01*
X71171904Y-93082199D02*
X71153809Y-93118389D01*
X71153809Y-93118389D02*
X71117619Y-93154580D01*
X71117619Y-93154580D02*
X71063333Y-93172675D01*
X71063333Y-93172675D02*
X70972857Y-93172675D01*
X71551904Y-93172675D02*
X71334761Y-93172675D01*
X71443333Y-93172675D02*
X71443333Y-92792675D01*
X71443333Y-92792675D02*
X71407142Y-92846960D01*
X71407142Y-92846960D02*
X71370952Y-92883151D01*
X71370952Y-92883151D02*
X71334761Y-92901246D01*
D10*
X119313574Y-96009523D02*
X119063574Y-96009523D01*
X119063574Y-96009523D02*
X119063574Y-95949999D01*
X119063574Y-95949999D02*
X119075479Y-95914285D01*
X119075479Y-95914285D02*
X119099289Y-95890475D01*
X119099289Y-95890475D02*
X119123098Y-95878570D01*
X119123098Y-95878570D02*
X119170717Y-95866666D01*
X119170717Y-95866666D02*
X119206431Y-95866666D01*
X119206431Y-95866666D02*
X119254050Y-95878570D01*
X119254050Y-95878570D02*
X119277860Y-95890475D01*
X119277860Y-95890475D02*
X119301670Y-95914285D01*
X119301670Y-95914285D02*
X119313574Y-95949999D01*
X119313574Y-95949999D02*
X119313574Y-96009523D01*
X119087384Y-95771427D02*
X119075479Y-95759523D01*
X119075479Y-95759523D02*
X119063574Y-95735713D01*
X119063574Y-95735713D02*
X119063574Y-95676189D01*
X119063574Y-95676189D02*
X119075479Y-95652380D01*
X119075479Y-95652380D02*
X119087384Y-95640475D01*
X119087384Y-95640475D02*
X119111193Y-95628570D01*
X119111193Y-95628570D02*
X119135003Y-95628570D01*
X119135003Y-95628570D02*
X119170717Y-95640475D01*
X119170717Y-95640475D02*
X119313574Y-95783332D01*
X119313574Y-95783332D02*
X119313574Y-95628570D01*
X134639285Y-97389765D02*
X134627381Y-97401670D01*
X134627381Y-97401670D02*
X134591666Y-97413574D01*
X134591666Y-97413574D02*
X134567857Y-97413574D01*
X134567857Y-97413574D02*
X134532143Y-97401670D01*
X134532143Y-97401670D02*
X134508333Y-97377860D01*
X134508333Y-97377860D02*
X134496428Y-97354050D01*
X134496428Y-97354050D02*
X134484524Y-97306431D01*
X134484524Y-97306431D02*
X134484524Y-97270717D01*
X134484524Y-97270717D02*
X134496428Y-97223098D01*
X134496428Y-97223098D02*
X134508333Y-97199289D01*
X134508333Y-97199289D02*
X134532143Y-97175479D01*
X134532143Y-97175479D02*
X134567857Y-97163574D01*
X134567857Y-97163574D02*
X134591666Y-97163574D01*
X134591666Y-97163574D02*
X134627381Y-97175479D01*
X134627381Y-97175479D02*
X134639285Y-97187384D01*
X134734524Y-97187384D02*
X134746428Y-97175479D01*
X134746428Y-97175479D02*
X134770238Y-97163574D01*
X134770238Y-97163574D02*
X134829762Y-97163574D01*
X134829762Y-97163574D02*
X134853571Y-97175479D01*
X134853571Y-97175479D02*
X134865476Y-97187384D01*
X134865476Y-97187384D02*
X134877381Y-97211193D01*
X134877381Y-97211193D02*
X134877381Y-97235003D01*
X134877381Y-97235003D02*
X134865476Y-97270717D01*
X134865476Y-97270717D02*
X134722619Y-97413574D01*
X134722619Y-97413574D02*
X134877381Y-97413574D01*
X134960714Y-97163574D02*
X135115476Y-97163574D01*
X135115476Y-97163574D02*
X135032142Y-97258812D01*
X135032142Y-97258812D02*
X135067857Y-97258812D01*
X135067857Y-97258812D02*
X135091666Y-97270717D01*
X135091666Y-97270717D02*
X135103571Y-97282622D01*
X135103571Y-97282622D02*
X135115476Y-97306431D01*
X135115476Y-97306431D02*
X135115476Y-97365955D01*
X135115476Y-97365955D02*
X135103571Y-97389765D01*
X135103571Y-97389765D02*
X135091666Y-97401670D01*
X135091666Y-97401670D02*
X135067857Y-97413574D01*
X135067857Y-97413574D02*
X134996428Y-97413574D01*
X134996428Y-97413574D02*
X134972619Y-97401670D01*
X134972619Y-97401670D02*
X134960714Y-97389765D01*
X135289765Y-110110714D02*
X135301670Y-110122618D01*
X135301670Y-110122618D02*
X135313574Y-110158333D01*
X135313574Y-110158333D02*
X135313574Y-110182142D01*
X135313574Y-110182142D02*
X135301670Y-110217856D01*
X135301670Y-110217856D02*
X135277860Y-110241666D01*
X135277860Y-110241666D02*
X135254050Y-110253571D01*
X135254050Y-110253571D02*
X135206431Y-110265475D01*
X135206431Y-110265475D02*
X135170717Y-110265475D01*
X135170717Y-110265475D02*
X135123098Y-110253571D01*
X135123098Y-110253571D02*
X135099289Y-110241666D01*
X135099289Y-110241666D02*
X135075479Y-110217856D01*
X135075479Y-110217856D02*
X135063574Y-110182142D01*
X135063574Y-110182142D02*
X135063574Y-110158333D01*
X135063574Y-110158333D02*
X135075479Y-110122618D01*
X135075479Y-110122618D02*
X135087384Y-110110714D01*
X135063574Y-110027380D02*
X135063574Y-109872618D01*
X135063574Y-109872618D02*
X135158812Y-109955952D01*
X135158812Y-109955952D02*
X135158812Y-109920237D01*
X135158812Y-109920237D02*
X135170717Y-109896428D01*
X135170717Y-109896428D02*
X135182622Y-109884523D01*
X135182622Y-109884523D02*
X135206431Y-109872618D01*
X135206431Y-109872618D02*
X135265955Y-109872618D01*
X135265955Y-109872618D02*
X135289765Y-109884523D01*
X135289765Y-109884523D02*
X135301670Y-109896428D01*
X135301670Y-109896428D02*
X135313574Y-109920237D01*
X135313574Y-109920237D02*
X135313574Y-109991666D01*
X135313574Y-109991666D02*
X135301670Y-110015475D01*
X135301670Y-110015475D02*
X135289765Y-110027380D01*
X135313574Y-109634523D02*
X135313574Y-109777380D01*
X135313574Y-109705952D02*
X135063574Y-109705952D01*
X135063574Y-109705952D02*
X135099289Y-109729761D01*
X135099289Y-109729761D02*
X135123098Y-109753571D01*
X135123098Y-109753571D02*
X135135003Y-109777380D01*
X127118200Y-110202142D02*
X126994391Y-110288809D01*
X127118200Y-110350714D02*
X126858200Y-110350714D01*
X126858200Y-110350714D02*
X126858200Y-110251666D01*
X126858200Y-110251666D02*
X126870581Y-110226904D01*
X126870581Y-110226904D02*
X126882962Y-110214523D01*
X126882962Y-110214523D02*
X126907724Y-110202142D01*
X126907724Y-110202142D02*
X126944867Y-110202142D01*
X126944867Y-110202142D02*
X126969629Y-110214523D01*
X126969629Y-110214523D02*
X126982010Y-110226904D01*
X126982010Y-110226904D02*
X126994391Y-110251666D01*
X126994391Y-110251666D02*
X126994391Y-110350714D01*
X127118200Y-109954523D02*
X127118200Y-110103095D01*
X127118200Y-110028809D02*
X126858200Y-110028809D01*
X126858200Y-110028809D02*
X126895343Y-110053571D01*
X126895343Y-110053571D02*
X126920105Y-110078333D01*
X126920105Y-110078333D02*
X126932486Y-110103095D01*
X126858200Y-109719285D02*
X126858200Y-109843095D01*
X126858200Y-109843095D02*
X126982010Y-109855476D01*
X126982010Y-109855476D02*
X126969629Y-109843095D01*
X126969629Y-109843095D02*
X126957248Y-109818333D01*
X126957248Y-109818333D02*
X126957248Y-109756428D01*
X126957248Y-109756428D02*
X126969629Y-109731666D01*
X126969629Y-109731666D02*
X126982010Y-109719285D01*
X126982010Y-109719285D02*
X127006772Y-109706904D01*
X127006772Y-109706904D02*
X127068677Y-109706904D01*
X127068677Y-109706904D02*
X127093439Y-109719285D01*
X127093439Y-109719285D02*
X127105820Y-109731666D01*
X127105820Y-109731666D02*
X127118200Y-109756428D01*
X127118200Y-109756428D02*
X127118200Y-109818333D01*
X127118200Y-109818333D02*
X127105820Y-109843095D01*
X127105820Y-109843095D02*
X127093439Y-109855476D01*
X162639285Y-95814765D02*
X162627381Y-95826670D01*
X162627381Y-95826670D02*
X162591666Y-95838574D01*
X162591666Y-95838574D02*
X162567857Y-95838574D01*
X162567857Y-95838574D02*
X162532143Y-95826670D01*
X162532143Y-95826670D02*
X162508333Y-95802860D01*
X162508333Y-95802860D02*
X162496428Y-95779050D01*
X162496428Y-95779050D02*
X162484524Y-95731431D01*
X162484524Y-95731431D02*
X162484524Y-95695717D01*
X162484524Y-95695717D02*
X162496428Y-95648098D01*
X162496428Y-95648098D02*
X162508333Y-95624289D01*
X162508333Y-95624289D02*
X162532143Y-95600479D01*
X162532143Y-95600479D02*
X162567857Y-95588574D01*
X162567857Y-95588574D02*
X162591666Y-95588574D01*
X162591666Y-95588574D02*
X162627381Y-95600479D01*
X162627381Y-95600479D02*
X162639285Y-95612384D01*
X162722619Y-95588574D02*
X162877381Y-95588574D01*
X162877381Y-95588574D02*
X162794047Y-95683812D01*
X162794047Y-95683812D02*
X162829762Y-95683812D01*
X162829762Y-95683812D02*
X162853571Y-95695717D01*
X162853571Y-95695717D02*
X162865476Y-95707622D01*
X162865476Y-95707622D02*
X162877381Y-95731431D01*
X162877381Y-95731431D02*
X162877381Y-95790955D01*
X162877381Y-95790955D02*
X162865476Y-95814765D01*
X162865476Y-95814765D02*
X162853571Y-95826670D01*
X162853571Y-95826670D02*
X162829762Y-95838574D01*
X162829762Y-95838574D02*
X162758333Y-95838574D01*
X162758333Y-95838574D02*
X162734524Y-95826670D01*
X162734524Y-95826670D02*
X162722619Y-95814765D01*
X163103571Y-95588574D02*
X162984523Y-95588574D01*
X162984523Y-95588574D02*
X162972619Y-95707622D01*
X162972619Y-95707622D02*
X162984523Y-95695717D01*
X162984523Y-95695717D02*
X163008333Y-95683812D01*
X163008333Y-95683812D02*
X163067857Y-95683812D01*
X163067857Y-95683812D02*
X163091666Y-95695717D01*
X163091666Y-95695717D02*
X163103571Y-95707622D01*
X163103571Y-95707622D02*
X163115476Y-95731431D01*
X163115476Y-95731431D02*
X163115476Y-95790955D01*
X163115476Y-95790955D02*
X163103571Y-95814765D01*
X163103571Y-95814765D02*
X163091666Y-95826670D01*
X163091666Y-95826670D02*
X163067857Y-95838574D01*
X163067857Y-95838574D02*
X163008333Y-95838574D01*
X163008333Y-95838574D02*
X162984523Y-95826670D01*
X162984523Y-95826670D02*
X162972619Y-95814765D01*
X90739285Y-94489765D02*
X90727381Y-94501670D01*
X90727381Y-94501670D02*
X90691666Y-94513574D01*
X90691666Y-94513574D02*
X90667857Y-94513574D01*
X90667857Y-94513574D02*
X90632143Y-94501670D01*
X90632143Y-94501670D02*
X90608333Y-94477860D01*
X90608333Y-94477860D02*
X90596428Y-94454050D01*
X90596428Y-94454050D02*
X90584524Y-94406431D01*
X90584524Y-94406431D02*
X90584524Y-94370717D01*
X90584524Y-94370717D02*
X90596428Y-94323098D01*
X90596428Y-94323098D02*
X90608333Y-94299289D01*
X90608333Y-94299289D02*
X90632143Y-94275479D01*
X90632143Y-94275479D02*
X90667857Y-94263574D01*
X90667857Y-94263574D02*
X90691666Y-94263574D01*
X90691666Y-94263574D02*
X90727381Y-94275479D01*
X90727381Y-94275479D02*
X90739285Y-94287384D01*
X90965476Y-94263574D02*
X90846428Y-94263574D01*
X90846428Y-94263574D02*
X90834524Y-94382622D01*
X90834524Y-94382622D02*
X90846428Y-94370717D01*
X90846428Y-94370717D02*
X90870238Y-94358812D01*
X90870238Y-94358812D02*
X90929762Y-94358812D01*
X90929762Y-94358812D02*
X90953571Y-94370717D01*
X90953571Y-94370717D02*
X90965476Y-94382622D01*
X90965476Y-94382622D02*
X90977381Y-94406431D01*
X90977381Y-94406431D02*
X90977381Y-94465955D01*
X90977381Y-94465955D02*
X90965476Y-94489765D01*
X90965476Y-94489765D02*
X90953571Y-94501670D01*
X90953571Y-94501670D02*
X90929762Y-94513574D01*
X90929762Y-94513574D02*
X90870238Y-94513574D01*
X90870238Y-94513574D02*
X90846428Y-94501670D01*
X90846428Y-94501670D02*
X90834524Y-94489765D01*
X91120238Y-94370717D02*
X91096428Y-94358812D01*
X91096428Y-94358812D02*
X91084523Y-94346908D01*
X91084523Y-94346908D02*
X91072619Y-94323098D01*
X91072619Y-94323098D02*
X91072619Y-94311193D01*
X91072619Y-94311193D02*
X91084523Y-94287384D01*
X91084523Y-94287384D02*
X91096428Y-94275479D01*
X91096428Y-94275479D02*
X91120238Y-94263574D01*
X91120238Y-94263574D02*
X91167857Y-94263574D01*
X91167857Y-94263574D02*
X91191666Y-94275479D01*
X91191666Y-94275479D02*
X91203571Y-94287384D01*
X91203571Y-94287384D02*
X91215476Y-94311193D01*
X91215476Y-94311193D02*
X91215476Y-94323098D01*
X91215476Y-94323098D02*
X91203571Y-94346908D01*
X91203571Y-94346908D02*
X91191666Y-94358812D01*
X91191666Y-94358812D02*
X91167857Y-94370717D01*
X91167857Y-94370717D02*
X91120238Y-94370717D01*
X91120238Y-94370717D02*
X91096428Y-94382622D01*
X91096428Y-94382622D02*
X91084523Y-94394527D01*
X91084523Y-94394527D02*
X91072619Y-94418336D01*
X91072619Y-94418336D02*
X91072619Y-94465955D01*
X91072619Y-94465955D02*
X91084523Y-94489765D01*
X91084523Y-94489765D02*
X91096428Y-94501670D01*
X91096428Y-94501670D02*
X91120238Y-94513574D01*
X91120238Y-94513574D02*
X91167857Y-94513574D01*
X91167857Y-94513574D02*
X91191666Y-94501670D01*
X91191666Y-94501670D02*
X91203571Y-94489765D01*
X91203571Y-94489765D02*
X91215476Y-94465955D01*
X91215476Y-94465955D02*
X91215476Y-94418336D01*
X91215476Y-94418336D02*
X91203571Y-94394527D01*
X91203571Y-94394527D02*
X91191666Y-94382622D01*
X91191666Y-94382622D02*
X91167857Y-94370717D01*
X166453200Y-99477142D02*
X166329391Y-99563809D01*
X166453200Y-99625714D02*
X166193200Y-99625714D01*
X166193200Y-99625714D02*
X166193200Y-99526666D01*
X166193200Y-99526666D02*
X166205581Y-99501904D01*
X166205581Y-99501904D02*
X166217962Y-99489523D01*
X166217962Y-99489523D02*
X166242724Y-99477142D01*
X166242724Y-99477142D02*
X166279867Y-99477142D01*
X166279867Y-99477142D02*
X166304629Y-99489523D01*
X166304629Y-99489523D02*
X166317010Y-99501904D01*
X166317010Y-99501904D02*
X166329391Y-99526666D01*
X166329391Y-99526666D02*
X166329391Y-99625714D01*
X166453200Y-99229523D02*
X166453200Y-99378095D01*
X166453200Y-99303809D02*
X166193200Y-99303809D01*
X166193200Y-99303809D02*
X166230343Y-99328571D01*
X166230343Y-99328571D02*
X166255105Y-99353333D01*
X166255105Y-99353333D02*
X166267486Y-99378095D01*
X166193200Y-99142857D02*
X166193200Y-98981904D01*
X166193200Y-98981904D02*
X166292248Y-99068571D01*
X166292248Y-99068571D02*
X166292248Y-99031428D01*
X166292248Y-99031428D02*
X166304629Y-99006666D01*
X166304629Y-99006666D02*
X166317010Y-98994285D01*
X166317010Y-98994285D02*
X166341772Y-98981904D01*
X166341772Y-98981904D02*
X166403677Y-98981904D01*
X166403677Y-98981904D02*
X166428439Y-98994285D01*
X166428439Y-98994285D02*
X166440820Y-99006666D01*
X166440820Y-99006666D02*
X166453200Y-99031428D01*
X166453200Y-99031428D02*
X166453200Y-99105714D01*
X166453200Y-99105714D02*
X166440820Y-99130476D01*
X166440820Y-99130476D02*
X166428439Y-99142857D01*
G04 #@! TO.C,C48*
D15*
X166300000Y-100550000D02*
X167300000Y-100550000D01*
X167300000Y-101050000D01*
X166300000Y-101050000D01*
X166300000Y-100550000D01*
G04 #@! TO.C,C22*
X132550000Y-88250000D02*
X133050000Y-88250000D01*
X133050000Y-89250000D01*
X132550000Y-89250000D01*
X132550000Y-88250000D01*
G04 #@! TO.C,FID3*
X71750000Y-107000000D02*
G75*
G02*
X70250000Y-107000000I-750000J0D01*
G01*
X70250000Y-107000000D02*
G75*
G02*
X71750000Y-107000000I750000J0D01*
G01*
G04 #@! TO.C,C67*
X86650000Y-97700000D02*
X87150000Y-97700000D01*
X87150000Y-98700000D01*
X86650000Y-98700000D01*
X86650000Y-97700000D01*
G04 #@! TO.C,C42*
X166300000Y-97555000D02*
X167300000Y-97555000D01*
X167300000Y-98055000D01*
X166300000Y-98055000D01*
X166300000Y-97555000D01*
G04 #@! TO.C,C25*
X126050000Y-88250000D02*
X126550000Y-88250000D01*
X126550000Y-89250000D01*
X126050000Y-89250000D01*
X126050000Y-88250000D01*
G04 #@! TO.C,R30*
X107375000Y-108130000D02*
X108425000Y-108130000D01*
X108425000Y-108670000D01*
X107375000Y-108670000D01*
X107375000Y-108130000D01*
G04 #@! TO.C,C73*
X108500000Y-93050000D02*
X109500000Y-93050000D01*
X109500000Y-93550000D01*
X108500000Y-93550000D01*
X108500000Y-93050000D01*
G04 #@! TO.C,C56*
X84882500Y-90728000D02*
X85382500Y-90728000D01*
X85382500Y-91728000D01*
X84882500Y-91728000D01*
X84882500Y-90728000D01*
G04 #@! TO.C,C46*
X162300000Y-94450000D02*
X163300000Y-94450000D01*
X163300000Y-94950000D01*
X162300000Y-94950000D01*
X162300000Y-94450000D01*
G04 #@! TO.C,C26*
X122000000Y-95650000D02*
X123000000Y-95650000D01*
X123000000Y-96150000D01*
X122000000Y-96150000D01*
X122000000Y-95650000D01*
G04 #@! TO.C,RN2*
X148325000Y-100375000D02*
X150325000Y-100375000D01*
X148325000Y-101375000D02*
X148325000Y-100375000D01*
X150325000Y-100375000D02*
X150325000Y-101375000D01*
X150325000Y-101375000D02*
X148325000Y-101375000D01*
G04 #@! TO.C,U7*
X139900000Y-108735000D02*
X134900000Y-108735000D01*
X134900000Y-103735000D01*
X140900000Y-103735000D01*
X140900000Y-107735000D01*
X139900000Y-108735000D01*
G04 #@! TO.C,C71*
X90400000Y-95150000D02*
X91400000Y-95150000D01*
X91400000Y-95650000D01*
X90400000Y-95650000D01*
X90400000Y-95150000D01*
G04 #@! TO.C,C64*
X88082500Y-88628000D02*
X88582500Y-88628000D01*
X88582500Y-89628000D01*
X88082500Y-89628000D01*
X88082500Y-88628000D01*
G04 #@! TO.C,C63*
X90400000Y-91150000D02*
X91400000Y-91150000D01*
X91400000Y-91650000D01*
X90400000Y-91650000D01*
X90400000Y-91150000D01*
G04 #@! TO.C,FID4*
X183250000Y-93000000D02*
G75*
G02*
X181750000Y-93000000I-750000J0D01*
G01*
X181750000Y-93000000D02*
G75*
G02*
X183250000Y-93000000I750000J0D01*
G01*
G04 #@! TO.C,D1*
X118450000Y-96125000D02*
X117950000Y-96125000D01*
X118450000Y-96225000D02*
X117950000Y-96225000D01*
X117950000Y-95325000D02*
X118450000Y-95325000D01*
X118450000Y-96325000D01*
X117950000Y-96325000D01*
X117950000Y-95325000D01*
G04 #@! TO.C,C65*
X90400000Y-96150000D02*
X91400000Y-96150000D01*
X91400000Y-96650000D01*
X90400000Y-96650000D01*
X90400000Y-96150000D01*
G04 #@! TO.C,R32*
X87027500Y-89593000D02*
X87567500Y-89593000D01*
X87567500Y-90643000D01*
X87027500Y-90643000D01*
X87027500Y-89593000D01*
G04 #@! TO.C,R23*
X117930000Y-97475000D02*
X118470000Y-97475000D01*
X118470000Y-98525000D01*
X117930000Y-98525000D01*
X117930000Y-97475000D01*
G04 #@! TO.C,R21*
X121707500Y-101820000D02*
X122757500Y-101820000D01*
X122757500Y-102360000D01*
X121707500Y-102360000D01*
X121707500Y-101820000D01*
G04 #@! TO.C,R14*
X129380000Y-109510000D02*
X129920000Y-109510000D01*
X129920000Y-110560000D01*
X129380000Y-110560000D01*
X129380000Y-109510000D01*
G04 #@! TO.C,C41*
X164350000Y-97700000D02*
X164850000Y-97700000D01*
X164850000Y-98700000D01*
X164350000Y-98700000D01*
X164350000Y-97700000D01*
G04 #@! TO.C,RN1*
X143025000Y-100375000D02*
X145025000Y-100375000D01*
X143025000Y-101375000D02*
X143025000Y-100375000D01*
X145025000Y-100375000D02*
X145025000Y-101375000D01*
X145025000Y-101375000D02*
X143025000Y-101375000D01*
G04 #@! TO.C,C61*
X90400000Y-92150000D02*
X91400000Y-92150000D01*
X91400000Y-92650000D01*
X90400000Y-92650000D01*
X90400000Y-92150000D01*
G04 #@! TO.C,C60*
X90400000Y-93150000D02*
X91400000Y-93150000D01*
X91400000Y-93650000D01*
X90400000Y-93650000D01*
X90400000Y-93150000D01*
G04 #@! TO.C,R26*
X134275000Y-96030000D02*
X135325000Y-96030000D01*
X135325000Y-96570000D01*
X134275000Y-96570000D01*
X134275000Y-96030000D01*
G04 #@! TO.C,C18*
X128050000Y-88250000D02*
X128550000Y-88250000D01*
X128550000Y-89250000D01*
X128050000Y-89250000D01*
X128050000Y-88250000D01*
G04 #@! TO.C,R24*
X118930000Y-97475000D02*
X119470000Y-97475000D01*
X119470000Y-98525000D01*
X118930000Y-98525000D01*
X118930000Y-97475000D01*
G04 #@! TO.C,R25*
X127030000Y-88225000D02*
X127570000Y-88225000D01*
X127570000Y-89275000D01*
X127030000Y-89275000D01*
X127030000Y-88225000D01*
G04 #@! TO.C,C66*
X88650000Y-97700000D02*
X89150000Y-97700000D01*
X89150000Y-98700000D01*
X88650000Y-98700000D01*
X88650000Y-97700000D01*
G04 #@! TO.C,C53*
X165150000Y-90700000D02*
X165650000Y-90700000D01*
X165650000Y-91700000D01*
X165150000Y-91700000D01*
X165150000Y-90700000D01*
G04 #@! TO.C,C54*
X118750000Y-103100000D02*
X119250000Y-103100000D01*
X119250000Y-104100000D01*
X118750000Y-104100000D01*
X118750000Y-103100000D01*
G04 #@! TO.C,L7*
X83282500Y-89028000D02*
X84182500Y-89028000D01*
X84182500Y-91028000D01*
X83282500Y-91028000D01*
X83282500Y-89028000D01*
G04 #@! TO.C,C69*
X89650000Y-97700000D02*
X90150000Y-97700000D01*
X90150000Y-98700000D01*
X89650000Y-98700000D01*
X89650000Y-97700000D01*
G04 #@! TO.C,R16*
X129630000Y-100425000D02*
X130170000Y-100425000D01*
X130170000Y-101475000D01*
X129630000Y-101475000D01*
X129630000Y-100425000D01*
G04 #@! TO.C,U3*
D12*
X164062000Y-92518000D02*
X164062000Y-96982000D01*
X164062000Y-96982000D02*
X168666000Y-96982000D01*
X169298000Y-92518000D02*
X164062000Y-92518000D01*
X169298000Y-96350000D02*
X168666000Y-96982000D01*
X169298000Y-96350000D02*
X169298000Y-92518000D01*
G04 #@! TO.C,U8*
D15*
X120962500Y-102950000D02*
X122962500Y-102950000D01*
X120962500Y-104950000D02*
X120962500Y-102950000D01*
X122462500Y-104950000D02*
X120962500Y-104950000D01*
X122962500Y-102950000D02*
X122962500Y-104450000D01*
X122962500Y-104450000D02*
X122462500Y-104950000D01*
G04 #@! TO.C,C20*
X134300000Y-92700000D02*
X135300000Y-92700000D01*
X135300000Y-93200000D01*
X134300000Y-93200000D01*
X134300000Y-92700000D01*
G04 #@! TO.C,C68*
X87650000Y-97700000D02*
X88150000Y-97700000D01*
X88150000Y-98700000D01*
X87650000Y-98700000D01*
X87650000Y-97700000D01*
G04 #@! TO.C,L5*
X169450000Y-98400000D02*
X170350000Y-98400000D01*
X170350000Y-100400000D01*
X169450000Y-100400000D01*
X169450000Y-98400000D01*
G04 #@! TO.C,R18*
X133730000Y-105175000D02*
X134270000Y-105175000D01*
X134270000Y-106225000D01*
X133730000Y-106225000D01*
X133730000Y-105175000D01*
G04 #@! TO.C,R31*
X113580000Y-109925000D02*
X114120000Y-109925000D01*
X114120000Y-110975000D01*
X113580000Y-110975000D01*
X113580000Y-109925000D01*
G04 #@! TO.C,C74*
X108850000Y-98500000D02*
X109350000Y-98500000D01*
X109350000Y-99500000D01*
X108850000Y-99500000D01*
X108850000Y-98500000D01*
G04 #@! TO.C,R11*
X111330000Y-90675000D02*
X111870000Y-90675000D01*
X111870000Y-91725000D01*
X111330000Y-91725000D01*
X111330000Y-90675000D01*
G04 #@! TO.C,C40*
X162295000Y-93450000D02*
X163295000Y-93450000D01*
X163295000Y-93950000D01*
X162295000Y-93950000D01*
X162295000Y-93450000D01*
G04 #@! TO.C,C49*
X119882500Y-103100000D02*
X120382500Y-103100000D01*
X120382500Y-104100000D01*
X119882500Y-104100000D01*
X119882500Y-103100000D01*
G04 #@! TO.C,R22*
X121697500Y-105520000D02*
X122747500Y-105520000D01*
X122747500Y-106060000D01*
X121697500Y-106060000D01*
X121697500Y-105520000D01*
G04 #@! TO.C,C47*
X162300000Y-92450000D02*
X163300000Y-92450000D01*
X163300000Y-92950000D01*
X162300000Y-92950000D01*
X162300000Y-92450000D01*
G04 #@! TO.C,R12*
X112330000Y-90675000D02*
X112870000Y-90675000D01*
X112870000Y-91725000D01*
X112330000Y-91725000D01*
X112330000Y-90675000D01*
G04 #@! TO.C,R17*
X137975000Y-102730000D02*
X139025000Y-102730000D01*
X139025000Y-103270000D01*
X137975000Y-103270000D01*
X137975000Y-102730000D01*
G04 #@! TO.C,C55*
X168250000Y-97700000D02*
X168750000Y-97700000D01*
X168750000Y-98700000D01*
X168250000Y-98700000D01*
X168250000Y-97700000D01*
G04 #@! TO.C,C45*
X163375000Y-97725000D02*
X163875000Y-97725000D01*
X163875000Y-98725000D01*
X163375000Y-98725000D01*
X163375000Y-97725000D01*
G04 #@! TO.C,C44*
X162200000Y-96550000D02*
X163200000Y-96550000D01*
X163200000Y-97050000D01*
X162200000Y-97050000D01*
X162200000Y-96550000D01*
G04 #@! TO.C,C70*
X86332500Y-91373000D02*
X87332500Y-91373000D01*
X87332500Y-91873000D01*
X86332500Y-91873000D01*
X86332500Y-91373000D01*
G04 #@! TO.C,U9*
D12*
X84334500Y-93078000D02*
X84334500Y-96910000D01*
X84334500Y-93078000D02*
X84966500Y-92446000D01*
X84334500Y-96910000D02*
X89570500Y-96910000D01*
X89570500Y-92446000D02*
X84966500Y-92446000D01*
X89570500Y-96910000D02*
X89570500Y-92446000D01*
G04 #@! TO.C,FID1*
D15*
X71750000Y-93000000D02*
G75*
G02*
X70250000Y-93000000I-750000J0D01*
G01*
X70250000Y-93000000D02*
G75*
G02*
X71750000Y-93000000I750000J0D01*
G01*
G04 #@! TO.C,D2*
X119450000Y-96125000D02*
X118950000Y-96125000D01*
X119450000Y-96225000D02*
X118950000Y-96225000D01*
X118950000Y-95325000D02*
X119450000Y-95325000D01*
X119450000Y-96325000D01*
X118950000Y-96325000D01*
X118950000Y-95325000D01*
G04 #@! TO.C,C23*
X134300000Y-97050000D02*
X135300000Y-97050000D01*
X135300000Y-97550000D01*
X134300000Y-97550000D01*
X134300000Y-97050000D01*
G04 #@! TO.C,C31*
X134950000Y-109450000D02*
X135450000Y-109450000D01*
X135450000Y-110450000D01*
X134950000Y-110450000D01*
X134950000Y-109450000D01*
G04 #@! TO.C,R15*
X126730000Y-109510000D02*
X127270000Y-109510000D01*
X127270000Y-110560000D01*
X126730000Y-110560000D01*
X126730000Y-109510000D01*
G04 #@! TO.C,C35*
X162300000Y-95475000D02*
X163300000Y-95475000D01*
X163300000Y-95975000D01*
X162300000Y-95975000D01*
X162300000Y-95475000D01*
G04 #@! TO.C,C58*
X90400000Y-94150000D02*
X91400000Y-94150000D01*
X91400000Y-94650000D01*
X90400000Y-94650000D01*
X90400000Y-94150000D01*
G04 #@! TO.C,R13*
X166065000Y-98785000D02*
X166605000Y-98785000D01*
X166605000Y-99835000D01*
X166065000Y-99835000D01*
X166065000Y-98785000D01*
G04 #@! TD*
M02*
