G04 #@! TF.GenerationSoftware,KiCad,Pcbnew,10.0.5*
G04 #@! TF.CreationDate,2026-08-10T10:17:43+02:00*
G04 #@! TF.ProjectId,4reel_ee,34726565-6c5f-4656-952e-6b696361645f,rev?*
G04 #@! TF.SameCoordinates,Original*
G04 #@! TF.FileFunction,Legend,Bot*
G04 #@! TF.FilePolarity,Positive*
%FSLAX46Y46*%
G04 Gerber Fmt 4.6, Leading zero omitted, Abs format (unit mm)*
G04 Created by KiCad (PCBNEW 10.0.5) date 2026-08-10 10:17:43*
%MOMM*%
%LPD*%
G01*
G04 APERTURE LIST*
G04 Aperture macros list*
%AMRoundRect*
0 Rectangle with rounded corners*
0 $1 Rounding radius*
0 $2 $3 $4 $5 $6 $7 $8 $9 X,Y pos of 4 corners*
0 Add a 4 corners polygon primitive as box body*
4,1,4,$2,$3,$4,$5,$6,$7,$8,$9,$2,$3,0*
0 Add four circle primitives for the rounded corners*
1,1,$1+$1,$2,$3*
1,1,$1+$1,$4,$5*
1,1,$1+$1,$6,$7*
1,1,$1+$1,$8,$9*
0 Add four rect primitives between the rounded corners*
20,1,$1+$1,$2,$3,$4,$5,0*
20,1,$1+$1,$4,$5,$6,$7,0*
20,1,$1+$1,$6,$7,$8,$9,0*
20,1,$1+$1,$8,$9,$2,$3,0*%
G04 Aperture macros list end*
%ADD10C,0.150000*%
%ADD11C,0.120000*%
%ADD12C,2.200000*%
%ADD13C,1.500000*%
%ADD14RoundRect,0.140000X0.140000X0.170000X-0.140000X0.170000X-0.140000X-0.170000X0.140000X-0.170000X0*%
%ADD15RoundRect,0.050000X-0.375000X-0.050000X0.375000X-0.050000X0.375000X0.050000X-0.375000X0.050000X0*%
%ADD16RoundRect,0.050000X-0.050000X-0.375000X0.050000X-0.375000X0.050000X0.375000X-0.050000X0.375000X0*%
%ADD17R,1.650000X1.650000*%
%ADD18C,3.250000*%
%ADD19RoundRect,0.250500X0.499500X0.499500X-0.499500X0.499500X-0.499500X-0.499500X0.499500X-0.499500X0*%
%ADD20C,2.500000*%
%ADD21RoundRect,0.250000X-0.375000X-0.850000X0.375000X-0.850000X0.375000X0.850000X-0.375000X0.850000X0*%
%ADD22RoundRect,0.250000X0.375000X0.850000X-0.375000X0.850000X-0.375000X-0.850000X0.375000X-0.850000X0*%
%ADD23RoundRect,0.135000X-0.135000X-0.185000X0.135000X-0.185000X0.135000X0.185000X-0.135000X0.185000X0*%
%ADD24RoundRect,0.140000X-0.170000X0.140000X-0.170000X-0.140000X0.170000X-0.140000X0.170000X0.140000X0*%
%ADD25RoundRect,0.135000X0.185000X-0.135000X0.185000X0.135000X-0.185000X0.135000X-0.185000X-0.135000X0*%
%ADD26RoundRect,0.140000X-0.140000X-0.170000X0.140000X-0.170000X0.140000X0.170000X-0.140000X0.170000X0*%
%ADD27RoundRect,0.140000X0.170000X-0.140000X0.170000X0.140000X-0.170000X0.140000X-0.170000X-0.140000X0*%
%ADD28RoundRect,0.250000X-0.350000X0.450000X-0.350000X-0.450000X0.350000X-0.450000X0.350000X0.450000X0*%
%ADD29RoundRect,0.150000X-0.512500X-0.150000X0.512500X-0.150000X0.512500X0.150000X-0.512500X0.150000X0*%
%ADD30RoundRect,0.135000X-0.185000X0.135000X-0.185000X-0.135000X0.185000X-0.135000X0.185000X0.135000X0*%
%ADD31RoundRect,0.100000X-0.130000X-0.100000X0.130000X-0.100000X0.130000X0.100000X-0.130000X0.100000X0*%
%ADD32RoundRect,0.060000X0.340000X0.060000X-0.340000X0.060000X-0.340000X-0.060000X0.340000X-0.060000X0*%
%ADD33RoundRect,0.060000X0.060000X0.340000X-0.060000X0.340000X-0.060000X-0.340000X0.060000X-0.340000X0*%
%ADD34R,6.500000X6.500000*%
%ADD35R,1.500000X1.500000*%
%ADD36RoundRect,0.135000X0.135000X0.185000X-0.135000X0.185000X-0.135000X-0.185000X0.135000X-0.185000X0*%
%ADD37RoundRect,0.218750X0.381250X-0.218750X0.381250X0.218750X-0.381250X0.218750X-0.381250X-0.218750X0*%
%ADD38RoundRect,0.200000X0.200000X-0.250000X0.200000X0.250000X-0.200000X0.250000X-0.200000X-0.250000X0*%
%ADD39RoundRect,0.218750X-0.381250X0.218750X-0.381250X-0.218750X0.381250X-0.218750X0.381250X0.218750X0*%
%ADD40RoundRect,0.150000X-0.150000X0.512500X-0.150000X-0.512500X0.150000X-0.512500X0.150000X0.512500X0*%
%ADD41C,0.650000*%
%ADD42RoundRect,0.150000X0.150000X0.425000X-0.150000X0.425000X-0.150000X-0.425000X0.150000X-0.425000X0*%
%ADD43RoundRect,0.075000X0.075000X0.500000X-0.075000X0.500000X-0.075000X-0.500000X0.075000X-0.500000X0*%
%ADD44O,1.000000X1.800000*%
%ADD45O,1.000000X2.100000*%
%ADD46RoundRect,0.250000X0.350000X-0.450000X0.350000X0.450000X-0.350000X0.450000X-0.350000X-0.450000X0*%
%ADD47RoundRect,0.075000X0.075000X0.075000X-0.075000X0.075000X-0.075000X-0.075000X0.075000X-0.075000X0*%
%ADD48R,0.700000X1.200000*%
%ADD49R,1.000000X0.800000*%
%ADD50R,1.000000X2.800000*%
%ADD51R,1.000000X1.200000*%
%ADD52R,1.300000X1.900000*%
%ADD53RoundRect,0.150000X0.150000X0.625000X-0.150000X0.625000X-0.150000X-0.625000X0.150000X-0.625000X0*%
%ADD54RoundRect,0.250000X0.350000X0.650000X-0.350000X0.650000X-0.350000X-0.650000X0.350000X-0.650000X0*%
G04 APERTURE END LIST*
D10*
X79249582Y-110300104D02*
X79287678Y-110338200D01*
X79287678Y-110338200D02*
X79401963Y-110376295D01*
X79401963Y-110376295D02*
X79478154Y-110376295D01*
X79478154Y-110376295D02*
X79592440Y-110338200D01*
X79592440Y-110338200D02*
X79668630Y-110262009D01*
X79668630Y-110262009D02*
X79706725Y-110185819D01*
X79706725Y-110185819D02*
X79744821Y-110033438D01*
X79744821Y-110033438D02*
X79744821Y-109919152D01*
X79744821Y-109919152D02*
X79706725Y-109766771D01*
X79706725Y-109766771D02*
X79668630Y-109690580D01*
X79668630Y-109690580D02*
X79592440Y-109614390D01*
X79592440Y-109614390D02*
X79478154Y-109576295D01*
X79478154Y-109576295D02*
X79401963Y-109576295D01*
X79401963Y-109576295D02*
X79287678Y-109614390D01*
X79287678Y-109614390D02*
X79249582Y-109652485D01*
X78792440Y-109919152D02*
X78868630Y-109881057D01*
X78868630Y-109881057D02*
X78906725Y-109842961D01*
X78906725Y-109842961D02*
X78944821Y-109766771D01*
X78944821Y-109766771D02*
X78944821Y-109728676D01*
X78944821Y-109728676D02*
X78906725Y-109652485D01*
X78906725Y-109652485D02*
X78868630Y-109614390D01*
X78868630Y-109614390D02*
X78792440Y-109576295D01*
X78792440Y-109576295D02*
X78640059Y-109576295D01*
X78640059Y-109576295D02*
X78563868Y-109614390D01*
X78563868Y-109614390D02*
X78525773Y-109652485D01*
X78525773Y-109652485D02*
X78487678Y-109728676D01*
X78487678Y-109728676D02*
X78487678Y-109766771D01*
X78487678Y-109766771D02*
X78525773Y-109842961D01*
X78525773Y-109842961D02*
X78563868Y-109881057D01*
X78563868Y-109881057D02*
X78640059Y-109919152D01*
X78640059Y-109919152D02*
X78792440Y-109919152D01*
X78792440Y-109919152D02*
X78868630Y-109957247D01*
X78868630Y-109957247D02*
X78906725Y-109995342D01*
X78906725Y-109995342D02*
X78944821Y-110071533D01*
X78944821Y-110071533D02*
X78944821Y-110223914D01*
X78944821Y-110223914D02*
X78906725Y-110300104D01*
X78906725Y-110300104D02*
X78868630Y-110338200D01*
X78868630Y-110338200D02*
X78792440Y-110376295D01*
X78792440Y-110376295D02*
X78640059Y-110376295D01*
X78640059Y-110376295D02*
X78563868Y-110338200D01*
X78563868Y-110338200D02*
X78525773Y-110300104D01*
X78525773Y-110300104D02*
X78487678Y-110223914D01*
X78487678Y-110223914D02*
X78487678Y-110071533D01*
X78487678Y-110071533D02*
X78525773Y-109995342D01*
X78525773Y-109995342D02*
X78563868Y-109957247D01*
X78563868Y-109957247D02*
X78640059Y-109919152D01*
X87925773Y-109976295D02*
X87925773Y-110623914D01*
X87925773Y-110623914D02*
X87887678Y-110700104D01*
X87887678Y-110700104D02*
X87849583Y-110738200D01*
X87849583Y-110738200D02*
X87773392Y-110776295D01*
X87773392Y-110776295D02*
X87621011Y-110776295D01*
X87621011Y-110776295D02*
X87544821Y-110738200D01*
X87544821Y-110738200D02*
X87506726Y-110700104D01*
X87506726Y-110700104D02*
X87468630Y-110623914D01*
X87468630Y-110623914D02*
X87468630Y-109976295D01*
X87125774Y-110052485D02*
X87087678Y-110014390D01*
X87087678Y-110014390D02*
X87011488Y-109976295D01*
X87011488Y-109976295D02*
X86821012Y-109976295D01*
X86821012Y-109976295D02*
X86744821Y-110014390D01*
X86744821Y-110014390D02*
X86706726Y-110052485D01*
X86706726Y-110052485D02*
X86668631Y-110128676D01*
X86668631Y-110128676D02*
X86668631Y-110204866D01*
X86668631Y-110204866D02*
X86706726Y-110319152D01*
X86706726Y-110319152D02*
X87163869Y-110776295D01*
X87163869Y-110776295D02*
X86668631Y-110776295D01*
X102482916Y-91576295D02*
X102482916Y-92147723D01*
X102482916Y-92147723D02*
X102521011Y-92262009D01*
X102521011Y-92262009D02*
X102597202Y-92338200D01*
X102597202Y-92338200D02*
X102711487Y-92376295D01*
X102711487Y-92376295D02*
X102787678Y-92376295D01*
X102178154Y-91576295D02*
X101682916Y-91576295D01*
X101682916Y-91576295D02*
X101949582Y-91881057D01*
X101949582Y-91881057D02*
X101835297Y-91881057D01*
X101835297Y-91881057D02*
X101759106Y-91919152D01*
X101759106Y-91919152D02*
X101721011Y-91957247D01*
X101721011Y-91957247D02*
X101682916Y-92033438D01*
X101682916Y-92033438D02*
X101682916Y-92223914D01*
X101682916Y-92223914D02*
X101721011Y-92300104D01*
X101721011Y-92300104D02*
X101759106Y-92338200D01*
X101759106Y-92338200D02*
X101835297Y-92376295D01*
X101835297Y-92376295D02*
X102063868Y-92376295D01*
X102063868Y-92376295D02*
X102140059Y-92338200D01*
X102140059Y-92338200D02*
X102178154Y-92300104D01*
X90549583Y-106476295D02*
X90930535Y-106476295D01*
X90930535Y-106476295D02*
X90930535Y-105676295D01*
X89863869Y-106476295D02*
X90321012Y-106476295D01*
X90092440Y-106476295D02*
X90092440Y-105676295D01*
X90092440Y-105676295D02*
X90168631Y-105790580D01*
X90168631Y-105790580D02*
X90244821Y-105866771D01*
X90244821Y-105866771D02*
X90321012Y-105904866D01*
X82683333Y-114676295D02*
X83064285Y-114676295D01*
X83064285Y-114676295D02*
X83064285Y-113876295D01*
X82492857Y-113876295D02*
X81997619Y-113876295D01*
X81997619Y-113876295D02*
X82264285Y-114181057D01*
X82264285Y-114181057D02*
X82150000Y-114181057D01*
X82150000Y-114181057D02*
X82073809Y-114219152D01*
X82073809Y-114219152D02*
X82035714Y-114257247D01*
X82035714Y-114257247D02*
X81997619Y-114333438D01*
X81997619Y-114333438D02*
X81997619Y-114523914D01*
X81997619Y-114523914D02*
X82035714Y-114600104D01*
X82035714Y-114600104D02*
X82073809Y-114638200D01*
X82073809Y-114638200D02*
X82150000Y-114676295D01*
X82150000Y-114676295D02*
X82378571Y-114676295D01*
X82378571Y-114676295D02*
X82454762Y-114638200D01*
X82454762Y-114638200D02*
X82492857Y-114600104D01*
X90849582Y-114276295D02*
X91116249Y-113895342D01*
X91306725Y-114276295D02*
X91306725Y-113476295D01*
X91306725Y-113476295D02*
X91001963Y-113476295D01*
X91001963Y-113476295D02*
X90925773Y-113514390D01*
X90925773Y-113514390D02*
X90887678Y-113552485D01*
X90887678Y-113552485D02*
X90849582Y-113628676D01*
X90849582Y-113628676D02*
X90849582Y-113742961D01*
X90849582Y-113742961D02*
X90887678Y-113819152D01*
X90887678Y-113819152D02*
X90925773Y-113857247D01*
X90925773Y-113857247D02*
X91001963Y-113895342D01*
X91001963Y-113895342D02*
X91306725Y-113895342D01*
X90544821Y-113552485D02*
X90506725Y-113514390D01*
X90506725Y-113514390D02*
X90430535Y-113476295D01*
X90430535Y-113476295D02*
X90240059Y-113476295D01*
X90240059Y-113476295D02*
X90163868Y-113514390D01*
X90163868Y-113514390D02*
X90125773Y-113552485D01*
X90125773Y-113552485D02*
X90087678Y-113628676D01*
X90087678Y-113628676D02*
X90087678Y-113704866D01*
X90087678Y-113704866D02*
X90125773Y-113819152D01*
X90125773Y-113819152D02*
X90582916Y-114276295D01*
X90582916Y-114276295D02*
X90087678Y-114276295D01*
X124502354Y-102499714D02*
X124540450Y-102461618D01*
X124540450Y-102461618D02*
X124578545Y-102347333D01*
X124578545Y-102347333D02*
X124578545Y-102271142D01*
X124578545Y-102271142D02*
X124540450Y-102156856D01*
X124540450Y-102156856D02*
X124464259Y-102080666D01*
X124464259Y-102080666D02*
X124388069Y-102042571D01*
X124388069Y-102042571D02*
X124235688Y-102004475D01*
X124235688Y-102004475D02*
X124121402Y-102004475D01*
X124121402Y-102004475D02*
X123969021Y-102042571D01*
X123969021Y-102042571D02*
X123892830Y-102080666D01*
X123892830Y-102080666D02*
X123816640Y-102156856D01*
X123816640Y-102156856D02*
X123778545Y-102271142D01*
X123778545Y-102271142D02*
X123778545Y-102347333D01*
X123778545Y-102347333D02*
X123816640Y-102461618D01*
X123816640Y-102461618D02*
X123854735Y-102499714D01*
X123778545Y-102766380D02*
X123778545Y-103299714D01*
X123778545Y-103299714D02*
X124578545Y-102956856D01*
X123778545Y-103985428D02*
X123778545Y-103604476D01*
X123778545Y-103604476D02*
X124159497Y-103566380D01*
X124159497Y-103566380D02*
X124121402Y-103604476D01*
X124121402Y-103604476D02*
X124083307Y-103680666D01*
X124083307Y-103680666D02*
X124083307Y-103871142D01*
X124083307Y-103871142D02*
X124121402Y-103947333D01*
X124121402Y-103947333D02*
X124159497Y-103985428D01*
X124159497Y-103985428D02*
X124235688Y-104023523D01*
X124235688Y-104023523D02*
X124426164Y-104023523D01*
X124426164Y-104023523D02*
X124502354Y-103985428D01*
X124502354Y-103985428D02*
X124540450Y-103947333D01*
X124540450Y-103947333D02*
X124578545Y-103871142D01*
X124578545Y-103871142D02*
X124578545Y-103680666D01*
X124578545Y-103680666D02*
X124540450Y-103604476D01*
X124540450Y-103604476D02*
X124502354Y-103566380D01*
X146516785Y-96000104D02*
X146554881Y-96038200D01*
X146554881Y-96038200D02*
X146669166Y-96076295D01*
X146669166Y-96076295D02*
X146745357Y-96076295D01*
X146745357Y-96076295D02*
X146859643Y-96038200D01*
X146859643Y-96038200D02*
X146935833Y-95962009D01*
X146935833Y-95962009D02*
X146973928Y-95885819D01*
X146973928Y-95885819D02*
X147012024Y-95733438D01*
X147012024Y-95733438D02*
X147012024Y-95619152D01*
X147012024Y-95619152D02*
X146973928Y-95466771D01*
X146973928Y-95466771D02*
X146935833Y-95390580D01*
X146935833Y-95390580D02*
X146859643Y-95314390D01*
X146859643Y-95314390D02*
X146745357Y-95276295D01*
X146745357Y-95276295D02*
X146669166Y-95276295D01*
X146669166Y-95276295D02*
X146554881Y-95314390D01*
X146554881Y-95314390D02*
X146516785Y-95352485D01*
X145792976Y-95276295D02*
X146173928Y-95276295D01*
X146173928Y-95276295D02*
X146212024Y-95657247D01*
X146212024Y-95657247D02*
X146173928Y-95619152D01*
X146173928Y-95619152D02*
X146097738Y-95581057D01*
X146097738Y-95581057D02*
X145907262Y-95581057D01*
X145907262Y-95581057D02*
X145831071Y-95619152D01*
X145831071Y-95619152D02*
X145792976Y-95657247D01*
X145792976Y-95657247D02*
X145754881Y-95733438D01*
X145754881Y-95733438D02*
X145754881Y-95923914D01*
X145754881Y-95923914D02*
X145792976Y-96000104D01*
X145792976Y-96000104D02*
X145831071Y-96038200D01*
X145831071Y-96038200D02*
X145907262Y-96076295D01*
X145907262Y-96076295D02*
X146097738Y-96076295D01*
X146097738Y-96076295D02*
X146173928Y-96038200D01*
X146173928Y-96038200D02*
X146212024Y-96000104D01*
X145259642Y-95276295D02*
X145183452Y-95276295D01*
X145183452Y-95276295D02*
X145107261Y-95314390D01*
X145107261Y-95314390D02*
X145069166Y-95352485D01*
X145069166Y-95352485D02*
X145031071Y-95428676D01*
X145031071Y-95428676D02*
X144992976Y-95581057D01*
X144992976Y-95581057D02*
X144992976Y-95771533D01*
X144992976Y-95771533D02*
X145031071Y-95923914D01*
X145031071Y-95923914D02*
X145069166Y-96000104D01*
X145069166Y-96000104D02*
X145107261Y-96038200D01*
X145107261Y-96038200D02*
X145183452Y-96076295D01*
X145183452Y-96076295D02*
X145259642Y-96076295D01*
X145259642Y-96076295D02*
X145335833Y-96038200D01*
X145335833Y-96038200D02*
X145373928Y-96000104D01*
X145373928Y-96000104D02*
X145412023Y-95923914D01*
X145412023Y-95923914D02*
X145450119Y-95771533D01*
X145450119Y-95771533D02*
X145450119Y-95581057D01*
X145450119Y-95581057D02*
X145412023Y-95428676D01*
X145412023Y-95428676D02*
X145373928Y-95352485D01*
X145373928Y-95352485D02*
X145335833Y-95314390D01*
X145335833Y-95314390D02*
X145259642Y-95276295D01*
X85502354Y-113480667D02*
X85540450Y-113442571D01*
X85540450Y-113442571D02*
X85578545Y-113328286D01*
X85578545Y-113328286D02*
X85578545Y-113252095D01*
X85578545Y-113252095D02*
X85540450Y-113137809D01*
X85540450Y-113137809D02*
X85464259Y-113061619D01*
X85464259Y-113061619D02*
X85388069Y-113023524D01*
X85388069Y-113023524D02*
X85235688Y-112985428D01*
X85235688Y-112985428D02*
X85121402Y-112985428D01*
X85121402Y-112985428D02*
X84969021Y-113023524D01*
X84969021Y-113023524D02*
X84892830Y-113061619D01*
X84892830Y-113061619D02*
X84816640Y-113137809D01*
X84816640Y-113137809D02*
X84778545Y-113252095D01*
X84778545Y-113252095D02*
X84778545Y-113328286D01*
X84778545Y-113328286D02*
X84816640Y-113442571D01*
X84816640Y-113442571D02*
X84854735Y-113480667D01*
X84854735Y-113785428D02*
X84816640Y-113823524D01*
X84816640Y-113823524D02*
X84778545Y-113899714D01*
X84778545Y-113899714D02*
X84778545Y-114090190D01*
X84778545Y-114090190D02*
X84816640Y-114166381D01*
X84816640Y-114166381D02*
X84854735Y-114204476D01*
X84854735Y-114204476D02*
X84930926Y-114242571D01*
X84930926Y-114242571D02*
X85007116Y-114242571D01*
X85007116Y-114242571D02*
X85121402Y-114204476D01*
X85121402Y-114204476D02*
X85578545Y-113747333D01*
X85578545Y-113747333D02*
X85578545Y-114242571D01*
X98030535Y-108100104D02*
X98068631Y-108138200D01*
X98068631Y-108138200D02*
X98182916Y-108176295D01*
X98182916Y-108176295D02*
X98259107Y-108176295D01*
X98259107Y-108176295D02*
X98373393Y-108138200D01*
X98373393Y-108138200D02*
X98449583Y-108062009D01*
X98449583Y-108062009D02*
X98487678Y-107985819D01*
X98487678Y-107985819D02*
X98525774Y-107833438D01*
X98525774Y-107833438D02*
X98525774Y-107719152D01*
X98525774Y-107719152D02*
X98487678Y-107566771D01*
X98487678Y-107566771D02*
X98449583Y-107490580D01*
X98449583Y-107490580D02*
X98373393Y-107414390D01*
X98373393Y-107414390D02*
X98259107Y-107376295D01*
X98259107Y-107376295D02*
X98182916Y-107376295D01*
X98182916Y-107376295D02*
X98068631Y-107414390D01*
X98068631Y-107414390D02*
X98030535Y-107452485D01*
X97763869Y-107376295D02*
X97268631Y-107376295D01*
X97268631Y-107376295D02*
X97535297Y-107681057D01*
X97535297Y-107681057D02*
X97421012Y-107681057D01*
X97421012Y-107681057D02*
X97344821Y-107719152D01*
X97344821Y-107719152D02*
X97306726Y-107757247D01*
X97306726Y-107757247D02*
X97268631Y-107833438D01*
X97268631Y-107833438D02*
X97268631Y-108023914D01*
X97268631Y-108023914D02*
X97306726Y-108100104D01*
X97306726Y-108100104D02*
X97344821Y-108138200D01*
X97344821Y-108138200D02*
X97421012Y-108176295D01*
X97421012Y-108176295D02*
X97649583Y-108176295D01*
X97649583Y-108176295D02*
X97725774Y-108138200D01*
X97725774Y-108138200D02*
X97763869Y-108100104D01*
X96582916Y-107642961D02*
X96582916Y-108176295D01*
X96773392Y-107338200D02*
X96963869Y-107909628D01*
X96963869Y-107909628D02*
X96468630Y-107909628D01*
X85102354Y-103580667D02*
X85140450Y-103542571D01*
X85140450Y-103542571D02*
X85178545Y-103428286D01*
X85178545Y-103428286D02*
X85178545Y-103352095D01*
X85178545Y-103352095D02*
X85140450Y-103237809D01*
X85140450Y-103237809D02*
X85064259Y-103161619D01*
X85064259Y-103161619D02*
X84988069Y-103123524D01*
X84988069Y-103123524D02*
X84835688Y-103085428D01*
X84835688Y-103085428D02*
X84721402Y-103085428D01*
X84721402Y-103085428D02*
X84569021Y-103123524D01*
X84569021Y-103123524D02*
X84492830Y-103161619D01*
X84492830Y-103161619D02*
X84416640Y-103237809D01*
X84416640Y-103237809D02*
X84378545Y-103352095D01*
X84378545Y-103352095D02*
X84378545Y-103428286D01*
X84378545Y-103428286D02*
X84416640Y-103542571D01*
X84416640Y-103542571D02*
X84454735Y-103580667D01*
X85178545Y-104342571D02*
X85178545Y-103885428D01*
X85178545Y-104114000D02*
X84378545Y-104114000D01*
X84378545Y-104114000D02*
X84492830Y-104037809D01*
X84492830Y-104037809D02*
X84569021Y-103961619D01*
X84569021Y-103961619D02*
X84607116Y-103885428D01*
X125602354Y-102499714D02*
X125640450Y-102461618D01*
X125640450Y-102461618D02*
X125678545Y-102347333D01*
X125678545Y-102347333D02*
X125678545Y-102271142D01*
X125678545Y-102271142D02*
X125640450Y-102156856D01*
X125640450Y-102156856D02*
X125564259Y-102080666D01*
X125564259Y-102080666D02*
X125488069Y-102042571D01*
X125488069Y-102042571D02*
X125335688Y-102004475D01*
X125335688Y-102004475D02*
X125221402Y-102004475D01*
X125221402Y-102004475D02*
X125069021Y-102042571D01*
X125069021Y-102042571D02*
X124992830Y-102080666D01*
X124992830Y-102080666D02*
X124916640Y-102156856D01*
X124916640Y-102156856D02*
X124878545Y-102271142D01*
X124878545Y-102271142D02*
X124878545Y-102347333D01*
X124878545Y-102347333D02*
X124916640Y-102461618D01*
X124916640Y-102461618D02*
X124954735Y-102499714D01*
X124954735Y-102804475D02*
X124916640Y-102842571D01*
X124916640Y-102842571D02*
X124878545Y-102918761D01*
X124878545Y-102918761D02*
X124878545Y-103109237D01*
X124878545Y-103109237D02*
X124916640Y-103185428D01*
X124916640Y-103185428D02*
X124954735Y-103223523D01*
X124954735Y-103223523D02*
X125030926Y-103261618D01*
X125030926Y-103261618D02*
X125107116Y-103261618D01*
X125107116Y-103261618D02*
X125221402Y-103223523D01*
X125221402Y-103223523D02*
X125678545Y-102766380D01*
X125678545Y-102766380D02*
X125678545Y-103261618D01*
X124878545Y-103528285D02*
X124878545Y-104061619D01*
X124878545Y-104061619D02*
X125678545Y-103718761D01*
X172697592Y-89133048D02*
X173078545Y-89133048D01*
X172278545Y-88866381D02*
X172697592Y-89133048D01*
X172697592Y-89133048D02*
X172278545Y-89399714D01*
X173078545Y-90085428D02*
X173078545Y-89628285D01*
X173078545Y-89856857D02*
X172278545Y-89856857D01*
X172278545Y-89856857D02*
X172392830Y-89780666D01*
X172392830Y-89780666D02*
X172469021Y-89704476D01*
X172469021Y-89704476D02*
X172507116Y-89628285D01*
X134014285Y-101846104D02*
X134052381Y-101884200D01*
X134052381Y-101884200D02*
X134166666Y-101922295D01*
X134166666Y-101922295D02*
X134242857Y-101922295D01*
X134242857Y-101922295D02*
X134357143Y-101884200D01*
X134357143Y-101884200D02*
X134433333Y-101808009D01*
X134433333Y-101808009D02*
X134471428Y-101731819D01*
X134471428Y-101731819D02*
X134509524Y-101579438D01*
X134509524Y-101579438D02*
X134509524Y-101465152D01*
X134509524Y-101465152D02*
X134471428Y-101312771D01*
X134471428Y-101312771D02*
X134433333Y-101236580D01*
X134433333Y-101236580D02*
X134357143Y-101160390D01*
X134357143Y-101160390D02*
X134242857Y-101122295D01*
X134242857Y-101122295D02*
X134166666Y-101122295D01*
X134166666Y-101122295D02*
X134052381Y-101160390D01*
X134052381Y-101160390D02*
X134014285Y-101198485D01*
X133709524Y-101198485D02*
X133671428Y-101160390D01*
X133671428Y-101160390D02*
X133595238Y-101122295D01*
X133595238Y-101122295D02*
X133404762Y-101122295D01*
X133404762Y-101122295D02*
X133328571Y-101160390D01*
X133328571Y-101160390D02*
X133290476Y-101198485D01*
X133290476Y-101198485D02*
X133252381Y-101274676D01*
X133252381Y-101274676D02*
X133252381Y-101350866D01*
X133252381Y-101350866D02*
X133290476Y-101465152D01*
X133290476Y-101465152D02*
X133747619Y-101922295D01*
X133747619Y-101922295D02*
X133252381Y-101922295D01*
X132566666Y-101388961D02*
X132566666Y-101922295D01*
X132757142Y-101084200D02*
X132947619Y-101655628D01*
X132947619Y-101655628D02*
X132452380Y-101655628D01*
X95225773Y-102676295D02*
X95225773Y-103323914D01*
X95225773Y-103323914D02*
X95187678Y-103400104D01*
X95187678Y-103400104D02*
X95149583Y-103438200D01*
X95149583Y-103438200D02*
X95073392Y-103476295D01*
X95073392Y-103476295D02*
X94921011Y-103476295D01*
X94921011Y-103476295D02*
X94844821Y-103438200D01*
X94844821Y-103438200D02*
X94806726Y-103400104D01*
X94806726Y-103400104D02*
X94768630Y-103323914D01*
X94768630Y-103323914D02*
X94768630Y-102676295D01*
X94044821Y-102676295D02*
X94197202Y-102676295D01*
X94197202Y-102676295D02*
X94273393Y-102714390D01*
X94273393Y-102714390D02*
X94311488Y-102752485D01*
X94311488Y-102752485D02*
X94387678Y-102866771D01*
X94387678Y-102866771D02*
X94425774Y-103019152D01*
X94425774Y-103019152D02*
X94425774Y-103323914D01*
X94425774Y-103323914D02*
X94387678Y-103400104D01*
X94387678Y-103400104D02*
X94349583Y-103438200D01*
X94349583Y-103438200D02*
X94273393Y-103476295D01*
X94273393Y-103476295D02*
X94121012Y-103476295D01*
X94121012Y-103476295D02*
X94044821Y-103438200D01*
X94044821Y-103438200D02*
X94006726Y-103400104D01*
X94006726Y-103400104D02*
X93968631Y-103323914D01*
X93968631Y-103323914D02*
X93968631Y-103133438D01*
X93968631Y-103133438D02*
X94006726Y-103057247D01*
X94006726Y-103057247D02*
X94044821Y-103019152D01*
X94044821Y-103019152D02*
X94121012Y-102981057D01*
X94121012Y-102981057D02*
X94273393Y-102981057D01*
X94273393Y-102981057D02*
X94349583Y-103019152D01*
X94349583Y-103019152D02*
X94387678Y-103057247D01*
X94387678Y-103057247D02*
X94425774Y-103133438D01*
X121619285Y-96200104D02*
X121657381Y-96238200D01*
X121657381Y-96238200D02*
X121771666Y-96276295D01*
X121771666Y-96276295D02*
X121847857Y-96276295D01*
X121847857Y-96276295D02*
X121962143Y-96238200D01*
X121962143Y-96238200D02*
X122038333Y-96162009D01*
X122038333Y-96162009D02*
X122076428Y-96085819D01*
X122076428Y-96085819D02*
X122114524Y-95933438D01*
X122114524Y-95933438D02*
X122114524Y-95819152D01*
X122114524Y-95819152D02*
X122076428Y-95666771D01*
X122076428Y-95666771D02*
X122038333Y-95590580D01*
X122038333Y-95590580D02*
X121962143Y-95514390D01*
X121962143Y-95514390D02*
X121847857Y-95476295D01*
X121847857Y-95476295D02*
X121771666Y-95476295D01*
X121771666Y-95476295D02*
X121657381Y-95514390D01*
X121657381Y-95514390D02*
X121619285Y-95552485D01*
X121352619Y-95476295D02*
X120857381Y-95476295D01*
X120857381Y-95476295D02*
X121124047Y-95781057D01*
X121124047Y-95781057D02*
X121009762Y-95781057D01*
X121009762Y-95781057D02*
X120933571Y-95819152D01*
X120933571Y-95819152D02*
X120895476Y-95857247D01*
X120895476Y-95857247D02*
X120857381Y-95933438D01*
X120857381Y-95933438D02*
X120857381Y-96123914D01*
X120857381Y-96123914D02*
X120895476Y-96200104D01*
X120895476Y-96200104D02*
X120933571Y-96238200D01*
X120933571Y-96238200D02*
X121009762Y-96276295D01*
X121009762Y-96276295D02*
X121238333Y-96276295D01*
X121238333Y-96276295D02*
X121314524Y-96238200D01*
X121314524Y-96238200D02*
X121352619Y-96200104D01*
X120400238Y-95819152D02*
X120476428Y-95781057D01*
X120476428Y-95781057D02*
X120514523Y-95742961D01*
X120514523Y-95742961D02*
X120552619Y-95666771D01*
X120552619Y-95666771D02*
X120552619Y-95628676D01*
X120552619Y-95628676D02*
X120514523Y-95552485D01*
X120514523Y-95552485D02*
X120476428Y-95514390D01*
X120476428Y-95514390D02*
X120400238Y-95476295D01*
X120400238Y-95476295D02*
X120247857Y-95476295D01*
X120247857Y-95476295D02*
X120171666Y-95514390D01*
X120171666Y-95514390D02*
X120133571Y-95552485D01*
X120133571Y-95552485D02*
X120095476Y-95628676D01*
X120095476Y-95628676D02*
X120095476Y-95666771D01*
X120095476Y-95666771D02*
X120133571Y-95742961D01*
X120133571Y-95742961D02*
X120171666Y-95781057D01*
X120171666Y-95781057D02*
X120247857Y-95819152D01*
X120247857Y-95819152D02*
X120400238Y-95819152D01*
X120400238Y-95819152D02*
X120476428Y-95857247D01*
X120476428Y-95857247D02*
X120514523Y-95895342D01*
X120514523Y-95895342D02*
X120552619Y-95971533D01*
X120552619Y-95971533D02*
X120552619Y-96123914D01*
X120552619Y-96123914D02*
X120514523Y-96200104D01*
X120514523Y-96200104D02*
X120476428Y-96238200D01*
X120476428Y-96238200D02*
X120400238Y-96276295D01*
X120400238Y-96276295D02*
X120247857Y-96276295D01*
X120247857Y-96276295D02*
X120171666Y-96238200D01*
X120171666Y-96238200D02*
X120133571Y-96200104D01*
X120133571Y-96200104D02*
X120095476Y-96123914D01*
X120095476Y-96123914D02*
X120095476Y-95971533D01*
X120095476Y-95971533D02*
X120133571Y-95895342D01*
X120133571Y-95895342D02*
X120171666Y-95857247D01*
X120171666Y-95857247D02*
X120247857Y-95819152D01*
X76378545Y-113480667D02*
X75997592Y-113214000D01*
X76378545Y-113023524D02*
X75578545Y-113023524D01*
X75578545Y-113023524D02*
X75578545Y-113328286D01*
X75578545Y-113328286D02*
X75616640Y-113404476D01*
X75616640Y-113404476D02*
X75654735Y-113442571D01*
X75654735Y-113442571D02*
X75730926Y-113480667D01*
X75730926Y-113480667D02*
X75845211Y-113480667D01*
X75845211Y-113480667D02*
X75921402Y-113442571D01*
X75921402Y-113442571D02*
X75959497Y-113404476D01*
X75959497Y-113404476D02*
X75997592Y-113328286D01*
X75997592Y-113328286D02*
X75997592Y-113023524D01*
X75578545Y-114204476D02*
X75578545Y-113823524D01*
X75578545Y-113823524D02*
X75959497Y-113785428D01*
X75959497Y-113785428D02*
X75921402Y-113823524D01*
X75921402Y-113823524D02*
X75883307Y-113899714D01*
X75883307Y-113899714D02*
X75883307Y-114090190D01*
X75883307Y-114090190D02*
X75921402Y-114166381D01*
X75921402Y-114166381D02*
X75959497Y-114204476D01*
X75959497Y-114204476D02*
X76035688Y-114242571D01*
X76035688Y-114242571D02*
X76226164Y-114242571D01*
X76226164Y-114242571D02*
X76302354Y-114204476D01*
X76302354Y-114204476D02*
X76340450Y-114166381D01*
X76340450Y-114166381D02*
X76378545Y-114090190D01*
X76378545Y-114090190D02*
X76378545Y-113899714D01*
X76378545Y-113899714D02*
X76340450Y-113823524D01*
X76340450Y-113823524D02*
X76302354Y-113785428D01*
X92302354Y-103199714D02*
X92340450Y-103161618D01*
X92340450Y-103161618D02*
X92378545Y-103047333D01*
X92378545Y-103047333D02*
X92378545Y-102971142D01*
X92378545Y-102971142D02*
X92340450Y-102856856D01*
X92340450Y-102856856D02*
X92264259Y-102780666D01*
X92264259Y-102780666D02*
X92188069Y-102742571D01*
X92188069Y-102742571D02*
X92035688Y-102704475D01*
X92035688Y-102704475D02*
X91921402Y-102704475D01*
X91921402Y-102704475D02*
X91769021Y-102742571D01*
X91769021Y-102742571D02*
X91692830Y-102780666D01*
X91692830Y-102780666D02*
X91616640Y-102856856D01*
X91616640Y-102856856D02*
X91578545Y-102971142D01*
X91578545Y-102971142D02*
X91578545Y-103047333D01*
X91578545Y-103047333D02*
X91616640Y-103161618D01*
X91616640Y-103161618D02*
X91654735Y-103199714D01*
X91578545Y-103466380D02*
X91578545Y-103961618D01*
X91578545Y-103961618D02*
X91883307Y-103694952D01*
X91883307Y-103694952D02*
X91883307Y-103809237D01*
X91883307Y-103809237D02*
X91921402Y-103885428D01*
X91921402Y-103885428D02*
X91959497Y-103923523D01*
X91959497Y-103923523D02*
X92035688Y-103961618D01*
X92035688Y-103961618D02*
X92226164Y-103961618D01*
X92226164Y-103961618D02*
X92302354Y-103923523D01*
X92302354Y-103923523D02*
X92340450Y-103885428D01*
X92340450Y-103885428D02*
X92378545Y-103809237D01*
X92378545Y-103809237D02*
X92378545Y-103580666D01*
X92378545Y-103580666D02*
X92340450Y-103504475D01*
X92340450Y-103504475D02*
X92302354Y-103466380D01*
X91578545Y-104228285D02*
X91578545Y-104723523D01*
X91578545Y-104723523D02*
X91883307Y-104456857D01*
X91883307Y-104456857D02*
X91883307Y-104571142D01*
X91883307Y-104571142D02*
X91921402Y-104647333D01*
X91921402Y-104647333D02*
X91959497Y-104685428D01*
X91959497Y-104685428D02*
X92035688Y-104723523D01*
X92035688Y-104723523D02*
X92226164Y-104723523D01*
X92226164Y-104723523D02*
X92302354Y-104685428D01*
X92302354Y-104685428D02*
X92340450Y-104647333D01*
X92340450Y-104647333D02*
X92378545Y-104571142D01*
X92378545Y-104571142D02*
X92378545Y-104342571D01*
X92378545Y-104342571D02*
X92340450Y-104266380D01*
X92340450Y-104266380D02*
X92302354Y-104228285D01*
X77302354Y-110799714D02*
X77340450Y-110761618D01*
X77340450Y-110761618D02*
X77378545Y-110647333D01*
X77378545Y-110647333D02*
X77378545Y-110571142D01*
X77378545Y-110571142D02*
X77340450Y-110456856D01*
X77340450Y-110456856D02*
X77264259Y-110380666D01*
X77264259Y-110380666D02*
X77188069Y-110342571D01*
X77188069Y-110342571D02*
X77035688Y-110304475D01*
X77035688Y-110304475D02*
X76921402Y-110304475D01*
X76921402Y-110304475D02*
X76769021Y-110342571D01*
X76769021Y-110342571D02*
X76692830Y-110380666D01*
X76692830Y-110380666D02*
X76616640Y-110456856D01*
X76616640Y-110456856D02*
X76578545Y-110571142D01*
X76578545Y-110571142D02*
X76578545Y-110647333D01*
X76578545Y-110647333D02*
X76616640Y-110761618D01*
X76616640Y-110761618D02*
X76654735Y-110799714D01*
X77378545Y-111561618D02*
X77378545Y-111104475D01*
X77378545Y-111333047D02*
X76578545Y-111333047D01*
X76578545Y-111333047D02*
X76692830Y-111256856D01*
X76692830Y-111256856D02*
X76769021Y-111180666D01*
X76769021Y-111180666D02*
X76807116Y-111104475D01*
X76578545Y-111828285D02*
X76578545Y-112323523D01*
X76578545Y-112323523D02*
X76883307Y-112056857D01*
X76883307Y-112056857D02*
X76883307Y-112171142D01*
X76883307Y-112171142D02*
X76921402Y-112247333D01*
X76921402Y-112247333D02*
X76959497Y-112285428D01*
X76959497Y-112285428D02*
X77035688Y-112323523D01*
X77035688Y-112323523D02*
X77226164Y-112323523D01*
X77226164Y-112323523D02*
X77302354Y-112285428D01*
X77302354Y-112285428D02*
X77340450Y-112247333D01*
X77340450Y-112247333D02*
X77378545Y-112171142D01*
X77378545Y-112171142D02*
X77378545Y-111942571D01*
X77378545Y-111942571D02*
X77340450Y-111866380D01*
X77340450Y-111866380D02*
X77302354Y-111828285D01*
X121030535Y-94600104D02*
X121068631Y-94638200D01*
X121068631Y-94638200D02*
X121182916Y-94676295D01*
X121182916Y-94676295D02*
X121259107Y-94676295D01*
X121259107Y-94676295D02*
X121373393Y-94638200D01*
X121373393Y-94638200D02*
X121449583Y-94562009D01*
X121449583Y-94562009D02*
X121487678Y-94485819D01*
X121487678Y-94485819D02*
X121525774Y-94333438D01*
X121525774Y-94333438D02*
X121525774Y-94219152D01*
X121525774Y-94219152D02*
X121487678Y-94066771D01*
X121487678Y-94066771D02*
X121449583Y-93990580D01*
X121449583Y-93990580D02*
X121373393Y-93914390D01*
X121373393Y-93914390D02*
X121259107Y-93876295D01*
X121259107Y-93876295D02*
X121182916Y-93876295D01*
X121182916Y-93876295D02*
X121068631Y-93914390D01*
X121068631Y-93914390D02*
X121030535Y-93952485D01*
X120268631Y-94676295D02*
X120725774Y-94676295D01*
X120497202Y-94676295D02*
X120497202Y-93876295D01*
X120497202Y-93876295D02*
X120573393Y-93990580D01*
X120573393Y-93990580D02*
X120649583Y-94066771D01*
X120649583Y-94066771D02*
X120725774Y-94104866D01*
X120001964Y-93876295D02*
X119468630Y-93876295D01*
X119468630Y-93876295D02*
X119811488Y-94676295D01*
X137514285Y-94762295D02*
X137780952Y-94381342D01*
X137971428Y-94762295D02*
X137971428Y-93962295D01*
X137971428Y-93962295D02*
X137666666Y-93962295D01*
X137666666Y-93962295D02*
X137590476Y-94000390D01*
X137590476Y-94000390D02*
X137552381Y-94038485D01*
X137552381Y-94038485D02*
X137514285Y-94114676D01*
X137514285Y-94114676D02*
X137514285Y-94228961D01*
X137514285Y-94228961D02*
X137552381Y-94305152D01*
X137552381Y-94305152D02*
X137590476Y-94343247D01*
X137590476Y-94343247D02*
X137666666Y-94381342D01*
X137666666Y-94381342D02*
X137971428Y-94381342D01*
X137209524Y-94038485D02*
X137171428Y-94000390D01*
X137171428Y-94000390D02*
X137095238Y-93962295D01*
X137095238Y-93962295D02*
X136904762Y-93962295D01*
X136904762Y-93962295D02*
X136828571Y-94000390D01*
X136828571Y-94000390D02*
X136790476Y-94038485D01*
X136790476Y-94038485D02*
X136752381Y-94114676D01*
X136752381Y-94114676D02*
X136752381Y-94190866D01*
X136752381Y-94190866D02*
X136790476Y-94305152D01*
X136790476Y-94305152D02*
X137247619Y-94762295D01*
X137247619Y-94762295D02*
X136752381Y-94762295D01*
X136485714Y-93962295D02*
X135952380Y-93962295D01*
X135952380Y-93962295D02*
X136295238Y-94762295D01*
X129309523Y-88562295D02*
X129309523Y-89209914D01*
X129309523Y-89209914D02*
X129271428Y-89286104D01*
X129271428Y-89286104D02*
X129233333Y-89324200D01*
X129233333Y-89324200D02*
X129157142Y-89362295D01*
X129157142Y-89362295D02*
X129004761Y-89362295D01*
X129004761Y-89362295D02*
X128928571Y-89324200D01*
X128928571Y-89324200D02*
X128890476Y-89286104D01*
X128890476Y-89286104D02*
X128852380Y-89209914D01*
X128852380Y-89209914D02*
X128852380Y-88562295D01*
X128052381Y-89362295D02*
X128509524Y-89362295D01*
X128280952Y-89362295D02*
X128280952Y-88562295D01*
X128280952Y-88562295D02*
X128357143Y-88676580D01*
X128357143Y-88676580D02*
X128433333Y-88752771D01*
X128433333Y-88752771D02*
X128509524Y-88790866D01*
X86102354Y-103580667D02*
X86140450Y-103542571D01*
X86140450Y-103542571D02*
X86178545Y-103428286D01*
X86178545Y-103428286D02*
X86178545Y-103352095D01*
X86178545Y-103352095D02*
X86140450Y-103237809D01*
X86140450Y-103237809D02*
X86064259Y-103161619D01*
X86064259Y-103161619D02*
X85988069Y-103123524D01*
X85988069Y-103123524D02*
X85835688Y-103085428D01*
X85835688Y-103085428D02*
X85721402Y-103085428D01*
X85721402Y-103085428D02*
X85569021Y-103123524D01*
X85569021Y-103123524D02*
X85492830Y-103161619D01*
X85492830Y-103161619D02*
X85416640Y-103237809D01*
X85416640Y-103237809D02*
X85378545Y-103352095D01*
X85378545Y-103352095D02*
X85378545Y-103428286D01*
X85378545Y-103428286D02*
X85416640Y-103542571D01*
X85416640Y-103542571D02*
X85454735Y-103580667D01*
X85645211Y-104266381D02*
X86178545Y-104266381D01*
X85340450Y-104075905D02*
X85911878Y-103885428D01*
X85911878Y-103885428D02*
X85911878Y-104380667D01*
X131302354Y-102899714D02*
X131340450Y-102861618D01*
X131340450Y-102861618D02*
X131378545Y-102747333D01*
X131378545Y-102747333D02*
X131378545Y-102671142D01*
X131378545Y-102671142D02*
X131340450Y-102556856D01*
X131340450Y-102556856D02*
X131264259Y-102480666D01*
X131264259Y-102480666D02*
X131188069Y-102442571D01*
X131188069Y-102442571D02*
X131035688Y-102404475D01*
X131035688Y-102404475D02*
X130921402Y-102404475D01*
X130921402Y-102404475D02*
X130769021Y-102442571D01*
X130769021Y-102442571D02*
X130692830Y-102480666D01*
X130692830Y-102480666D02*
X130616640Y-102556856D01*
X130616640Y-102556856D02*
X130578545Y-102671142D01*
X130578545Y-102671142D02*
X130578545Y-102747333D01*
X130578545Y-102747333D02*
X130616640Y-102861618D01*
X130616640Y-102861618D02*
X130654735Y-102899714D01*
X130654735Y-103204475D02*
X130616640Y-103242571D01*
X130616640Y-103242571D02*
X130578545Y-103318761D01*
X130578545Y-103318761D02*
X130578545Y-103509237D01*
X130578545Y-103509237D02*
X130616640Y-103585428D01*
X130616640Y-103585428D02*
X130654735Y-103623523D01*
X130654735Y-103623523D02*
X130730926Y-103661618D01*
X130730926Y-103661618D02*
X130807116Y-103661618D01*
X130807116Y-103661618D02*
X130921402Y-103623523D01*
X130921402Y-103623523D02*
X131378545Y-103166380D01*
X131378545Y-103166380D02*
X131378545Y-103661618D01*
X130921402Y-104118761D02*
X130883307Y-104042571D01*
X130883307Y-104042571D02*
X130845211Y-104004476D01*
X130845211Y-104004476D02*
X130769021Y-103966380D01*
X130769021Y-103966380D02*
X130730926Y-103966380D01*
X130730926Y-103966380D02*
X130654735Y-104004476D01*
X130654735Y-104004476D02*
X130616640Y-104042571D01*
X130616640Y-104042571D02*
X130578545Y-104118761D01*
X130578545Y-104118761D02*
X130578545Y-104271142D01*
X130578545Y-104271142D02*
X130616640Y-104347333D01*
X130616640Y-104347333D02*
X130654735Y-104385428D01*
X130654735Y-104385428D02*
X130730926Y-104423523D01*
X130730926Y-104423523D02*
X130769021Y-104423523D01*
X130769021Y-104423523D02*
X130845211Y-104385428D01*
X130845211Y-104385428D02*
X130883307Y-104347333D01*
X130883307Y-104347333D02*
X130921402Y-104271142D01*
X130921402Y-104271142D02*
X130921402Y-104118761D01*
X130921402Y-104118761D02*
X130959497Y-104042571D01*
X130959497Y-104042571D02*
X130997592Y-104004476D01*
X130997592Y-104004476D02*
X131073783Y-103966380D01*
X131073783Y-103966380D02*
X131226164Y-103966380D01*
X131226164Y-103966380D02*
X131302354Y-104004476D01*
X131302354Y-104004476D02*
X131340450Y-104042571D01*
X131340450Y-104042571D02*
X131378545Y-104118761D01*
X131378545Y-104118761D02*
X131378545Y-104271142D01*
X131378545Y-104271142D02*
X131340450Y-104347333D01*
X131340450Y-104347333D02*
X131302354Y-104385428D01*
X131302354Y-104385428D02*
X131226164Y-104423523D01*
X131226164Y-104423523D02*
X131073783Y-104423523D01*
X131073783Y-104423523D02*
X130997592Y-104385428D01*
X130997592Y-104385428D02*
X130959497Y-104347333D01*
X130959497Y-104347333D02*
X130921402Y-104271142D01*
X120930535Y-91400104D02*
X120968631Y-91438200D01*
X120968631Y-91438200D02*
X121082916Y-91476295D01*
X121082916Y-91476295D02*
X121159107Y-91476295D01*
X121159107Y-91476295D02*
X121273393Y-91438200D01*
X121273393Y-91438200D02*
X121349583Y-91362009D01*
X121349583Y-91362009D02*
X121387678Y-91285819D01*
X121387678Y-91285819D02*
X121425774Y-91133438D01*
X121425774Y-91133438D02*
X121425774Y-91019152D01*
X121425774Y-91019152D02*
X121387678Y-90866771D01*
X121387678Y-90866771D02*
X121349583Y-90790580D01*
X121349583Y-90790580D02*
X121273393Y-90714390D01*
X121273393Y-90714390D02*
X121159107Y-90676295D01*
X121159107Y-90676295D02*
X121082916Y-90676295D01*
X121082916Y-90676295D02*
X120968631Y-90714390D01*
X120968631Y-90714390D02*
X120930535Y-90752485D01*
X120663869Y-90676295D02*
X120130535Y-90676295D01*
X120130535Y-90676295D02*
X120473393Y-91476295D01*
X119863869Y-90752485D02*
X119825773Y-90714390D01*
X119825773Y-90714390D02*
X119749583Y-90676295D01*
X119749583Y-90676295D02*
X119559107Y-90676295D01*
X119559107Y-90676295D02*
X119482916Y-90714390D01*
X119482916Y-90714390D02*
X119444821Y-90752485D01*
X119444821Y-90752485D02*
X119406726Y-90828676D01*
X119406726Y-90828676D02*
X119406726Y-90904866D01*
X119406726Y-90904866D02*
X119444821Y-91019152D01*
X119444821Y-91019152D02*
X119901964Y-91476295D01*
X119901964Y-91476295D02*
X119406726Y-91476295D01*
X82449583Y-103576295D02*
X82830535Y-103576295D01*
X82830535Y-103576295D02*
X82830535Y-102776295D01*
X82221012Y-102852485D02*
X82182916Y-102814390D01*
X82182916Y-102814390D02*
X82106726Y-102776295D01*
X82106726Y-102776295D02*
X81916250Y-102776295D01*
X81916250Y-102776295D02*
X81840059Y-102814390D01*
X81840059Y-102814390D02*
X81801964Y-102852485D01*
X81801964Y-102852485D02*
X81763869Y-102928676D01*
X81763869Y-102928676D02*
X81763869Y-103004866D01*
X81763869Y-103004866D02*
X81801964Y-103119152D01*
X81801964Y-103119152D02*
X82259107Y-103576295D01*
X82259107Y-103576295D02*
X81763869Y-103576295D01*
X161325773Y-105176295D02*
X160868630Y-105176295D01*
X161097202Y-105976295D02*
X161097202Y-105176295D01*
X160601963Y-105976295D02*
X160601963Y-105176295D01*
X160601963Y-105176295D02*
X160297201Y-105176295D01*
X160297201Y-105176295D02*
X160221011Y-105214390D01*
X160221011Y-105214390D02*
X160182916Y-105252485D01*
X160182916Y-105252485D02*
X160144820Y-105328676D01*
X160144820Y-105328676D02*
X160144820Y-105442961D01*
X160144820Y-105442961D02*
X160182916Y-105519152D01*
X160182916Y-105519152D02*
X160221011Y-105557247D01*
X160221011Y-105557247D02*
X160297201Y-105595342D01*
X160297201Y-105595342D02*
X160601963Y-105595342D01*
X159382916Y-105976295D02*
X159840059Y-105976295D01*
X159611487Y-105976295D02*
X159611487Y-105176295D01*
X159611487Y-105176295D02*
X159687678Y-105290580D01*
X159687678Y-105290580D02*
X159763868Y-105366771D01*
X159763868Y-105366771D02*
X159840059Y-105404866D01*
X76849582Y-109276295D02*
X77116249Y-108895342D01*
X77306725Y-109276295D02*
X77306725Y-108476295D01*
X77306725Y-108476295D02*
X77001963Y-108476295D01*
X77001963Y-108476295D02*
X76925773Y-108514390D01*
X76925773Y-108514390D02*
X76887678Y-108552485D01*
X76887678Y-108552485D02*
X76849582Y-108628676D01*
X76849582Y-108628676D02*
X76849582Y-108742961D01*
X76849582Y-108742961D02*
X76887678Y-108819152D01*
X76887678Y-108819152D02*
X76925773Y-108857247D01*
X76925773Y-108857247D02*
X77001963Y-108895342D01*
X77001963Y-108895342D02*
X77306725Y-108895342D01*
X76163868Y-108742961D02*
X76163868Y-109276295D01*
X76354344Y-108438200D02*
X76544821Y-109009628D01*
X76544821Y-109009628D02*
X76049582Y-109009628D01*
X86502354Y-113480667D02*
X86540450Y-113442571D01*
X86540450Y-113442571D02*
X86578545Y-113328286D01*
X86578545Y-113328286D02*
X86578545Y-113252095D01*
X86578545Y-113252095D02*
X86540450Y-113137809D01*
X86540450Y-113137809D02*
X86464259Y-113061619D01*
X86464259Y-113061619D02*
X86388069Y-113023524D01*
X86388069Y-113023524D02*
X86235688Y-112985428D01*
X86235688Y-112985428D02*
X86121402Y-112985428D01*
X86121402Y-112985428D02*
X85969021Y-113023524D01*
X85969021Y-113023524D02*
X85892830Y-113061619D01*
X85892830Y-113061619D02*
X85816640Y-113137809D01*
X85816640Y-113137809D02*
X85778545Y-113252095D01*
X85778545Y-113252095D02*
X85778545Y-113328286D01*
X85778545Y-113328286D02*
X85816640Y-113442571D01*
X85816640Y-113442571D02*
X85854735Y-113480667D01*
X85778545Y-113747333D02*
X85778545Y-114242571D01*
X85778545Y-114242571D02*
X86083307Y-113975905D01*
X86083307Y-113975905D02*
X86083307Y-114090190D01*
X86083307Y-114090190D02*
X86121402Y-114166381D01*
X86121402Y-114166381D02*
X86159497Y-114204476D01*
X86159497Y-114204476D02*
X86235688Y-114242571D01*
X86235688Y-114242571D02*
X86426164Y-114242571D01*
X86426164Y-114242571D02*
X86502354Y-114204476D01*
X86502354Y-114204476D02*
X86540450Y-114166381D01*
X86540450Y-114166381D02*
X86578545Y-114090190D01*
X86578545Y-114090190D02*
X86578545Y-113861619D01*
X86578545Y-113861619D02*
X86540450Y-113785428D01*
X86540450Y-113785428D02*
X86502354Y-113747333D01*
X84478545Y-101780666D02*
X84478545Y-101399714D01*
X84478545Y-101399714D02*
X83678545Y-101399714D01*
X84478545Y-102085428D02*
X84478545Y-102237809D01*
X84478545Y-102237809D02*
X84440450Y-102313999D01*
X84440450Y-102313999D02*
X84402354Y-102352095D01*
X84402354Y-102352095D02*
X84288069Y-102428285D01*
X84288069Y-102428285D02*
X84135688Y-102466380D01*
X84135688Y-102466380D02*
X83830926Y-102466380D01*
X83830926Y-102466380D02*
X83754735Y-102428285D01*
X83754735Y-102428285D02*
X83716640Y-102390190D01*
X83716640Y-102390190D02*
X83678545Y-102313999D01*
X83678545Y-102313999D02*
X83678545Y-102161618D01*
X83678545Y-102161618D02*
X83716640Y-102085428D01*
X83716640Y-102085428D02*
X83754735Y-102047333D01*
X83754735Y-102047333D02*
X83830926Y-102009237D01*
X83830926Y-102009237D02*
X84021402Y-102009237D01*
X84021402Y-102009237D02*
X84097592Y-102047333D01*
X84097592Y-102047333D02*
X84135688Y-102085428D01*
X84135688Y-102085428D02*
X84173783Y-102161618D01*
X84173783Y-102161618D02*
X84173783Y-102313999D01*
X84173783Y-102313999D02*
X84135688Y-102390190D01*
X84135688Y-102390190D02*
X84097592Y-102428285D01*
X84097592Y-102428285D02*
X84021402Y-102466380D01*
X78302354Y-110899714D02*
X78340450Y-110861618D01*
X78340450Y-110861618D02*
X78378545Y-110747333D01*
X78378545Y-110747333D02*
X78378545Y-110671142D01*
X78378545Y-110671142D02*
X78340450Y-110556856D01*
X78340450Y-110556856D02*
X78264259Y-110480666D01*
X78264259Y-110480666D02*
X78188069Y-110442571D01*
X78188069Y-110442571D02*
X78035688Y-110404475D01*
X78035688Y-110404475D02*
X77921402Y-110404475D01*
X77921402Y-110404475D02*
X77769021Y-110442571D01*
X77769021Y-110442571D02*
X77692830Y-110480666D01*
X77692830Y-110480666D02*
X77616640Y-110556856D01*
X77616640Y-110556856D02*
X77578545Y-110671142D01*
X77578545Y-110671142D02*
X77578545Y-110747333D01*
X77578545Y-110747333D02*
X77616640Y-110861618D01*
X77616640Y-110861618D02*
X77654735Y-110899714D01*
X78378545Y-111661618D02*
X78378545Y-111204475D01*
X78378545Y-111433047D02*
X77578545Y-111433047D01*
X77578545Y-111433047D02*
X77692830Y-111356856D01*
X77692830Y-111356856D02*
X77769021Y-111280666D01*
X77769021Y-111280666D02*
X77807116Y-111204475D01*
X77654735Y-111966380D02*
X77616640Y-112004476D01*
X77616640Y-112004476D02*
X77578545Y-112080666D01*
X77578545Y-112080666D02*
X77578545Y-112271142D01*
X77578545Y-112271142D02*
X77616640Y-112347333D01*
X77616640Y-112347333D02*
X77654735Y-112385428D01*
X77654735Y-112385428D02*
X77730926Y-112423523D01*
X77730926Y-112423523D02*
X77807116Y-112423523D01*
X77807116Y-112423523D02*
X77921402Y-112385428D01*
X77921402Y-112385428D02*
X78378545Y-111928285D01*
X78378545Y-111928285D02*
X78378545Y-112423523D01*
X88102354Y-100899714D02*
X88140450Y-100861618D01*
X88140450Y-100861618D02*
X88178545Y-100747333D01*
X88178545Y-100747333D02*
X88178545Y-100671142D01*
X88178545Y-100671142D02*
X88140450Y-100556856D01*
X88140450Y-100556856D02*
X88064259Y-100480666D01*
X88064259Y-100480666D02*
X87988069Y-100442571D01*
X87988069Y-100442571D02*
X87835688Y-100404475D01*
X87835688Y-100404475D02*
X87721402Y-100404475D01*
X87721402Y-100404475D02*
X87569021Y-100442571D01*
X87569021Y-100442571D02*
X87492830Y-100480666D01*
X87492830Y-100480666D02*
X87416640Y-100556856D01*
X87416640Y-100556856D02*
X87378545Y-100671142D01*
X87378545Y-100671142D02*
X87378545Y-100747333D01*
X87378545Y-100747333D02*
X87416640Y-100861618D01*
X87416640Y-100861618D02*
X87454735Y-100899714D01*
X88178545Y-101661618D02*
X88178545Y-101204475D01*
X88178545Y-101433047D02*
X87378545Y-101433047D01*
X87378545Y-101433047D02*
X87492830Y-101356856D01*
X87492830Y-101356856D02*
X87569021Y-101280666D01*
X87569021Y-101280666D02*
X87607116Y-101204475D01*
X87378545Y-102385428D02*
X87378545Y-102004476D01*
X87378545Y-102004476D02*
X87759497Y-101966380D01*
X87759497Y-101966380D02*
X87721402Y-102004476D01*
X87721402Y-102004476D02*
X87683307Y-102080666D01*
X87683307Y-102080666D02*
X87683307Y-102271142D01*
X87683307Y-102271142D02*
X87721402Y-102347333D01*
X87721402Y-102347333D02*
X87759497Y-102385428D01*
X87759497Y-102385428D02*
X87835688Y-102423523D01*
X87835688Y-102423523D02*
X88026164Y-102423523D01*
X88026164Y-102423523D02*
X88102354Y-102385428D01*
X88102354Y-102385428D02*
X88140450Y-102347333D01*
X88140450Y-102347333D02*
X88178545Y-102271142D01*
X88178545Y-102271142D02*
X88178545Y-102080666D01*
X88178545Y-102080666D02*
X88140450Y-102004476D01*
X88140450Y-102004476D02*
X88102354Y-101966380D01*
X167002354Y-88599714D02*
X167040450Y-88561618D01*
X167040450Y-88561618D02*
X167078545Y-88447333D01*
X167078545Y-88447333D02*
X167078545Y-88371142D01*
X167078545Y-88371142D02*
X167040450Y-88256856D01*
X167040450Y-88256856D02*
X166964259Y-88180666D01*
X166964259Y-88180666D02*
X166888069Y-88142571D01*
X166888069Y-88142571D02*
X166735688Y-88104475D01*
X166735688Y-88104475D02*
X166621402Y-88104475D01*
X166621402Y-88104475D02*
X166469021Y-88142571D01*
X166469021Y-88142571D02*
X166392830Y-88180666D01*
X166392830Y-88180666D02*
X166316640Y-88256856D01*
X166316640Y-88256856D02*
X166278545Y-88371142D01*
X166278545Y-88371142D02*
X166278545Y-88447333D01*
X166278545Y-88447333D02*
X166316640Y-88561618D01*
X166316640Y-88561618D02*
X166354735Y-88599714D01*
X166278545Y-89323523D02*
X166278545Y-88942571D01*
X166278545Y-88942571D02*
X166659497Y-88904475D01*
X166659497Y-88904475D02*
X166621402Y-88942571D01*
X166621402Y-88942571D02*
X166583307Y-89018761D01*
X166583307Y-89018761D02*
X166583307Y-89209237D01*
X166583307Y-89209237D02*
X166621402Y-89285428D01*
X166621402Y-89285428D02*
X166659497Y-89323523D01*
X166659497Y-89323523D02*
X166735688Y-89361618D01*
X166735688Y-89361618D02*
X166926164Y-89361618D01*
X166926164Y-89361618D02*
X167002354Y-89323523D01*
X167002354Y-89323523D02*
X167040450Y-89285428D01*
X167040450Y-89285428D02*
X167078545Y-89209237D01*
X167078545Y-89209237D02*
X167078545Y-89018761D01*
X167078545Y-89018761D02*
X167040450Y-88942571D01*
X167040450Y-88942571D02*
X167002354Y-88904475D01*
X166354735Y-89666380D02*
X166316640Y-89704476D01*
X166316640Y-89704476D02*
X166278545Y-89780666D01*
X166278545Y-89780666D02*
X166278545Y-89971142D01*
X166278545Y-89971142D02*
X166316640Y-90047333D01*
X166316640Y-90047333D02*
X166354735Y-90085428D01*
X166354735Y-90085428D02*
X166430926Y-90123523D01*
X166430926Y-90123523D02*
X166507116Y-90123523D01*
X166507116Y-90123523D02*
X166621402Y-90085428D01*
X166621402Y-90085428D02*
X167078545Y-89628285D01*
X167078545Y-89628285D02*
X167078545Y-90123523D01*
X119297592Y-99433048D02*
X119678545Y-99433048D01*
X118878545Y-99166381D02*
X119297592Y-99433048D01*
X119297592Y-99433048D02*
X118878545Y-99699714D01*
X118954735Y-99928285D02*
X118916640Y-99966381D01*
X118916640Y-99966381D02*
X118878545Y-100042571D01*
X118878545Y-100042571D02*
X118878545Y-100233047D01*
X118878545Y-100233047D02*
X118916640Y-100309238D01*
X118916640Y-100309238D02*
X118954735Y-100347333D01*
X118954735Y-100347333D02*
X119030926Y-100385428D01*
X119030926Y-100385428D02*
X119107116Y-100385428D01*
X119107116Y-100385428D02*
X119221402Y-100347333D01*
X119221402Y-100347333D02*
X119678545Y-99890190D01*
X119678545Y-99890190D02*
X119678545Y-100385428D01*
X90849582Y-113276295D02*
X91116249Y-112895342D01*
X91306725Y-113276295D02*
X91306725Y-112476295D01*
X91306725Y-112476295D02*
X91001963Y-112476295D01*
X91001963Y-112476295D02*
X90925773Y-112514390D01*
X90925773Y-112514390D02*
X90887678Y-112552485D01*
X90887678Y-112552485D02*
X90849582Y-112628676D01*
X90849582Y-112628676D02*
X90849582Y-112742961D01*
X90849582Y-112742961D02*
X90887678Y-112819152D01*
X90887678Y-112819152D02*
X90925773Y-112857247D01*
X90925773Y-112857247D02*
X91001963Y-112895342D01*
X91001963Y-112895342D02*
X91306725Y-112895342D01*
X90087678Y-113276295D02*
X90544821Y-113276295D01*
X90316249Y-113276295D02*
X90316249Y-112476295D01*
X90316249Y-112476295D02*
X90392440Y-112590580D01*
X90392440Y-112590580D02*
X90468630Y-112666771D01*
X90468630Y-112666771D02*
X90544821Y-112704866D01*
X128202354Y-102499714D02*
X128240450Y-102461618D01*
X128240450Y-102461618D02*
X128278545Y-102347333D01*
X128278545Y-102347333D02*
X128278545Y-102271142D01*
X128278545Y-102271142D02*
X128240450Y-102156856D01*
X128240450Y-102156856D02*
X128164259Y-102080666D01*
X128164259Y-102080666D02*
X128088069Y-102042571D01*
X128088069Y-102042571D02*
X127935688Y-102004475D01*
X127935688Y-102004475D02*
X127821402Y-102004475D01*
X127821402Y-102004475D02*
X127669021Y-102042571D01*
X127669021Y-102042571D02*
X127592830Y-102080666D01*
X127592830Y-102080666D02*
X127516640Y-102156856D01*
X127516640Y-102156856D02*
X127478545Y-102271142D01*
X127478545Y-102271142D02*
X127478545Y-102347333D01*
X127478545Y-102347333D02*
X127516640Y-102461618D01*
X127516640Y-102461618D02*
X127554735Y-102499714D01*
X128278545Y-103261618D02*
X128278545Y-102804475D01*
X128278545Y-103033047D02*
X127478545Y-103033047D01*
X127478545Y-103033047D02*
X127592830Y-102956856D01*
X127592830Y-102956856D02*
X127669021Y-102880666D01*
X127669021Y-102880666D02*
X127707116Y-102804475D01*
X128278545Y-103642571D02*
X128278545Y-103794952D01*
X128278545Y-103794952D02*
X128240450Y-103871142D01*
X128240450Y-103871142D02*
X128202354Y-103909238D01*
X128202354Y-103909238D02*
X128088069Y-103985428D01*
X128088069Y-103985428D02*
X127935688Y-104023523D01*
X127935688Y-104023523D02*
X127630926Y-104023523D01*
X127630926Y-104023523D02*
X127554735Y-103985428D01*
X127554735Y-103985428D02*
X127516640Y-103947333D01*
X127516640Y-103947333D02*
X127478545Y-103871142D01*
X127478545Y-103871142D02*
X127478545Y-103718761D01*
X127478545Y-103718761D02*
X127516640Y-103642571D01*
X127516640Y-103642571D02*
X127554735Y-103604476D01*
X127554735Y-103604476D02*
X127630926Y-103566380D01*
X127630926Y-103566380D02*
X127821402Y-103566380D01*
X127821402Y-103566380D02*
X127897592Y-103604476D01*
X127897592Y-103604476D02*
X127935688Y-103642571D01*
X127935688Y-103642571D02*
X127973783Y-103718761D01*
X127973783Y-103718761D02*
X127973783Y-103871142D01*
X127973783Y-103871142D02*
X127935688Y-103947333D01*
X127935688Y-103947333D02*
X127897592Y-103985428D01*
X127897592Y-103985428D02*
X127821402Y-104023523D01*
X173512295Y-97966666D02*
X173512295Y-97585714D01*
X173512295Y-97585714D02*
X172712295Y-97585714D01*
X172978961Y-98576190D02*
X173512295Y-98576190D01*
X172674200Y-98385714D02*
X173245628Y-98195237D01*
X173245628Y-98195237D02*
X173245628Y-98690476D01*
X80149582Y-108200104D02*
X80187678Y-108238200D01*
X80187678Y-108238200D02*
X80301963Y-108276295D01*
X80301963Y-108276295D02*
X80378154Y-108276295D01*
X80378154Y-108276295D02*
X80492440Y-108238200D01*
X80492440Y-108238200D02*
X80568630Y-108162009D01*
X80568630Y-108162009D02*
X80606725Y-108085819D01*
X80606725Y-108085819D02*
X80644821Y-107933438D01*
X80644821Y-107933438D02*
X80644821Y-107819152D01*
X80644821Y-107819152D02*
X80606725Y-107666771D01*
X80606725Y-107666771D02*
X80568630Y-107590580D01*
X80568630Y-107590580D02*
X80492440Y-107514390D01*
X80492440Y-107514390D02*
X80378154Y-107476295D01*
X80378154Y-107476295D02*
X80301963Y-107476295D01*
X80301963Y-107476295D02*
X80187678Y-107514390D01*
X80187678Y-107514390D02*
X80149582Y-107552485D01*
X79768630Y-108276295D02*
X79616249Y-108276295D01*
X79616249Y-108276295D02*
X79540059Y-108238200D01*
X79540059Y-108238200D02*
X79501963Y-108200104D01*
X79501963Y-108200104D02*
X79425773Y-108085819D01*
X79425773Y-108085819D02*
X79387678Y-107933438D01*
X79387678Y-107933438D02*
X79387678Y-107628676D01*
X79387678Y-107628676D02*
X79425773Y-107552485D01*
X79425773Y-107552485D02*
X79463868Y-107514390D01*
X79463868Y-107514390D02*
X79540059Y-107476295D01*
X79540059Y-107476295D02*
X79692440Y-107476295D01*
X79692440Y-107476295D02*
X79768630Y-107514390D01*
X79768630Y-107514390D02*
X79806725Y-107552485D01*
X79806725Y-107552485D02*
X79844821Y-107628676D01*
X79844821Y-107628676D02*
X79844821Y-107819152D01*
X79844821Y-107819152D02*
X79806725Y-107895342D01*
X79806725Y-107895342D02*
X79768630Y-107933438D01*
X79768630Y-107933438D02*
X79692440Y-107971533D01*
X79692440Y-107971533D02*
X79540059Y-107971533D01*
X79540059Y-107971533D02*
X79463868Y-107933438D01*
X79463868Y-107933438D02*
X79425773Y-107895342D01*
X79425773Y-107895342D02*
X79387678Y-107819152D01*
X169226104Y-95585714D02*
X169264200Y-95547618D01*
X169264200Y-95547618D02*
X169302295Y-95433333D01*
X169302295Y-95433333D02*
X169302295Y-95357142D01*
X169302295Y-95357142D02*
X169264200Y-95242856D01*
X169264200Y-95242856D02*
X169188009Y-95166666D01*
X169188009Y-95166666D02*
X169111819Y-95128571D01*
X169111819Y-95128571D02*
X168959438Y-95090475D01*
X168959438Y-95090475D02*
X168845152Y-95090475D01*
X168845152Y-95090475D02*
X168692771Y-95128571D01*
X168692771Y-95128571D02*
X168616580Y-95166666D01*
X168616580Y-95166666D02*
X168540390Y-95242856D01*
X168540390Y-95242856D02*
X168502295Y-95357142D01*
X168502295Y-95357142D02*
X168502295Y-95433333D01*
X168502295Y-95433333D02*
X168540390Y-95547618D01*
X168540390Y-95547618D02*
X168578485Y-95585714D01*
X168768961Y-96271428D02*
X169302295Y-96271428D01*
X168464200Y-96080952D02*
X169035628Y-95890475D01*
X169035628Y-95890475D02*
X169035628Y-96385714D01*
X168502295Y-96614285D02*
X168502295Y-97109523D01*
X168502295Y-97109523D02*
X168807057Y-96842857D01*
X168807057Y-96842857D02*
X168807057Y-96957142D01*
X168807057Y-96957142D02*
X168845152Y-97033333D01*
X168845152Y-97033333D02*
X168883247Y-97071428D01*
X168883247Y-97071428D02*
X168959438Y-97109523D01*
X168959438Y-97109523D02*
X169149914Y-97109523D01*
X169149914Y-97109523D02*
X169226104Y-97071428D01*
X169226104Y-97071428D02*
X169264200Y-97033333D01*
X169264200Y-97033333D02*
X169302295Y-96957142D01*
X169302295Y-96957142D02*
X169302295Y-96728571D01*
X169302295Y-96728571D02*
X169264200Y-96652380D01*
X169264200Y-96652380D02*
X169226104Y-96614285D01*
X121030535Y-93600104D02*
X121068631Y-93638200D01*
X121068631Y-93638200D02*
X121182916Y-93676295D01*
X121182916Y-93676295D02*
X121259107Y-93676295D01*
X121259107Y-93676295D02*
X121373393Y-93638200D01*
X121373393Y-93638200D02*
X121449583Y-93562009D01*
X121449583Y-93562009D02*
X121487678Y-93485819D01*
X121487678Y-93485819D02*
X121525774Y-93333438D01*
X121525774Y-93333438D02*
X121525774Y-93219152D01*
X121525774Y-93219152D02*
X121487678Y-93066771D01*
X121487678Y-93066771D02*
X121449583Y-92990580D01*
X121449583Y-92990580D02*
X121373393Y-92914390D01*
X121373393Y-92914390D02*
X121259107Y-92876295D01*
X121259107Y-92876295D02*
X121182916Y-92876295D01*
X121182916Y-92876295D02*
X121068631Y-92914390D01*
X121068631Y-92914390D02*
X121030535Y-92952485D01*
X120763869Y-92876295D02*
X120268631Y-92876295D01*
X120268631Y-92876295D02*
X120535297Y-93181057D01*
X120535297Y-93181057D02*
X120421012Y-93181057D01*
X120421012Y-93181057D02*
X120344821Y-93219152D01*
X120344821Y-93219152D02*
X120306726Y-93257247D01*
X120306726Y-93257247D02*
X120268631Y-93333438D01*
X120268631Y-93333438D02*
X120268631Y-93523914D01*
X120268631Y-93523914D02*
X120306726Y-93600104D01*
X120306726Y-93600104D02*
X120344821Y-93638200D01*
X120344821Y-93638200D02*
X120421012Y-93676295D01*
X120421012Y-93676295D02*
X120649583Y-93676295D01*
X120649583Y-93676295D02*
X120725774Y-93638200D01*
X120725774Y-93638200D02*
X120763869Y-93600104D01*
X120001964Y-92876295D02*
X119468630Y-92876295D01*
X119468630Y-92876295D02*
X119811488Y-93676295D01*
X82478545Y-88680666D02*
X82478545Y-88299714D01*
X82478545Y-88299714D02*
X81678545Y-88299714D01*
X82021402Y-89061618D02*
X81983307Y-88985428D01*
X81983307Y-88985428D02*
X81945211Y-88947333D01*
X81945211Y-88947333D02*
X81869021Y-88909237D01*
X81869021Y-88909237D02*
X81830926Y-88909237D01*
X81830926Y-88909237D02*
X81754735Y-88947333D01*
X81754735Y-88947333D02*
X81716640Y-88985428D01*
X81716640Y-88985428D02*
X81678545Y-89061618D01*
X81678545Y-89061618D02*
X81678545Y-89213999D01*
X81678545Y-89213999D02*
X81716640Y-89290190D01*
X81716640Y-89290190D02*
X81754735Y-89328285D01*
X81754735Y-89328285D02*
X81830926Y-89366380D01*
X81830926Y-89366380D02*
X81869021Y-89366380D01*
X81869021Y-89366380D02*
X81945211Y-89328285D01*
X81945211Y-89328285D02*
X81983307Y-89290190D01*
X81983307Y-89290190D02*
X82021402Y-89213999D01*
X82021402Y-89213999D02*
X82021402Y-89061618D01*
X82021402Y-89061618D02*
X82059497Y-88985428D01*
X82059497Y-88985428D02*
X82097592Y-88947333D01*
X82097592Y-88947333D02*
X82173783Y-88909237D01*
X82173783Y-88909237D02*
X82326164Y-88909237D01*
X82326164Y-88909237D02*
X82402354Y-88947333D01*
X82402354Y-88947333D02*
X82440450Y-88985428D01*
X82440450Y-88985428D02*
X82478545Y-89061618D01*
X82478545Y-89061618D02*
X82478545Y-89213999D01*
X82478545Y-89213999D02*
X82440450Y-89290190D01*
X82440450Y-89290190D02*
X82402354Y-89328285D01*
X82402354Y-89328285D02*
X82326164Y-89366380D01*
X82326164Y-89366380D02*
X82173783Y-89366380D01*
X82173783Y-89366380D02*
X82097592Y-89328285D01*
X82097592Y-89328285D02*
X82059497Y-89290190D01*
X82059497Y-89290190D02*
X82021402Y-89213999D01*
X127278545Y-102499714D02*
X126897592Y-102233047D01*
X127278545Y-102042571D02*
X126478545Y-102042571D01*
X126478545Y-102042571D02*
X126478545Y-102347333D01*
X126478545Y-102347333D02*
X126516640Y-102423523D01*
X126516640Y-102423523D02*
X126554735Y-102461618D01*
X126554735Y-102461618D02*
X126630926Y-102499714D01*
X126630926Y-102499714D02*
X126745211Y-102499714D01*
X126745211Y-102499714D02*
X126821402Y-102461618D01*
X126821402Y-102461618D02*
X126859497Y-102423523D01*
X126859497Y-102423523D02*
X126897592Y-102347333D01*
X126897592Y-102347333D02*
X126897592Y-102042571D01*
X127278545Y-103261618D02*
X127278545Y-102804475D01*
X127278545Y-103033047D02*
X126478545Y-103033047D01*
X126478545Y-103033047D02*
X126592830Y-102956856D01*
X126592830Y-102956856D02*
X126669021Y-102880666D01*
X126669021Y-102880666D02*
X126707116Y-102804475D01*
X126478545Y-103756857D02*
X126478545Y-103833047D01*
X126478545Y-103833047D02*
X126516640Y-103909238D01*
X126516640Y-103909238D02*
X126554735Y-103947333D01*
X126554735Y-103947333D02*
X126630926Y-103985428D01*
X126630926Y-103985428D02*
X126783307Y-104023523D01*
X126783307Y-104023523D02*
X126973783Y-104023523D01*
X126973783Y-104023523D02*
X127126164Y-103985428D01*
X127126164Y-103985428D02*
X127202354Y-103947333D01*
X127202354Y-103947333D02*
X127240450Y-103909238D01*
X127240450Y-103909238D02*
X127278545Y-103833047D01*
X127278545Y-103833047D02*
X127278545Y-103756857D01*
X127278545Y-103756857D02*
X127240450Y-103680666D01*
X127240450Y-103680666D02*
X127202354Y-103642571D01*
X127202354Y-103642571D02*
X127126164Y-103604476D01*
X127126164Y-103604476D02*
X126973783Y-103566380D01*
X126973783Y-103566380D02*
X126783307Y-103566380D01*
X126783307Y-103566380D02*
X126630926Y-103604476D01*
X126630926Y-103604476D02*
X126554735Y-103642571D01*
X126554735Y-103642571D02*
X126516640Y-103680666D01*
X126516640Y-103680666D02*
X126478545Y-103756857D01*
X95825773Y-108376295D02*
X95825773Y-109023914D01*
X95825773Y-109023914D02*
X95787678Y-109100104D01*
X95787678Y-109100104D02*
X95749583Y-109138200D01*
X95749583Y-109138200D02*
X95673392Y-109176295D01*
X95673392Y-109176295D02*
X95521011Y-109176295D01*
X95521011Y-109176295D02*
X95444821Y-109138200D01*
X95444821Y-109138200D02*
X95406726Y-109100104D01*
X95406726Y-109100104D02*
X95368630Y-109023914D01*
X95368630Y-109023914D02*
X95368630Y-108376295D01*
X94644821Y-108642961D02*
X94644821Y-109176295D01*
X94835297Y-108338200D02*
X95025774Y-108909628D01*
X95025774Y-108909628D02*
X94530535Y-108909628D01*
X80130535Y-107100104D02*
X80168631Y-107138200D01*
X80168631Y-107138200D02*
X80282916Y-107176295D01*
X80282916Y-107176295D02*
X80359107Y-107176295D01*
X80359107Y-107176295D02*
X80473393Y-107138200D01*
X80473393Y-107138200D02*
X80549583Y-107062009D01*
X80549583Y-107062009D02*
X80587678Y-106985819D01*
X80587678Y-106985819D02*
X80625774Y-106833438D01*
X80625774Y-106833438D02*
X80625774Y-106719152D01*
X80625774Y-106719152D02*
X80587678Y-106566771D01*
X80587678Y-106566771D02*
X80549583Y-106490580D01*
X80549583Y-106490580D02*
X80473393Y-106414390D01*
X80473393Y-106414390D02*
X80359107Y-106376295D01*
X80359107Y-106376295D02*
X80282916Y-106376295D01*
X80282916Y-106376295D02*
X80168631Y-106414390D01*
X80168631Y-106414390D02*
X80130535Y-106452485D01*
X79368631Y-107176295D02*
X79825774Y-107176295D01*
X79597202Y-107176295D02*
X79597202Y-106376295D01*
X79597202Y-106376295D02*
X79673393Y-106490580D01*
X79673393Y-106490580D02*
X79749583Y-106566771D01*
X79749583Y-106566771D02*
X79825774Y-106604866D01*
X78873392Y-106376295D02*
X78797202Y-106376295D01*
X78797202Y-106376295D02*
X78721011Y-106414390D01*
X78721011Y-106414390D02*
X78682916Y-106452485D01*
X78682916Y-106452485D02*
X78644821Y-106528676D01*
X78644821Y-106528676D02*
X78606726Y-106681057D01*
X78606726Y-106681057D02*
X78606726Y-106871533D01*
X78606726Y-106871533D02*
X78644821Y-107023914D01*
X78644821Y-107023914D02*
X78682916Y-107100104D01*
X78682916Y-107100104D02*
X78721011Y-107138200D01*
X78721011Y-107138200D02*
X78797202Y-107176295D01*
X78797202Y-107176295D02*
X78873392Y-107176295D01*
X78873392Y-107176295D02*
X78949583Y-107138200D01*
X78949583Y-107138200D02*
X78987678Y-107100104D01*
X78987678Y-107100104D02*
X79025773Y-107023914D01*
X79025773Y-107023914D02*
X79063869Y-106871533D01*
X79063869Y-106871533D02*
X79063869Y-106681057D01*
X79063869Y-106681057D02*
X79025773Y-106528676D01*
X79025773Y-106528676D02*
X78987678Y-106452485D01*
X78987678Y-106452485D02*
X78949583Y-106414390D01*
X78949583Y-106414390D02*
X78873392Y-106376295D01*
X89102354Y-100899714D02*
X89140450Y-100861618D01*
X89140450Y-100861618D02*
X89178545Y-100747333D01*
X89178545Y-100747333D02*
X89178545Y-100671142D01*
X89178545Y-100671142D02*
X89140450Y-100556856D01*
X89140450Y-100556856D02*
X89064259Y-100480666D01*
X89064259Y-100480666D02*
X88988069Y-100442571D01*
X88988069Y-100442571D02*
X88835688Y-100404475D01*
X88835688Y-100404475D02*
X88721402Y-100404475D01*
X88721402Y-100404475D02*
X88569021Y-100442571D01*
X88569021Y-100442571D02*
X88492830Y-100480666D01*
X88492830Y-100480666D02*
X88416640Y-100556856D01*
X88416640Y-100556856D02*
X88378545Y-100671142D01*
X88378545Y-100671142D02*
X88378545Y-100747333D01*
X88378545Y-100747333D02*
X88416640Y-100861618D01*
X88416640Y-100861618D02*
X88454735Y-100899714D01*
X89178545Y-101661618D02*
X89178545Y-101204475D01*
X89178545Y-101433047D02*
X88378545Y-101433047D01*
X88378545Y-101433047D02*
X88492830Y-101356856D01*
X88492830Y-101356856D02*
X88569021Y-101280666D01*
X88569021Y-101280666D02*
X88607116Y-101204475D01*
X88378545Y-102347333D02*
X88378545Y-102194952D01*
X88378545Y-102194952D02*
X88416640Y-102118761D01*
X88416640Y-102118761D02*
X88454735Y-102080666D01*
X88454735Y-102080666D02*
X88569021Y-102004476D01*
X88569021Y-102004476D02*
X88721402Y-101966380D01*
X88721402Y-101966380D02*
X89026164Y-101966380D01*
X89026164Y-101966380D02*
X89102354Y-102004476D01*
X89102354Y-102004476D02*
X89140450Y-102042571D01*
X89140450Y-102042571D02*
X89178545Y-102118761D01*
X89178545Y-102118761D02*
X89178545Y-102271142D01*
X89178545Y-102271142D02*
X89140450Y-102347333D01*
X89140450Y-102347333D02*
X89102354Y-102385428D01*
X89102354Y-102385428D02*
X89026164Y-102423523D01*
X89026164Y-102423523D02*
X88835688Y-102423523D01*
X88835688Y-102423523D02*
X88759497Y-102385428D01*
X88759497Y-102385428D02*
X88721402Y-102347333D01*
X88721402Y-102347333D02*
X88683307Y-102271142D01*
X88683307Y-102271142D02*
X88683307Y-102118761D01*
X88683307Y-102118761D02*
X88721402Y-102042571D01*
X88721402Y-102042571D02*
X88759497Y-102004476D01*
X88759497Y-102004476D02*
X88835688Y-101966380D01*
X133182916Y-105576295D02*
X133182916Y-106147723D01*
X133182916Y-106147723D02*
X133221011Y-106262009D01*
X133221011Y-106262009D02*
X133297202Y-106338200D01*
X133297202Y-106338200D02*
X133411487Y-106376295D01*
X133411487Y-106376295D02*
X133487678Y-106376295D01*
X132382916Y-106376295D02*
X132840059Y-106376295D01*
X132611487Y-106376295D02*
X132611487Y-105576295D01*
X132611487Y-105576295D02*
X132687678Y-105690580D01*
X132687678Y-105690580D02*
X132763868Y-105766771D01*
X132763868Y-105766771D02*
X132840059Y-105804866D01*
X78297592Y-97333048D02*
X78678545Y-97333048D01*
X77878545Y-97066381D02*
X78297592Y-97333048D01*
X78297592Y-97333048D02*
X77878545Y-97599714D01*
X77878545Y-97790190D02*
X77878545Y-98285428D01*
X77878545Y-98285428D02*
X78183307Y-98018762D01*
X78183307Y-98018762D02*
X78183307Y-98133047D01*
X78183307Y-98133047D02*
X78221402Y-98209238D01*
X78221402Y-98209238D02*
X78259497Y-98247333D01*
X78259497Y-98247333D02*
X78335688Y-98285428D01*
X78335688Y-98285428D02*
X78526164Y-98285428D01*
X78526164Y-98285428D02*
X78602354Y-98247333D01*
X78602354Y-98247333D02*
X78640450Y-98209238D01*
X78640450Y-98209238D02*
X78678545Y-98133047D01*
X78678545Y-98133047D02*
X78678545Y-97904476D01*
X78678545Y-97904476D02*
X78640450Y-97828285D01*
X78640450Y-97828285D02*
X78602354Y-97790190D01*
X166002354Y-88599714D02*
X166040450Y-88561618D01*
X166040450Y-88561618D02*
X166078545Y-88447333D01*
X166078545Y-88447333D02*
X166078545Y-88371142D01*
X166078545Y-88371142D02*
X166040450Y-88256856D01*
X166040450Y-88256856D02*
X165964259Y-88180666D01*
X165964259Y-88180666D02*
X165888069Y-88142571D01*
X165888069Y-88142571D02*
X165735688Y-88104475D01*
X165735688Y-88104475D02*
X165621402Y-88104475D01*
X165621402Y-88104475D02*
X165469021Y-88142571D01*
X165469021Y-88142571D02*
X165392830Y-88180666D01*
X165392830Y-88180666D02*
X165316640Y-88256856D01*
X165316640Y-88256856D02*
X165278545Y-88371142D01*
X165278545Y-88371142D02*
X165278545Y-88447333D01*
X165278545Y-88447333D02*
X165316640Y-88561618D01*
X165316640Y-88561618D02*
X165354735Y-88599714D01*
X165278545Y-89323523D02*
X165278545Y-88942571D01*
X165278545Y-88942571D02*
X165659497Y-88904475D01*
X165659497Y-88904475D02*
X165621402Y-88942571D01*
X165621402Y-88942571D02*
X165583307Y-89018761D01*
X165583307Y-89018761D02*
X165583307Y-89209237D01*
X165583307Y-89209237D02*
X165621402Y-89285428D01*
X165621402Y-89285428D02*
X165659497Y-89323523D01*
X165659497Y-89323523D02*
X165735688Y-89361618D01*
X165735688Y-89361618D02*
X165926164Y-89361618D01*
X165926164Y-89361618D02*
X166002354Y-89323523D01*
X166002354Y-89323523D02*
X166040450Y-89285428D01*
X166040450Y-89285428D02*
X166078545Y-89209237D01*
X166078545Y-89209237D02*
X166078545Y-89018761D01*
X166078545Y-89018761D02*
X166040450Y-88942571D01*
X166040450Y-88942571D02*
X166002354Y-88904475D01*
X166078545Y-90123523D02*
X166078545Y-89666380D01*
X166078545Y-89894952D02*
X165278545Y-89894952D01*
X165278545Y-89894952D02*
X165392830Y-89818761D01*
X165392830Y-89818761D02*
X165469021Y-89742571D01*
X165469021Y-89742571D02*
X165507116Y-89666380D01*
X129202354Y-102499714D02*
X129240450Y-102461618D01*
X129240450Y-102461618D02*
X129278545Y-102347333D01*
X129278545Y-102347333D02*
X129278545Y-102271142D01*
X129278545Y-102271142D02*
X129240450Y-102156856D01*
X129240450Y-102156856D02*
X129164259Y-102080666D01*
X129164259Y-102080666D02*
X129088069Y-102042571D01*
X129088069Y-102042571D02*
X128935688Y-102004475D01*
X128935688Y-102004475D02*
X128821402Y-102004475D01*
X128821402Y-102004475D02*
X128669021Y-102042571D01*
X128669021Y-102042571D02*
X128592830Y-102080666D01*
X128592830Y-102080666D02*
X128516640Y-102156856D01*
X128516640Y-102156856D02*
X128478545Y-102271142D01*
X128478545Y-102271142D02*
X128478545Y-102347333D01*
X128478545Y-102347333D02*
X128516640Y-102461618D01*
X128516640Y-102461618D02*
X128554735Y-102499714D01*
X128554735Y-102804475D02*
X128516640Y-102842571D01*
X128516640Y-102842571D02*
X128478545Y-102918761D01*
X128478545Y-102918761D02*
X128478545Y-103109237D01*
X128478545Y-103109237D02*
X128516640Y-103185428D01*
X128516640Y-103185428D02*
X128554735Y-103223523D01*
X128554735Y-103223523D02*
X128630926Y-103261618D01*
X128630926Y-103261618D02*
X128707116Y-103261618D01*
X128707116Y-103261618D02*
X128821402Y-103223523D01*
X128821402Y-103223523D02*
X129278545Y-102766380D01*
X129278545Y-102766380D02*
X129278545Y-103261618D01*
X129278545Y-104023523D02*
X129278545Y-103566380D01*
X129278545Y-103794952D02*
X128478545Y-103794952D01*
X128478545Y-103794952D02*
X128592830Y-103718761D01*
X128592830Y-103718761D02*
X128669021Y-103642571D01*
X128669021Y-103642571D02*
X128707116Y-103566380D01*
X168602354Y-88599714D02*
X168640450Y-88561618D01*
X168640450Y-88561618D02*
X168678545Y-88447333D01*
X168678545Y-88447333D02*
X168678545Y-88371142D01*
X168678545Y-88371142D02*
X168640450Y-88256856D01*
X168640450Y-88256856D02*
X168564259Y-88180666D01*
X168564259Y-88180666D02*
X168488069Y-88142571D01*
X168488069Y-88142571D02*
X168335688Y-88104475D01*
X168335688Y-88104475D02*
X168221402Y-88104475D01*
X168221402Y-88104475D02*
X168069021Y-88142571D01*
X168069021Y-88142571D02*
X167992830Y-88180666D01*
X167992830Y-88180666D02*
X167916640Y-88256856D01*
X167916640Y-88256856D02*
X167878545Y-88371142D01*
X167878545Y-88371142D02*
X167878545Y-88447333D01*
X167878545Y-88447333D02*
X167916640Y-88561618D01*
X167916640Y-88561618D02*
X167954735Y-88599714D01*
X167878545Y-88866380D02*
X167878545Y-89361618D01*
X167878545Y-89361618D02*
X168183307Y-89094952D01*
X168183307Y-89094952D02*
X168183307Y-89209237D01*
X168183307Y-89209237D02*
X168221402Y-89285428D01*
X168221402Y-89285428D02*
X168259497Y-89323523D01*
X168259497Y-89323523D02*
X168335688Y-89361618D01*
X168335688Y-89361618D02*
X168526164Y-89361618D01*
X168526164Y-89361618D02*
X168602354Y-89323523D01*
X168602354Y-89323523D02*
X168640450Y-89285428D01*
X168640450Y-89285428D02*
X168678545Y-89209237D01*
X168678545Y-89209237D02*
X168678545Y-88980666D01*
X168678545Y-88980666D02*
X168640450Y-88904475D01*
X168640450Y-88904475D02*
X168602354Y-88866380D01*
X168678545Y-89742571D02*
X168678545Y-89894952D01*
X168678545Y-89894952D02*
X168640450Y-89971142D01*
X168640450Y-89971142D02*
X168602354Y-90009238D01*
X168602354Y-90009238D02*
X168488069Y-90085428D01*
X168488069Y-90085428D02*
X168335688Y-90123523D01*
X168335688Y-90123523D02*
X168030926Y-90123523D01*
X168030926Y-90123523D02*
X167954735Y-90085428D01*
X167954735Y-90085428D02*
X167916640Y-90047333D01*
X167916640Y-90047333D02*
X167878545Y-89971142D01*
X167878545Y-89971142D02*
X167878545Y-89818761D01*
X167878545Y-89818761D02*
X167916640Y-89742571D01*
X167916640Y-89742571D02*
X167954735Y-89704476D01*
X167954735Y-89704476D02*
X168030926Y-89666380D01*
X168030926Y-89666380D02*
X168221402Y-89666380D01*
X168221402Y-89666380D02*
X168297592Y-89704476D01*
X168297592Y-89704476D02*
X168335688Y-89742571D01*
X168335688Y-89742571D02*
X168373783Y-89818761D01*
X168373783Y-89818761D02*
X168373783Y-89971142D01*
X168373783Y-89971142D02*
X168335688Y-90047333D01*
X168335688Y-90047333D02*
X168297592Y-90085428D01*
X168297592Y-90085428D02*
X168221402Y-90123523D01*
X127725773Y-105476295D02*
X127725773Y-106123914D01*
X127725773Y-106123914D02*
X127687678Y-106200104D01*
X127687678Y-106200104D02*
X127649583Y-106238200D01*
X127649583Y-106238200D02*
X127573392Y-106276295D01*
X127573392Y-106276295D02*
X127421011Y-106276295D01*
X127421011Y-106276295D02*
X127344821Y-106238200D01*
X127344821Y-106238200D02*
X127306726Y-106200104D01*
X127306726Y-106200104D02*
X127268630Y-106123914D01*
X127268630Y-106123914D02*
X127268630Y-105476295D01*
X126506726Y-105476295D02*
X126887678Y-105476295D01*
X126887678Y-105476295D02*
X126925774Y-105857247D01*
X126925774Y-105857247D02*
X126887678Y-105819152D01*
X126887678Y-105819152D02*
X126811488Y-105781057D01*
X126811488Y-105781057D02*
X126621012Y-105781057D01*
X126621012Y-105781057D02*
X126544821Y-105819152D01*
X126544821Y-105819152D02*
X126506726Y-105857247D01*
X126506726Y-105857247D02*
X126468631Y-105933438D01*
X126468631Y-105933438D02*
X126468631Y-106123914D01*
X126468631Y-106123914D02*
X126506726Y-106200104D01*
X126506726Y-106200104D02*
X126544821Y-106238200D01*
X126544821Y-106238200D02*
X126621012Y-106276295D01*
X126621012Y-106276295D02*
X126811488Y-106276295D01*
X126811488Y-106276295D02*
X126887678Y-106238200D01*
X126887678Y-106238200D02*
X126925774Y-106200104D01*
X138282916Y-96976295D02*
X138282916Y-97547723D01*
X138282916Y-97547723D02*
X138321011Y-97662009D01*
X138321011Y-97662009D02*
X138397202Y-97738200D01*
X138397202Y-97738200D02*
X138511487Y-97776295D01*
X138511487Y-97776295D02*
X138587678Y-97776295D01*
X137940059Y-97052485D02*
X137901963Y-97014390D01*
X137901963Y-97014390D02*
X137825773Y-96976295D01*
X137825773Y-96976295D02*
X137635297Y-96976295D01*
X137635297Y-96976295D02*
X137559106Y-97014390D01*
X137559106Y-97014390D02*
X137521011Y-97052485D01*
X137521011Y-97052485D02*
X137482916Y-97128676D01*
X137482916Y-97128676D02*
X137482916Y-97204866D01*
X137482916Y-97204866D02*
X137521011Y-97319152D01*
X137521011Y-97319152D02*
X137978154Y-97776295D01*
X137978154Y-97776295D02*
X137482916Y-97776295D01*
X162182916Y-109076295D02*
X162182916Y-109647723D01*
X162182916Y-109647723D02*
X162221011Y-109762009D01*
X162221011Y-109762009D02*
X162297202Y-109838200D01*
X162297202Y-109838200D02*
X162411487Y-109876295D01*
X162411487Y-109876295D02*
X162487678Y-109876295D01*
X161459106Y-109342961D02*
X161459106Y-109876295D01*
X161649582Y-109038200D02*
X161840059Y-109609628D01*
X161840059Y-109609628D02*
X161344820Y-109609628D01*
X75378545Y-113480667D02*
X74997592Y-113214000D01*
X75378545Y-113023524D02*
X74578545Y-113023524D01*
X74578545Y-113023524D02*
X74578545Y-113328286D01*
X74578545Y-113328286D02*
X74616640Y-113404476D01*
X74616640Y-113404476D02*
X74654735Y-113442571D01*
X74654735Y-113442571D02*
X74730926Y-113480667D01*
X74730926Y-113480667D02*
X74845211Y-113480667D01*
X74845211Y-113480667D02*
X74921402Y-113442571D01*
X74921402Y-113442571D02*
X74959497Y-113404476D01*
X74959497Y-113404476D02*
X74997592Y-113328286D01*
X74997592Y-113328286D02*
X74997592Y-113023524D01*
X74578545Y-114166381D02*
X74578545Y-114014000D01*
X74578545Y-114014000D02*
X74616640Y-113937809D01*
X74616640Y-113937809D02*
X74654735Y-113899714D01*
X74654735Y-113899714D02*
X74769021Y-113823524D01*
X74769021Y-113823524D02*
X74921402Y-113785428D01*
X74921402Y-113785428D02*
X75226164Y-113785428D01*
X75226164Y-113785428D02*
X75302354Y-113823524D01*
X75302354Y-113823524D02*
X75340450Y-113861619D01*
X75340450Y-113861619D02*
X75378545Y-113937809D01*
X75378545Y-113937809D02*
X75378545Y-114090190D01*
X75378545Y-114090190D02*
X75340450Y-114166381D01*
X75340450Y-114166381D02*
X75302354Y-114204476D01*
X75302354Y-114204476D02*
X75226164Y-114242571D01*
X75226164Y-114242571D02*
X75035688Y-114242571D01*
X75035688Y-114242571D02*
X74959497Y-114204476D01*
X74959497Y-114204476D02*
X74921402Y-114166381D01*
X74921402Y-114166381D02*
X74883307Y-114090190D01*
X74883307Y-114090190D02*
X74883307Y-113937809D01*
X74883307Y-113937809D02*
X74921402Y-113861619D01*
X74921402Y-113861619D02*
X74959497Y-113823524D01*
X74959497Y-113823524D02*
X75035688Y-113785428D01*
X169878545Y-87380666D02*
X169878545Y-86999714D01*
X169878545Y-86999714D02*
X169078545Y-86999714D01*
X169078545Y-87990190D02*
X169078545Y-87837809D01*
X169078545Y-87837809D02*
X169116640Y-87761618D01*
X169116640Y-87761618D02*
X169154735Y-87723523D01*
X169154735Y-87723523D02*
X169269021Y-87647333D01*
X169269021Y-87647333D02*
X169421402Y-87609237D01*
X169421402Y-87609237D02*
X169726164Y-87609237D01*
X169726164Y-87609237D02*
X169802354Y-87647333D01*
X169802354Y-87647333D02*
X169840450Y-87685428D01*
X169840450Y-87685428D02*
X169878545Y-87761618D01*
X169878545Y-87761618D02*
X169878545Y-87913999D01*
X169878545Y-87913999D02*
X169840450Y-87990190D01*
X169840450Y-87990190D02*
X169802354Y-88028285D01*
X169802354Y-88028285D02*
X169726164Y-88066380D01*
X169726164Y-88066380D02*
X169535688Y-88066380D01*
X169535688Y-88066380D02*
X169459497Y-88028285D01*
X169459497Y-88028285D02*
X169421402Y-87990190D01*
X169421402Y-87990190D02*
X169383307Y-87913999D01*
X169383307Y-87913999D02*
X169383307Y-87761618D01*
X169383307Y-87761618D02*
X169421402Y-87685428D01*
X169421402Y-87685428D02*
X169459497Y-87647333D01*
X169459497Y-87647333D02*
X169535688Y-87609237D01*
X158825773Y-105176295D02*
X158368630Y-105176295D01*
X158597202Y-105976295D02*
X158597202Y-105176295D01*
X158101963Y-105976295D02*
X158101963Y-105176295D01*
X158101963Y-105176295D02*
X157797201Y-105176295D01*
X157797201Y-105176295D02*
X157721011Y-105214390D01*
X157721011Y-105214390D02*
X157682916Y-105252485D01*
X157682916Y-105252485D02*
X157644820Y-105328676D01*
X157644820Y-105328676D02*
X157644820Y-105442961D01*
X157644820Y-105442961D02*
X157682916Y-105519152D01*
X157682916Y-105519152D02*
X157721011Y-105557247D01*
X157721011Y-105557247D02*
X157797201Y-105595342D01*
X157797201Y-105595342D02*
X158101963Y-105595342D01*
X157340059Y-105252485D02*
X157301963Y-105214390D01*
X157301963Y-105214390D02*
X157225773Y-105176295D01*
X157225773Y-105176295D02*
X157035297Y-105176295D01*
X157035297Y-105176295D02*
X156959106Y-105214390D01*
X156959106Y-105214390D02*
X156921011Y-105252485D01*
X156921011Y-105252485D02*
X156882916Y-105328676D01*
X156882916Y-105328676D02*
X156882916Y-105404866D01*
X156882916Y-105404866D02*
X156921011Y-105519152D01*
X156921011Y-105519152D02*
X157378154Y-105976295D01*
X157378154Y-105976295D02*
X156882916Y-105976295D01*
X85802354Y-99799714D02*
X85840450Y-99761618D01*
X85840450Y-99761618D02*
X85878545Y-99647333D01*
X85878545Y-99647333D02*
X85878545Y-99571142D01*
X85878545Y-99571142D02*
X85840450Y-99456856D01*
X85840450Y-99456856D02*
X85764259Y-99380666D01*
X85764259Y-99380666D02*
X85688069Y-99342571D01*
X85688069Y-99342571D02*
X85535688Y-99304475D01*
X85535688Y-99304475D02*
X85421402Y-99304475D01*
X85421402Y-99304475D02*
X85269021Y-99342571D01*
X85269021Y-99342571D02*
X85192830Y-99380666D01*
X85192830Y-99380666D02*
X85116640Y-99456856D01*
X85116640Y-99456856D02*
X85078545Y-99571142D01*
X85078545Y-99571142D02*
X85078545Y-99647333D01*
X85078545Y-99647333D02*
X85116640Y-99761618D01*
X85116640Y-99761618D02*
X85154735Y-99799714D01*
X85078545Y-100523523D02*
X85078545Y-100142571D01*
X85078545Y-100142571D02*
X85459497Y-100104475D01*
X85459497Y-100104475D02*
X85421402Y-100142571D01*
X85421402Y-100142571D02*
X85383307Y-100218761D01*
X85383307Y-100218761D02*
X85383307Y-100409237D01*
X85383307Y-100409237D02*
X85421402Y-100485428D01*
X85421402Y-100485428D02*
X85459497Y-100523523D01*
X85459497Y-100523523D02*
X85535688Y-100561618D01*
X85535688Y-100561618D02*
X85726164Y-100561618D01*
X85726164Y-100561618D02*
X85802354Y-100523523D01*
X85802354Y-100523523D02*
X85840450Y-100485428D01*
X85840450Y-100485428D02*
X85878545Y-100409237D01*
X85878545Y-100409237D02*
X85878545Y-100218761D01*
X85878545Y-100218761D02*
X85840450Y-100142571D01*
X85840450Y-100142571D02*
X85802354Y-100104475D01*
X85878545Y-100942571D02*
X85878545Y-101094952D01*
X85878545Y-101094952D02*
X85840450Y-101171142D01*
X85840450Y-101171142D02*
X85802354Y-101209238D01*
X85802354Y-101209238D02*
X85688069Y-101285428D01*
X85688069Y-101285428D02*
X85535688Y-101323523D01*
X85535688Y-101323523D02*
X85230926Y-101323523D01*
X85230926Y-101323523D02*
X85154735Y-101285428D01*
X85154735Y-101285428D02*
X85116640Y-101247333D01*
X85116640Y-101247333D02*
X85078545Y-101171142D01*
X85078545Y-101171142D02*
X85078545Y-101018761D01*
X85078545Y-101018761D02*
X85116640Y-100942571D01*
X85116640Y-100942571D02*
X85154735Y-100904476D01*
X85154735Y-100904476D02*
X85230926Y-100866380D01*
X85230926Y-100866380D02*
X85421402Y-100866380D01*
X85421402Y-100866380D02*
X85497592Y-100904476D01*
X85497592Y-100904476D02*
X85535688Y-100942571D01*
X85535688Y-100942571D02*
X85573783Y-101018761D01*
X85573783Y-101018761D02*
X85573783Y-101171142D01*
X85573783Y-101171142D02*
X85535688Y-101247333D01*
X85535688Y-101247333D02*
X85497592Y-101285428D01*
X85497592Y-101285428D02*
X85421402Y-101323523D01*
X169302354Y-92699714D02*
X169340450Y-92661618D01*
X169340450Y-92661618D02*
X169378545Y-92547333D01*
X169378545Y-92547333D02*
X169378545Y-92471142D01*
X169378545Y-92471142D02*
X169340450Y-92356856D01*
X169340450Y-92356856D02*
X169264259Y-92280666D01*
X169264259Y-92280666D02*
X169188069Y-92242571D01*
X169188069Y-92242571D02*
X169035688Y-92204475D01*
X169035688Y-92204475D02*
X168921402Y-92204475D01*
X168921402Y-92204475D02*
X168769021Y-92242571D01*
X168769021Y-92242571D02*
X168692830Y-92280666D01*
X168692830Y-92280666D02*
X168616640Y-92356856D01*
X168616640Y-92356856D02*
X168578545Y-92471142D01*
X168578545Y-92471142D02*
X168578545Y-92547333D01*
X168578545Y-92547333D02*
X168616640Y-92661618D01*
X168616640Y-92661618D02*
X168654735Y-92699714D01*
X168578545Y-92966380D02*
X168578545Y-93461618D01*
X168578545Y-93461618D02*
X168883307Y-93194952D01*
X168883307Y-93194952D02*
X168883307Y-93309237D01*
X168883307Y-93309237D02*
X168921402Y-93385428D01*
X168921402Y-93385428D02*
X168959497Y-93423523D01*
X168959497Y-93423523D02*
X169035688Y-93461618D01*
X169035688Y-93461618D02*
X169226164Y-93461618D01*
X169226164Y-93461618D02*
X169302354Y-93423523D01*
X169302354Y-93423523D02*
X169340450Y-93385428D01*
X169340450Y-93385428D02*
X169378545Y-93309237D01*
X169378545Y-93309237D02*
X169378545Y-93080666D01*
X169378545Y-93080666D02*
X169340450Y-93004475D01*
X169340450Y-93004475D02*
X169302354Y-92966380D01*
X168578545Y-94147333D02*
X168578545Y-93994952D01*
X168578545Y-93994952D02*
X168616640Y-93918761D01*
X168616640Y-93918761D02*
X168654735Y-93880666D01*
X168654735Y-93880666D02*
X168769021Y-93804476D01*
X168769021Y-93804476D02*
X168921402Y-93766380D01*
X168921402Y-93766380D02*
X169226164Y-93766380D01*
X169226164Y-93766380D02*
X169302354Y-93804476D01*
X169302354Y-93804476D02*
X169340450Y-93842571D01*
X169340450Y-93842571D02*
X169378545Y-93918761D01*
X169378545Y-93918761D02*
X169378545Y-94071142D01*
X169378545Y-94071142D02*
X169340450Y-94147333D01*
X169340450Y-94147333D02*
X169302354Y-94185428D01*
X169302354Y-94185428D02*
X169226164Y-94223523D01*
X169226164Y-94223523D02*
X169035688Y-94223523D01*
X169035688Y-94223523D02*
X168959497Y-94185428D01*
X168959497Y-94185428D02*
X168921402Y-94147333D01*
X168921402Y-94147333D02*
X168883307Y-94071142D01*
X168883307Y-94071142D02*
X168883307Y-93918761D01*
X168883307Y-93918761D02*
X168921402Y-93842571D01*
X168921402Y-93842571D02*
X168959497Y-93804476D01*
X168959497Y-93804476D02*
X169035688Y-93766380D01*
X87102354Y-100899714D02*
X87140450Y-100861618D01*
X87140450Y-100861618D02*
X87178545Y-100747333D01*
X87178545Y-100747333D02*
X87178545Y-100671142D01*
X87178545Y-100671142D02*
X87140450Y-100556856D01*
X87140450Y-100556856D02*
X87064259Y-100480666D01*
X87064259Y-100480666D02*
X86988069Y-100442571D01*
X86988069Y-100442571D02*
X86835688Y-100404475D01*
X86835688Y-100404475D02*
X86721402Y-100404475D01*
X86721402Y-100404475D02*
X86569021Y-100442571D01*
X86569021Y-100442571D02*
X86492830Y-100480666D01*
X86492830Y-100480666D02*
X86416640Y-100556856D01*
X86416640Y-100556856D02*
X86378545Y-100671142D01*
X86378545Y-100671142D02*
X86378545Y-100747333D01*
X86378545Y-100747333D02*
X86416640Y-100861618D01*
X86416640Y-100861618D02*
X86454735Y-100899714D01*
X87178545Y-101661618D02*
X87178545Y-101204475D01*
X87178545Y-101433047D02*
X86378545Y-101433047D01*
X86378545Y-101433047D02*
X86492830Y-101356856D01*
X86492830Y-101356856D02*
X86569021Y-101280666D01*
X86569021Y-101280666D02*
X86607116Y-101204475D01*
X86645211Y-102347333D02*
X87178545Y-102347333D01*
X86340450Y-102156857D02*
X86911878Y-101966380D01*
X86911878Y-101966380D02*
X86911878Y-102461619D01*
X77302354Y-113099714D02*
X77340450Y-113061618D01*
X77340450Y-113061618D02*
X77378545Y-112947333D01*
X77378545Y-112947333D02*
X77378545Y-112871142D01*
X77378545Y-112871142D02*
X77340450Y-112756856D01*
X77340450Y-112756856D02*
X77264259Y-112680666D01*
X77264259Y-112680666D02*
X77188069Y-112642571D01*
X77188069Y-112642571D02*
X77035688Y-112604475D01*
X77035688Y-112604475D02*
X76921402Y-112604475D01*
X76921402Y-112604475D02*
X76769021Y-112642571D01*
X76769021Y-112642571D02*
X76692830Y-112680666D01*
X76692830Y-112680666D02*
X76616640Y-112756856D01*
X76616640Y-112756856D02*
X76578545Y-112871142D01*
X76578545Y-112871142D02*
X76578545Y-112947333D01*
X76578545Y-112947333D02*
X76616640Y-113061618D01*
X76616640Y-113061618D02*
X76654735Y-113099714D01*
X77378545Y-113861618D02*
X77378545Y-113404475D01*
X77378545Y-113633047D02*
X76578545Y-113633047D01*
X76578545Y-113633047D02*
X76692830Y-113556856D01*
X76692830Y-113556856D02*
X76769021Y-113480666D01*
X76769021Y-113480666D02*
X76807116Y-113404475D01*
X77378545Y-114623523D02*
X77378545Y-114166380D01*
X77378545Y-114394952D02*
X76578545Y-114394952D01*
X76578545Y-114394952D02*
X76692830Y-114318761D01*
X76692830Y-114318761D02*
X76769021Y-114242571D01*
X76769021Y-114242571D02*
X76807116Y-114166380D01*
G04 #@! TO.C,C8*
D11*
X80907836Y-109640000D02*
X80692164Y-109640000D01*
X80907836Y-110360000D02*
X80692164Y-110360000D01*
G04 #@! TO.C,U2*
X83290000Y-107130000D02*
X83290000Y-107580000D01*
X83290000Y-109900000D02*
X83290000Y-110350000D01*
X83290000Y-110350000D02*
X83740000Y-110350000D01*
X83740000Y-107130000D02*
X83290000Y-107130000D01*
X86060000Y-110350000D02*
X86510000Y-110350000D01*
X86510000Y-107130000D02*
X86060000Y-107130000D01*
X86510000Y-107580000D02*
X86510000Y-107130000D01*
X86510000Y-110350000D02*
X86510000Y-109900000D01*
X82760000Y-109540000D02*
X82430000Y-109300000D01*
X82430000Y-109780000D01*
X82760000Y-109540000D01*
G36*
X82760000Y-109540000D02*
G01*
X82430000Y-109780000D01*
X82430000Y-109300000D01*
X82760000Y-109540000D01*
G37*
G04 #@! TO.C,J3*
X101685000Y-92990000D02*
X101685000Y-98790000D01*
X101685000Y-102070000D02*
X101685000Y-109090000D01*
X117945000Y-92990000D02*
X101685000Y-92990000D01*
X117945000Y-92990000D02*
X117945000Y-98790000D01*
X117945000Y-102070000D02*
X117945000Y-109090000D01*
X118175000Y-96240000D02*
X118175000Y-98040000D01*
G04 #@! TO.C,L1*
X88838748Y-106880000D02*
X89361252Y-106880000D01*
X88838748Y-109100000D02*
X89361252Y-109100000D01*
G04 #@! TO.C,L3*
X82811252Y-111230000D02*
X82288748Y-111230000D01*
X82811252Y-113450000D02*
X82288748Y-113450000D01*
G04 #@! TO.C,R2*
X88846359Y-113520000D02*
X89153641Y-113520000D01*
X88846359Y-114280000D02*
X89153641Y-114280000D01*
G04 #@! TO.C,C75*
X123825000Y-100827164D02*
X123825000Y-101042836D01*
X124545000Y-100827164D02*
X124545000Y-101042836D01*
G04 #@! TO.C,R7*
X86420000Y-105643641D02*
X86420000Y-105336359D01*
X87180000Y-105643641D02*
X87180000Y-105336359D01*
G04 #@! TO.C,C50*
X145894664Y-96417500D02*
X146110336Y-96417500D01*
X145894664Y-97137500D02*
X146110336Y-97137500D01*
G04 #@! TO.C,C2*
X84840000Y-111812164D02*
X84840000Y-112027836D01*
X85560000Y-111812164D02*
X85560000Y-112027836D01*
G04 #@! TO.C,C34*
X95582836Y-107390000D02*
X95367164Y-107390000D01*
X95582836Y-108110000D02*
X95367164Y-108110000D01*
G04 #@! TO.C,C1*
X84440000Y-105597836D02*
X84440000Y-105382164D01*
X85160000Y-105597836D02*
X85160000Y-105382164D01*
G04 #@! TO.C,C27*
X124840000Y-100842164D02*
X124840000Y-101057836D01*
X125560000Y-100842164D02*
X125560000Y-101057836D01*
G04 #@! TO.C,Y1*
X170840000Y-90440000D02*
X170840000Y-90970000D01*
X170840000Y-92890000D02*
X170840000Y-93510000D01*
X170840000Y-95430000D02*
X170840000Y-95960000D01*
X170840000Y-95960000D02*
X174560000Y-95960000D01*
X174560000Y-90440000D02*
X170840000Y-90440000D01*
X174560000Y-90970000D02*
X174560000Y-90440000D01*
X174560000Y-92890000D02*
X174960000Y-92890000D01*
X174560000Y-93510000D02*
X174560000Y-92890000D01*
X174560000Y-95960000D02*
X174560000Y-95430000D01*
X174960000Y-90970000D02*
X174560000Y-90970000D01*
G04 #@! TO.C,C24*
X133392164Y-100040000D02*
X133607836Y-100040000D01*
X133392164Y-100760000D02*
X133607836Y-100760000D01*
G04 #@! TO.C,U6*
X93727500Y-103840000D02*
X93727500Y-103890000D01*
X93727500Y-106910000D02*
X93727500Y-106960000D01*
X93727500Y-106960000D02*
X95547500Y-106960000D01*
X95547500Y-103840000D02*
X93727500Y-103840000D01*
X95547500Y-103890000D02*
X95547500Y-103840000D01*
X95547500Y-105790000D02*
X95547500Y-105010000D01*
X95547500Y-106960000D02*
X95547500Y-106910000D01*
X93187500Y-106910000D02*
X92947500Y-107240000D01*
X93427500Y-107240000D01*
X93187500Y-106910000D01*
G36*
X93427500Y-107240000D02*
G01*
X92947500Y-107240000D01*
X93187500Y-106910000D01*
X93427500Y-107240000D01*
G37*
G04 #@! TO.C,C38*
X120997164Y-96515000D02*
X121212836Y-96515000D01*
X120997164Y-97235000D02*
X121212836Y-97235000D01*
G04 #@! TO.C,R5*
X78670000Y-113506359D02*
X78670000Y-113813641D01*
X79430000Y-113506359D02*
X79430000Y-113813641D01*
G04 #@! TO.C,C33*
X91615000Y-105957836D02*
X91615000Y-105742164D01*
X92335000Y-105957836D02*
X92335000Y-105742164D01*
G04 #@! TO.C,C13*
X78690000Y-111867836D02*
X78690000Y-111652164D01*
X79410000Y-111867836D02*
X79410000Y-111652164D01*
G04 #@! TO.C,C30*
X90240000Y-111077836D02*
X90240000Y-110862164D01*
X90960000Y-111077836D02*
X90960000Y-110862164D01*
G04 #@! TO.C,C17*
X122707836Y-93890000D02*
X122492164Y-93890000D01*
X122707836Y-94610000D02*
X122492164Y-94610000D01*
G04 #@! TO.C,C5*
X89107836Y-109530000D02*
X88892164Y-109530000D01*
X89107836Y-110250000D02*
X88892164Y-110250000D01*
G04 #@! TO.C,U1*
X124200000Y-90350000D02*
X124200000Y-90750000D01*
X124200000Y-90350000D02*
X124600000Y-90350000D01*
X124200000Y-99350000D02*
X124200000Y-98950000D01*
X124200000Y-99350000D02*
X124600000Y-99350000D01*
X133200000Y-90350000D02*
X132800000Y-90350000D01*
X133200000Y-90350000D02*
X133200000Y-90750000D01*
X133200000Y-99350000D02*
X132800000Y-99350000D01*
X133200000Y-99350000D02*
X133200000Y-98950000D01*
X132950000Y-90670000D02*
X133150000Y-90400000D01*
X132750000Y-90400000D01*
X132950000Y-90670000D01*
G36*
X132950000Y-90670000D02*
G01*
X132750000Y-90400000D01*
X133150000Y-90400000D01*
X132950000Y-90670000D01*
G37*
G04 #@! TO.C,R19*
X122720000Y-97406359D02*
X122720000Y-97713641D01*
X123480000Y-97406359D02*
X123480000Y-97713641D01*
G04 #@! TO.C,C29*
X92372164Y-107330000D02*
X92587836Y-107330000D01*
X92372164Y-108050000D02*
X92587836Y-108050000D01*
G04 #@! TO.C,C4*
X85440000Y-105597836D02*
X85440000Y-105382164D01*
X86160000Y-105597836D02*
X86160000Y-105382164D01*
G04 #@! TO.C,C28*
X130640000Y-101192164D02*
X130640000Y-101407836D01*
X131360000Y-101192164D02*
X131360000Y-101407836D01*
G04 #@! TO.C,C72*
X122607836Y-90740000D02*
X122392164Y-90740000D01*
X122607836Y-91460000D02*
X122392164Y-91460000D01*
G04 #@! TO.C,C57*
X83172500Y-93435836D02*
X83172500Y-93220164D01*
X83892500Y-93435836D02*
X83892500Y-93220164D01*
G04 #@! TO.C,L2*
X82561252Y-103980000D02*
X82038748Y-103980000D01*
X82561252Y-106200000D02*
X82038748Y-106200000D01*
G04 #@! TO.C,TP1*
X159350000Y-106425000D02*
X159350000Y-108325000D01*
X159350000Y-108325000D02*
X161250000Y-108325000D01*
X161250000Y-106425000D02*
X159350000Y-106425000D01*
X161250000Y-108325000D02*
X161250000Y-106425000D01*
G04 #@! TO.C,R4*
X78653641Y-108520000D02*
X78346359Y-108520000D01*
X78653641Y-109280000D02*
X78346359Y-109280000D01*
G04 #@! TO.C,C3*
X85840000Y-111812164D02*
X85840000Y-112027836D01*
X86560000Y-111812164D02*
X86560000Y-112027836D01*
G04 #@! TO.C,L9*
X83472500Y-99827622D02*
X83472500Y-99028378D01*
X84592500Y-99827622D02*
X84592500Y-99028378D01*
G04 #@! TO.C,C12*
X79690000Y-111867836D02*
X79690000Y-111652164D01*
X80410000Y-111867836D02*
X80410000Y-111652164D01*
G04 #@! TO.C,C15*
X87440000Y-103597836D02*
X87440000Y-103382164D01*
X88160000Y-103597836D02*
X88160000Y-103382164D01*
G04 #@! TO.C,C52*
X166400000Y-91307836D02*
X166400000Y-91092164D01*
X167120000Y-91307836D02*
X167120000Y-91092164D01*
G04 #@! TO.C,Y2*
X119990000Y-100360000D02*
X119990000Y-97540000D01*
X122410000Y-100360000D02*
X119990000Y-100360000D01*
G04 #@! TO.C,R1*
X89143641Y-112510000D02*
X88836359Y-112510000D01*
X89143641Y-113270000D02*
X88836359Y-113270000D01*
G04 #@! TO.C,C19*
X127540000Y-100842164D02*
X127540000Y-101057836D01*
X128260000Y-100842164D02*
X128260000Y-101057836D01*
G04 #@! TO.C,R20*
X122720000Y-99396359D02*
X122720000Y-99703641D01*
X123480000Y-99396359D02*
X123480000Y-99703641D01*
G04 #@! TO.C,C7*
X89107836Y-110530000D02*
X88892164Y-110530000D01*
X89107836Y-111250000D02*
X88892164Y-111250000D01*
G04 #@! TO.C,C6*
X89107836Y-111530000D02*
X88892164Y-111530000D01*
X89107836Y-112250000D02*
X88892164Y-112250000D01*
G04 #@! TO.C,C32*
X121097164Y-100615000D02*
X121312836Y-100615000D01*
X121097164Y-101335000D02*
X121312836Y-101335000D01*
G04 #@! TO.C,L4*
X171040000Y-98499622D02*
X171040000Y-97700378D01*
X172160000Y-98499622D02*
X172160000Y-97700378D01*
G04 #@! TO.C,C9*
X81592164Y-107580000D02*
X81807836Y-107580000D01*
X81592164Y-108300000D02*
X81807836Y-108300000D01*
G04 #@! TO.C,C43*
X169740000Y-95992164D02*
X169740000Y-96207836D01*
X170460000Y-95992164D02*
X170460000Y-96207836D01*
G04 #@! TO.C,C37*
X122707836Y-92890000D02*
X122492164Y-92890000D01*
X122707836Y-93610000D02*
X122492164Y-93610000D01*
G04 #@! TO.C,L8*
X81472500Y-90928378D02*
X81472500Y-91727622D01*
X82592500Y-90928378D02*
X82592500Y-91727622D01*
G04 #@! TO.C,R10*
X126520000Y-101103641D02*
X126520000Y-100796359D01*
X127280000Y-101103641D02*
X127280000Y-100796359D01*
G04 #@! TO.C,C62*
X83172500Y-96420164D02*
X83172500Y-96635836D01*
X83892500Y-96420164D02*
X83892500Y-96635836D01*
G04 #@! TO.C,R9*
X88420000Y-105653641D02*
X88420000Y-105346359D01*
X89180000Y-105653641D02*
X89180000Y-105346359D01*
G04 #@! TO.C,R8*
X87420000Y-105633641D02*
X87420000Y-105326359D01*
X88180000Y-105633641D02*
X88180000Y-105326359D01*
G04 #@! TO.C,U4*
X91340000Y-109417500D02*
X91340000Y-111237500D01*
X91340000Y-111237500D02*
X91390000Y-111237500D01*
X91390000Y-109417500D02*
X91340000Y-109417500D01*
X92510000Y-111237500D02*
X93290000Y-111237500D01*
X94410000Y-111237500D02*
X94460000Y-111237500D01*
X94460000Y-109417500D02*
X94410000Y-109417500D01*
X94460000Y-111237500D02*
X94460000Y-109417500D01*
X91390000Y-108877500D02*
X91060000Y-108637500D01*
X91060000Y-109117500D01*
X91390000Y-108877500D01*
G36*
X91390000Y-108877500D02*
G01*
X91060000Y-109117500D01*
X91060000Y-108637500D01*
X91390000Y-108877500D01*
G37*
G04 #@! TO.C,C10*
X81592164Y-106580000D02*
X81807836Y-106580000D01*
X81592164Y-107300000D02*
X81807836Y-107300000D01*
G04 #@! TO.C,C16*
X88440000Y-103607836D02*
X88440000Y-103392164D01*
X89160000Y-103607836D02*
X89160000Y-103392164D01*
G04 #@! TO.C,J1*
X123660000Y-111220000D02*
X123660000Y-109520000D01*
X133000000Y-111220000D02*
X133000000Y-109520000D01*
G04 #@! TO.C,Y3*
X78672500Y-98458000D02*
X79072500Y-98458000D01*
X79072500Y-93468000D02*
X79072500Y-93998000D01*
X79072500Y-95918000D02*
X79072500Y-96538000D01*
X79072500Y-96538000D02*
X78672500Y-96538000D01*
X79072500Y-98458000D02*
X79072500Y-98988000D01*
X79072500Y-98988000D02*
X82792500Y-98988000D01*
X82792500Y-93468000D02*
X79072500Y-93468000D01*
X82792500Y-93998000D02*
X82792500Y-93468000D01*
X82792500Y-96538000D02*
X82792500Y-95918000D01*
X82792500Y-98988000D02*
X82792500Y-98458000D01*
G04 #@! TO.C,C51*
X165400000Y-91307836D02*
X165400000Y-91092164D01*
X166120000Y-91307836D02*
X166120000Y-91092164D01*
G04 #@! TO.C,C21*
X128540000Y-100842164D02*
X128540000Y-101057836D01*
X129260000Y-100842164D02*
X129260000Y-101057836D01*
G04 #@! TO.C,C39*
X167900000Y-91307836D02*
X167900000Y-91092164D01*
X168620000Y-91307836D02*
X168620000Y-91092164D01*
G04 #@! TO.C,U5*
X128250000Y-105285000D02*
X128450000Y-105285000D01*
X128250000Y-105835000D02*
X128250000Y-105285000D01*
X129550000Y-105285000D02*
X129350000Y-105285000D01*
X129550000Y-105835000D02*
X129550000Y-105285000D01*
X129660000Y-106265000D02*
X129660000Y-106545000D01*
X129940000Y-106265000D01*
X129660000Y-106265000D01*
G36*
X129660000Y-106545000D02*
G01*
X129660000Y-106265000D01*
X129940000Y-106265000D01*
X129660000Y-106545000D01*
G37*
G04 #@! TO.C,J2*
X137405000Y-98215000D02*
X137405000Y-112225000D01*
X138885000Y-114285000D02*
X138625000Y-114285000D01*
X139085000Y-114485000D02*
X138885000Y-114285000D01*
X139085000Y-114485000D02*
X141395000Y-114485000D01*
X139325000Y-98215000D02*
X137405000Y-98215000D01*
X141395000Y-114485000D02*
X141905000Y-114135000D01*
X148275000Y-114135000D02*
X141905000Y-114135000D01*
X148275000Y-114135000D02*
X148275000Y-114285000D01*
X148485000Y-114485000D02*
X148275000Y-114285000D01*
X150345000Y-114485000D02*
X148485000Y-114485000D01*
X150345000Y-114485000D02*
X150545000Y-114285000D01*
X150925000Y-98215000D02*
X151375000Y-98215000D01*
X151375000Y-98215000D02*
X151375000Y-101825000D01*
X151375000Y-103525000D02*
X151375000Y-108225000D01*
X151375000Y-109525000D02*
X151375000Y-111325000D01*
G04 #@! TO.C,R3*
X80953641Y-108560000D02*
X80646359Y-108560000D01*
X80953641Y-109320000D02*
X80646359Y-109320000D01*
G04 #@! TO.C,J4*
X155890000Y-110215000D02*
X156940000Y-110215000D01*
X155890000Y-112715000D02*
X155890000Y-110215000D01*
X160940000Y-114685000D02*
X157060000Y-114685000D01*
X161060000Y-110215000D02*
X161060000Y-109225000D01*
X162110000Y-110215000D02*
X161060000Y-110215000D01*
X162110000Y-112715000D02*
X162110000Y-110215000D01*
G04 #@! TO.C,R6*
X77670000Y-113813641D02*
X77670000Y-113506359D01*
X78430000Y-113813641D02*
X78430000Y-113506359D01*
G04 #@! TO.C,L6*
X169040000Y-89600378D02*
X169040000Y-90399622D01*
X170160000Y-89600378D02*
X170160000Y-90399622D01*
G04 #@! TO.C,TP2*
X156800000Y-106425000D02*
X156800000Y-108325000D01*
X156800000Y-108325000D02*
X158700000Y-108325000D01*
X158700000Y-106425000D02*
X156800000Y-106425000D01*
X158700000Y-108325000D02*
X158700000Y-106425000D01*
G04 #@! TO.C,C59*
X85012500Y-98120164D02*
X85012500Y-98335836D01*
X85732500Y-98120164D02*
X85732500Y-98335836D01*
G04 #@! TO.C,C36*
X169740000Y-93007836D02*
X169740000Y-92792164D01*
X170460000Y-93007836D02*
X170460000Y-92792164D01*
G04 #@! TO.C,C14*
X86440000Y-103597836D02*
X86440000Y-103382164D01*
X87160000Y-103597836D02*
X87160000Y-103382164D01*
G04 #@! TO.C,C11*
X79690000Y-113552164D02*
X79690000Y-113767836D01*
X80410000Y-113552164D02*
X80410000Y-113767836D01*
G04 #@! TD*
%LPC*%
D12*
G04 #@! TO.C,H1*
X71000000Y-88000000D03*
G04 #@! TD*
G04 #@! TO.C,H2*
X182500000Y-88000000D03*
G04 #@! TD*
G04 #@! TO.C,H4*
X182600000Y-112100000D03*
G04 #@! TD*
G04 #@! TO.C,H3*
X71000000Y-112000000D03*
G04 #@! TD*
D13*
G04 #@! TO.C,MP1*
X156432500Y-94714000D03*
X176432500Y-94714000D03*
G04 #@! TD*
G04 #@! TO.C,MP2*
X77200000Y-94714000D03*
X97200000Y-94714000D03*
G04 #@! TD*
D14*
G04 #@! TO.C,C8*
X81280000Y-110000000D03*
X80320000Y-110000000D03*
G04 #@! TD*
D15*
G04 #@! TO.C,U2*
X83450000Y-109540000D03*
X83450000Y-109140000D03*
X83450000Y-108740000D03*
X83450000Y-108340000D03*
X83450000Y-107940000D03*
D16*
X84100000Y-107290000D03*
X84500000Y-107290000D03*
X84900000Y-107290000D03*
X85300000Y-107290000D03*
X85700000Y-107290000D03*
D15*
X86350000Y-107940000D03*
X86350000Y-108340000D03*
X86350000Y-108740000D03*
X86350000Y-109140000D03*
X86350000Y-109540000D03*
D16*
X85700000Y-110190000D03*
X85300000Y-110190000D03*
X84900000Y-110190000D03*
X84500000Y-110190000D03*
X84100000Y-110190000D03*
D17*
X84900000Y-108740000D03*
G04 #@! TD*
D18*
G04 #@! TO.C,J3*
X115530000Y-103500000D03*
X104100000Y-103500000D03*
D19*
X114255000Y-97140000D03*
D13*
X112995000Y-94600000D03*
X111715000Y-97140000D03*
X110455000Y-94600000D03*
X109175000Y-97140000D03*
X107915000Y-94600000D03*
X106635000Y-97140000D03*
X105375000Y-94600000D03*
X116440000Y-108400000D03*
X113900000Y-108400000D03*
X105730000Y-108400000D03*
X103190000Y-108400000D03*
D20*
X117560000Y-100450000D03*
X102070000Y-100450000D03*
G04 #@! TD*
D13*
G04 #@! TO.C,FID5*
X71000000Y-93000000D03*
G04 #@! TD*
D21*
G04 #@! TO.C,L1*
X88025000Y-107990000D03*
X90175000Y-107990000D03*
G04 #@! TD*
D22*
G04 #@! TO.C,L3*
X83625000Y-112340000D03*
X81475000Y-112340000D03*
G04 #@! TD*
D23*
G04 #@! TO.C,R2*
X88490000Y-113900000D03*
X89510000Y-113900000D03*
G04 #@! TD*
D13*
G04 #@! TO.C,FID2*
X71000000Y-107000000D03*
G04 #@! TD*
D24*
G04 #@! TO.C,C75*
X124185000Y-100455000D03*
X124185000Y-101415000D03*
G04 #@! TD*
D25*
G04 #@! TO.C,R7*
X86800000Y-106000000D03*
X86800000Y-104980000D03*
G04 #@! TD*
D26*
G04 #@! TO.C,C50*
X145522500Y-96777500D03*
X146482500Y-96777500D03*
G04 #@! TD*
D24*
G04 #@! TO.C,C2*
X85200000Y-111440000D03*
X85200000Y-112400000D03*
G04 #@! TD*
D14*
G04 #@! TO.C,C34*
X95955000Y-107750000D03*
X94995000Y-107750000D03*
G04 #@! TD*
D27*
G04 #@! TO.C,C1*
X84800000Y-105970000D03*
X84800000Y-105010000D03*
G04 #@! TD*
D24*
G04 #@! TO.C,C27*
X125200000Y-100470000D03*
X125200000Y-101430000D03*
G04 #@! TD*
D28*
G04 #@! TO.C,Y1*
X173800000Y-91930000D03*
X173800000Y-94470000D03*
X171600000Y-94470000D03*
X171600000Y-91930000D03*
G04 #@! TD*
D26*
G04 #@! TO.C,C24*
X133020000Y-100400000D03*
X133980000Y-100400000D03*
G04 #@! TD*
D29*
G04 #@! TO.C,U6*
X93500000Y-106350000D03*
X93500000Y-105400000D03*
X93500000Y-104450000D03*
X95775000Y-104450000D03*
X95775000Y-106350000D03*
G04 #@! TD*
D26*
G04 #@! TO.C,C38*
X120625000Y-96875000D03*
X121585000Y-96875000D03*
G04 #@! TD*
D30*
G04 #@! TO.C,R5*
X79050000Y-113150000D03*
X79050000Y-114170000D03*
G04 #@! TD*
D27*
G04 #@! TO.C,C33*
X91975000Y-106330000D03*
X91975000Y-105370000D03*
G04 #@! TD*
G04 #@! TO.C,C13*
X79050000Y-112240000D03*
X79050000Y-111280000D03*
G04 #@! TD*
G04 #@! TO.C,C30*
X90600000Y-111450000D03*
X90600000Y-110490000D03*
G04 #@! TD*
D14*
G04 #@! TO.C,C17*
X123080000Y-94250000D03*
X122120000Y-94250000D03*
G04 #@! TD*
D31*
G04 #@! TO.C,R27*
X134680000Y-94400000D03*
X135320000Y-94400000D03*
G04 #@! TD*
D14*
G04 #@! TO.C,C5*
X89480000Y-109890000D03*
X88520000Y-109890000D03*
G04 #@! TD*
D32*
G04 #@! TO.C,U1*
X133100000Y-91175000D03*
X133100000Y-91525000D03*
X133100000Y-91875000D03*
X133100000Y-92225000D03*
X133100000Y-92575000D03*
X133100000Y-92925000D03*
X133100000Y-93275000D03*
X133100000Y-93625000D03*
X133100000Y-93975000D03*
X133100000Y-94325000D03*
X133100000Y-94675000D03*
X133100000Y-95025000D03*
X133100000Y-95375000D03*
X133100000Y-95725000D03*
X133100000Y-96075000D03*
X133100000Y-96425000D03*
X133100000Y-96775000D03*
X133100000Y-97125000D03*
X133100000Y-97475000D03*
X133100000Y-97825000D03*
X133100000Y-98175000D03*
X133100000Y-98525000D03*
D33*
X132375000Y-99250000D03*
X132025000Y-99250000D03*
X131675000Y-99250000D03*
X131325000Y-99250000D03*
X130975000Y-99250000D03*
X130625000Y-99250000D03*
X130275000Y-99250000D03*
X129925000Y-99250000D03*
X129575000Y-99250000D03*
X129225000Y-99250000D03*
X128875000Y-99250000D03*
X128525000Y-99250000D03*
X128175000Y-99250000D03*
X127825000Y-99250000D03*
X127475000Y-99250000D03*
X127125000Y-99250000D03*
X126775000Y-99250000D03*
X126425000Y-99250000D03*
X126075000Y-99250000D03*
X125725000Y-99250000D03*
X125375000Y-99250000D03*
X125025000Y-99250000D03*
D32*
X124300000Y-98525000D03*
X124300000Y-98175000D03*
X124300000Y-97825000D03*
X124300000Y-97475000D03*
X124300000Y-97125000D03*
X124300000Y-96775000D03*
X124300000Y-96425000D03*
X124300000Y-96075000D03*
X124300000Y-95725000D03*
X124300000Y-95375000D03*
X124300000Y-95025000D03*
X124300000Y-94675000D03*
X124300000Y-94325000D03*
X124300000Y-93975000D03*
X124300000Y-93625000D03*
X124300000Y-93275000D03*
X124300000Y-92925000D03*
X124300000Y-92575000D03*
X124300000Y-92225000D03*
X124300000Y-91875000D03*
X124300000Y-91525000D03*
X124300000Y-91175000D03*
D33*
X125025000Y-90450000D03*
X125375000Y-90450000D03*
X125725000Y-90450000D03*
X126075000Y-90450000D03*
X126425000Y-90450000D03*
X126775000Y-90450000D03*
X127125000Y-90450000D03*
X127475000Y-90450000D03*
X127825000Y-90450000D03*
X128175000Y-90450000D03*
X128525000Y-90450000D03*
X128875000Y-90450000D03*
X129225000Y-90450000D03*
X129575000Y-90450000D03*
X129925000Y-90450000D03*
X130275000Y-90450000D03*
X130625000Y-90450000D03*
X130975000Y-90450000D03*
X131325000Y-90450000D03*
X131675000Y-90450000D03*
X132025000Y-90450000D03*
X132375000Y-90450000D03*
D34*
X128700000Y-94850000D03*
G04 #@! TD*
D30*
G04 #@! TO.C,R19*
X123100000Y-97050000D03*
X123100000Y-98070000D03*
G04 #@! TD*
D26*
G04 #@! TO.C,C29*
X92000000Y-107690000D03*
X92960000Y-107690000D03*
G04 #@! TD*
D27*
G04 #@! TO.C,C4*
X85800000Y-105970000D03*
X85800000Y-105010000D03*
G04 #@! TD*
D24*
G04 #@! TO.C,C28*
X131000000Y-100820000D03*
X131000000Y-101780000D03*
G04 #@! TD*
D14*
G04 #@! TO.C,C72*
X122980000Y-91100000D03*
X122020000Y-91100000D03*
G04 #@! TD*
D27*
G04 #@! TO.C,C57*
X83532500Y-93808000D03*
X83532500Y-92848000D03*
G04 #@! TD*
D22*
G04 #@! TO.C,L2*
X83375000Y-105090000D03*
X81225000Y-105090000D03*
G04 #@! TD*
D35*
G04 #@! TO.C,TP1*
X160300000Y-107375000D03*
G04 #@! TD*
D36*
G04 #@! TO.C,R4*
X79010000Y-108900000D03*
X77990000Y-108900000D03*
G04 #@! TD*
D24*
G04 #@! TO.C,C3*
X86200000Y-111440000D03*
X86200000Y-112400000D03*
G04 #@! TD*
D37*
G04 #@! TO.C,L9*
X84032500Y-100490500D03*
X84032500Y-98365500D03*
G04 #@! TD*
D13*
G04 #@! TO.C,FID6*
X182500000Y-93000000D03*
G04 #@! TD*
D27*
G04 #@! TO.C,C12*
X80050000Y-112240000D03*
X80050000Y-111280000D03*
G04 #@! TD*
G04 #@! TO.C,C15*
X87800000Y-103970000D03*
X87800000Y-103010000D03*
G04 #@! TD*
G04 #@! TO.C,C52*
X166760000Y-91680000D03*
X166760000Y-90720000D03*
G04 #@! TD*
D38*
G04 #@! TO.C,Y2*
X120650000Y-99650000D03*
X120650000Y-98250000D03*
X121750000Y-98250000D03*
X121750000Y-99650000D03*
G04 #@! TD*
D36*
G04 #@! TO.C,R1*
X89500000Y-112890000D03*
X88480000Y-112890000D03*
G04 #@! TD*
D24*
G04 #@! TO.C,C19*
X127900000Y-100470000D03*
X127900000Y-101430000D03*
G04 #@! TD*
D30*
G04 #@! TO.C,R20*
X123100000Y-99040000D03*
X123100000Y-100060000D03*
G04 #@! TD*
D14*
G04 #@! TO.C,C7*
X89480000Y-110890000D03*
X88520000Y-110890000D03*
G04 #@! TD*
G04 #@! TO.C,C6*
X89480000Y-111890000D03*
X88520000Y-111890000D03*
G04 #@! TD*
D26*
G04 #@! TO.C,C32*
X120725000Y-100975000D03*
X121685000Y-100975000D03*
G04 #@! TD*
D37*
G04 #@! TO.C,L4*
X171600000Y-99162500D03*
X171600000Y-97037500D03*
G04 #@! TD*
D26*
G04 #@! TO.C,C9*
X81220000Y-107940000D03*
X82180000Y-107940000D03*
G04 #@! TD*
D24*
G04 #@! TO.C,C43*
X170100000Y-95620000D03*
X170100000Y-96580000D03*
G04 #@! TD*
D14*
G04 #@! TO.C,C37*
X123080000Y-93250000D03*
X122120000Y-93250000D03*
G04 #@! TD*
D39*
G04 #@! TO.C,L8*
X82032500Y-90265500D03*
X82032500Y-92390500D03*
G04 #@! TD*
D25*
G04 #@! TO.C,R10*
X126900000Y-101460000D03*
X126900000Y-100440000D03*
G04 #@! TD*
D24*
G04 #@! TO.C,C62*
X83532500Y-96048000D03*
X83532500Y-97008000D03*
G04 #@! TD*
D25*
G04 #@! TO.C,R9*
X88800000Y-106010000D03*
X88800000Y-104990000D03*
G04 #@! TD*
G04 #@! TO.C,R8*
X87800000Y-105990000D03*
X87800000Y-104970000D03*
G04 #@! TD*
D40*
G04 #@! TO.C,U4*
X91950000Y-109190000D03*
X92900000Y-109190000D03*
X93850000Y-109190000D03*
X93850000Y-111465000D03*
X91950000Y-111465000D03*
G04 #@! TD*
D26*
G04 #@! TO.C,C10*
X81220000Y-106940000D03*
X82180000Y-106940000D03*
G04 #@! TD*
D27*
G04 #@! TO.C,C16*
X88800000Y-103980000D03*
X88800000Y-103020000D03*
G04 #@! TD*
D41*
G04 #@! TO.C,J1*
X131220000Y-108715000D03*
X125440000Y-108715000D03*
D42*
X131530000Y-107640000D03*
X130730000Y-107640000D03*
D43*
X129580000Y-107640000D03*
X128580000Y-107640000D03*
X128080000Y-107640000D03*
X127080000Y-107640000D03*
D42*
X125930000Y-107640000D03*
X125130000Y-107640000D03*
X125130000Y-107640000D03*
X125930000Y-107640000D03*
D43*
X126580000Y-107640000D03*
X127580000Y-107640000D03*
X129080000Y-107640000D03*
X130080000Y-107640000D03*
D42*
X130730000Y-107640000D03*
X131530000Y-107640000D03*
D44*
X132650000Y-112395000D03*
D45*
X132650000Y-108215000D03*
D44*
X124010000Y-112395000D03*
D45*
X124010000Y-108215000D03*
G04 #@! TD*
D46*
G04 #@! TO.C,Y3*
X79832500Y-97498000D03*
X79832500Y-94958000D03*
X82032500Y-94958000D03*
X82032500Y-97498000D03*
G04 #@! TD*
D27*
G04 #@! TO.C,C51*
X165760000Y-91680000D03*
X165760000Y-90720000D03*
G04 #@! TD*
D24*
G04 #@! TO.C,C21*
X128900000Y-100470000D03*
X128900000Y-101430000D03*
G04 #@! TD*
D27*
G04 #@! TO.C,C39*
X168260000Y-91680000D03*
X168260000Y-90720000D03*
G04 #@! TD*
D47*
G04 #@! TO.C,U5*
X129250000Y-106260000D03*
X128550000Y-106260000D03*
X128900000Y-105410000D03*
G04 #@! TD*
D48*
G04 #@! TO.C,J2*
X141625000Y-98375000D03*
X142725000Y-98375000D03*
X143825000Y-98375000D03*
X144925000Y-98375000D03*
X146025000Y-98375000D03*
X147125000Y-98375000D03*
X148225000Y-98375000D03*
X149325000Y-98375000D03*
X150275000Y-98375000D03*
D49*
X151225000Y-108875000D03*
D50*
X151225000Y-113025000D03*
D51*
X151225000Y-102675000D03*
X140075000Y-98375000D03*
D52*
X137725000Y-113475000D03*
G04 #@! TD*
D36*
G04 #@! TO.C,R3*
X81310000Y-108940000D03*
X80290000Y-108940000D03*
G04 #@! TD*
D53*
G04 #@! TO.C,J4*
X160500000Y-110000000D03*
X159500000Y-110000000D03*
X158500000Y-110000000D03*
X157500000Y-110000000D03*
D54*
X161800000Y-113875000D03*
X156200000Y-113875000D03*
G04 #@! TD*
D25*
G04 #@! TO.C,R6*
X78050000Y-114170000D03*
X78050000Y-113150000D03*
G04 #@! TD*
D39*
G04 #@! TO.C,L6*
X169600000Y-88937500D03*
X169600000Y-91062500D03*
G04 #@! TD*
D35*
G04 #@! TO.C,TP2*
X157750000Y-107375000D03*
G04 #@! TD*
D24*
G04 #@! TO.C,C59*
X85372500Y-97748000D03*
X85372500Y-98708000D03*
G04 #@! TD*
D27*
G04 #@! TO.C,C36*
X170100000Y-93380000D03*
X170100000Y-92420000D03*
G04 #@! TD*
G04 #@! TO.C,C14*
X86800000Y-103970000D03*
X86800000Y-103010000D03*
G04 #@! TD*
D24*
G04 #@! TO.C,C11*
X80050000Y-113180000D03*
X80050000Y-114140000D03*
G04 #@! TD*
%LPD*%
M02*
