G04 #@! TF.GenerationSoftware,KiCad,Pcbnew,10.0.5*
G04 #@! TF.CreationDate,2026-08-10T10:17:43+02:00*
G04 #@! TF.ProjectId,4reel_ee,34726565-6c5f-4656-952e-6b696361645f,rev?*
G04 #@! TF.SameCoordinates,Original*
G04 #@! TF.FileFunction,Copper,L3,Inr*
G04 #@! TF.FilePolarity,Positive*
%FSLAX46Y46*%
G04 Gerber Fmt 4.6, Leading zero omitted, Abs format (unit mm)*
G04 Created by KiCad (PCBNEW 10.0.5) date 2026-08-10 10:17:43*
%MOMM*%
%LPD*%
G01*
G04 APERTURE LIST*
G04 Aperture macros list*
%AMRoundRect*
0 Rectangle with rounded corners*
0 $1 Rounding radius*
0 $2 $3 $4 $5 $6 $7 $8 $9 X,Y pos of 4 corners*
0 Add a 4 corners polygon primitive as box body*
4,1,4,$2,$3,$4,$5,$6,$7,$8,$9,$2,$3,0*
0 Add four circle primitives for the rounded corners*
1,1,$1+$1,$2,$3*
1,1,$1+$1,$4,$5*
1,1,$1+$1,$6,$7*
1,1,$1+$1,$8,$9*
0 Add four rect primitives between the rounded corners*
20,1,$1+$1,$2,$3,$4,$5,0*
20,1,$1+$1,$4,$5,$6,$7,0*
20,1,$1+$1,$6,$7,$8,$9,0*
20,1,$1+$1,$8,$9,$2,$3,0*%
G04 Aperture macros list end*
G04 #@! TA.AperFunction,ComponentPad*
%ADD10RoundRect,0.250500X0.499500X0.499500X-0.499500X0.499500X-0.499500X-0.499500X0.499500X-0.499500X0*%
G04 #@! TD*
G04 #@! TA.AperFunction,ComponentPad*
%ADD11C,1.500000*%
G04 #@! TD*
G04 #@! TA.AperFunction,ComponentPad*
%ADD12C,2.500000*%
G04 #@! TD*
G04 #@! TA.AperFunction,ComponentPad*
%ADD13O,1.000000X1.800000*%
G04 #@! TD*
G04 #@! TA.AperFunction,ComponentPad*
%ADD14O,1.000000X2.100000*%
G04 #@! TD*
G04 #@! TA.AperFunction,ViaPad*
%ADD15C,0.400000*%
G04 #@! TD*
G04 APERTURE END LIST*
D10*
G04 #@! TO.N,/MPU/EPHY.TXP*
G04 #@! TO.C,J3*
X114255000Y-97140000D03*
D11*
G04 #@! TO.N,/MPU/EPHY.TXN*
X112995000Y-94600000D03*
G04 #@! TO.N,/MPU/EPHY.RXP*
X111715000Y-97140000D03*
G04 #@! TO.N,Net-(J3-TCT)*
X110455000Y-94600000D03*
G04 #@! TO.N,Net-(J3-RCT)*
X109175000Y-97140000D03*
G04 #@! TO.N,/MPU/EPHY.RXN*
X107915000Y-94600000D03*
G04 #@! TO.N,unconnected-(J3-NC-Pad7)*
X106635000Y-97140000D03*
G04 #@! TO.N,GND*
X105375000Y-94600000D03*
G04 #@! TO.N,+3V3*
X116440000Y-108400000D03*
G04 #@! TO.N,Net-(J3-Pad10)*
X113900000Y-108400000D03*
G04 #@! TO.N,Net-(J3-Pad11)*
X105730000Y-108400000D03*
G04 #@! TO.N,+3V3*
X103190000Y-108400000D03*
D12*
G04 #@! TO.N,GND*
X117560000Y-100450000D03*
X102070000Y-100450000D03*
G04 #@! TD*
D13*
G04 #@! TO.N,GND*
G04 #@! TO.C,J1*
X132650000Y-112395000D03*
D14*
X132650000Y-108215000D03*
D13*
X124010000Y-112395000D03*
D14*
X124010000Y-108215000D03*
G04 #@! TD*
D15*
G04 #@! TO.N,/OV9281/AVDD*
X169500000Y-95500000D03*
X163850000Y-96850000D03*
X165399999Y-93240003D03*
X166300000Y-99370000D03*
G04 #@! TO.N,GND*
X89700000Y-93500000D03*
X114450000Y-85450000D03*
X136600000Y-87300000D03*
X156475000Y-92625000D03*
X170500000Y-94800000D03*
X90600000Y-109700000D03*
X101950000Y-87275000D03*
X96900000Y-85475000D03*
X99350000Y-88575000D03*
X84800000Y-104200000D03*
X164000000Y-92700000D03*
X128700000Y-94400000D03*
X147675000Y-86175000D03*
X121300000Y-91100000D03*
X159300000Y-91200000D03*
X154750000Y-87250000D03*
X96950000Y-91950000D03*
X90950000Y-87950000D03*
X161100000Y-97275000D03*
X87800000Y-110500000D03*
X151800000Y-93875000D03*
X134600000Y-86175000D03*
X88200000Y-96728000D03*
X167250000Y-98350000D03*
X131225000Y-86750000D03*
X129825000Y-87025000D03*
X132400000Y-86175000D03*
X155800000Y-97275000D03*
X94400000Y-85475000D03*
X122050000Y-88550000D03*
X125400000Y-102200000D03*
X129200000Y-94400000D03*
X88300000Y-87750000D03*
X134600000Y-87300000D03*
X153000000Y-90400000D03*
X95300000Y-88325000D03*
X129200000Y-94900000D03*
X141875000Y-86175000D03*
X90200000Y-113900000D03*
X78100000Y-112400000D03*
X156875000Y-86175000D03*
X101950000Y-85475000D03*
X169900000Y-99400000D03*
X158000000Y-91500000D03*
X153900000Y-96025000D03*
X136600000Y-88500000D03*
X144900000Y-90450000D03*
X155800000Y-98325000D03*
X121300000Y-95900000D03*
X165800000Y-89900000D03*
X167250000Y-100000000D03*
X99350000Y-89650000D03*
X160725000Y-95775000D03*
X161900000Y-91900000D03*
X111775000Y-88575000D03*
X154750000Y-86150000D03*
X88232515Y-95168024D03*
X98500000Y-88575000D03*
X151000000Y-87400000D03*
X148875000Y-92600000D03*
X93225000Y-87175000D03*
X85400000Y-109200000D03*
X126900000Y-102200000D03*
X161100000Y-98325000D03*
X95100000Y-90550000D03*
X136600000Y-86175000D03*
X92700000Y-95450000D03*
X136200000Y-92900000D03*
X83132500Y-94628000D03*
X128700000Y-95400000D03*
X83500000Y-110000000D03*
X85800000Y-104200000D03*
X107975000Y-88575000D03*
X164760000Y-95750000D03*
X165000000Y-97000000D03*
X82900000Y-107300000D03*
X124550000Y-85475000D03*
X161000000Y-90900000D03*
X158400000Y-90400000D03*
X117000000Y-87600000D03*
X87800000Y-109550000D03*
X108200000Y-90800000D03*
X88700000Y-92400000D03*
X150250000Y-86175000D03*
X149725000Y-91825000D03*
X106850000Y-89650000D03*
X94200000Y-107700000D03*
X106950000Y-86525000D03*
X122600000Y-99600000D03*
X104450000Y-87250000D03*
X124100000Y-102200000D03*
X157500000Y-89500000D03*
X165399985Y-94259976D03*
X105500000Y-88575000D03*
X116000000Y-88400000D03*
X86200000Y-109900000D03*
X101850000Y-89675000D03*
X141900000Y-87300000D03*
X121962500Y-103800000D03*
X87300000Y-109550000D03*
X89450000Y-91675000D03*
X115050000Y-89650000D03*
X86332500Y-90828000D03*
X109350000Y-89650000D03*
X84800000Y-96900000D03*
X129200000Y-95400000D03*
X144800000Y-88600000D03*
X111950000Y-87250000D03*
X91675000Y-88725000D03*
X93900000Y-94250000D03*
X124550000Y-88550000D03*
X163900000Y-99400000D03*
X128200000Y-95400000D03*
X89775000Y-89125000D03*
X147700000Y-91525000D03*
X92118036Y-89143036D03*
X92950000Y-111150000D03*
X164000000Y-94100000D03*
X147700000Y-88600000D03*
X117400000Y-89600000D03*
X113800000Y-91200000D03*
X169400000Y-92900000D03*
X93700000Y-107700000D03*
X84200000Y-95200000D03*
X127050000Y-85475000D03*
X79100000Y-110500000D03*
X164800000Y-99400000D03*
X92500000Y-92500000D03*
X94400000Y-86550000D03*
X147700000Y-87300000D03*
X96875000Y-88325000D03*
X169300000Y-96900000D03*
X119500000Y-88550000D03*
X84400000Y-109200000D03*
X106950000Y-85475000D03*
X111850000Y-89650000D03*
X82200000Y-108700000D03*
X135200000Y-90500000D03*
X150675000Y-88400000D03*
X83732500Y-90028000D03*
X96100000Y-89600000D03*
X139600000Y-91550000D03*
X167960000Y-94750000D03*
X97450000Y-87275000D03*
X144775000Y-86175000D03*
X116250000Y-89650000D03*
X86132500Y-89428000D03*
X128200000Y-94900000D03*
X84900000Y-108700000D03*
X99450000Y-87250000D03*
X84232500Y-96528000D03*
X154500000Y-91575000D03*
X114500000Y-88400000D03*
X109500000Y-87250000D03*
X104350000Y-89650000D03*
X141900000Y-88500000D03*
X158100000Y-93150000D03*
X151050000Y-94700000D03*
X85400000Y-108200000D03*
X168200000Y-89900000D03*
X158500000Y-88000000D03*
X111950000Y-86525000D03*
X168500000Y-99400000D03*
X109500000Y-86525000D03*
X132400000Y-87300000D03*
X167930000Y-96800000D03*
X140600000Y-104950000D03*
X139600000Y-90450000D03*
X87800000Y-110000000D03*
X102250000Y-88575000D03*
X89800000Y-96200000D03*
X156050000Y-87675000D03*
X119500000Y-85475000D03*
X114450000Y-87250000D03*
X97500000Y-88900000D03*
X127900000Y-102200000D03*
X85400000Y-99500000D03*
X128750000Y-85925000D03*
X91975000Y-104650000D03*
X122050000Y-85475000D03*
X109775000Y-88575000D03*
X149500000Y-89700000D03*
X83532500Y-92028000D03*
X99450000Y-85475000D03*
X92500000Y-86350000D03*
X139200000Y-88500000D03*
X104450000Y-85475000D03*
X142200000Y-91550000D03*
X84332500Y-92528000D03*
X94575000Y-105350000D03*
X118200000Y-88800000D03*
X84400000Y-108200000D03*
X139175000Y-86175000D03*
X125500000Y-104100000D03*
X158500000Y-98325000D03*
X84400000Y-108700000D03*
X139200000Y-87300000D03*
X114450000Y-86525000D03*
X92950000Y-110200000D03*
X159150000Y-94250000D03*
X161200000Y-93200000D03*
X121200000Y-98900000D03*
X166700000Y-89900000D03*
X154500000Y-92625000D03*
X93700000Y-87550000D03*
X106600000Y-91600000D03*
X144900000Y-91550000D03*
X86900000Y-99500000D03*
X87832500Y-99528000D03*
X85800000Y-92500000D03*
X153100000Y-96900000D03*
X160500000Y-94000000D03*
X111950000Y-85475000D03*
X84900000Y-108200000D03*
X158500000Y-97275000D03*
X142200000Y-90450000D03*
X109500000Y-85475000D03*
X134600000Y-88500000D03*
X144800000Y-87300000D03*
X86200000Y-113200000D03*
X161700000Y-95200000D03*
X104450000Y-86550000D03*
X84900000Y-109200000D03*
X160000000Y-89900000D03*
X101950000Y-86550000D03*
X137100000Y-90450000D03*
X128900000Y-104935000D03*
X93525000Y-89400000D03*
X128200000Y-94400000D03*
X85400000Y-108700000D03*
X128900000Y-102200000D03*
X121000000Y-93900000D03*
X134800000Y-100400000D03*
X147700000Y-90450000D03*
X77300000Y-108900000D03*
X156500000Y-91575000D03*
X85200000Y-113200000D03*
X84632500Y-88428000D03*
X117000000Y-85475000D03*
X119900000Y-98700000D03*
X160300000Y-92200000D03*
X99450000Y-86575000D03*
X128700000Y-94900000D03*
X170100000Y-97400000D03*
G04 #@! TO.N,+1V8*
X122800000Y-92689315D03*
X132400000Y-99900000D03*
X168250000Y-89100000D03*
X133650000Y-89622500D03*
X132600000Y-89700000D03*
X79550000Y-112750000D03*
X123696510Y-97786673D03*
X132300000Y-96800000D03*
X123600000Y-91200000D03*
X128500000Y-99900000D03*
G04 #@! TO.N,/OV9282/DVDD*
X84074233Y-93431404D03*
X86932500Y-97128000D03*
X90019464Y-94719464D03*
X86952498Y-94187998D03*
X84032500Y-95928000D03*
G04 #@! TO.N,+3V3*
X133817635Y-97862500D03*
X134000000Y-106850000D03*
X119550000Y-104080000D03*
X126451127Y-89795881D03*
X132400000Y-93300000D03*
X144925000Y-97375000D03*
X123600000Y-96000000D03*
X90200000Y-112900000D03*
X125200000Y-100000000D03*
X131000000Y-100000000D03*
X137300000Y-103000000D03*
G04 #@! TO.N,/LED_ACT*
X125000000Y-94199997D03*
G04 #@! TO.N,/Accelerometer/I2C3.SDA*
X125000000Y-94700000D03*
G04 #@! TO.N,/MPU/SDMMC.DET*
X150300000Y-99300000D03*
G04 #@! TO.N,/MPU/SDMMC.D1*
X149350000Y-99300000D03*
G04 #@! TO.N,/MPU/SDMMC.D0*
X148250000Y-99300000D03*
G04 #@! TO.N,/Flash/FSPI.~{CS}*
X129168262Y-98400002D03*
G04 #@! TO.N,/Flash/FSPI.D1*
X130168266Y-98400001D03*
G04 #@! TO.N,/Flash/FSPI.D2*
X129668264Y-98399999D03*
G04 #@! TO.N,/Flash/FSPI.D0*
X130655373Y-98512826D03*
G04 #@! TO.N,/Flash/FSPI.D3*
X130435728Y-102120053D03*
G04 #@! TO.N,/OV9282/AVDD*
X89819464Y-92919464D03*
X84132500Y-93928000D03*
X86739092Y-89934592D03*
X88823183Y-96722504D03*
G04 #@! TO.N,/OV9282/DOVDD*
X84632500Y-97428000D03*
X90854332Y-91884596D03*
X85675449Y-94684114D03*
X87881795Y-98100000D03*
G04 #@! TO.N,/MPU/LED1*
X118225000Y-94750000D03*
G04 #@! TO.N,/MPU/I2C4.SDA*
X154400000Y-99869396D03*
X125026974Y-92542024D03*
X155100000Y-99900000D03*
G04 #@! TO.N,Net-(J1-CC1)*
X129660000Y-108845000D03*
G04 #@! TO.N,/OV9281/DOVDD*
X169000000Y-92000000D03*
X169200000Y-94700000D03*
X165800000Y-92300000D03*
X164300000Y-97100000D03*
G04 #@! TO.N,/MPU/SDMMC.CMD*
X143900000Y-99300000D03*
G04 #@! TO.N,/MPU/SDMMC.D3*
X142750000Y-99300000D03*
G04 #@! TO.N,/MPU/SDMMC.D2*
X141650000Y-99300000D03*
G04 #@! TO.N,Net-(U1Analog / High-Speed-SARADC_IN0)*
X133800000Y-96300000D03*
G04 #@! TO.N,+0V9*
X80250000Y-104150000D03*
X123600000Y-94100000D03*
X133700000Y-92900000D03*
X126804332Y-99870000D03*
X127763682Y-89731311D03*
X80250000Y-104600000D03*
X125000000Y-98600000D03*
X127500000Y-91100000D03*
G04 #@! TO.N,Net-(U1Analog / High-Speed-FEPHY_EXTR)*
X126996402Y-89756593D03*
G04 #@! TO.N,+1V2*
X91250000Y-110750000D03*
X83750000Y-88100000D03*
X91950000Y-113250000D03*
G04 #@! TO.N,Net-(U1Analog / High-Speed-FSPI_CLK)*
X128669066Y-98428381D03*
G04 #@! TO.N,/MPU/I2C4.SCL*
X125018570Y-92042092D03*
G04 #@! TO.N,/OV9281/DVDD*
X166680002Y-95240002D03*
X166700000Y-92300000D03*
X169600000Y-93500000D03*
X169558267Y-95996596D03*
X163548563Y-95309634D03*
G04 #@! TO.N,/MPU/XSHUTDOWN*
X125048150Y-91517537D03*
X104916250Y-90340125D03*
X104916250Y-91240125D03*
G04 #@! TO.N,/MPU/VSYNC*
X155300000Y-100811092D03*
X156500000Y-100811092D03*
X124974977Y-93039315D03*
G04 #@! TO.N,/MPU/STROBE1*
X122400000Y-91692092D03*
G04 #@! TO.N,Net-(U3-XVCLK)*
X170600000Y-94300000D03*
G04 #@! TO.N,/MPU/MIPI1.D1N*
X166042949Y-94256114D03*
G04 #@! TO.N,/MPU/MIPI1.D0P*
X168516180Y-92410787D03*
G04 #@! TO.N,/MPU/MIPI1.CK0P*
X167282845Y-93282845D03*
G04 #@! TO.N,/MPU/MIPI1.D1P*
X166045495Y-93732496D03*
G04 #@! TO.N,/MPU/MIPI1.D0N*
X168040150Y-92257824D03*
G04 #@! TO.N,/MPU/MIPI1.CK0N*
X167300000Y-92700000D03*
G04 #@! TO.N,/Accelerometer/I2C3.SCL*
X125000000Y-95400000D03*
G04 #@! TO.N,/LED100*
X125000000Y-96050000D03*
G04 #@! TO.N,/MPU/STROBE2*
X125002096Y-93538581D03*
G04 #@! TO.N,Net-(U9-XVCLK)*
X83032500Y-95128000D03*
G04 #@! TO.N,/MPU/MIPI2.D1N*
X86960000Y-95670000D03*
G04 #@! TO.N,/MPU/MIPI2.D0P*
X85740000Y-96890000D03*
G04 #@! TO.N,/MPU/MIPI2.CK0P*
X86310000Y-96180000D03*
G04 #@! TO.N,/MPU/MIPI2.D1P*
X87590000Y-95680000D03*
G04 #@! TO.N,/MPU/MIPI2.D0N*
X86270000Y-96720000D03*
G04 #@! TO.N,/MPU/MIPI2.CK0N*
X86930000Y-96200000D03*
G04 #@! TO.N,/MPU/LED2*
X120000000Y-95500000D03*
G04 #@! TO.N,Net-(J1-CC2)*
X127000000Y-108700000D03*
G04 #@! TO.N,Net-(U2-FB2)*
X82700003Y-108700000D03*
X79700000Y-108900000D03*
G04 #@! TO.N,Net-(U2-FB3)*
X82700000Y-109200000D03*
X81000000Y-114100000D03*
G04 #@! TO.N,+5V*
X125464999Y-106600000D03*
X86400000Y-107300000D03*
X160350000Y-111350000D03*
X86200000Y-110400000D03*
X159950000Y-111750000D03*
G04 #@! TO.N,Net-(U2-EN2)*
X87800000Y-104500000D03*
X84859248Y-106550000D03*
G04 #@! TO.N,Net-(U2-EN1)*
X85381057Y-106689848D03*
X86800000Y-104500000D03*
G04 #@! TO.N,Net-(U2-FB1)*
X87051929Y-109115876D03*
X87900000Y-111900000D03*
G04 #@! TO.N,Net-(U2-EN3)*
X88700000Y-104500000D03*
X84894186Y-110879317D03*
G04 #@! TO.N,+2V8*
X171600000Y-100350000D03*
X82050000Y-89100000D03*
X94700000Y-106800000D03*
X96000000Y-112550000D03*
G04 #@! TO.N,/MPU/UART_RX*
X125000000Y-97300003D03*
X157750000Y-107375000D03*
G04 #@! TO.N,/MPU/UART_TX*
X160300000Y-107375000D03*
X125000000Y-96800000D03*
G04 #@! TD*
G04 #@! TA.AperFunction,Conductor*
G04 #@! TO.N,GND*
G36*
X182501277Y-85025567D02*
G01*
X182539504Y-85027570D01*
X182808363Y-85041661D01*
X182813445Y-85042195D01*
X183115904Y-85090099D01*
X183120916Y-85091165D01*
X183416693Y-85170419D01*
X183421566Y-85172002D01*
X183707442Y-85281739D01*
X183712118Y-85283821D01*
X183744973Y-85300561D01*
X183984962Y-85422842D01*
X183989400Y-85425404D01*
X184246218Y-85592183D01*
X184250355Y-85595189D01*
X184312508Y-85645519D01*
X184488336Y-85787902D01*
X184492147Y-85791334D01*
X184708665Y-86007852D01*
X184712097Y-86011663D01*
X184904805Y-86249637D01*
X184907820Y-86253787D01*
X185074593Y-86510596D01*
X185077157Y-86515037D01*
X185216176Y-86787876D01*
X185218262Y-86792562D01*
X185327996Y-87078431D01*
X185329581Y-87083309D01*
X185408833Y-87379080D01*
X185409900Y-87384097D01*
X185457803Y-87686544D01*
X185458339Y-87691644D01*
X185474433Y-87998721D01*
X185474500Y-88001286D01*
X185474500Y-111984760D01*
X185474066Y-111987844D01*
X185474468Y-111999544D01*
X185474487Y-112002216D01*
X185468225Y-112312390D01*
X185467825Y-112317729D01*
X185427931Y-112624049D01*
X185426950Y-112629312D01*
X185353881Y-112929431D01*
X185352333Y-112934556D01*
X185246951Y-113224934D01*
X185244854Y-113229854D01*
X185173189Y-113375433D01*
X185108423Y-113506997D01*
X185105799Y-113511663D01*
X184939952Y-113772258D01*
X184936835Y-113776611D01*
X184743546Y-114017558D01*
X184739973Y-114021545D01*
X184521545Y-114239973D01*
X184517558Y-114243546D01*
X184276611Y-114436835D01*
X184272258Y-114439952D01*
X184011663Y-114605799D01*
X184006997Y-114608422D01*
X183729854Y-114744854D01*
X183724934Y-114746951D01*
X183434556Y-114852333D01*
X183429431Y-114853881D01*
X183129312Y-114926950D01*
X183124049Y-114927931D01*
X182817729Y-114967825D01*
X182812390Y-114968225D01*
X182502216Y-114974487D01*
X182499544Y-114974468D01*
X182487844Y-114974066D01*
X182484760Y-114974500D01*
X71001287Y-114974500D01*
X70998722Y-114974433D01*
X70691644Y-114958339D01*
X70686544Y-114957803D01*
X70384097Y-114909900D01*
X70379080Y-114908833D01*
X70083309Y-114829581D01*
X70078431Y-114827996D01*
X69792562Y-114718262D01*
X69787876Y-114716176D01*
X69515037Y-114577157D01*
X69510596Y-114574593D01*
X69301050Y-114438513D01*
X69253784Y-114407818D01*
X69249637Y-114404805D01*
X69219031Y-114380021D01*
X69011663Y-114212097D01*
X69007852Y-114208665D01*
X68859623Y-114060436D01*
X80699500Y-114060436D01*
X80699500Y-114139563D01*
X80719979Y-114215989D01*
X80719979Y-114215991D01*
X80759540Y-114284511D01*
X80815489Y-114340460D01*
X80884011Y-114380021D01*
X80919478Y-114389524D01*
X80960436Y-114400500D01*
X80960438Y-114400500D01*
X81039564Y-114400500D01*
X81066230Y-114393354D01*
X81115989Y-114380021D01*
X81184511Y-114340460D01*
X81240460Y-114284511D01*
X81280021Y-114215989D01*
X81300500Y-114139562D01*
X81300500Y-114060438D01*
X81300500Y-114060436D01*
X81289010Y-114017558D01*
X81280021Y-113984011D01*
X81280020Y-113984009D01*
X81280020Y-113984008D01*
X81240459Y-113915488D01*
X81184511Y-113859540D01*
X81115990Y-113819979D01*
X81039564Y-113799500D01*
X81039562Y-113799500D01*
X80960438Y-113799500D01*
X80960436Y-113799500D01*
X80884010Y-113819979D01*
X80884008Y-113819979D01*
X80815488Y-113859540D01*
X80815488Y-113859541D01*
X80759541Y-113915488D01*
X80759540Y-113915488D01*
X80719979Y-113984008D01*
X80719979Y-113984010D01*
X80699500Y-114060436D01*
X68859623Y-114060436D01*
X68791334Y-113992147D01*
X68787902Y-113988336D01*
X68728911Y-113915488D01*
X68595189Y-113750355D01*
X68592183Y-113746218D01*
X68425404Y-113489400D01*
X68422842Y-113484962D01*
X68283821Y-113212118D01*
X68281737Y-113207437D01*
X68265366Y-113164790D01*
X68172002Y-112921566D01*
X68170418Y-112916690D01*
X68152682Y-112850500D01*
X68091165Y-112620916D01*
X68090099Y-112615902D01*
X68042195Y-112313445D01*
X68041661Y-112308363D01*
X68025567Y-112001277D01*
X68025500Y-111998713D01*
X68025500Y-111897648D01*
X69699500Y-111897648D01*
X69699500Y-112102351D01*
X69731522Y-112304531D01*
X69731523Y-112304534D01*
X69794779Y-112499217D01*
X69887714Y-112681612D01*
X69887716Y-112681615D01*
X70008035Y-112847220D01*
X70008039Y-112847225D01*
X70152775Y-112991961D01*
X70152779Y-112991964D01*
X70152781Y-112991966D01*
X70233347Y-113050500D01*
X70301655Y-113100129D01*
X70318390Y-113112287D01*
X70500781Y-113205220D01*
X70695466Y-113268477D01*
X70897648Y-113300500D01*
X70897649Y-113300500D01*
X71102351Y-113300500D01*
X71102352Y-113300500D01*
X71304534Y-113268477D01*
X71483166Y-113210436D01*
X91649500Y-113210436D01*
X91649500Y-113289563D01*
X91669979Y-113365989D01*
X91669979Y-113365991D01*
X91708356Y-113432460D01*
X91709540Y-113434511D01*
X91765489Y-113490460D01*
X91834011Y-113530021D01*
X91869478Y-113539524D01*
X91910436Y-113550500D01*
X91910438Y-113550500D01*
X91989564Y-113550500D01*
X92016230Y-113543354D01*
X92065989Y-113530021D01*
X92134511Y-113490460D01*
X92190460Y-113434511D01*
X92230021Y-113365989D01*
X92250500Y-113289562D01*
X92250500Y-113210438D01*
X92250500Y-113210436D01*
X92241843Y-113178134D01*
X92230021Y-113134011D01*
X92230020Y-113134009D01*
X92230020Y-113134008D01*
X92190459Y-113065488D01*
X92134511Y-113009540D01*
X92065990Y-112969979D01*
X91989564Y-112949500D01*
X91989562Y-112949500D01*
X91910438Y-112949500D01*
X91910436Y-112949500D01*
X91834010Y-112969979D01*
X91834008Y-112969979D01*
X91765488Y-113009540D01*
X91765488Y-113009541D01*
X91709541Y-113065488D01*
X91709540Y-113065488D01*
X91669979Y-113134008D01*
X91669979Y-113134010D01*
X91649500Y-113210436D01*
X71483166Y-113210436D01*
X71499219Y-113205220D01*
X71681610Y-113112287D01*
X71847219Y-112991966D01*
X71847222Y-112991962D01*
X71847225Y-112991961D01*
X71991961Y-112847225D01*
X71991962Y-112847222D01*
X71991966Y-112847219D01*
X72091344Y-112710436D01*
X79249500Y-112710436D01*
X79249500Y-112789563D01*
X79269979Y-112865989D01*
X79269979Y-112865991D01*
X79295848Y-112910796D01*
X79309540Y-112934511D01*
X79365489Y-112990460D01*
X79434011Y-113030021D01*
X79469478Y-113039524D01*
X79510436Y-113050500D01*
X79510438Y-113050500D01*
X79589564Y-113050500D01*
X79616230Y-113043354D01*
X79665989Y-113030021D01*
X79734511Y-112990460D01*
X79790460Y-112934511D01*
X79830021Y-112865989D01*
X79831509Y-112860436D01*
X89899500Y-112860436D01*
X89899500Y-112939563D01*
X89919979Y-113015989D01*
X89919979Y-113015991D01*
X89959540Y-113084511D01*
X90015489Y-113140460D01*
X90084011Y-113180021D01*
X90119478Y-113189524D01*
X90160436Y-113200500D01*
X90160438Y-113200500D01*
X90239564Y-113200500D01*
X90290513Y-113186847D01*
X90315989Y-113180021D01*
X90384511Y-113140460D01*
X90440460Y-113084511D01*
X90480021Y-113015989D01*
X90500500Y-112939562D01*
X90500500Y-112860438D01*
X90500500Y-112860436D01*
X90482565Y-112793506D01*
X90480021Y-112784011D01*
X90480020Y-112784009D01*
X90480020Y-112784008D01*
X90440459Y-112715488D01*
X90384511Y-112659540D01*
X90315990Y-112619979D01*
X90239564Y-112599500D01*
X90239562Y-112599500D01*
X90160438Y-112599500D01*
X90160436Y-112599500D01*
X90084010Y-112619979D01*
X90084008Y-112619979D01*
X90015488Y-112659540D01*
X90015488Y-112659541D01*
X89959541Y-112715488D01*
X89959540Y-112715488D01*
X89919979Y-112784008D01*
X89919979Y-112784010D01*
X89899500Y-112860436D01*
X79831509Y-112860436D01*
X79835049Y-112847225D01*
X79835768Y-112844543D01*
X79835768Y-112844542D01*
X79850500Y-112789564D01*
X79850500Y-112710436D01*
X79838590Y-112665991D01*
X79830021Y-112634011D01*
X79830020Y-112634009D01*
X79830020Y-112634008D01*
X79790459Y-112565488D01*
X79735407Y-112510436D01*
X95699500Y-112510436D01*
X95699500Y-112589563D01*
X95719979Y-112665989D01*
X95719979Y-112665991D01*
X95759540Y-112734511D01*
X95815489Y-112790460D01*
X95884011Y-112830021D01*
X95900712Y-112834496D01*
X95960436Y-112850500D01*
X95960438Y-112850500D01*
X96039564Y-112850500D01*
X96066230Y-112843354D01*
X96115989Y-112830021D01*
X96184511Y-112790460D01*
X96240460Y-112734511D01*
X96280021Y-112665989D01*
X96297837Y-112599500D01*
X96300500Y-112589563D01*
X96300500Y-112510436D01*
X96284171Y-112449500D01*
X96280021Y-112434011D01*
X96280020Y-112434009D01*
X96280020Y-112434008D01*
X96240459Y-112365488D01*
X96184511Y-112309540D01*
X96115990Y-112269979D01*
X96039564Y-112249500D01*
X96039562Y-112249500D01*
X95960438Y-112249500D01*
X95960436Y-112249500D01*
X95884010Y-112269979D01*
X95884008Y-112269979D01*
X95815488Y-112309540D01*
X95815488Y-112309541D01*
X95759541Y-112365488D01*
X95759540Y-112365488D01*
X95719979Y-112434008D01*
X95719979Y-112434010D01*
X95699500Y-112510436D01*
X79735407Y-112510436D01*
X79734511Y-112509540D01*
X79665990Y-112469979D01*
X79589564Y-112449500D01*
X79589562Y-112449500D01*
X79510438Y-112449500D01*
X79510436Y-112449500D01*
X79434010Y-112469979D01*
X79434008Y-112469979D01*
X79365488Y-112509540D01*
X79365488Y-112509541D01*
X79309541Y-112565488D01*
X79309540Y-112565488D01*
X79269979Y-112634008D01*
X79269979Y-112634010D01*
X79249500Y-112710436D01*
X72091344Y-112710436D01*
X72112287Y-112681610D01*
X72205220Y-112499219D01*
X72268477Y-112304534D01*
X72300500Y-112102352D01*
X72300500Y-111897648D01*
X72294606Y-111860438D01*
X72294606Y-111860436D01*
X87599500Y-111860436D01*
X87599500Y-111939563D01*
X87619979Y-112015989D01*
X87619979Y-112015991D01*
X87659540Y-112084511D01*
X87715489Y-112140460D01*
X87784011Y-112180021D01*
X87819478Y-112189524D01*
X87860436Y-112200500D01*
X87860438Y-112200500D01*
X87939564Y-112200500D01*
X87966230Y-112193354D01*
X88015989Y-112180021D01*
X88084511Y-112140460D01*
X88140460Y-112084511D01*
X88180021Y-112015989D01*
X88200500Y-111939562D01*
X88200500Y-111896512D01*
X123010000Y-111896512D01*
X123010000Y-112145000D01*
X123710000Y-112145000D01*
X123710000Y-112645000D01*
X123010000Y-112645000D01*
X123010000Y-112893487D01*
X123048429Y-113086689D01*
X123048429Y-113086690D01*
X123123809Y-113268674D01*
X123233246Y-113432460D01*
X123372539Y-113571753D01*
X123536325Y-113681190D01*
X123718310Y-113756570D01*
X123760000Y-113764862D01*
X123760000Y-112961988D01*
X123769940Y-112979205D01*
X123825795Y-113035060D01*
X123894204Y-113074556D01*
X123970504Y-113095000D01*
X124049496Y-113095000D01*
X124125796Y-113074556D01*
X124194205Y-113035060D01*
X124250060Y-112979205D01*
X124260000Y-112961988D01*
X124260000Y-113764862D01*
X124301689Y-113756570D01*
X124301690Y-113756570D01*
X124483674Y-113681190D01*
X124647460Y-113571753D01*
X124786753Y-113432460D01*
X124896190Y-113268674D01*
X124971570Y-113086690D01*
X124971570Y-113086689D01*
X125010000Y-112893487D01*
X125010000Y-112645000D01*
X124310000Y-112645000D01*
X124310000Y-112145000D01*
X125010000Y-112145000D01*
X125010000Y-111896512D01*
X131650000Y-111896512D01*
X131650000Y-112145000D01*
X132350000Y-112145000D01*
X132350000Y-112645000D01*
X131650000Y-112645000D01*
X131650000Y-112893487D01*
X131688429Y-113086689D01*
X131688429Y-113086690D01*
X131763809Y-113268674D01*
X131873246Y-113432460D01*
X132012539Y-113571753D01*
X132176325Y-113681190D01*
X132358310Y-113756570D01*
X132400000Y-113764862D01*
X132400000Y-112961988D01*
X132409940Y-112979205D01*
X132465795Y-113035060D01*
X132534204Y-113074556D01*
X132610504Y-113095000D01*
X132689496Y-113095000D01*
X132765796Y-113074556D01*
X132834205Y-113035060D01*
X132890060Y-112979205D01*
X132900000Y-112961988D01*
X132900000Y-113764862D01*
X132941689Y-113756570D01*
X132941690Y-113756570D01*
X133123674Y-113681190D01*
X133287460Y-113571753D01*
X133426753Y-113432460D01*
X133536190Y-113268674D01*
X133611570Y-113086690D01*
X133611570Y-113086689D01*
X133650000Y-112893487D01*
X133650000Y-112645000D01*
X132950000Y-112645000D01*
X132950000Y-112145000D01*
X133650000Y-112145000D01*
X133650000Y-111896512D01*
X133614251Y-111716785D01*
X133614251Y-111716782D01*
X133612989Y-111710436D01*
X159649500Y-111710436D01*
X159649500Y-111789563D01*
X159669979Y-111865989D01*
X159669979Y-111865991D01*
X159687601Y-111896512D01*
X159709540Y-111934511D01*
X159765489Y-111990460D01*
X159834011Y-112030021D01*
X159869478Y-112039524D01*
X159910436Y-112050500D01*
X159910438Y-112050500D01*
X159989564Y-112050500D01*
X160016230Y-112043354D01*
X160065989Y-112030021D01*
X160122061Y-111997648D01*
X181299500Y-111997648D01*
X181299500Y-112202351D01*
X181331522Y-112404531D01*
X181331523Y-112404534D01*
X181394779Y-112599217D01*
X181487714Y-112781612D01*
X181487716Y-112781615D01*
X181537764Y-112850500D01*
X181595110Y-112929431D01*
X181608035Y-112947220D01*
X181608039Y-112947225D01*
X181752775Y-113091961D01*
X181752779Y-113091964D01*
X181752781Y-113091966D01*
X181918390Y-113212287D01*
X182100781Y-113305220D01*
X182295466Y-113368477D01*
X182497648Y-113400500D01*
X182497649Y-113400500D01*
X182702351Y-113400500D01*
X182702352Y-113400500D01*
X182904534Y-113368477D01*
X183099219Y-113305220D01*
X183281610Y-113212287D01*
X183447219Y-113091966D01*
X183447222Y-113091962D01*
X183447225Y-113091961D01*
X183591961Y-112947225D01*
X183591962Y-112947222D01*
X183591966Y-112947219D01*
X183712287Y-112781610D01*
X183805220Y-112599219D01*
X183868477Y-112404534D01*
X183900500Y-112202352D01*
X183900500Y-111997648D01*
X183868477Y-111795466D01*
X183805220Y-111600781D01*
X183712287Y-111418390D01*
X183691342Y-111389562D01*
X183633854Y-111310436D01*
X183591966Y-111252781D01*
X183591964Y-111252779D01*
X183591961Y-111252775D01*
X183447225Y-111108039D01*
X183447220Y-111108035D01*
X183281615Y-110987716D01*
X183281612Y-110987714D01*
X183099217Y-110894779D01*
X182904534Y-110831523D01*
X182904531Y-110831522D01*
X182749220Y-110806923D01*
X182702352Y-110799500D01*
X182497648Y-110799500D01*
X182459599Y-110805526D01*
X182295468Y-110831522D01*
X182295465Y-110831523D01*
X182100782Y-110894779D01*
X181918387Y-110987714D01*
X181918384Y-110987716D01*
X181752779Y-111108035D01*
X181608035Y-111252779D01*
X181487716Y-111418384D01*
X181487714Y-111418387D01*
X181394779Y-111600782D01*
X181331523Y-111795465D01*
X181331522Y-111795468D01*
X181299500Y-111997648D01*
X160122061Y-111997648D01*
X160134511Y-111990460D01*
X160190460Y-111934511D01*
X160230021Y-111865989D01*
X160246171Y-111805713D01*
X160250500Y-111789563D01*
X160250500Y-111710435D01*
X160250081Y-111707251D01*
X160250976Y-111707133D01*
X160255422Y-111673360D01*
X160285174Y-111650528D01*
X160307192Y-111650528D01*
X160307251Y-111650081D01*
X160310435Y-111650500D01*
X160310438Y-111650500D01*
X160389564Y-111650500D01*
X160416230Y-111643354D01*
X160465989Y-111630021D01*
X160534511Y-111590460D01*
X160590460Y-111534511D01*
X160630021Y-111465989D01*
X160650500Y-111389562D01*
X160650500Y-111310438D01*
X160650500Y-111310436D01*
X160641843Y-111278134D01*
X160630021Y-111234011D01*
X160630020Y-111234009D01*
X160630020Y-111234008D01*
X160590459Y-111165488D01*
X160534511Y-111109540D01*
X160465990Y-111069979D01*
X160389564Y-111049500D01*
X160389562Y-111049500D01*
X160310438Y-111049500D01*
X160310436Y-111049500D01*
X160234010Y-111069979D01*
X160234008Y-111069979D01*
X160165488Y-111109540D01*
X160165488Y-111109541D01*
X160109541Y-111165488D01*
X160109540Y-111165488D01*
X160069979Y-111234008D01*
X160069979Y-111234010D01*
X160049500Y-111310436D01*
X160049500Y-111389565D01*
X160049919Y-111392749D01*
X160049025Y-111392866D01*
X160044572Y-111426649D01*
X160014815Y-111449474D01*
X159992808Y-111449474D01*
X159992749Y-111449919D01*
X159989565Y-111449500D01*
X159989562Y-111449500D01*
X159910438Y-111449500D01*
X159910436Y-111449500D01*
X159834010Y-111469979D01*
X159834008Y-111469979D01*
X159765488Y-111509540D01*
X159765488Y-111509541D01*
X159709541Y-111565488D01*
X159709540Y-111565488D01*
X159669979Y-111634008D01*
X159669979Y-111634010D01*
X159649500Y-111710436D01*
X133612989Y-111710436D01*
X133611573Y-111703318D01*
X133611570Y-111703309D01*
X133536190Y-111521325D01*
X133426753Y-111357539D01*
X133287460Y-111218246D01*
X133123674Y-111108809D01*
X132941691Y-111033429D01*
X132941682Y-111033426D01*
X132900000Y-111025135D01*
X132900000Y-111828011D01*
X132890060Y-111810795D01*
X132834205Y-111754940D01*
X132765796Y-111715444D01*
X132689496Y-111695000D01*
X132610504Y-111695000D01*
X132534204Y-111715444D01*
X132465795Y-111754940D01*
X132409940Y-111810795D01*
X132400000Y-111828011D01*
X132400000Y-111025135D01*
X132399999Y-111025135D01*
X132358317Y-111033426D01*
X132358308Y-111033429D01*
X132176325Y-111108809D01*
X132012539Y-111218246D01*
X131873246Y-111357539D01*
X131763809Y-111521325D01*
X131688429Y-111703309D01*
X131688429Y-111703310D01*
X131650000Y-111896512D01*
X125010000Y-111896512D01*
X124971570Y-111703310D01*
X124971570Y-111703309D01*
X124896190Y-111521325D01*
X124786753Y-111357539D01*
X124647460Y-111218246D01*
X124483674Y-111108809D01*
X124301691Y-111033429D01*
X124301682Y-111033426D01*
X124260000Y-111025135D01*
X124260000Y-111828011D01*
X124250060Y-111810795D01*
X124194205Y-111754940D01*
X124125796Y-111715444D01*
X124049496Y-111695000D01*
X123970504Y-111695000D01*
X123894204Y-111715444D01*
X123825795Y-111754940D01*
X123769940Y-111810795D01*
X123760000Y-111828011D01*
X123760000Y-111025135D01*
X123759999Y-111025135D01*
X123718317Y-111033426D01*
X123718308Y-111033429D01*
X123536325Y-111108809D01*
X123372539Y-111218246D01*
X123233246Y-111357539D01*
X123123809Y-111521325D01*
X123048429Y-111703309D01*
X123048429Y-111703310D01*
X123010000Y-111896512D01*
X88200500Y-111896512D01*
X88200500Y-111860438D01*
X88200500Y-111860436D01*
X88187198Y-111810795D01*
X88180021Y-111784011D01*
X88180020Y-111784009D01*
X88180020Y-111784008D01*
X88141208Y-111716785D01*
X88140460Y-111715489D01*
X88084511Y-111659540D01*
X88068853Y-111650500D01*
X88015990Y-111619979D01*
X87939564Y-111599500D01*
X87939562Y-111599500D01*
X87860438Y-111599500D01*
X87860436Y-111599500D01*
X87784010Y-111619979D01*
X87784008Y-111619979D01*
X87715488Y-111659540D01*
X87715488Y-111659541D01*
X87659541Y-111715488D01*
X87659540Y-111715488D01*
X87619979Y-111784008D01*
X87619979Y-111784010D01*
X87599500Y-111860436D01*
X72294606Y-111860436D01*
X72277897Y-111754940D01*
X72268477Y-111695466D01*
X72205220Y-111500781D01*
X72112287Y-111318390D01*
X71991966Y-111152781D01*
X71991964Y-111152779D01*
X71991961Y-111152775D01*
X71847225Y-111008039D01*
X71847220Y-111008035D01*
X71681615Y-110887716D01*
X71681612Y-110887714D01*
X71666869Y-110880202D01*
X71666868Y-110880201D01*
X71587484Y-110839753D01*
X84593686Y-110839753D01*
X84593686Y-110918880D01*
X84614165Y-110995306D01*
X84614165Y-110995308D01*
X84636173Y-111033426D01*
X84653726Y-111063828D01*
X84709675Y-111119777D01*
X84778197Y-111159338D01*
X84813664Y-111168841D01*
X84854622Y-111179817D01*
X84854624Y-111179817D01*
X84933750Y-111179817D01*
X84960416Y-111172671D01*
X85010175Y-111159338D01*
X85078697Y-111119777D01*
X85134646Y-111063828D01*
X85174207Y-110995306D01*
X85194686Y-110918879D01*
X85194686Y-110839755D01*
X85194686Y-110839753D01*
X85181237Y-110789563D01*
X85174207Y-110763328D01*
X85174206Y-110763326D01*
X85174206Y-110763325D01*
X85143670Y-110710436D01*
X90949500Y-110710436D01*
X90949500Y-110789563D01*
X90969979Y-110865989D01*
X90969979Y-110865991D01*
X90986601Y-110894780D01*
X91009540Y-110934511D01*
X91065489Y-110990460D01*
X91134011Y-111030021D01*
X91169478Y-111039524D01*
X91210436Y-111050500D01*
X91210438Y-111050500D01*
X91289564Y-111050500D01*
X91316230Y-111043354D01*
X91365989Y-111030021D01*
X91434511Y-110990460D01*
X91490460Y-110934511D01*
X91530021Y-110865989D01*
X91550500Y-110789562D01*
X91550500Y-110710438D01*
X91550500Y-110710436D01*
X91541843Y-110678134D01*
X91530021Y-110634011D01*
X91530020Y-110634009D01*
X91530020Y-110634008D01*
X91490459Y-110565488D01*
X91434511Y-110509540D01*
X91365990Y-110469979D01*
X91289564Y-110449500D01*
X91289562Y-110449500D01*
X91210438Y-110449500D01*
X91210436Y-110449500D01*
X91134010Y-110469979D01*
X91134008Y-110469979D01*
X91065488Y-110509540D01*
X91065488Y-110509541D01*
X91009541Y-110565488D01*
X91009540Y-110565488D01*
X90969979Y-110634008D01*
X90969979Y-110634010D01*
X90949500Y-110710436D01*
X85143670Y-110710436D01*
X85134645Y-110694805D01*
X85078697Y-110638857D01*
X85010176Y-110599296D01*
X84933750Y-110578817D01*
X84933748Y-110578817D01*
X84854624Y-110578817D01*
X84854622Y-110578817D01*
X84778196Y-110599296D01*
X84778194Y-110599296D01*
X84709674Y-110638857D01*
X84709674Y-110638858D01*
X84653727Y-110694805D01*
X84653726Y-110694805D01*
X84614165Y-110763325D01*
X84614165Y-110763327D01*
X84593686Y-110839753D01*
X71587484Y-110839753D01*
X71499220Y-110794780D01*
X71304534Y-110731523D01*
X71304531Y-110731522D01*
X71149220Y-110706923D01*
X71102352Y-110699500D01*
X70897648Y-110699500D01*
X70859599Y-110705526D01*
X70695468Y-110731522D01*
X70695465Y-110731523D01*
X70500782Y-110794779D01*
X70318387Y-110887714D01*
X70318384Y-110887716D01*
X70152779Y-111008035D01*
X70008035Y-111152779D01*
X69887716Y-111318384D01*
X69887714Y-111318387D01*
X69794779Y-111500782D01*
X69731523Y-111695465D01*
X69731522Y-111695468D01*
X69699500Y-111897648D01*
X68025500Y-111897648D01*
X68025500Y-110360436D01*
X85899500Y-110360436D01*
X85899500Y-110439563D01*
X85919979Y-110515989D01*
X85919979Y-110515991D01*
X85959540Y-110584511D01*
X86015489Y-110640460D01*
X86084011Y-110680021D01*
X86119478Y-110689524D01*
X86160436Y-110700500D01*
X86160438Y-110700500D01*
X86239564Y-110700500D01*
X86290513Y-110686847D01*
X86315989Y-110680021D01*
X86384511Y-110640460D01*
X86440460Y-110584511D01*
X86480021Y-110515989D01*
X86500500Y-110439562D01*
X86500500Y-110360438D01*
X86500500Y-110360436D01*
X86491843Y-110328134D01*
X86480021Y-110284011D01*
X86480020Y-110284009D01*
X86480020Y-110284008D01*
X86440459Y-110215488D01*
X86384511Y-110159540D01*
X86315990Y-110119979D01*
X86239564Y-110099500D01*
X86239562Y-110099500D01*
X86160438Y-110099500D01*
X86160436Y-110099500D01*
X86084010Y-110119979D01*
X86084008Y-110119979D01*
X86015488Y-110159540D01*
X86015488Y-110159541D01*
X85959541Y-110215488D01*
X85959540Y-110215488D01*
X85919979Y-110284008D01*
X85919979Y-110284010D01*
X85899500Y-110360436D01*
X68025500Y-110360436D01*
X68025500Y-108860436D01*
X79399500Y-108860436D01*
X79399500Y-108939563D01*
X79419979Y-109015989D01*
X79419979Y-109015991D01*
X79445750Y-109060626D01*
X79459540Y-109084511D01*
X79515489Y-109140460D01*
X79584011Y-109180021D01*
X79619478Y-109189524D01*
X79660436Y-109200500D01*
X79660438Y-109200500D01*
X79739564Y-109200500D01*
X79766230Y-109193354D01*
X79815989Y-109180021D01*
X79849911Y-109160436D01*
X82399500Y-109160436D01*
X82399500Y-109239563D01*
X82419979Y-109315989D01*
X82419979Y-109315991D01*
X82443273Y-109356336D01*
X82459540Y-109384511D01*
X82515489Y-109440460D01*
X82584011Y-109480021D01*
X82619478Y-109489524D01*
X82660436Y-109500500D01*
X82660438Y-109500500D01*
X82739564Y-109500500D01*
X82766230Y-109493354D01*
X82815989Y-109480021D01*
X82884511Y-109440460D01*
X82940460Y-109384511D01*
X82980021Y-109315989D01*
X83000500Y-109239562D01*
X83000500Y-109160438D01*
X83000500Y-109160436D01*
X82980496Y-109085785D01*
X82980496Y-109085783D01*
X82980495Y-109085782D01*
X82980021Y-109084011D01*
X82975576Y-109076312D01*
X86751429Y-109076312D01*
X86751429Y-109155439D01*
X86771908Y-109231865D01*
X86771908Y-109231867D01*
X86811469Y-109300387D01*
X86867418Y-109356336D01*
X86935940Y-109395897D01*
X86960433Y-109402460D01*
X87012365Y-109416376D01*
X87012367Y-109416376D01*
X87091493Y-109416376D01*
X87118159Y-109409230D01*
X87167918Y-109395897D01*
X87236440Y-109356336D01*
X87292389Y-109300387D01*
X87331950Y-109231865D01*
X87352429Y-109155438D01*
X87352429Y-109076314D01*
X87352429Y-109076312D01*
X87336265Y-109015991D01*
X87331950Y-108999887D01*
X87331949Y-108999885D01*
X87331949Y-108999884D01*
X87302689Y-108949205D01*
X87292389Y-108931365D01*
X87236440Y-108875416D01*
X87167919Y-108835855D01*
X87091493Y-108815376D01*
X87091491Y-108815376D01*
X87012367Y-108815376D01*
X87012365Y-108815376D01*
X86935939Y-108835855D01*
X86935937Y-108835855D01*
X86867417Y-108875416D01*
X86867417Y-108875417D01*
X86811470Y-108931364D01*
X86811469Y-108931364D01*
X86771908Y-108999884D01*
X86771908Y-108999886D01*
X86751429Y-109076312D01*
X82975576Y-109076312D01*
X82940460Y-109015489D01*
X82909620Y-108984649D01*
X82895268Y-108950001D01*
X82909619Y-108915354D01*
X82940463Y-108884511D01*
X82980024Y-108815989D01*
X83000503Y-108739562D01*
X83000503Y-108660438D01*
X83000503Y-108660436D01*
X82985525Y-108604541D01*
X82980024Y-108584011D01*
X82980023Y-108584009D01*
X82980023Y-108584008D01*
X82940462Y-108515488D01*
X82884514Y-108459540D01*
X82815993Y-108419979D01*
X82739567Y-108399500D01*
X82739565Y-108399500D01*
X82660441Y-108399500D01*
X82660439Y-108399500D01*
X82584013Y-108419979D01*
X82584011Y-108419979D01*
X82515491Y-108459540D01*
X82515491Y-108459541D01*
X82459544Y-108515488D01*
X82459543Y-108515488D01*
X82419982Y-108584008D01*
X82419982Y-108584010D01*
X82399503Y-108660436D01*
X82399503Y-108739563D01*
X82419982Y-108815989D01*
X82419982Y-108815991D01*
X82459543Y-108884511D01*
X82490382Y-108915350D01*
X82504734Y-108949998D01*
X82490383Y-108984646D01*
X82459539Y-109015490D01*
X82419979Y-109084008D01*
X82419979Y-109084010D01*
X82399500Y-109160436D01*
X79849911Y-109160436D01*
X79884511Y-109140460D01*
X79940460Y-109084511D01*
X79980021Y-109015989D01*
X79997916Y-108949205D01*
X80000500Y-108939563D01*
X80000500Y-108860436D01*
X79988590Y-108815991D01*
X79980021Y-108784011D01*
X79980020Y-108784009D01*
X79980020Y-108784008D01*
X79940459Y-108715488D01*
X79884511Y-108659540D01*
X79815990Y-108619979D01*
X79739564Y-108599500D01*
X79739562Y-108599500D01*
X79660438Y-108599500D01*
X79660436Y-108599500D01*
X79584010Y-108619979D01*
X79584008Y-108619979D01*
X79515488Y-108659540D01*
X79515488Y-108659541D01*
X79459541Y-108715488D01*
X79459540Y-108715488D01*
X79419979Y-108784008D01*
X79419979Y-108784010D01*
X79399500Y-108860436D01*
X68025500Y-108860436D01*
X68025500Y-108316233D01*
X102339500Y-108316233D01*
X102339500Y-108483767D01*
X102355654Y-108564979D01*
X102372183Y-108648079D01*
X102372185Y-108648085D01*
X102436296Y-108802862D01*
X102529371Y-108942159D01*
X102647840Y-109060628D01*
X102774860Y-109145500D01*
X102787137Y-109153703D01*
X102941918Y-109217816D01*
X103106233Y-109250500D01*
X103106236Y-109250500D01*
X103273764Y-109250500D01*
X103273767Y-109250500D01*
X103438082Y-109217816D01*
X103592863Y-109153703D01*
X103732162Y-109060626D01*
X103850626Y-108942162D01*
X103943703Y-108802863D01*
X104007816Y-108648082D01*
X104040500Y-108483767D01*
X104040500Y-108316233D01*
X104879500Y-108316233D01*
X104879500Y-108483767D01*
X104895654Y-108564979D01*
X104912183Y-108648079D01*
X104912185Y-108648085D01*
X104976296Y-108802862D01*
X105069371Y-108942159D01*
X105187840Y-109060628D01*
X105314860Y-109145500D01*
X105327137Y-109153703D01*
X105481918Y-109217816D01*
X105646233Y-109250500D01*
X105646236Y-109250500D01*
X105813764Y-109250500D01*
X105813767Y-109250500D01*
X105978082Y-109217816D01*
X106132863Y-109153703D01*
X106272162Y-109060626D01*
X106390626Y-108942162D01*
X106483703Y-108802863D01*
X106547816Y-108648082D01*
X106580500Y-108483767D01*
X106580500Y-108316233D01*
X113049500Y-108316233D01*
X113049500Y-108483767D01*
X113065654Y-108564979D01*
X113082183Y-108648079D01*
X113082185Y-108648085D01*
X113146296Y-108802862D01*
X113239371Y-108942159D01*
X113357840Y-109060628D01*
X113484860Y-109145500D01*
X113497137Y-109153703D01*
X113651918Y-109217816D01*
X113816233Y-109250500D01*
X113816236Y-109250500D01*
X113983764Y-109250500D01*
X113983767Y-109250500D01*
X114148082Y-109217816D01*
X114302863Y-109153703D01*
X114442162Y-109060626D01*
X114560626Y-108942162D01*
X114653703Y-108802863D01*
X114717816Y-108648082D01*
X114750500Y-108483767D01*
X114750500Y-108316233D01*
X115589500Y-108316233D01*
X115589500Y-108483767D01*
X115605654Y-108564979D01*
X115622183Y-108648079D01*
X115622185Y-108648085D01*
X115686296Y-108802862D01*
X115779371Y-108942159D01*
X115897840Y-109060628D01*
X116024860Y-109145500D01*
X116037137Y-109153703D01*
X116191918Y-109217816D01*
X116356233Y-109250500D01*
X116356236Y-109250500D01*
X116523764Y-109250500D01*
X116523767Y-109250500D01*
X116688082Y-109217816D01*
X116842863Y-109153703D01*
X116982162Y-109060626D01*
X117100626Y-108942162D01*
X117193703Y-108802863D01*
X117257816Y-108648082D01*
X117290500Y-108483767D01*
X117290500Y-108316233D01*
X117257816Y-108151918D01*
X117193703Y-107997137D01*
X117172230Y-107965000D01*
X117100628Y-107857840D01*
X116982159Y-107739371D01*
X116842862Y-107646296D01*
X116753719Y-107609372D01*
X116688085Y-107582185D01*
X116688079Y-107582183D01*
X116621816Y-107569002D01*
X116609297Y-107566512D01*
X123010000Y-107566512D01*
X123010000Y-107965000D01*
X123710000Y-107965000D01*
X123710000Y-108465000D01*
X123010000Y-108465000D01*
X123010000Y-108863487D01*
X123048429Y-109056689D01*
X123048429Y-109056690D01*
X123123809Y-109238674D01*
X123233246Y-109402460D01*
X123372539Y-109541753D01*
X123536325Y-109651190D01*
X123718310Y-109726570D01*
X123760000Y-109734862D01*
X123760000Y-108931988D01*
X123769940Y-108949205D01*
X123825795Y-109005060D01*
X123894204Y-109044556D01*
X123970504Y-109065000D01*
X124049496Y-109065000D01*
X124125796Y-109044556D01*
X124194205Y-109005060D01*
X124250060Y-108949205D01*
X124260000Y-108931988D01*
X124260000Y-109734862D01*
X124301689Y-109726570D01*
X124301690Y-109726570D01*
X124483674Y-109651190D01*
X124647460Y-109541753D01*
X124786753Y-109402460D01*
X124896190Y-109238674D01*
X124963115Y-109077100D01*
X124989633Y-109050581D01*
X125027136Y-109050581D01*
X125043033Y-109061203D01*
X125117335Y-109135505D01*
X125134647Y-109145500D01*
X125237161Y-109204687D01*
X125237163Y-109204687D01*
X125237164Y-109204688D01*
X125286159Y-109217816D01*
X125370813Y-109240499D01*
X125370814Y-109240500D01*
X125370817Y-109240500D01*
X125509186Y-109240500D01*
X125509186Y-109240499D01*
X125642836Y-109204688D01*
X125762665Y-109135505D01*
X125860505Y-109037665D01*
X125929688Y-108917836D01*
X125965499Y-108784186D01*
X125965500Y-108784186D01*
X125965500Y-108660436D01*
X126699500Y-108660436D01*
X126699500Y-108739563D01*
X126719979Y-108815989D01*
X126719979Y-108815991D01*
X126757395Y-108880796D01*
X126759540Y-108884511D01*
X126815489Y-108940460D01*
X126884011Y-108980021D01*
X126901283Y-108984649D01*
X126960436Y-109000500D01*
X126960438Y-109000500D01*
X127039564Y-109000500D01*
X127066230Y-108993354D01*
X127115989Y-108980021D01*
X127184511Y-108940460D01*
X127240460Y-108884511D01*
X127280021Y-108815989D01*
X127282849Y-108805436D01*
X129359500Y-108805436D01*
X129359500Y-108884563D01*
X129379979Y-108960989D01*
X129379979Y-108960991D01*
X129405423Y-109005060D01*
X129419540Y-109029511D01*
X129475489Y-109085460D01*
X129544011Y-109125021D01*
X129579478Y-109134524D01*
X129620436Y-109145500D01*
X129620438Y-109145500D01*
X129699564Y-109145500D01*
X129726230Y-109138354D01*
X129775989Y-109125021D01*
X129844511Y-109085460D01*
X129900460Y-109029511D01*
X129940021Y-108960989D01*
X129960500Y-108884562D01*
X129960500Y-108805438D01*
X129960500Y-108805436D01*
X129942848Y-108739562D01*
X129940021Y-108729011D01*
X129900460Y-108660489D01*
X129885784Y-108645813D01*
X130694500Y-108645813D01*
X130694500Y-108784186D01*
X130730311Y-108917834D01*
X130730312Y-108917838D01*
X130794787Y-109029511D01*
X130799495Y-109037665D01*
X130897335Y-109135505D01*
X130914647Y-109145500D01*
X131017161Y-109204687D01*
X131017163Y-109204687D01*
X131017164Y-109204688D01*
X131066159Y-109217816D01*
X131150813Y-109240499D01*
X131150814Y-109240500D01*
X131150817Y-109240500D01*
X131289186Y-109240500D01*
X131289186Y-109240499D01*
X131422836Y-109204688D01*
X131542665Y-109135505D01*
X131616967Y-109061202D01*
X131651614Y-109046851D01*
X131686262Y-109061203D01*
X131696884Y-109077100D01*
X131763809Y-109238674D01*
X131873246Y-109402460D01*
X132012539Y-109541753D01*
X132176325Y-109651190D01*
X132358310Y-109726570D01*
X132400000Y-109734862D01*
X132400000Y-108931988D01*
X132409940Y-108949205D01*
X132465795Y-109005060D01*
X132534204Y-109044556D01*
X132610504Y-109065000D01*
X132689496Y-109065000D01*
X132765796Y-109044556D01*
X132834205Y-109005060D01*
X132890060Y-108949205D01*
X132900000Y-108931988D01*
X132900000Y-109734862D01*
X132941689Y-109726570D01*
X132941690Y-109726570D01*
X133123674Y-109651190D01*
X133287460Y-109541753D01*
X133426753Y-109402460D01*
X133536190Y-109238674D01*
X133611570Y-109056690D01*
X133611570Y-109056689D01*
X133650000Y-108863487D01*
X133650000Y-108465000D01*
X132950000Y-108465000D01*
X132950000Y-107965000D01*
X133650000Y-107965000D01*
X133650000Y-107566512D01*
X133611570Y-107373310D01*
X133611570Y-107373309D01*
X133602320Y-107350977D01*
X133595883Y-107335436D01*
X157449500Y-107335436D01*
X157449500Y-107414563D01*
X157469979Y-107490989D01*
X157469979Y-107490991D01*
X157498540Y-107540459D01*
X157509540Y-107559511D01*
X157565489Y-107615460D01*
X157582886Y-107625504D01*
X157618900Y-107646297D01*
X157634011Y-107655021D01*
X157669478Y-107664524D01*
X157710436Y-107675500D01*
X157710438Y-107675500D01*
X157789564Y-107675500D01*
X157816230Y-107668354D01*
X157865989Y-107655021D01*
X157934511Y-107615460D01*
X157990460Y-107559511D01*
X158030021Y-107490989D01*
X158050500Y-107414562D01*
X158050500Y-107335438D01*
X158050500Y-107335436D01*
X159999500Y-107335436D01*
X159999500Y-107414563D01*
X160019979Y-107490989D01*
X160019979Y-107490991D01*
X160048540Y-107540459D01*
X160059540Y-107559511D01*
X160115489Y-107615460D01*
X160132886Y-107625504D01*
X160168900Y-107646297D01*
X160184011Y-107655021D01*
X160219478Y-107664524D01*
X160260436Y-107675500D01*
X160260438Y-107675500D01*
X160339564Y-107675500D01*
X160366230Y-107668354D01*
X160415989Y-107655021D01*
X160484511Y-107615460D01*
X160540460Y-107559511D01*
X160580021Y-107490989D01*
X160600500Y-107414562D01*
X160600500Y-107335438D01*
X160600500Y-107335436D01*
X160580403Y-107260438D01*
X160580021Y-107259011D01*
X160580020Y-107259009D01*
X160580020Y-107259008D01*
X160554939Y-107215568D01*
X160540460Y-107190489D01*
X160484511Y-107134540D01*
X160451512Y-107115488D01*
X160415990Y-107094979D01*
X160339564Y-107074500D01*
X160339562Y-107074500D01*
X160260438Y-107074500D01*
X160260436Y-107074500D01*
X160184010Y-107094979D01*
X160184008Y-107094979D01*
X160115488Y-107134540D01*
X160115488Y-107134541D01*
X160059541Y-107190488D01*
X160059540Y-107190488D01*
X160019979Y-107259008D01*
X160019979Y-107259010D01*
X159999500Y-107335436D01*
X158050500Y-107335436D01*
X158030403Y-107260438D01*
X158030021Y-107259011D01*
X158030020Y-107259009D01*
X158030020Y-107259008D01*
X158004939Y-107215568D01*
X157990460Y-107190489D01*
X157934511Y-107134540D01*
X157901512Y-107115488D01*
X157865990Y-107094979D01*
X157789564Y-107074500D01*
X157789562Y-107074500D01*
X157710438Y-107074500D01*
X157710436Y-107074500D01*
X157634010Y-107094979D01*
X157634008Y-107094979D01*
X157565488Y-107134540D01*
X157565488Y-107134541D01*
X157509541Y-107190488D01*
X157509540Y-107190488D01*
X157469979Y-107259008D01*
X157469979Y-107259010D01*
X157449500Y-107335436D01*
X133595883Y-107335436D01*
X133536190Y-107191325D01*
X133426753Y-107027539D01*
X133287460Y-106888246D01*
X133227179Y-106847968D01*
X133171008Y-106810436D01*
X133699500Y-106810436D01*
X133699500Y-106889563D01*
X133719979Y-106965989D01*
X133719979Y-106965991D01*
X133739326Y-106999500D01*
X133759540Y-107034511D01*
X133815489Y-107090460D01*
X133884011Y-107130021D01*
X133900880Y-107134541D01*
X133960436Y-107150500D01*
X133960438Y-107150500D01*
X134039564Y-107150500D01*
X134066230Y-107143354D01*
X134115989Y-107130021D01*
X134184511Y-107090460D01*
X134240460Y-107034511D01*
X134277781Y-106969869D01*
X134280020Y-106965991D01*
X134280020Y-106965990D01*
X134280021Y-106965989D01*
X134300500Y-106889562D01*
X134300500Y-106810438D01*
X134300500Y-106810436D01*
X134287102Y-106760438D01*
X134280021Y-106734011D01*
X134280020Y-106734009D01*
X134280020Y-106734008D01*
X134251152Y-106684008D01*
X134240460Y-106665489D01*
X134184511Y-106609540D01*
X134149908Y-106589562D01*
X134115990Y-106569979D01*
X134039564Y-106549500D01*
X134039562Y-106549500D01*
X133960438Y-106549500D01*
X133960436Y-106549500D01*
X133884010Y-106569979D01*
X133884008Y-106569979D01*
X133815488Y-106609540D01*
X133815488Y-106609541D01*
X133759541Y-106665488D01*
X133759540Y-106665488D01*
X133719979Y-106734008D01*
X133719979Y-106734010D01*
X133699500Y-106810436D01*
X133171008Y-106810436D01*
X133123674Y-106778809D01*
X132941691Y-106703429D01*
X132941682Y-106703426D01*
X132900000Y-106695135D01*
X132900000Y-107498011D01*
X132890060Y-107480795D01*
X132834205Y-107424940D01*
X132765796Y-107385444D01*
X132689496Y-107365000D01*
X132610504Y-107365000D01*
X132534204Y-107385444D01*
X132465795Y-107424940D01*
X132409940Y-107480795D01*
X132400000Y-107498011D01*
X132400000Y-106695135D01*
X132399999Y-106695135D01*
X132358317Y-106703426D01*
X132358308Y-106703429D01*
X132176325Y-106778809D01*
X132012539Y-106888246D01*
X131873246Y-107027539D01*
X131763809Y-107191325D01*
X131688429Y-107373309D01*
X131688429Y-107373310D01*
X131650000Y-107566512D01*
X131650000Y-107965000D01*
X132350000Y-107965000D01*
X132350000Y-108465000D01*
X131710748Y-108465000D01*
X131676100Y-108450648D01*
X131668313Y-108440500D01*
X131656465Y-108419979D01*
X131640505Y-108392335D01*
X131542665Y-108294495D01*
X131422838Y-108225312D01*
X131422834Y-108225311D01*
X131289186Y-108189500D01*
X131289183Y-108189500D01*
X131150817Y-108189500D01*
X131150814Y-108189500D01*
X131017165Y-108225311D01*
X131017161Y-108225312D01*
X130897334Y-108294495D01*
X130897334Y-108294496D01*
X130799496Y-108392334D01*
X130799495Y-108392334D01*
X130730312Y-108512161D01*
X130730311Y-108512165D01*
X130694500Y-108645813D01*
X129885784Y-108645813D01*
X129844511Y-108604540D01*
X129775990Y-108564979D01*
X129699564Y-108544500D01*
X129699562Y-108544500D01*
X129620438Y-108544500D01*
X129620436Y-108544500D01*
X129544010Y-108564979D01*
X129544008Y-108564979D01*
X129475488Y-108604540D01*
X129475488Y-108604541D01*
X129419541Y-108660488D01*
X129419540Y-108660488D01*
X129379979Y-108729008D01*
X129379979Y-108729010D01*
X129359500Y-108805436D01*
X127282849Y-108805436D01*
X127300500Y-108739562D01*
X127300500Y-108660438D01*
X127300500Y-108660436D01*
X127285522Y-108604541D01*
X127280021Y-108584011D01*
X127280020Y-108584009D01*
X127280020Y-108584008D01*
X127240459Y-108515488D01*
X127184511Y-108459540D01*
X127115990Y-108419979D01*
X127039564Y-108399500D01*
X127039562Y-108399500D01*
X126960438Y-108399500D01*
X126960436Y-108399500D01*
X126884010Y-108419979D01*
X126884008Y-108419979D01*
X126815488Y-108459540D01*
X126815488Y-108459541D01*
X126759541Y-108515488D01*
X126759540Y-108515488D01*
X126719979Y-108584008D01*
X126719979Y-108584010D01*
X126699500Y-108660436D01*
X125965500Y-108660436D01*
X125965500Y-108645814D01*
X125965499Y-108645813D01*
X125930579Y-108515489D01*
X125929688Y-108512164D01*
X125929687Y-108512163D01*
X125929687Y-108512161D01*
X125876465Y-108419979D01*
X125860505Y-108392335D01*
X125762665Y-108294495D01*
X125642838Y-108225312D01*
X125642834Y-108225311D01*
X125509186Y-108189500D01*
X125509183Y-108189500D01*
X125370817Y-108189500D01*
X125370814Y-108189500D01*
X125237165Y-108225311D01*
X125237161Y-108225312D01*
X125117334Y-108294495D01*
X125117334Y-108294496D01*
X125019496Y-108392334D01*
X125019495Y-108392334D01*
X124991687Y-108440500D01*
X124961934Y-108463330D01*
X124949252Y-108465000D01*
X124310000Y-108465000D01*
X124310000Y-107965000D01*
X125010000Y-107965000D01*
X125010000Y-107566512D01*
X124971570Y-107373310D01*
X124971570Y-107373309D01*
X124896190Y-107191325D01*
X124786753Y-107027539D01*
X124647460Y-106888246D01*
X124483674Y-106778809D01*
X124301691Y-106703429D01*
X124301682Y-106703426D01*
X124260000Y-106695135D01*
X124260000Y-107498011D01*
X124250060Y-107480795D01*
X124194205Y-107424940D01*
X124125796Y-107385444D01*
X124049496Y-107365000D01*
X123970504Y-107365000D01*
X123894204Y-107385444D01*
X123825795Y-107424940D01*
X123769940Y-107480795D01*
X123760000Y-107498011D01*
X123760000Y-106695135D01*
X123759999Y-106695135D01*
X123718317Y-106703426D01*
X123718308Y-106703429D01*
X123536325Y-106778809D01*
X123372539Y-106888246D01*
X123233246Y-107027539D01*
X123123809Y-107191325D01*
X123048429Y-107373309D01*
X123048429Y-107373310D01*
X123010000Y-107566512D01*
X116609297Y-107566512D01*
X116523767Y-107549500D01*
X116356233Y-107549500D01*
X116274451Y-107565767D01*
X116191920Y-107582183D01*
X116191914Y-107582185D01*
X116037137Y-107646296D01*
X115897840Y-107739371D01*
X115779371Y-107857840D01*
X115686296Y-107997137D01*
X115622185Y-108151914D01*
X115622183Y-108151920D01*
X115607585Y-108225311D01*
X115589500Y-108316233D01*
X114750500Y-108316233D01*
X114717816Y-108151918D01*
X114653703Y-107997137D01*
X114632230Y-107965000D01*
X114560628Y-107857840D01*
X114442159Y-107739371D01*
X114302862Y-107646296D01*
X114148085Y-107582185D01*
X114148079Y-107582183D01*
X114081816Y-107569002D01*
X113983767Y-107549500D01*
X113816233Y-107549500D01*
X113734451Y-107565767D01*
X113651920Y-107582183D01*
X113651914Y-107582185D01*
X113497137Y-107646296D01*
X113357840Y-107739371D01*
X113239371Y-107857840D01*
X113146296Y-107997137D01*
X113082185Y-108151914D01*
X113082183Y-108151920D01*
X113067585Y-108225311D01*
X113049500Y-108316233D01*
X106580500Y-108316233D01*
X106547816Y-108151918D01*
X106483703Y-107997137D01*
X106462230Y-107965000D01*
X106390628Y-107857840D01*
X106272159Y-107739371D01*
X106132862Y-107646296D01*
X105978085Y-107582185D01*
X105978079Y-107582183D01*
X105911816Y-107569002D01*
X105813767Y-107549500D01*
X105646233Y-107549500D01*
X105564451Y-107565767D01*
X105481920Y-107582183D01*
X105481914Y-107582185D01*
X105327137Y-107646296D01*
X105187840Y-107739371D01*
X105069371Y-107857840D01*
X104976296Y-107997137D01*
X104912185Y-108151914D01*
X104912183Y-108151920D01*
X104897585Y-108225311D01*
X104879500Y-108316233D01*
X104040500Y-108316233D01*
X104007816Y-108151918D01*
X103943703Y-107997137D01*
X103922230Y-107965000D01*
X103850628Y-107857840D01*
X103732159Y-107739371D01*
X103592862Y-107646296D01*
X103438085Y-107582185D01*
X103438079Y-107582183D01*
X103371816Y-107569002D01*
X103273767Y-107549500D01*
X103106233Y-107549500D01*
X103024451Y-107565767D01*
X102941920Y-107582183D01*
X102941914Y-107582185D01*
X102787137Y-107646296D01*
X102647840Y-107739371D01*
X102529371Y-107857840D01*
X102436296Y-107997137D01*
X102372185Y-108151914D01*
X102372183Y-108151920D01*
X102357585Y-108225311D01*
X102339500Y-108316233D01*
X68025500Y-108316233D01*
X68025500Y-107260436D01*
X86099500Y-107260436D01*
X86099500Y-107339563D01*
X86119979Y-107415989D01*
X86119979Y-107415991D01*
X86157395Y-107480795D01*
X86159540Y-107484511D01*
X86215489Y-107540460D01*
X86284011Y-107580021D01*
X86319478Y-107589524D01*
X86360436Y-107600500D01*
X86360438Y-107600500D01*
X86439564Y-107600500D01*
X86466230Y-107593354D01*
X86515989Y-107580021D01*
X86584511Y-107540460D01*
X86640460Y-107484511D01*
X86680021Y-107415989D01*
X86700500Y-107339562D01*
X86700500Y-107260438D01*
X86700500Y-107260436D01*
X86691843Y-107228134D01*
X86680021Y-107184011D01*
X86680020Y-107184009D01*
X86680020Y-107184008D01*
X86640459Y-107115488D01*
X86584511Y-107059540D01*
X86515990Y-107019979D01*
X86439564Y-106999500D01*
X86439562Y-106999500D01*
X86360438Y-106999500D01*
X86360436Y-106999500D01*
X86284010Y-107019979D01*
X86284008Y-107019979D01*
X86215488Y-107059540D01*
X86215488Y-107059541D01*
X86159541Y-107115488D01*
X86159540Y-107115488D01*
X86119979Y-107184008D01*
X86119979Y-107184010D01*
X86099500Y-107260436D01*
X68025500Y-107260436D01*
X68025500Y-106510436D01*
X84558748Y-106510436D01*
X84558748Y-106589563D01*
X84579227Y-106665989D01*
X84579227Y-106665991D01*
X84615843Y-106729410D01*
X84618788Y-106734511D01*
X84674737Y-106790460D01*
X84743259Y-106830021D01*
X84778726Y-106839524D01*
X84819684Y-106850500D01*
X84819686Y-106850500D01*
X84898812Y-106850500D01*
X84949761Y-106836847D01*
X84975237Y-106830021D01*
X85037624Y-106794001D01*
X85074803Y-106789106D01*
X85104557Y-106811936D01*
X85140597Y-106874359D01*
X85196546Y-106930308D01*
X85246706Y-106959268D01*
X85258347Y-106965989D01*
X85265068Y-106969869D01*
X85300535Y-106979372D01*
X85341493Y-106990348D01*
X85341495Y-106990348D01*
X85420621Y-106990348D01*
X85447287Y-106983202D01*
X85497046Y-106969869D01*
X85565568Y-106930308D01*
X85621517Y-106874359D01*
X85661078Y-106805837D01*
X85673243Y-106760436D01*
X94399500Y-106760436D01*
X94399500Y-106839563D01*
X94419979Y-106915989D01*
X94419979Y-106915991D01*
X94451086Y-106969868D01*
X94459540Y-106984511D01*
X94515489Y-107040460D01*
X94584011Y-107080021D01*
X94619478Y-107089524D01*
X94660436Y-107100500D01*
X94660438Y-107100500D01*
X94739564Y-107100500D01*
X94766230Y-107093354D01*
X94815989Y-107080021D01*
X94884511Y-107040460D01*
X94940460Y-106984511D01*
X94980021Y-106915989D01*
X94998248Y-106847968D01*
X95000500Y-106839563D01*
X95000500Y-106760436D01*
X94988590Y-106715991D01*
X94980021Y-106684011D01*
X94980020Y-106684009D01*
X94980020Y-106684008D01*
X94940459Y-106615488D01*
X94885407Y-106560436D01*
X125164499Y-106560436D01*
X125164499Y-106639563D01*
X125184978Y-106715989D01*
X125184978Y-106715991D01*
X125221247Y-106778809D01*
X125224539Y-106784511D01*
X125280488Y-106840460D01*
X125297878Y-106850500D01*
X125339206Y-106874361D01*
X125349010Y-106880021D01*
X125384477Y-106889524D01*
X125425435Y-106900500D01*
X125425437Y-106900500D01*
X125504563Y-106900500D01*
X125531229Y-106893354D01*
X125580988Y-106880021D01*
X125649510Y-106840460D01*
X125705459Y-106784511D01*
X125745020Y-106715989D01*
X125761170Y-106655713D01*
X125765499Y-106639563D01*
X125765499Y-106560436D01*
X125752101Y-106510438D01*
X125745020Y-106484011D01*
X125745019Y-106484009D01*
X125745019Y-106484008D01*
X125705458Y-106415488D01*
X125649510Y-106359540D01*
X125580989Y-106319979D01*
X125504563Y-106299500D01*
X125504561Y-106299500D01*
X125425437Y-106299500D01*
X125425435Y-106299500D01*
X125349009Y-106319979D01*
X125349007Y-106319979D01*
X125280487Y-106359540D01*
X125280487Y-106359541D01*
X125224540Y-106415488D01*
X125224539Y-106415488D01*
X125184978Y-106484008D01*
X125184978Y-106484010D01*
X125164499Y-106560436D01*
X94885407Y-106560436D01*
X94884511Y-106559540D01*
X94815990Y-106519979D01*
X94739564Y-106499500D01*
X94739562Y-106499500D01*
X94660438Y-106499500D01*
X94660436Y-106499500D01*
X94584010Y-106519979D01*
X94584008Y-106519979D01*
X94515488Y-106559540D01*
X94515488Y-106559541D01*
X94459541Y-106615488D01*
X94459540Y-106615488D01*
X94419979Y-106684008D01*
X94419979Y-106684010D01*
X94399500Y-106760436D01*
X85673243Y-106760436D01*
X85681557Y-106729410D01*
X85681557Y-106650286D01*
X85681557Y-106650284D01*
X85670639Y-106609540D01*
X85661078Y-106573859D01*
X85661077Y-106573857D01*
X85661077Y-106573856D01*
X85635996Y-106530416D01*
X85621517Y-106505337D01*
X85565568Y-106449388D01*
X85559431Y-106445845D01*
X85497047Y-106409827D01*
X85420621Y-106389348D01*
X85420619Y-106389348D01*
X85341495Y-106389348D01*
X85341493Y-106389348D01*
X85265067Y-106409827D01*
X85265065Y-106409827D01*
X85202681Y-106445845D01*
X85165498Y-106450740D01*
X85135747Y-106427910D01*
X85099708Y-106365489D01*
X85043759Y-106309540D01*
X85026369Y-106299500D01*
X84975238Y-106269979D01*
X84898812Y-106249500D01*
X84898810Y-106249500D01*
X84819686Y-106249500D01*
X84819684Y-106249500D01*
X84743258Y-106269979D01*
X84743256Y-106269979D01*
X84674736Y-106309540D01*
X84674736Y-106309541D01*
X84618789Y-106365488D01*
X84618788Y-106365488D01*
X84579227Y-106434008D01*
X84579227Y-106434010D01*
X84558748Y-106510436D01*
X68025500Y-106510436D01*
X68025500Y-104110436D01*
X79949500Y-104110436D01*
X79949500Y-104189563D01*
X79969979Y-104265989D01*
X79969979Y-104265991D01*
X80009540Y-104334511D01*
X80015381Y-104340352D01*
X80029733Y-104375000D01*
X80015381Y-104409648D01*
X80009541Y-104415488D01*
X80009540Y-104415488D01*
X79969979Y-104484008D01*
X79969979Y-104484010D01*
X79949500Y-104560436D01*
X79949500Y-104639563D01*
X79969979Y-104715989D01*
X79969979Y-104715991D01*
X79984107Y-104740460D01*
X80009540Y-104784511D01*
X80065489Y-104840460D01*
X80134011Y-104880021D01*
X80169478Y-104889524D01*
X80210436Y-104900500D01*
X80210438Y-104900500D01*
X80289564Y-104900500D01*
X80316230Y-104893354D01*
X80365989Y-104880021D01*
X80434511Y-104840460D01*
X80490460Y-104784511D01*
X80530021Y-104715989D01*
X80550500Y-104639562D01*
X80550500Y-104560438D01*
X80550500Y-104560436D01*
X80530021Y-104484011D01*
X80529175Y-104482546D01*
X80516410Y-104460436D01*
X86499500Y-104460436D01*
X86499500Y-104539563D01*
X86519979Y-104615989D01*
X86519979Y-104615991D01*
X86533589Y-104639563D01*
X86559540Y-104684511D01*
X86615489Y-104740460D01*
X86684011Y-104780021D01*
X86719478Y-104789524D01*
X86760436Y-104800500D01*
X86760438Y-104800500D01*
X86839564Y-104800500D01*
X86866230Y-104793354D01*
X86915989Y-104780021D01*
X86984511Y-104740460D01*
X87040460Y-104684511D01*
X87080021Y-104615989D01*
X87100500Y-104539562D01*
X87100500Y-104460438D01*
X87100500Y-104460436D01*
X87499500Y-104460436D01*
X87499500Y-104539563D01*
X87519979Y-104615989D01*
X87519979Y-104615991D01*
X87533589Y-104639563D01*
X87559540Y-104684511D01*
X87615489Y-104740460D01*
X87684011Y-104780021D01*
X87719478Y-104789524D01*
X87760436Y-104800500D01*
X87760438Y-104800500D01*
X87839564Y-104800500D01*
X87866230Y-104793354D01*
X87915989Y-104780021D01*
X87984511Y-104740460D01*
X88040460Y-104684511D01*
X88080021Y-104615989D01*
X88100500Y-104539562D01*
X88100500Y-104460438D01*
X88100500Y-104460436D01*
X88399500Y-104460436D01*
X88399500Y-104539563D01*
X88419979Y-104615989D01*
X88419979Y-104615991D01*
X88433589Y-104639563D01*
X88459540Y-104684511D01*
X88515489Y-104740460D01*
X88584011Y-104780021D01*
X88619478Y-104789524D01*
X88660436Y-104800500D01*
X88660438Y-104800500D01*
X88739564Y-104800500D01*
X88766230Y-104793354D01*
X88815989Y-104780021D01*
X88884511Y-104740460D01*
X88940460Y-104684511D01*
X88980021Y-104615989D01*
X89000500Y-104539562D01*
X89000500Y-104460438D01*
X89000500Y-104460436D01*
X88991843Y-104428134D01*
X88980021Y-104384011D01*
X88980020Y-104384009D01*
X88980020Y-104384008D01*
X88940459Y-104315488D01*
X88884511Y-104259540D01*
X88815990Y-104219979D01*
X88739564Y-104199500D01*
X88739562Y-104199500D01*
X88660438Y-104199500D01*
X88660436Y-104199500D01*
X88584010Y-104219979D01*
X88584008Y-104219979D01*
X88515488Y-104259540D01*
X88515488Y-104259541D01*
X88459541Y-104315488D01*
X88459540Y-104315488D01*
X88419979Y-104384008D01*
X88419979Y-104384010D01*
X88399500Y-104460436D01*
X88100500Y-104460436D01*
X88091843Y-104428134D01*
X88080021Y-104384011D01*
X88080020Y-104384009D01*
X88080020Y-104384008D01*
X88040459Y-104315488D01*
X87984511Y-104259540D01*
X87915990Y-104219979D01*
X87839564Y-104199500D01*
X87839562Y-104199500D01*
X87760438Y-104199500D01*
X87760436Y-104199500D01*
X87684010Y-104219979D01*
X87684008Y-104219979D01*
X87615488Y-104259540D01*
X87615488Y-104259541D01*
X87559541Y-104315488D01*
X87559540Y-104315488D01*
X87519979Y-104384008D01*
X87519979Y-104384010D01*
X87499500Y-104460436D01*
X87100500Y-104460436D01*
X87091843Y-104428134D01*
X87080021Y-104384011D01*
X87080020Y-104384009D01*
X87080020Y-104384008D01*
X87040459Y-104315488D01*
X86984511Y-104259540D01*
X86915990Y-104219979D01*
X86839564Y-104199500D01*
X86839562Y-104199500D01*
X86760438Y-104199500D01*
X86760436Y-104199500D01*
X86684010Y-104219979D01*
X86684008Y-104219979D01*
X86615488Y-104259540D01*
X86615488Y-104259541D01*
X86559541Y-104315488D01*
X86559540Y-104315488D01*
X86519979Y-104384008D01*
X86519979Y-104384010D01*
X86499500Y-104460436D01*
X80516410Y-104460436D01*
X80490460Y-104415489D01*
X80480745Y-104405774D01*
X80477824Y-104401143D01*
X80475506Y-104387648D01*
X80470267Y-104375000D01*
X80472435Y-104369765D01*
X80471476Y-104364181D01*
X80479380Y-104352999D01*
X80484619Y-104340352D01*
X80490459Y-104334512D01*
X80490460Y-104334511D01*
X80530021Y-104265989D01*
X80550500Y-104189562D01*
X80550500Y-104110438D01*
X80550500Y-104110436D01*
X80531743Y-104040438D01*
X80530021Y-104034011D01*
X80530020Y-104034009D01*
X80530020Y-104034008D01*
X80490459Y-103965488D01*
X80434511Y-103909540D01*
X80365990Y-103869979D01*
X80289564Y-103849500D01*
X80289562Y-103849500D01*
X80210438Y-103849500D01*
X80210436Y-103849500D01*
X80134010Y-103869979D01*
X80134008Y-103869979D01*
X80065488Y-103909540D01*
X80065488Y-103909541D01*
X80009541Y-103965488D01*
X80009540Y-103965488D01*
X79969979Y-104034008D01*
X79969979Y-104034010D01*
X79949500Y-104110436D01*
X68025500Y-104110436D01*
X68025500Y-100335302D01*
X100320000Y-100335302D01*
X100320000Y-100564697D01*
X100349945Y-100792152D01*
X100409315Y-101013721D01*
X100409317Y-101013727D01*
X100497105Y-101225667D01*
X100611803Y-101424330D01*
X100668381Y-101498064D01*
X101342672Y-100823772D01*
X101347757Y-100836047D01*
X101436949Y-100969532D01*
X101550468Y-101083051D01*
X101683953Y-101172243D01*
X101696225Y-101177326D01*
X101021934Y-101851618D01*
X101095653Y-101908185D01*
X101095668Y-101908195D01*
X101294333Y-102022894D01*
X101294332Y-102022894D01*
X101506272Y-102110682D01*
X101506278Y-102110684D01*
X101727847Y-102170054D01*
X101955302Y-102199999D01*
X101955303Y-102200000D01*
X102184697Y-102200000D01*
X102184697Y-102199999D01*
X102412152Y-102170054D01*
X102633721Y-102110684D01*
X102633727Y-102110682D01*
X102845667Y-102022894D01*
X102927773Y-101975490D01*
X102964955Y-101970595D01*
X102994708Y-101993425D01*
X102999603Y-102030607D01*
X102982103Y-102056799D01*
X102893784Y-102124568D01*
X102724573Y-102293779D01*
X102724562Y-102293791D01*
X102578903Y-102483617D01*
X102578893Y-102483632D01*
X102459248Y-102690866D01*
X102459246Y-102690870D01*
X102447189Y-102719979D01*
X102367671Y-102911949D01*
X102367667Y-102911959D01*
X102305737Y-103143086D01*
X102305735Y-103143094D01*
X102305735Y-103143098D01*
X102292917Y-103240460D01*
X102274500Y-103380353D01*
X102274500Y-103619646D01*
X102274499Y-103619646D01*
X102274500Y-103619650D01*
X102305735Y-103856902D01*
X102305736Y-103856906D01*
X102305737Y-103856913D01*
X102367667Y-104088040D01*
X102367670Y-104088047D01*
X102459246Y-104309130D01*
X102502478Y-104384010D01*
X102578893Y-104516367D01*
X102578903Y-104516382D01*
X102724562Y-104706208D01*
X102724573Y-104706220D01*
X102893779Y-104875426D01*
X102893791Y-104875437D01*
X103083617Y-105021096D01*
X103083626Y-105021102D01*
X103083630Y-105021105D01*
X103290870Y-105140754D01*
X103511953Y-105232330D01*
X103511956Y-105232330D01*
X103511959Y-105232332D01*
X103743086Y-105294262D01*
X103743087Y-105294262D01*
X103743098Y-105294265D01*
X103980350Y-105325500D01*
X103980353Y-105325500D01*
X104219646Y-105325500D01*
X104219650Y-105325500D01*
X104456902Y-105294265D01*
X104688047Y-105232330D01*
X104909130Y-105140754D01*
X105116370Y-105021105D01*
X105306218Y-104875429D01*
X105475429Y-104706218D01*
X105492086Y-104684511D01*
X105621096Y-104516382D01*
X105621097Y-104516379D01*
X105621105Y-104516370D01*
X105740754Y-104309130D01*
X105832330Y-104088047D01*
X105894265Y-103856902D01*
X105925500Y-103619650D01*
X105925500Y-103619646D01*
X113704499Y-103619646D01*
X113704500Y-103619650D01*
X113735735Y-103856902D01*
X113735736Y-103856906D01*
X113735737Y-103856913D01*
X113797667Y-104088040D01*
X113797670Y-104088047D01*
X113889246Y-104309130D01*
X113932478Y-104384010D01*
X114008893Y-104516367D01*
X114008903Y-104516382D01*
X114154562Y-104706208D01*
X114154573Y-104706220D01*
X114323779Y-104875426D01*
X114323791Y-104875437D01*
X114513617Y-105021096D01*
X114513626Y-105021102D01*
X114513630Y-105021105D01*
X114720870Y-105140754D01*
X114941953Y-105232330D01*
X114941956Y-105232330D01*
X114941959Y-105232332D01*
X115173086Y-105294262D01*
X115173087Y-105294262D01*
X115173098Y-105294265D01*
X115410350Y-105325500D01*
X115410353Y-105325500D01*
X115649646Y-105325500D01*
X115649650Y-105325500D01*
X115886902Y-105294265D01*
X116118047Y-105232330D01*
X116339130Y-105140754D01*
X116546370Y-105021105D01*
X116736218Y-104875429D01*
X116905429Y-104706218D01*
X116922086Y-104684511D01*
X117051096Y-104516382D01*
X117051097Y-104516379D01*
X117051105Y-104516370D01*
X117170754Y-104309130D01*
X117262330Y-104088047D01*
X117275087Y-104040438D01*
X117275088Y-104040436D01*
X119249500Y-104040436D01*
X119249500Y-104119563D01*
X119269979Y-104195989D01*
X119269979Y-104195991D01*
X119309540Y-104264511D01*
X119365489Y-104320460D01*
X119434011Y-104360021D01*
X119469478Y-104369524D01*
X119510436Y-104380500D01*
X119510438Y-104380500D01*
X119589564Y-104380500D01*
X119616230Y-104373354D01*
X119665989Y-104360021D01*
X119734511Y-104320460D01*
X119790460Y-104264511D01*
X119830021Y-104195989D01*
X119850500Y-104119562D01*
X119850500Y-104040438D01*
X119850500Y-104040436D01*
X119841843Y-104008134D01*
X119830021Y-103964011D01*
X119830020Y-103964009D01*
X119830020Y-103964008D01*
X119790459Y-103895488D01*
X119734511Y-103839540D01*
X119665990Y-103799979D01*
X119589564Y-103779500D01*
X119589562Y-103779500D01*
X119510438Y-103779500D01*
X119510436Y-103779500D01*
X119434010Y-103799979D01*
X119434008Y-103799979D01*
X119365488Y-103839540D01*
X119365488Y-103839541D01*
X119309541Y-103895488D01*
X119309540Y-103895488D01*
X119269979Y-103964008D01*
X119269979Y-103964010D01*
X119249500Y-104040436D01*
X117275088Y-104040436D01*
X117279346Y-104024544D01*
X117324262Y-103856913D01*
X117324261Y-103856913D01*
X117324265Y-103856902D01*
X117355500Y-103619650D01*
X117355500Y-103380350D01*
X117324265Y-103143098D01*
X117277859Y-102969908D01*
X117275321Y-102960436D01*
X136999500Y-102960436D01*
X136999500Y-103039563D01*
X137019979Y-103115989D01*
X137019979Y-103115991D01*
X137035623Y-103143086D01*
X137059540Y-103184511D01*
X137115489Y-103240460D01*
X137184011Y-103280021D01*
X137219478Y-103289524D01*
X137260436Y-103300500D01*
X137260438Y-103300500D01*
X137339564Y-103300500D01*
X137366230Y-103293354D01*
X137415989Y-103280021D01*
X137484511Y-103240460D01*
X137540460Y-103184511D01*
X137580021Y-103115989D01*
X137600500Y-103039562D01*
X137600500Y-102960438D01*
X137600500Y-102960436D01*
X137587507Y-102911949D01*
X137580021Y-102884011D01*
X137580020Y-102884009D01*
X137580020Y-102884008D01*
X137540459Y-102815488D01*
X137484511Y-102759540D01*
X137415990Y-102719979D01*
X137339564Y-102699500D01*
X137339562Y-102699500D01*
X137260438Y-102699500D01*
X137260436Y-102699500D01*
X137184010Y-102719979D01*
X137184008Y-102719979D01*
X137115488Y-102759540D01*
X137115488Y-102759541D01*
X137059541Y-102815488D01*
X137059540Y-102815488D01*
X137019979Y-102884008D01*
X137019979Y-102884010D01*
X136999500Y-102960436D01*
X117275321Y-102960436D01*
X117262332Y-102911959D01*
X117262328Y-102911949D01*
X117250756Y-102884011D01*
X117170754Y-102690870D01*
X117051105Y-102483630D01*
X117051102Y-102483626D01*
X117051096Y-102483617D01*
X116905437Y-102293791D01*
X116905426Y-102293779D01*
X116736220Y-102124573D01*
X116736208Y-102124562D01*
X116647897Y-102056799D01*
X116629145Y-102024321D01*
X116638852Y-101988096D01*
X116671330Y-101969344D01*
X116702226Y-101975490D01*
X116784333Y-102022894D01*
X116784332Y-102022894D01*
X116996272Y-102110682D01*
X116996278Y-102110684D01*
X117217847Y-102170054D01*
X117445302Y-102199999D01*
X117445303Y-102200000D01*
X117674697Y-102200000D01*
X117674697Y-102199999D01*
X117902152Y-102170054D01*
X118123721Y-102110684D01*
X118123722Y-102110684D01*
X118196619Y-102080489D01*
X130135228Y-102080489D01*
X130135228Y-102159616D01*
X130155707Y-102236042D01*
X130155707Y-102236044D01*
X130189041Y-102293779D01*
X130195268Y-102304564D01*
X130251217Y-102360513D01*
X130319739Y-102400074D01*
X130355206Y-102409577D01*
X130396164Y-102420553D01*
X130396166Y-102420553D01*
X130475292Y-102420553D01*
X130501958Y-102413407D01*
X130551717Y-102400074D01*
X130620239Y-102360513D01*
X130676188Y-102304564D01*
X130715749Y-102236042D01*
X130736228Y-102159615D01*
X130736228Y-102080491D01*
X130736228Y-102080489D01*
X130723237Y-102032009D01*
X130715749Y-102004064D01*
X130715748Y-102004062D01*
X130715748Y-102004061D01*
X130676187Y-101935541D01*
X130620239Y-101879593D01*
X130551718Y-101840032D01*
X130475292Y-101819553D01*
X130475290Y-101819553D01*
X130396166Y-101819553D01*
X130396164Y-101819553D01*
X130319738Y-101840032D01*
X130319736Y-101840032D01*
X130251216Y-101879593D01*
X130251216Y-101879594D01*
X130195269Y-101935541D01*
X130195268Y-101935541D01*
X130155707Y-102004061D01*
X130155707Y-102004063D01*
X130135228Y-102080489D01*
X118196619Y-102080489D01*
X118313661Y-102032009D01*
X118313662Y-102032008D01*
X118335667Y-102022894D01*
X118534331Y-101908195D01*
X118534346Y-101908185D01*
X118608064Y-101851618D01*
X118608065Y-101851618D01*
X117933773Y-101177326D01*
X117946047Y-101172243D01*
X118079532Y-101083051D01*
X118193051Y-100969532D01*
X118282243Y-100836047D01*
X118287326Y-100823774D01*
X118961617Y-101498065D01*
X118961618Y-101498064D01*
X119018185Y-101424346D01*
X119018195Y-101424331D01*
X119132894Y-101225667D01*
X119220682Y-101013727D01*
X119220684Y-101013721D01*
X119280054Y-100792152D01*
X119282770Y-100771528D01*
X154999500Y-100771528D01*
X154999500Y-100850655D01*
X155019979Y-100927081D01*
X155019979Y-100927083D01*
X155044488Y-100969532D01*
X155059540Y-100995603D01*
X155115489Y-101051552D01*
X155184011Y-101091113D01*
X155219478Y-101100616D01*
X155260436Y-101111592D01*
X155260438Y-101111592D01*
X155339564Y-101111592D01*
X155366230Y-101104446D01*
X155415989Y-101091113D01*
X155484511Y-101051552D01*
X155540460Y-100995603D01*
X155580021Y-100927081D01*
X155600500Y-100850654D01*
X155600500Y-100771530D01*
X155600500Y-100771528D01*
X156199500Y-100771528D01*
X156199500Y-100850655D01*
X156219979Y-100927081D01*
X156219979Y-100927083D01*
X156244488Y-100969532D01*
X156259540Y-100995603D01*
X156315489Y-101051552D01*
X156384011Y-101091113D01*
X156419478Y-101100616D01*
X156460436Y-101111592D01*
X156460438Y-101111592D01*
X156539564Y-101111592D01*
X156566230Y-101104446D01*
X156615989Y-101091113D01*
X156684511Y-101051552D01*
X156740460Y-100995603D01*
X156780021Y-100927081D01*
X156800500Y-100850654D01*
X156800500Y-100771530D01*
X156800500Y-100771528D01*
X156791843Y-100739226D01*
X156780021Y-100695103D01*
X156780020Y-100695101D01*
X156780020Y-100695100D01*
X156740459Y-100626580D01*
X156684511Y-100570632D01*
X156615990Y-100531071D01*
X156539564Y-100510592D01*
X156539562Y-100510592D01*
X156460438Y-100510592D01*
X156460436Y-100510592D01*
X156384010Y-100531071D01*
X156384008Y-100531071D01*
X156315488Y-100570632D01*
X156315488Y-100570633D01*
X156259541Y-100626580D01*
X156259540Y-100626580D01*
X156219979Y-100695100D01*
X156219979Y-100695102D01*
X156199500Y-100771528D01*
X155600500Y-100771528D01*
X155591843Y-100739226D01*
X155580021Y-100695103D01*
X155580020Y-100695101D01*
X155580020Y-100695100D01*
X155540459Y-100626580D01*
X155484511Y-100570632D01*
X155415990Y-100531071D01*
X155339564Y-100510592D01*
X155339562Y-100510592D01*
X155260438Y-100510592D01*
X155260436Y-100510592D01*
X155184010Y-100531071D01*
X155184008Y-100531071D01*
X155115488Y-100570632D01*
X155115488Y-100570633D01*
X155059541Y-100626580D01*
X155059540Y-100626580D01*
X155019979Y-100695100D01*
X155019979Y-100695102D01*
X154999500Y-100771528D01*
X119282770Y-100771528D01*
X119284035Y-100761922D01*
X119309999Y-100564697D01*
X119310000Y-100564697D01*
X119310000Y-100335302D01*
X119306726Y-100310436D01*
X171299500Y-100310436D01*
X171299500Y-100389563D01*
X171319979Y-100465989D01*
X171319979Y-100465991D01*
X171345730Y-100510592D01*
X171359540Y-100534511D01*
X171415489Y-100590460D01*
X171484011Y-100630021D01*
X171519478Y-100639524D01*
X171560436Y-100650500D01*
X171560438Y-100650500D01*
X171639564Y-100650500D01*
X171666230Y-100643354D01*
X171715989Y-100630021D01*
X171784511Y-100590460D01*
X171840460Y-100534511D01*
X171880021Y-100465989D01*
X171900500Y-100389562D01*
X171900500Y-100310438D01*
X171900500Y-100310436D01*
X171891843Y-100278134D01*
X171880021Y-100234011D01*
X171880020Y-100234009D01*
X171880020Y-100234008D01*
X171840459Y-100165488D01*
X171784511Y-100109540D01*
X171715990Y-100069979D01*
X171639564Y-100049500D01*
X171639562Y-100049500D01*
X171560438Y-100049500D01*
X171560436Y-100049500D01*
X171484010Y-100069979D01*
X171484008Y-100069979D01*
X171415488Y-100109540D01*
X171415488Y-100109541D01*
X171359541Y-100165488D01*
X171359540Y-100165488D01*
X171319979Y-100234008D01*
X171319979Y-100234010D01*
X171299500Y-100310436D01*
X119306726Y-100310436D01*
X119280054Y-100107847D01*
X119243093Y-99969908D01*
X119240555Y-99960436D01*
X124899500Y-99960436D01*
X124899500Y-100039563D01*
X124919979Y-100115989D01*
X124919979Y-100115991D01*
X124951102Y-100169896D01*
X124959540Y-100184511D01*
X125015489Y-100240460D01*
X125084011Y-100280021D01*
X125119478Y-100289524D01*
X125160436Y-100300500D01*
X125160438Y-100300500D01*
X125239564Y-100300500D01*
X125266230Y-100293354D01*
X125315989Y-100280021D01*
X125384511Y-100240460D01*
X125440460Y-100184511D01*
X125480021Y-100115989D01*
X125500500Y-100039562D01*
X125500500Y-99960438D01*
X125500500Y-99960436D01*
X125480021Y-99884011D01*
X125466411Y-99860438D01*
X125449090Y-99830436D01*
X126503832Y-99830436D01*
X126503832Y-99909563D01*
X126524311Y-99985989D01*
X126524311Y-99985991D01*
X126555241Y-100039562D01*
X126563872Y-100054511D01*
X126619821Y-100110460D01*
X126688343Y-100150021D01*
X126723810Y-100159524D01*
X126764768Y-100170500D01*
X126764770Y-100170500D01*
X126843896Y-100170500D01*
X126870562Y-100163354D01*
X126920321Y-100150021D01*
X126988843Y-100110460D01*
X127044792Y-100054511D01*
X127084353Y-99985989D01*
X127104832Y-99909562D01*
X127104832Y-99860436D01*
X128199500Y-99860436D01*
X128199500Y-99939563D01*
X128219979Y-100015989D01*
X128219979Y-100015991D01*
X128242220Y-100054512D01*
X128259540Y-100084511D01*
X128315489Y-100140460D01*
X128384011Y-100180021D01*
X128419478Y-100189524D01*
X128460436Y-100200500D01*
X128460438Y-100200500D01*
X128539564Y-100200500D01*
X128566230Y-100193354D01*
X128615989Y-100180021D01*
X128684511Y-100140460D01*
X128740460Y-100084511D01*
X128780021Y-100015989D01*
X128794907Y-99960436D01*
X130699500Y-99960436D01*
X130699500Y-100039563D01*
X130719979Y-100115989D01*
X130719979Y-100115991D01*
X130751102Y-100169896D01*
X130759540Y-100184511D01*
X130815489Y-100240460D01*
X130884011Y-100280021D01*
X130919478Y-100289524D01*
X130960436Y-100300500D01*
X130960438Y-100300500D01*
X131039564Y-100300500D01*
X131090513Y-100286847D01*
X131115989Y-100280021D01*
X131184511Y-100240460D01*
X131240460Y-100184511D01*
X131280021Y-100115989D01*
X131300500Y-100039562D01*
X131300500Y-99960438D01*
X131300500Y-99960436D01*
X131280021Y-99884011D01*
X131278702Y-99881727D01*
X131278701Y-99881725D01*
X131266410Y-99860436D01*
X132099500Y-99860436D01*
X132099500Y-99939563D01*
X132119979Y-100015989D01*
X132119979Y-100015991D01*
X132142220Y-100054512D01*
X132159540Y-100084511D01*
X132215489Y-100140460D01*
X132284011Y-100180021D01*
X132319478Y-100189524D01*
X132360436Y-100200500D01*
X132360438Y-100200500D01*
X132439564Y-100200500D01*
X132466230Y-100193354D01*
X132515989Y-100180021D01*
X132584511Y-100140460D01*
X132640460Y-100084511D01*
X132680021Y-100015989D01*
X132700500Y-99939562D01*
X132700500Y-99860438D01*
X132700500Y-99860435D01*
X132700499Y-99860434D01*
X132694838Y-99839304D01*
X132692299Y-99829832D01*
X154099500Y-99829832D01*
X154099500Y-99908959D01*
X154119979Y-99985385D01*
X154119979Y-99985387D01*
X154156996Y-100049500D01*
X154159540Y-100053907D01*
X154215489Y-100109856D01*
X154284011Y-100149417D01*
X154319478Y-100158920D01*
X154360436Y-100169896D01*
X154360438Y-100169896D01*
X154439564Y-100169896D01*
X154466230Y-100162750D01*
X154515989Y-100149417D01*
X154584511Y-100109856D01*
X154640460Y-100053907D01*
X154680021Y-99985385D01*
X154700500Y-99908958D01*
X154700500Y-99860436D01*
X154799500Y-99860436D01*
X154799500Y-99939563D01*
X154819979Y-100015989D01*
X154819979Y-100015991D01*
X154842220Y-100054512D01*
X154859540Y-100084511D01*
X154915489Y-100140460D01*
X154984011Y-100180021D01*
X155019478Y-100189524D01*
X155060436Y-100200500D01*
X155060438Y-100200500D01*
X155139564Y-100200500D01*
X155166230Y-100193354D01*
X155215989Y-100180021D01*
X155284511Y-100140460D01*
X155340460Y-100084511D01*
X155380021Y-100015989D01*
X155400500Y-99939562D01*
X155400500Y-99860438D01*
X155400500Y-99860436D01*
X155388847Y-99816949D01*
X155380021Y-99784011D01*
X155380020Y-99784009D01*
X155380020Y-99784008D01*
X155340459Y-99715488D01*
X155284511Y-99659540D01*
X155215990Y-99619979D01*
X155139564Y-99599500D01*
X155139562Y-99599500D01*
X155060438Y-99599500D01*
X155060436Y-99599500D01*
X154984010Y-99619979D01*
X154984008Y-99619979D01*
X154915488Y-99659540D01*
X154915488Y-99659541D01*
X154859541Y-99715488D01*
X154859540Y-99715488D01*
X154819979Y-99784008D01*
X154819979Y-99784010D01*
X154799500Y-99860436D01*
X154700500Y-99860436D01*
X154700500Y-99829834D01*
X154700500Y-99829832D01*
X154688221Y-99784010D01*
X154680021Y-99753407D01*
X154680020Y-99753405D01*
X154680020Y-99753404D01*
X154648898Y-99699500D01*
X154640460Y-99684885D01*
X154584511Y-99628936D01*
X154568997Y-99619979D01*
X154515990Y-99589375D01*
X154439564Y-99568896D01*
X154439562Y-99568896D01*
X154360438Y-99568896D01*
X154360436Y-99568896D01*
X154284010Y-99589375D01*
X154284008Y-99589375D01*
X154215488Y-99628936D01*
X154215488Y-99628937D01*
X154159541Y-99684884D01*
X154159540Y-99684884D01*
X154119979Y-99753404D01*
X154119979Y-99753406D01*
X154099500Y-99829832D01*
X132692299Y-99829832D01*
X132686423Y-99807906D01*
X132680021Y-99784011D01*
X132680020Y-99784009D01*
X132680020Y-99784008D01*
X132640459Y-99715488D01*
X132584511Y-99659540D01*
X132515990Y-99619979D01*
X132439564Y-99599500D01*
X132439562Y-99599500D01*
X132360438Y-99599500D01*
X132360436Y-99599500D01*
X132284010Y-99619979D01*
X132284008Y-99619979D01*
X132215488Y-99659540D01*
X132215488Y-99659541D01*
X132159541Y-99715488D01*
X132159540Y-99715488D01*
X132119979Y-99784008D01*
X132119979Y-99784010D01*
X132099500Y-99860436D01*
X131266410Y-99860436D01*
X131261382Y-99851727D01*
X131240460Y-99815489D01*
X131184511Y-99759540D01*
X131115990Y-99719979D01*
X131039564Y-99699500D01*
X131039562Y-99699500D01*
X130960438Y-99699500D01*
X130960436Y-99699500D01*
X130884010Y-99719979D01*
X130884008Y-99719979D01*
X130815488Y-99759540D01*
X130815488Y-99759541D01*
X130759541Y-99815488D01*
X130759540Y-99815488D01*
X130719979Y-99884008D01*
X130719979Y-99884010D01*
X130699500Y-99960436D01*
X128794907Y-99960436D01*
X128800500Y-99939562D01*
X128800500Y-99860438D01*
X128800500Y-99860436D01*
X128788847Y-99816949D01*
X128780021Y-99784011D01*
X128780020Y-99784009D01*
X128780020Y-99784008D01*
X128740459Y-99715488D01*
X128684511Y-99659540D01*
X128615990Y-99619979D01*
X128539564Y-99599500D01*
X128539562Y-99599500D01*
X128460438Y-99599500D01*
X128460436Y-99599500D01*
X128384010Y-99619979D01*
X128384008Y-99619979D01*
X128315488Y-99659540D01*
X128315488Y-99659541D01*
X128259541Y-99715488D01*
X128259540Y-99715488D01*
X128219979Y-99784008D01*
X128219979Y-99784010D01*
X128199500Y-99860436D01*
X127104832Y-99860436D01*
X127104832Y-99830438D01*
X127104832Y-99830436D01*
X127096175Y-99798134D01*
X127084353Y-99754011D01*
X127084352Y-99754009D01*
X127084352Y-99754008D01*
X127044791Y-99685488D01*
X126988843Y-99629540D01*
X126920322Y-99589979D01*
X126843896Y-99569500D01*
X126843894Y-99569500D01*
X126764770Y-99569500D01*
X126764768Y-99569500D01*
X126688342Y-99589979D01*
X126688340Y-99589979D01*
X126619820Y-99629540D01*
X126619820Y-99629541D01*
X126563873Y-99685488D01*
X126563872Y-99685488D01*
X126524311Y-99754008D01*
X126524311Y-99754010D01*
X126503832Y-99830436D01*
X125449090Y-99830436D01*
X125440460Y-99815489D01*
X125384511Y-99759540D01*
X125315990Y-99719979D01*
X125239564Y-99699500D01*
X125239562Y-99699500D01*
X125160438Y-99699500D01*
X125160436Y-99699500D01*
X125084010Y-99719979D01*
X125084008Y-99719979D01*
X125015488Y-99759540D01*
X125015488Y-99759541D01*
X124959541Y-99815488D01*
X124959540Y-99815488D01*
X124919979Y-99884008D01*
X124919979Y-99884010D01*
X124899500Y-99960436D01*
X119240555Y-99960436D01*
X119220684Y-99886278D01*
X119220682Y-99886272D01*
X119132894Y-99674332D01*
X119018195Y-99475668D01*
X119018185Y-99475653D01*
X118961618Y-99401934D01*
X118287326Y-100076225D01*
X118282243Y-100063953D01*
X118193051Y-99930468D01*
X118079532Y-99816949D01*
X117946047Y-99727757D01*
X117933772Y-99722672D01*
X118396010Y-99260436D01*
X141349500Y-99260436D01*
X141349500Y-99339563D01*
X141369979Y-99415989D01*
X141369979Y-99415991D01*
X141404435Y-99475669D01*
X141409540Y-99484511D01*
X141465489Y-99540460D01*
X141534011Y-99580021D01*
X141568920Y-99589375D01*
X141610436Y-99600500D01*
X141610438Y-99600500D01*
X141689564Y-99600500D01*
X141716230Y-99593354D01*
X141765989Y-99580021D01*
X141834511Y-99540460D01*
X141890460Y-99484511D01*
X141930021Y-99415989D01*
X141950500Y-99339562D01*
X141950500Y-99260438D01*
X141950500Y-99260436D01*
X142449500Y-99260436D01*
X142449500Y-99339563D01*
X142469979Y-99415989D01*
X142469979Y-99415991D01*
X142504435Y-99475669D01*
X142509540Y-99484511D01*
X142565489Y-99540460D01*
X142634011Y-99580021D01*
X142668920Y-99589375D01*
X142710436Y-99600500D01*
X142710438Y-99600500D01*
X142789564Y-99600500D01*
X142816230Y-99593354D01*
X142865989Y-99580021D01*
X142934511Y-99540460D01*
X142990460Y-99484511D01*
X143030021Y-99415989D01*
X143050500Y-99339562D01*
X143050500Y-99260438D01*
X143050500Y-99260436D01*
X143599500Y-99260436D01*
X143599500Y-99339563D01*
X143619979Y-99415989D01*
X143619979Y-99415991D01*
X143654435Y-99475669D01*
X143659540Y-99484511D01*
X143715489Y-99540460D01*
X143784011Y-99580021D01*
X143818920Y-99589375D01*
X143860436Y-99600500D01*
X143860438Y-99600500D01*
X143939564Y-99600500D01*
X143966230Y-99593354D01*
X144015989Y-99580021D01*
X144084511Y-99540460D01*
X144140460Y-99484511D01*
X144180021Y-99415989D01*
X144200500Y-99339562D01*
X144200500Y-99260438D01*
X144200500Y-99260436D01*
X147949500Y-99260436D01*
X147949500Y-99339563D01*
X147969979Y-99415989D01*
X147969979Y-99415991D01*
X148004435Y-99475669D01*
X148009540Y-99484511D01*
X148065489Y-99540460D01*
X148134011Y-99580021D01*
X148168920Y-99589375D01*
X148210436Y-99600500D01*
X148210438Y-99600500D01*
X148289564Y-99600500D01*
X148316230Y-99593354D01*
X148365989Y-99580021D01*
X148434511Y-99540460D01*
X148490460Y-99484511D01*
X148530021Y-99415989D01*
X148550500Y-99339562D01*
X148550500Y-99260438D01*
X148550500Y-99260436D01*
X149049500Y-99260436D01*
X149049500Y-99339563D01*
X149069979Y-99415989D01*
X149069979Y-99415991D01*
X149104435Y-99475669D01*
X149109540Y-99484511D01*
X149165489Y-99540460D01*
X149234011Y-99580021D01*
X149268920Y-99589375D01*
X149310436Y-99600500D01*
X149310438Y-99600500D01*
X149389564Y-99600500D01*
X149416230Y-99593354D01*
X149465989Y-99580021D01*
X149534511Y-99540460D01*
X149590460Y-99484511D01*
X149630021Y-99415989D01*
X149650500Y-99339562D01*
X149650500Y-99260438D01*
X149650500Y-99260436D01*
X149999500Y-99260436D01*
X149999500Y-99339563D01*
X150019979Y-99415989D01*
X150019979Y-99415991D01*
X150054435Y-99475669D01*
X150059540Y-99484511D01*
X150115489Y-99540460D01*
X150184011Y-99580021D01*
X150218920Y-99589375D01*
X150260436Y-99600500D01*
X150260438Y-99600500D01*
X150339564Y-99600500D01*
X150366230Y-99593354D01*
X150415989Y-99580021D01*
X150484511Y-99540460D01*
X150540460Y-99484511D01*
X150580021Y-99415989D01*
X150600500Y-99339562D01*
X150600500Y-99330436D01*
X165999500Y-99330436D01*
X165999500Y-99409563D01*
X166019979Y-99485989D01*
X166019979Y-99485991D01*
X166059540Y-99554511D01*
X166115489Y-99610460D01*
X166184011Y-99650021D01*
X166219478Y-99659524D01*
X166260436Y-99670500D01*
X166260438Y-99670500D01*
X166339564Y-99670500D01*
X166366230Y-99663354D01*
X166415989Y-99650021D01*
X166484511Y-99610460D01*
X166540460Y-99554511D01*
X166580021Y-99485989D01*
X166600500Y-99409562D01*
X166600500Y-99330438D01*
X166600500Y-99330436D01*
X166581743Y-99260438D01*
X166580021Y-99254011D01*
X166580020Y-99254009D01*
X166580020Y-99254008D01*
X166540459Y-99185488D01*
X166484511Y-99129540D01*
X166415990Y-99089979D01*
X166339564Y-99069500D01*
X166339562Y-99069500D01*
X166260438Y-99069500D01*
X166260436Y-99069500D01*
X166184010Y-99089979D01*
X166184008Y-99089979D01*
X166115488Y-99129540D01*
X166115488Y-99129541D01*
X166059541Y-99185488D01*
X166059540Y-99185488D01*
X166019979Y-99254008D01*
X166019979Y-99254010D01*
X165999500Y-99330436D01*
X150600500Y-99330436D01*
X150600500Y-99260438D01*
X150600500Y-99260436D01*
X150590355Y-99222578D01*
X150580021Y-99184011D01*
X150580020Y-99184009D01*
X150580020Y-99184008D01*
X150540459Y-99115488D01*
X150484511Y-99059540D01*
X150415990Y-99019979D01*
X150339564Y-98999500D01*
X150339562Y-98999500D01*
X150260438Y-98999500D01*
X150260436Y-98999500D01*
X150184010Y-99019979D01*
X150184008Y-99019979D01*
X150115488Y-99059540D01*
X150115488Y-99059541D01*
X150059541Y-99115488D01*
X150059540Y-99115488D01*
X150019979Y-99184008D01*
X150019979Y-99184010D01*
X149999500Y-99260436D01*
X149650500Y-99260436D01*
X149640355Y-99222578D01*
X149630021Y-99184011D01*
X149630020Y-99184009D01*
X149630020Y-99184008D01*
X149590459Y-99115488D01*
X149534511Y-99059540D01*
X149465990Y-99019979D01*
X149389564Y-98999500D01*
X149389562Y-98999500D01*
X149310438Y-98999500D01*
X149310436Y-98999500D01*
X149234010Y-99019979D01*
X149234008Y-99019979D01*
X149165488Y-99059540D01*
X149165488Y-99059541D01*
X149109541Y-99115488D01*
X149109540Y-99115488D01*
X149069979Y-99184008D01*
X149069979Y-99184010D01*
X149049500Y-99260436D01*
X148550500Y-99260436D01*
X148540355Y-99222578D01*
X148530021Y-99184011D01*
X148530020Y-99184009D01*
X148530020Y-99184008D01*
X148490459Y-99115488D01*
X148434511Y-99059540D01*
X148365990Y-99019979D01*
X148289564Y-98999500D01*
X148289562Y-98999500D01*
X148210438Y-98999500D01*
X148210436Y-98999500D01*
X148134010Y-99019979D01*
X148134008Y-99019979D01*
X148065488Y-99059540D01*
X148065488Y-99059541D01*
X148009541Y-99115488D01*
X148009540Y-99115488D01*
X147969979Y-99184008D01*
X147969979Y-99184010D01*
X147949500Y-99260436D01*
X144200500Y-99260436D01*
X144190355Y-99222578D01*
X144180021Y-99184011D01*
X144180020Y-99184009D01*
X144180020Y-99184008D01*
X144140459Y-99115488D01*
X144084511Y-99059540D01*
X144015990Y-99019979D01*
X143939564Y-98999500D01*
X143939562Y-98999500D01*
X143860438Y-98999500D01*
X143860436Y-98999500D01*
X143784010Y-99019979D01*
X143784008Y-99019979D01*
X143715488Y-99059540D01*
X143715488Y-99059541D01*
X143659541Y-99115488D01*
X143659540Y-99115488D01*
X143619979Y-99184008D01*
X143619979Y-99184010D01*
X143599500Y-99260436D01*
X143050500Y-99260436D01*
X143040355Y-99222578D01*
X143030021Y-99184011D01*
X143030020Y-99184009D01*
X143030020Y-99184008D01*
X142990459Y-99115488D01*
X142934511Y-99059540D01*
X142865990Y-99019979D01*
X142789564Y-98999500D01*
X142789562Y-98999500D01*
X142710438Y-98999500D01*
X142710436Y-98999500D01*
X142634010Y-99019979D01*
X142634008Y-99019979D01*
X142565488Y-99059540D01*
X142565488Y-99059541D01*
X142509541Y-99115488D01*
X142509540Y-99115488D01*
X142469979Y-99184008D01*
X142469979Y-99184010D01*
X142449500Y-99260436D01*
X141950500Y-99260436D01*
X141940355Y-99222578D01*
X141930021Y-99184011D01*
X141930020Y-99184009D01*
X141930020Y-99184008D01*
X141890459Y-99115488D01*
X141834511Y-99059540D01*
X141765990Y-99019979D01*
X141689564Y-98999500D01*
X141689562Y-98999500D01*
X141610438Y-98999500D01*
X141610436Y-98999500D01*
X141534010Y-99019979D01*
X141534008Y-99019979D01*
X141465488Y-99059540D01*
X141465488Y-99059541D01*
X141409541Y-99115488D01*
X141409540Y-99115488D01*
X141369979Y-99184008D01*
X141369979Y-99184010D01*
X141349500Y-99260436D01*
X118396010Y-99260436D01*
X118433868Y-99222578D01*
X118608065Y-99048381D01*
X118534330Y-98991803D01*
X118335666Y-98877105D01*
X118335667Y-98877105D01*
X118123727Y-98789317D01*
X118123721Y-98789315D01*
X117902152Y-98729945D01*
X117674698Y-98700000D01*
X117445302Y-98700000D01*
X117217847Y-98729945D01*
X116996278Y-98789315D01*
X116996272Y-98789317D01*
X116784332Y-98877105D01*
X116585669Y-98991803D01*
X116511934Y-99048381D01*
X117186226Y-99722673D01*
X117173953Y-99727757D01*
X117040468Y-99816949D01*
X116926949Y-99930468D01*
X116837757Y-100063953D01*
X116832673Y-100076226D01*
X116158381Y-99401934D01*
X116101803Y-99475669D01*
X115987105Y-99674332D01*
X115899317Y-99886272D01*
X115899315Y-99886278D01*
X115839945Y-100107847D01*
X115810000Y-100335302D01*
X115810000Y-100564697D01*
X115839945Y-100792152D01*
X115899315Y-101013721D01*
X115899317Y-101013727D01*
X115987105Y-101225667D01*
X116101803Y-101424330D01*
X116158381Y-101498064D01*
X116832672Y-100823772D01*
X116837757Y-100836047D01*
X116926949Y-100969532D01*
X117040468Y-101083051D01*
X117173953Y-101172243D01*
X117186225Y-101177326D01*
X116511933Y-101851618D01*
X116513254Y-101871762D01*
X116501199Y-101907274D01*
X116467563Y-101923861D01*
X116439859Y-101917401D01*
X116374372Y-101879593D01*
X116339130Y-101859246D01*
X116171695Y-101789891D01*
X116118050Y-101767671D01*
X116118040Y-101767667D01*
X115886913Y-101705737D01*
X115886906Y-101705736D01*
X115886902Y-101705735D01*
X115649650Y-101674500D01*
X115410350Y-101674500D01*
X115173098Y-101705735D01*
X115173094Y-101705735D01*
X115173086Y-101705737D01*
X114941959Y-101767667D01*
X114941949Y-101767671D01*
X114816697Y-101819553D01*
X114720870Y-101859246D01*
X114720867Y-101859247D01*
X114720866Y-101859248D01*
X114513632Y-101978893D01*
X114513617Y-101978903D01*
X114323791Y-102124562D01*
X114323779Y-102124573D01*
X114154573Y-102293779D01*
X114154562Y-102293791D01*
X114008903Y-102483617D01*
X114008893Y-102483632D01*
X113889248Y-102690866D01*
X113889246Y-102690870D01*
X113877189Y-102719979D01*
X113797671Y-102911949D01*
X113797667Y-102911959D01*
X113735737Y-103143086D01*
X113735735Y-103143094D01*
X113735735Y-103143098D01*
X113722917Y-103240460D01*
X113704500Y-103380353D01*
X113704500Y-103619646D01*
X113704499Y-103619646D01*
X105925500Y-103619646D01*
X105925500Y-103380350D01*
X105894265Y-103143098D01*
X105847859Y-102969908D01*
X105832332Y-102911959D01*
X105832328Y-102911949D01*
X105820756Y-102884011D01*
X105740754Y-102690870D01*
X105621105Y-102483630D01*
X105621102Y-102483626D01*
X105621096Y-102483617D01*
X105475437Y-102293791D01*
X105475426Y-102293779D01*
X105306220Y-102124573D01*
X105306208Y-102124562D01*
X105116382Y-101978903D01*
X105116367Y-101978893D01*
X104944372Y-101879593D01*
X104909130Y-101859246D01*
X104741695Y-101789891D01*
X104688050Y-101767671D01*
X104688040Y-101767667D01*
X104456913Y-101705737D01*
X104456906Y-101705736D01*
X104456902Y-101705735D01*
X104219650Y-101674500D01*
X103980350Y-101674500D01*
X103743098Y-101705735D01*
X103743094Y-101705735D01*
X103743086Y-101705737D01*
X103511959Y-101767667D01*
X103511949Y-101767671D01*
X103386697Y-101819553D01*
X103290870Y-101859246D01*
X103290867Y-101859247D01*
X103290866Y-101859248D01*
X103190139Y-101917402D01*
X103152957Y-101922297D01*
X103123204Y-101899467D01*
X103116744Y-101871762D01*
X103118064Y-101851617D01*
X102443773Y-101177326D01*
X102456047Y-101172243D01*
X102589532Y-101083051D01*
X102703051Y-100969532D01*
X102792243Y-100836047D01*
X102797326Y-100823773D01*
X103471618Y-101498065D01*
X103471618Y-101498064D01*
X103528185Y-101424346D01*
X103528195Y-101424331D01*
X103642894Y-101225667D01*
X103730682Y-101013727D01*
X103730684Y-101013721D01*
X103790054Y-100792152D01*
X103819999Y-100564697D01*
X103820000Y-100564697D01*
X103820000Y-100335302D01*
X103790054Y-100107847D01*
X103730684Y-99886278D01*
X103730682Y-99886272D01*
X103642894Y-99674332D01*
X103528195Y-99475668D01*
X103528185Y-99475653D01*
X103471618Y-99401934D01*
X102797326Y-100076225D01*
X102792243Y-100063953D01*
X102703051Y-99930468D01*
X102589532Y-99816949D01*
X102456047Y-99727757D01*
X102443772Y-99722672D01*
X103118065Y-99048381D01*
X103044330Y-98991803D01*
X102845666Y-98877105D01*
X102845667Y-98877105D01*
X102633727Y-98789317D01*
X102633721Y-98789315D01*
X102412152Y-98729945D01*
X102184698Y-98700000D01*
X101955302Y-98700000D01*
X101727847Y-98729945D01*
X101506278Y-98789315D01*
X101506272Y-98789317D01*
X101294332Y-98877105D01*
X101095669Y-98991803D01*
X101021934Y-99048381D01*
X101696226Y-99722673D01*
X101683953Y-99727757D01*
X101550468Y-99816949D01*
X101436949Y-99930468D01*
X101347757Y-100063953D01*
X101342673Y-100076226D01*
X100668381Y-99401934D01*
X100611803Y-99475669D01*
X100497105Y-99674332D01*
X100409317Y-99886272D01*
X100409315Y-99886278D01*
X100349945Y-100107847D01*
X100320000Y-100335302D01*
X68025500Y-100335302D01*
X68025500Y-98560436D01*
X124699500Y-98560436D01*
X124699500Y-98639563D01*
X124719979Y-98715989D01*
X124719979Y-98715991D01*
X124741512Y-98753286D01*
X124759540Y-98784511D01*
X124815489Y-98840460D01*
X124884011Y-98880021D01*
X124919478Y-98889524D01*
X124960436Y-98900500D01*
X124960438Y-98900500D01*
X125039564Y-98900500D01*
X125066230Y-98893354D01*
X125115989Y-98880021D01*
X125184511Y-98840460D01*
X125240460Y-98784511D01*
X125280021Y-98715989D01*
X125300259Y-98640461D01*
X125300500Y-98639563D01*
X125300500Y-98560436D01*
X125291843Y-98528134D01*
X125280021Y-98484011D01*
X125280020Y-98484009D01*
X125280020Y-98484008D01*
X125240461Y-98415491D01*
X125240460Y-98415489D01*
X125213788Y-98388817D01*
X128368566Y-98388817D01*
X128368566Y-98467944D01*
X128389045Y-98544370D01*
X128389045Y-98544372D01*
X128426715Y-98609617D01*
X128428606Y-98612892D01*
X128484555Y-98668841D01*
X128533915Y-98697339D01*
X128539388Y-98700499D01*
X128553077Y-98708402D01*
X128581399Y-98715991D01*
X128629502Y-98728881D01*
X128629504Y-98728881D01*
X128708630Y-98728881D01*
X128735296Y-98721735D01*
X128785055Y-98708402D01*
X128853577Y-98668841D01*
X128898207Y-98624210D01*
X128932852Y-98609860D01*
X128967499Y-98624210D01*
X128983751Y-98640462D01*
X129032903Y-98668840D01*
X129052269Y-98680021D01*
X129052273Y-98680023D01*
X129087740Y-98689526D01*
X129128698Y-98700502D01*
X129128700Y-98700502D01*
X129207826Y-98700502D01*
X129234492Y-98693356D01*
X129284251Y-98680023D01*
X129284255Y-98680021D01*
X129303619Y-98668841D01*
X129352773Y-98640462D01*
X129383618Y-98609616D01*
X129418263Y-98595266D01*
X129452910Y-98609616D01*
X129483753Y-98640459D01*
X129552275Y-98680020D01*
X129587742Y-98689523D01*
X129628700Y-98700499D01*
X129628702Y-98700499D01*
X129707828Y-98700499D01*
X129734494Y-98693353D01*
X129784253Y-98680020D01*
X129852775Y-98640459D01*
X129883616Y-98609618D01*
X129918264Y-98595266D01*
X129952912Y-98609618D01*
X129983755Y-98640461D01*
X129983757Y-98640462D01*
X130052273Y-98680020D01*
X130052277Y-98680022D01*
X130087744Y-98689525D01*
X130128702Y-98700501D01*
X130128704Y-98700501D01*
X130207830Y-98700501D01*
X130258779Y-98686848D01*
X130284255Y-98680022D01*
X130332316Y-98652273D01*
X130369496Y-98647378D01*
X130399250Y-98670208D01*
X130414913Y-98697337D01*
X130470862Y-98753286D01*
X130521022Y-98782246D01*
X130524945Y-98784511D01*
X130539384Y-98792847D01*
X130574851Y-98802350D01*
X130615809Y-98813326D01*
X130615811Y-98813326D01*
X130694937Y-98813326D01*
X130721603Y-98806180D01*
X130771362Y-98792847D01*
X130839884Y-98753286D01*
X130895833Y-98697337D01*
X130935394Y-98628815D01*
X130953716Y-98560438D01*
X130955873Y-98552389D01*
X130955873Y-98473262D01*
X130940392Y-98415491D01*
X130935394Y-98396837D01*
X130935393Y-98396835D01*
X130935393Y-98396834D01*
X130895832Y-98328314D01*
X130839884Y-98272366D01*
X130771363Y-98232805D01*
X130694937Y-98212326D01*
X130694935Y-98212326D01*
X130615811Y-98212326D01*
X130615809Y-98212326D01*
X130539383Y-98232805D01*
X130491321Y-98260553D01*
X130454139Y-98265447D01*
X130424388Y-98242617D01*
X130408726Y-98215490D01*
X130352777Y-98159541D01*
X130333411Y-98148360D01*
X130284256Y-98119980D01*
X130207830Y-98099501D01*
X130207828Y-98099501D01*
X130128704Y-98099501D01*
X130128702Y-98099501D01*
X130052276Y-98119980D01*
X130052274Y-98119980D01*
X129983754Y-98159541D01*
X129983753Y-98159542D01*
X129952912Y-98190382D01*
X129918264Y-98204733D01*
X129883617Y-98190381D01*
X129852775Y-98159539D01*
X129784254Y-98119978D01*
X129707828Y-98099499D01*
X129707826Y-98099499D01*
X129628702Y-98099499D01*
X129628700Y-98099499D01*
X129552274Y-98119978D01*
X129552272Y-98119978D01*
X129483754Y-98159538D01*
X129452909Y-98190383D01*
X129418260Y-98204734D01*
X129383613Y-98190382D01*
X129352773Y-98159542D01*
X129284252Y-98119981D01*
X129207826Y-98099502D01*
X129207824Y-98099502D01*
X129128700Y-98099502D01*
X129128698Y-98099502D01*
X129052272Y-98119981D01*
X129052270Y-98119981D01*
X128983752Y-98159541D01*
X128939122Y-98204171D01*
X128904473Y-98218522D01*
X128869826Y-98204170D01*
X128853577Y-98187921D01*
X128785056Y-98148360D01*
X128708630Y-98127881D01*
X128708628Y-98127881D01*
X128629504Y-98127881D01*
X128629502Y-98127881D01*
X128553076Y-98148360D01*
X128553074Y-98148360D01*
X128484554Y-98187921D01*
X128484554Y-98187922D01*
X128428607Y-98243869D01*
X128428606Y-98243869D01*
X128389045Y-98312389D01*
X128389045Y-98312391D01*
X128368566Y-98388817D01*
X125213788Y-98388817D01*
X125184511Y-98359540D01*
X125115990Y-98319979D01*
X125039564Y-98299500D01*
X125039562Y-98299500D01*
X124960438Y-98299500D01*
X124960436Y-98299500D01*
X124884010Y-98319979D01*
X124884008Y-98319979D01*
X124815488Y-98359540D01*
X124815488Y-98359541D01*
X124759541Y-98415488D01*
X124759540Y-98415488D01*
X124719979Y-98484008D01*
X124719979Y-98484010D01*
X124699500Y-98560436D01*
X68025500Y-98560436D01*
X68025500Y-98060436D01*
X87581295Y-98060436D01*
X87581295Y-98139563D01*
X87601774Y-98215989D01*
X87601774Y-98215991D01*
X87627503Y-98260553D01*
X87641335Y-98284511D01*
X87697284Y-98340460D01*
X87765806Y-98380021D01*
X87798640Y-98388819D01*
X87842231Y-98400500D01*
X87842233Y-98400500D01*
X87921359Y-98400500D01*
X87948025Y-98393354D01*
X87997784Y-98380021D01*
X88066306Y-98340460D01*
X88122255Y-98284511D01*
X88161816Y-98215989D01*
X88181502Y-98142521D01*
X88182295Y-98139563D01*
X88182295Y-98060436D01*
X88173370Y-98027132D01*
X88161816Y-97984011D01*
X88161815Y-97984009D01*
X88161815Y-97984008D01*
X88136734Y-97940568D01*
X88122255Y-97915489D01*
X88066306Y-97859540D01*
X88043337Y-97846279D01*
X87997785Y-97819979D01*
X87921359Y-97799500D01*
X87921357Y-97799500D01*
X87842233Y-97799500D01*
X87842231Y-97799500D01*
X87765805Y-97819979D01*
X87765803Y-97819979D01*
X87697283Y-97859540D01*
X87697283Y-97859541D01*
X87641336Y-97915488D01*
X87641335Y-97915488D01*
X87601774Y-97984008D01*
X87601774Y-97984010D01*
X87581295Y-98060436D01*
X68025500Y-98060436D01*
X68025500Y-97388436D01*
X84332000Y-97388436D01*
X84332000Y-97467563D01*
X84352479Y-97543989D01*
X84352479Y-97543991D01*
X84374701Y-97582479D01*
X84392040Y-97612511D01*
X84447989Y-97668460D01*
X84516511Y-97708021D01*
X84551978Y-97717524D01*
X84592936Y-97728500D01*
X84592938Y-97728500D01*
X84672064Y-97728500D01*
X84698730Y-97721354D01*
X84748489Y-97708021D01*
X84817011Y-97668460D01*
X84872960Y-97612511D01*
X84907220Y-97553170D01*
X84912520Y-97543991D01*
X84912520Y-97543990D01*
X84912521Y-97543989D01*
X84933000Y-97467562D01*
X84933000Y-97388438D01*
X84933000Y-97388436D01*
X84920144Y-97340459D01*
X84912521Y-97312011D01*
X84912520Y-97312009D01*
X84912520Y-97312008D01*
X84882746Y-97260439D01*
X84872960Y-97243489D01*
X84817011Y-97187540D01*
X84786667Y-97170021D01*
X84748490Y-97147979D01*
X84672064Y-97127500D01*
X84672062Y-97127500D01*
X84592938Y-97127500D01*
X84592936Y-97127500D01*
X84516510Y-97147979D01*
X84516508Y-97147979D01*
X84447988Y-97187540D01*
X84447988Y-97187541D01*
X84392041Y-97243488D01*
X84392040Y-97243488D01*
X84352479Y-97312008D01*
X84352479Y-97312010D01*
X84332000Y-97388436D01*
X68025500Y-97388436D01*
X68025500Y-96850436D01*
X85439500Y-96850436D01*
X85439500Y-96929563D01*
X85459979Y-97005989D01*
X85459979Y-97005991D01*
X85485389Y-97050001D01*
X85499540Y-97074511D01*
X85555489Y-97130460D01*
X85605649Y-97159420D01*
X85623302Y-97169612D01*
X85624011Y-97170021D01*
X85659478Y-97179524D01*
X85700436Y-97190500D01*
X85700438Y-97190500D01*
X85779564Y-97190500D01*
X85806230Y-97183354D01*
X85855989Y-97170021D01*
X85856698Y-97169612D01*
X85865170Y-97164720D01*
X85924511Y-97130460D01*
X85966535Y-97088436D01*
X86632000Y-97088436D01*
X86632000Y-97167563D01*
X86652479Y-97243989D01*
X86652479Y-97243991D01*
X86691750Y-97312008D01*
X86692040Y-97312511D01*
X86747989Y-97368460D01*
X86816511Y-97408021D01*
X86840922Y-97414562D01*
X86892936Y-97428500D01*
X86892938Y-97428500D01*
X86972064Y-97428500D01*
X86998730Y-97421354D01*
X87048489Y-97408021D01*
X87117011Y-97368460D01*
X87172960Y-97312511D01*
X87212521Y-97243989D01*
X87232341Y-97170021D01*
X87233000Y-97167563D01*
X87233000Y-97088436D01*
X87224371Y-97056233D01*
X105784500Y-97056233D01*
X105784500Y-97223767D01*
X105802053Y-97312011D01*
X105817183Y-97388079D01*
X105817185Y-97388085D01*
X105881296Y-97542862D01*
X105974371Y-97682159D01*
X106092840Y-97800628D01*
X106181010Y-97859541D01*
X106232137Y-97893703D01*
X106386918Y-97957816D01*
X106551233Y-97990500D01*
X106551236Y-97990500D01*
X106718764Y-97990500D01*
X106718767Y-97990500D01*
X106883082Y-97957816D01*
X107037863Y-97893703D01*
X107177162Y-97800626D01*
X107295626Y-97682162D01*
X107388703Y-97542863D01*
X107452816Y-97388082D01*
X107485500Y-97223767D01*
X107485500Y-97056233D01*
X108324500Y-97056233D01*
X108324500Y-97223767D01*
X108342053Y-97312011D01*
X108357183Y-97388079D01*
X108357185Y-97388085D01*
X108421296Y-97542862D01*
X108514371Y-97682159D01*
X108632840Y-97800628D01*
X108721010Y-97859541D01*
X108772137Y-97893703D01*
X108926918Y-97957816D01*
X109091233Y-97990500D01*
X109091236Y-97990500D01*
X109258764Y-97990500D01*
X109258767Y-97990500D01*
X109423082Y-97957816D01*
X109577863Y-97893703D01*
X109717162Y-97800626D01*
X109835626Y-97682162D01*
X109928703Y-97542863D01*
X109992816Y-97388082D01*
X110025500Y-97223767D01*
X110025500Y-97056233D01*
X110864500Y-97056233D01*
X110864500Y-97223767D01*
X110882053Y-97312011D01*
X110897183Y-97388079D01*
X110897185Y-97388085D01*
X110961296Y-97542862D01*
X111054371Y-97682159D01*
X111172840Y-97800628D01*
X111261010Y-97859541D01*
X111312137Y-97893703D01*
X111466918Y-97957816D01*
X111631233Y-97990500D01*
X111631236Y-97990500D01*
X111798764Y-97990500D01*
X111798767Y-97990500D01*
X111963082Y-97957816D01*
X112117863Y-97893703D01*
X112257162Y-97800626D01*
X112375626Y-97682162D01*
X112468703Y-97542863D01*
X112532816Y-97388082D01*
X112565500Y-97223767D01*
X112565500Y-97056233D01*
X112532816Y-96891918D01*
X112468703Y-96737137D01*
X112466612Y-96734008D01*
X112398882Y-96632642D01*
X112381875Y-96607190D01*
X113404500Y-96607190D01*
X113404500Y-97672809D01*
X113414441Y-97741039D01*
X113414442Y-97741041D01*
X113440165Y-97793658D01*
X113465889Y-97846278D01*
X113548722Y-97929111D01*
X113653962Y-97980559D01*
X113702308Y-97987602D01*
X113722190Y-97990500D01*
X113722192Y-97990500D01*
X114787810Y-97990500D01*
X114805163Y-97987971D01*
X114856038Y-97980559D01*
X114961278Y-97929111D01*
X115044111Y-97846278D01*
X115092591Y-97747109D01*
X123396010Y-97747109D01*
X123396010Y-97826236D01*
X123416489Y-97902662D01*
X123416489Y-97902664D01*
X123431759Y-97929111D01*
X123456050Y-97971184D01*
X123511999Y-98027133D01*
X123580521Y-98066694D01*
X123615988Y-98076197D01*
X123656946Y-98087173D01*
X123656948Y-98087173D01*
X123736074Y-98087173D01*
X123762740Y-98080027D01*
X123812499Y-98066694D01*
X123881021Y-98027133D01*
X123936970Y-97971184D01*
X123976531Y-97902662D01*
X123997010Y-97826235D01*
X123997010Y-97822936D01*
X133517135Y-97822936D01*
X133517135Y-97902063D01*
X133537614Y-97978489D01*
X133537614Y-97978491D01*
X133565698Y-98027132D01*
X133577175Y-98047011D01*
X133633124Y-98102960D01*
X133676289Y-98127881D01*
X133696522Y-98139563D01*
X133701646Y-98142521D01*
X133737113Y-98152024D01*
X133778071Y-98163000D01*
X133778073Y-98163000D01*
X133857199Y-98163000D01*
X133883865Y-98155854D01*
X133933624Y-98142521D01*
X133938748Y-98139563D01*
X133958981Y-98127881D01*
X134002146Y-98102960D01*
X134058095Y-98047011D01*
X134094468Y-97984011D01*
X134097655Y-97978491D01*
X134097655Y-97978490D01*
X134097656Y-97978489D01*
X134118135Y-97902062D01*
X134118135Y-97822938D01*
X134118135Y-97822936D01*
X134109478Y-97790634D01*
X134097656Y-97746511D01*
X134097655Y-97746509D01*
X134097655Y-97746508D01*
X134060504Y-97682162D01*
X134058095Y-97677989D01*
X134002146Y-97622040D01*
X133985641Y-97612511D01*
X133933625Y-97582479D01*
X133857199Y-97562000D01*
X133857197Y-97562000D01*
X133778073Y-97562000D01*
X133778071Y-97562000D01*
X133701645Y-97582479D01*
X133701643Y-97582479D01*
X133633123Y-97622040D01*
X133633123Y-97622041D01*
X133577176Y-97677988D01*
X133577175Y-97677988D01*
X133537614Y-97746508D01*
X133537614Y-97746510D01*
X133517135Y-97822936D01*
X123997010Y-97822936D01*
X123997010Y-97747111D01*
X123997010Y-97747109D01*
X123986535Y-97708020D01*
X123976531Y-97670684D01*
X123976530Y-97670682D01*
X123976530Y-97670681D01*
X123948447Y-97622041D01*
X123936970Y-97602162D01*
X123881021Y-97546213D01*
X123871060Y-97540462D01*
X123812500Y-97506652D01*
X123736074Y-97486173D01*
X123736072Y-97486173D01*
X123656948Y-97486173D01*
X123656946Y-97486173D01*
X123580520Y-97506652D01*
X123580518Y-97506652D01*
X123511998Y-97546213D01*
X123511998Y-97546214D01*
X123456051Y-97602161D01*
X123456050Y-97602161D01*
X123416489Y-97670681D01*
X123416489Y-97670683D01*
X123396010Y-97747109D01*
X115092591Y-97747109D01*
X115095559Y-97741038D01*
X115105500Y-97672808D01*
X115105500Y-96760436D01*
X124699500Y-96760436D01*
X124699500Y-96839563D01*
X124719979Y-96915989D01*
X124719979Y-96915991D01*
X124759540Y-96984511D01*
X124790382Y-97015353D01*
X124804734Y-97050001D01*
X124790383Y-97084649D01*
X124759539Y-97115493D01*
X124719979Y-97184011D01*
X124719979Y-97184013D01*
X124699500Y-97260439D01*
X124699500Y-97339566D01*
X124719979Y-97415992D01*
X124719979Y-97415994D01*
X124727200Y-97428500D01*
X124759540Y-97484514D01*
X124815489Y-97540463D01*
X124884011Y-97580024D01*
X124919478Y-97589527D01*
X124960436Y-97600503D01*
X124960438Y-97600503D01*
X125039564Y-97600503D01*
X125066230Y-97593357D01*
X125115989Y-97580024D01*
X125184511Y-97540463D01*
X125240460Y-97484514D01*
X125280021Y-97415992D01*
X125300260Y-97340460D01*
X125300500Y-97339566D01*
X125300500Y-97335436D01*
X144624500Y-97335436D01*
X144624500Y-97414563D01*
X144644979Y-97490989D01*
X144644979Y-97490991D01*
X144676862Y-97546213D01*
X144684540Y-97559511D01*
X144740489Y-97615460D01*
X144809011Y-97655021D01*
X144844478Y-97664524D01*
X144885436Y-97675500D01*
X144885438Y-97675500D01*
X144964564Y-97675500D01*
X144991230Y-97668354D01*
X145040989Y-97655021D01*
X145109511Y-97615460D01*
X145165460Y-97559511D01*
X145205021Y-97490989D01*
X145221765Y-97428500D01*
X145225500Y-97414563D01*
X145225500Y-97335436D01*
X145211854Y-97284511D01*
X145205021Y-97259011D01*
X145205020Y-97259009D01*
X145205020Y-97259008D01*
X145165459Y-97190488D01*
X145109511Y-97134540D01*
X145040990Y-97094979D01*
X144964564Y-97074500D01*
X144964562Y-97074500D01*
X144885438Y-97074500D01*
X144885436Y-97074500D01*
X144809010Y-97094979D01*
X144809008Y-97094979D01*
X144740488Y-97134540D01*
X144740488Y-97134541D01*
X144684541Y-97190488D01*
X144684540Y-97190488D01*
X144644979Y-97259008D01*
X144644979Y-97259010D01*
X144624500Y-97335436D01*
X125300500Y-97335436D01*
X125300500Y-97260439D01*
X125288589Y-97215989D01*
X125280021Y-97184014D01*
X125280020Y-97184012D01*
X125280020Y-97184011D01*
X125247393Y-97127500D01*
X125240460Y-97115492D01*
X125209617Y-97084649D01*
X125195265Y-97050001D01*
X125209616Y-97015354D01*
X125240460Y-96984511D01*
X125280021Y-96915989D01*
X125300500Y-96839562D01*
X125300500Y-96760438D01*
X125300500Y-96760436D01*
X131999500Y-96760436D01*
X131999500Y-96839563D01*
X132019979Y-96915989D01*
X132019979Y-96915991D01*
X132055114Y-96976845D01*
X132059540Y-96984511D01*
X132115489Y-97040460D01*
X132184011Y-97080021D01*
X132201283Y-97084649D01*
X132260436Y-97100500D01*
X132260438Y-97100500D01*
X132339564Y-97100500D01*
X132366230Y-97093354D01*
X132415989Y-97080021D01*
X132484511Y-97040460D01*
X132540460Y-96984511D01*
X132580021Y-96915989D01*
X132600500Y-96839562D01*
X132600500Y-96810436D01*
X163549500Y-96810436D01*
X163549500Y-96889563D01*
X163569979Y-96965989D01*
X163569979Y-96965991D01*
X163598479Y-97015353D01*
X163609540Y-97034511D01*
X163665489Y-97090460D01*
X163734011Y-97130021D01*
X163769478Y-97139524D01*
X163810436Y-97150500D01*
X163810438Y-97150500D01*
X163889564Y-97150500D01*
X163947538Y-97134965D01*
X163984720Y-97139859D01*
X164007551Y-97169612D01*
X164019979Y-97215989D01*
X164019979Y-97215991D01*
X164045642Y-97260439D01*
X164059540Y-97284511D01*
X164115489Y-97340460D01*
X164184011Y-97380021D01*
X164214106Y-97388085D01*
X164260436Y-97400500D01*
X164260438Y-97400500D01*
X164339564Y-97400500D01*
X164366230Y-97393354D01*
X164415989Y-97380021D01*
X164484511Y-97340460D01*
X164540460Y-97284511D01*
X164580021Y-97215989D01*
X164598245Y-97147979D01*
X164600500Y-97139563D01*
X164600500Y-97060436D01*
X164588419Y-97015352D01*
X164580021Y-96984011D01*
X164580020Y-96984009D01*
X164580020Y-96984008D01*
X164554939Y-96940568D01*
X164540460Y-96915489D01*
X164484511Y-96859540D01*
X164468746Y-96850438D01*
X164415990Y-96819979D01*
X164339564Y-96799500D01*
X164339562Y-96799500D01*
X164260438Y-96799500D01*
X164260436Y-96799500D01*
X164202461Y-96815035D01*
X164165278Y-96810140D01*
X164142448Y-96780388D01*
X164142448Y-96780387D01*
X164135713Y-96755256D01*
X164130021Y-96734011D01*
X164130020Y-96734010D01*
X164130020Y-96734008D01*
X164099091Y-96680438D01*
X164090460Y-96665489D01*
X164034511Y-96609540D01*
X164029266Y-96606512D01*
X163965990Y-96569979D01*
X163889564Y-96549500D01*
X163889562Y-96549500D01*
X163810438Y-96549500D01*
X163810436Y-96549500D01*
X163734010Y-96569979D01*
X163734008Y-96569979D01*
X163665488Y-96609540D01*
X163665488Y-96609541D01*
X163609541Y-96665488D01*
X163609540Y-96665488D01*
X163569979Y-96734008D01*
X163569979Y-96734010D01*
X163549500Y-96810436D01*
X132600500Y-96810436D01*
X132600500Y-96760438D01*
X132600500Y-96760436D01*
X132585776Y-96705489D01*
X132580021Y-96684011D01*
X132580020Y-96684009D01*
X132580020Y-96684008D01*
X132540459Y-96615488D01*
X132484511Y-96559540D01*
X132415990Y-96519979D01*
X132339564Y-96499500D01*
X132339562Y-96499500D01*
X132260438Y-96499500D01*
X132260436Y-96499500D01*
X132184010Y-96519979D01*
X132184008Y-96519979D01*
X132115488Y-96559540D01*
X132115488Y-96559541D01*
X132059541Y-96615488D01*
X132059540Y-96615488D01*
X132019979Y-96684008D01*
X132019979Y-96684010D01*
X131999500Y-96760436D01*
X125300500Y-96760436D01*
X125285776Y-96705489D01*
X125280021Y-96684011D01*
X125280020Y-96684009D01*
X125280020Y-96684008D01*
X125240459Y-96615488D01*
X125184511Y-96559540D01*
X125115990Y-96519979D01*
X125039564Y-96499500D01*
X125039562Y-96499500D01*
X124960438Y-96499500D01*
X124960436Y-96499500D01*
X124884010Y-96519979D01*
X124884008Y-96519979D01*
X124815488Y-96559540D01*
X124815488Y-96559541D01*
X124759541Y-96615488D01*
X124759540Y-96615488D01*
X124719979Y-96684008D01*
X124719979Y-96684010D01*
X124699500Y-96760436D01*
X115105500Y-96760436D01*
X115105500Y-96607192D01*
X115105401Y-96606515D01*
X115095777Y-96540460D01*
X115095559Y-96538962D01*
X115044111Y-96433722D01*
X114961278Y-96350889D01*
X114889888Y-96315989D01*
X114856041Y-96299442D01*
X114856039Y-96299441D01*
X114787810Y-96289500D01*
X114787808Y-96289500D01*
X113722192Y-96289500D01*
X113722190Y-96289500D01*
X113653960Y-96299441D01*
X113653958Y-96299442D01*
X113548724Y-96350888D01*
X113548720Y-96350890D01*
X113465890Y-96433720D01*
X113465888Y-96433724D01*
X113414442Y-96538958D01*
X113414441Y-96538960D01*
X113404500Y-96607190D01*
X112381875Y-96607190D01*
X112375628Y-96597840D01*
X112257159Y-96479371D01*
X112117862Y-96386296D01*
X111963085Y-96322185D01*
X111963079Y-96322183D01*
X111896816Y-96309002D01*
X111798767Y-96289500D01*
X111631233Y-96289500D01*
X111554651Y-96304733D01*
X111466920Y-96322183D01*
X111466914Y-96322185D01*
X111312137Y-96386296D01*
X111172840Y-96479371D01*
X111054371Y-96597840D01*
X110961296Y-96737137D01*
X110897185Y-96891914D01*
X110897183Y-96891920D01*
X110889696Y-96929562D01*
X110864500Y-97056233D01*
X110025500Y-97056233D01*
X109992816Y-96891918D01*
X109928703Y-96737137D01*
X109926612Y-96734008D01*
X109835628Y-96597840D01*
X109717159Y-96479371D01*
X109577862Y-96386296D01*
X109423085Y-96322185D01*
X109423079Y-96322183D01*
X109356816Y-96309002D01*
X109258767Y-96289500D01*
X109091233Y-96289500D01*
X109014651Y-96304733D01*
X108926920Y-96322183D01*
X108926914Y-96322185D01*
X108772137Y-96386296D01*
X108632840Y-96479371D01*
X108514371Y-96597840D01*
X108421296Y-96737137D01*
X108357185Y-96891914D01*
X108357183Y-96891920D01*
X108349696Y-96929562D01*
X108324500Y-97056233D01*
X107485500Y-97056233D01*
X107452816Y-96891918D01*
X107388703Y-96737137D01*
X107386612Y-96734008D01*
X107295628Y-96597840D01*
X107177159Y-96479371D01*
X107037862Y-96386296D01*
X106883085Y-96322185D01*
X106883079Y-96322183D01*
X106816816Y-96309002D01*
X106718767Y-96289500D01*
X106551233Y-96289500D01*
X106474651Y-96304733D01*
X106386920Y-96322183D01*
X106386914Y-96322185D01*
X106232137Y-96386296D01*
X106092840Y-96479371D01*
X105974371Y-96597840D01*
X105881296Y-96737137D01*
X105817185Y-96891914D01*
X105817183Y-96891920D01*
X105809696Y-96929562D01*
X105784500Y-97056233D01*
X87224371Y-97056233D01*
X87218550Y-97034511D01*
X87212521Y-97012011D01*
X87212520Y-97012009D01*
X87212520Y-97012008D01*
X87182758Y-96960460D01*
X87172960Y-96943489D01*
X87117011Y-96887540D01*
X87048490Y-96847979D01*
X86972064Y-96827500D01*
X86972062Y-96827500D01*
X86892938Y-96827500D01*
X86892936Y-96827500D01*
X86816510Y-96847979D01*
X86816508Y-96847979D01*
X86747988Y-96887540D01*
X86747988Y-96887541D01*
X86692041Y-96943488D01*
X86692040Y-96943488D01*
X86652479Y-97012008D01*
X86652479Y-97012010D01*
X86632000Y-97088436D01*
X85966535Y-97088436D01*
X85980460Y-97074511D01*
X86020021Y-97005989D01*
X86024167Y-96990515D01*
X86026512Y-96985920D01*
X86037147Y-96976845D01*
X86045657Y-96965755D01*
X86050967Y-96965055D01*
X86055042Y-96961579D01*
X86068977Y-96962683D01*
X86082838Y-96960858D01*
X86091568Y-96964473D01*
X86092428Y-96964542D01*
X86092807Y-96964987D01*
X86094657Y-96965753D01*
X86154011Y-97000021D01*
X86178176Y-97006496D01*
X86230436Y-97020500D01*
X86230438Y-97020500D01*
X86309564Y-97020500D01*
X86336230Y-97013354D01*
X86385989Y-97000021D01*
X86454511Y-96960460D01*
X86510460Y-96904511D01*
X86550021Y-96835989D01*
X86569829Y-96762066D01*
X86570500Y-96759563D01*
X86570500Y-96682940D01*
X88522683Y-96682940D01*
X88522683Y-96762067D01*
X88543162Y-96838493D01*
X88543162Y-96838495D01*
X88572647Y-96889563D01*
X88582723Y-96907015D01*
X88638672Y-96962964D01*
X88707194Y-97002525D01*
X88742584Y-97012008D01*
X88783619Y-97023004D01*
X88783621Y-97023004D01*
X88862747Y-97023004D01*
X88924353Y-97006496D01*
X88926551Y-97005906D01*
X88939172Y-97002525D01*
X89007694Y-96962964D01*
X89063643Y-96907015D01*
X89103204Y-96838493D01*
X89123683Y-96762066D01*
X89123683Y-96682942D01*
X89123683Y-96682940D01*
X89110205Y-96632642D01*
X89103204Y-96606515D01*
X89103203Y-96606513D01*
X89103203Y-96606512D01*
X89076083Y-96559540D01*
X89063643Y-96537993D01*
X89007694Y-96482044D01*
X88995845Y-96475203D01*
X88939173Y-96442483D01*
X88862747Y-96422004D01*
X88862745Y-96422004D01*
X88783621Y-96422004D01*
X88783619Y-96422004D01*
X88707193Y-96442483D01*
X88707191Y-96442483D01*
X88638671Y-96482044D01*
X88638671Y-96482045D01*
X88582724Y-96537992D01*
X88582723Y-96537992D01*
X88543162Y-96606512D01*
X88543162Y-96606514D01*
X88522683Y-96682940D01*
X86570500Y-96682940D01*
X86570500Y-96680436D01*
X86557693Y-96632642D01*
X86550021Y-96604011D01*
X86550020Y-96604009D01*
X86550020Y-96604008D01*
X86512464Y-96538960D01*
X86510460Y-96535489D01*
X86476850Y-96501879D01*
X86462498Y-96467231D01*
X86476850Y-96432583D01*
X86486995Y-96424799D01*
X86494511Y-96420460D01*
X86550460Y-96364511D01*
X86571792Y-96327561D01*
X86601543Y-96304733D01*
X86638726Y-96309628D01*
X86656661Y-96327563D01*
X86689540Y-96384511D01*
X86745489Y-96440460D01*
X86814011Y-96480021D01*
X86849478Y-96489524D01*
X86890436Y-96500500D01*
X86890438Y-96500500D01*
X86969564Y-96500500D01*
X86996230Y-96493354D01*
X87045989Y-96480021D01*
X87114511Y-96440460D01*
X87170460Y-96384511D01*
X87210021Y-96315989D01*
X87226171Y-96255713D01*
X87230500Y-96239563D01*
X87230500Y-96160436D01*
X87218590Y-96115991D01*
X87210021Y-96084011D01*
X87210020Y-96084009D01*
X87210020Y-96084008D01*
X87170459Y-96015488D01*
X87139274Y-95984303D01*
X87124922Y-95949655D01*
X87139274Y-95915007D01*
X87144092Y-95910781D01*
X87144503Y-95910464D01*
X87144511Y-95910460D01*
X87200460Y-95854511D01*
X87229678Y-95803902D01*
X87259431Y-95781073D01*
X87296613Y-95785968D01*
X87314548Y-95803903D01*
X87319229Y-95812010D01*
X87349540Y-95864511D01*
X87405489Y-95920460D01*
X87445673Y-95943660D01*
X87473165Y-95959533D01*
X87474011Y-95960021D01*
X87502154Y-95967562D01*
X87550436Y-95980500D01*
X87550438Y-95980500D01*
X87629564Y-95980500D01*
X87656230Y-95973354D01*
X87704440Y-95960436D01*
X123299500Y-95960436D01*
X123299500Y-96039563D01*
X123319979Y-96115989D01*
X123319979Y-96115991D01*
X123350272Y-96168459D01*
X123359540Y-96184511D01*
X123415489Y-96240460D01*
X123484011Y-96280021D01*
X123519386Y-96289500D01*
X123560436Y-96300500D01*
X123560438Y-96300500D01*
X123639564Y-96300500D01*
X123666230Y-96293354D01*
X123715989Y-96280021D01*
X123784511Y-96240460D01*
X123840460Y-96184511D01*
X123880021Y-96115989D01*
X123900500Y-96039562D01*
X123900500Y-95960438D01*
X123900500Y-95960436D01*
X123889787Y-95920459D01*
X123880021Y-95884011D01*
X123880020Y-95884009D01*
X123880020Y-95884008D01*
X123854939Y-95840568D01*
X123840460Y-95815489D01*
X123784511Y-95759540D01*
X123758016Y-95744243D01*
X123715990Y-95719979D01*
X123639564Y-95699500D01*
X123639562Y-95699500D01*
X123560438Y-95699500D01*
X123560436Y-95699500D01*
X123484010Y-95719979D01*
X123484008Y-95719979D01*
X123415488Y-95759540D01*
X123415488Y-95759541D01*
X123359541Y-95815488D01*
X123359540Y-95815488D01*
X123319979Y-95884008D01*
X123319979Y-95884010D01*
X123299500Y-95960436D01*
X87704440Y-95960436D01*
X87705989Y-95960021D01*
X87774511Y-95920460D01*
X87830460Y-95864511D01*
X87870021Y-95795989D01*
X87887952Y-95729071D01*
X87890500Y-95719563D01*
X87890500Y-95640436D01*
X87870026Y-95564031D01*
X87870021Y-95564011D01*
X87870020Y-95564009D01*
X87870020Y-95564008D01*
X87830459Y-95495488D01*
X87774511Y-95439540D01*
X87705990Y-95399979D01*
X87629564Y-95379500D01*
X87629562Y-95379500D01*
X87550438Y-95379500D01*
X87550436Y-95379500D01*
X87474010Y-95399979D01*
X87474008Y-95399979D01*
X87405488Y-95439540D01*
X87405488Y-95439541D01*
X87349542Y-95495486D01*
X87320321Y-95546097D01*
X87290567Y-95568927D01*
X87253385Y-95564031D01*
X87235451Y-95546096D01*
X87200460Y-95485489D01*
X87144511Y-95429540D01*
X87135804Y-95424513D01*
X87075990Y-95389979D01*
X86999564Y-95369500D01*
X86999562Y-95369500D01*
X86920438Y-95369500D01*
X86920436Y-95369500D01*
X86844010Y-95389979D01*
X86844008Y-95389979D01*
X86775488Y-95429540D01*
X86775488Y-95429541D01*
X86719541Y-95485488D01*
X86719540Y-95485488D01*
X86679979Y-95554008D01*
X86679979Y-95554010D01*
X86659500Y-95630436D01*
X86659500Y-95709563D01*
X86679979Y-95785989D01*
X86679979Y-95785991D01*
X86719540Y-95854511D01*
X86750725Y-95885696D01*
X86765077Y-95920344D01*
X86750725Y-95954992D01*
X86745922Y-95959206D01*
X86745495Y-95959533D01*
X86689542Y-96015486D01*
X86668208Y-96052437D01*
X86638454Y-96075267D01*
X86601272Y-96070371D01*
X86583338Y-96052436D01*
X86550460Y-95995489D01*
X86494511Y-95939540D01*
X86425990Y-95899979D01*
X86349564Y-95879500D01*
X86349562Y-95879500D01*
X86270438Y-95879500D01*
X86270436Y-95879500D01*
X86194010Y-95899979D01*
X86194008Y-95899979D01*
X86125488Y-95939540D01*
X86125488Y-95939541D01*
X86069541Y-95995488D01*
X86069540Y-95995488D01*
X86029979Y-96064008D01*
X86029979Y-96064010D01*
X86009500Y-96140436D01*
X86009500Y-96219563D01*
X86029979Y-96295989D01*
X86029979Y-96295991D01*
X86069540Y-96364511D01*
X86103149Y-96398120D01*
X86117501Y-96432768D01*
X86103149Y-96467416D01*
X86093005Y-96475200D01*
X86085782Y-96479371D01*
X86085486Y-96479542D01*
X86029541Y-96535488D01*
X86029540Y-96535488D01*
X85989979Y-96604008D01*
X85989979Y-96604009D01*
X85987170Y-96614494D01*
X85964339Y-96644246D01*
X85927156Y-96649140D01*
X85915340Y-96644245D01*
X85855990Y-96609979D01*
X85779564Y-96589500D01*
X85779562Y-96589500D01*
X85700438Y-96589500D01*
X85700436Y-96589500D01*
X85624010Y-96609979D01*
X85624008Y-96609979D01*
X85555488Y-96649540D01*
X85555488Y-96649541D01*
X85499541Y-96705488D01*
X85499540Y-96705488D01*
X85459979Y-96774008D01*
X85459979Y-96774010D01*
X85439500Y-96850436D01*
X68025500Y-96850436D01*
X68025500Y-95888436D01*
X83732000Y-95888436D01*
X83732000Y-95967563D01*
X83752479Y-96043989D01*
X83752479Y-96043991D01*
X83778790Y-96089562D01*
X83792040Y-96112511D01*
X83847989Y-96168460D01*
X83916511Y-96208021D01*
X83951978Y-96217524D01*
X83992936Y-96228500D01*
X83992938Y-96228500D01*
X84072064Y-96228500D01*
X84098730Y-96221354D01*
X84148489Y-96208021D01*
X84217011Y-96168460D01*
X84272960Y-96112511D01*
X84312521Y-96043989D01*
X84333000Y-95967562D01*
X84333000Y-95888438D01*
X84333000Y-95888436D01*
X84322700Y-95850000D01*
X84312521Y-95812011D01*
X84312520Y-95812009D01*
X84312520Y-95812008D01*
X84286745Y-95767365D01*
X84272960Y-95743489D01*
X84217011Y-95687540D01*
X84185065Y-95669096D01*
X84148490Y-95647979D01*
X84072064Y-95627500D01*
X84072062Y-95627500D01*
X83992938Y-95627500D01*
X83992936Y-95627500D01*
X83916510Y-95647979D01*
X83916508Y-95647979D01*
X83847988Y-95687540D01*
X83847988Y-95687541D01*
X83792041Y-95743488D01*
X83792040Y-95743488D01*
X83752479Y-95812008D01*
X83752479Y-95812010D01*
X83732000Y-95888436D01*
X68025500Y-95888436D01*
X68025500Y-94620384D01*
X76249500Y-94620384D01*
X76249500Y-94807616D01*
X76266426Y-94892709D01*
X76286026Y-94991248D01*
X76286029Y-94991258D01*
X76357675Y-95164225D01*
X76357676Y-95164227D01*
X76357678Y-95164231D01*
X76428397Y-95270069D01*
X76458744Y-95315488D01*
X76461698Y-95319908D01*
X76594092Y-95452302D01*
X76749769Y-95556322D01*
X76749774Y-95556324D01*
X76922741Y-95627970D01*
X76922743Y-95627970D01*
X76922749Y-95627973D01*
X77106384Y-95664500D01*
X77106387Y-95664500D01*
X77293613Y-95664500D01*
X77293616Y-95664500D01*
X77477251Y-95627973D01*
X77650231Y-95556322D01*
X77805908Y-95452302D01*
X77938302Y-95319908D01*
X78042322Y-95164231D01*
X78073717Y-95088436D01*
X82732000Y-95088436D01*
X82732000Y-95167563D01*
X82752479Y-95243989D01*
X82752479Y-95243991D01*
X82779116Y-95290126D01*
X82792040Y-95312511D01*
X82847989Y-95368460D01*
X82916511Y-95408021D01*
X82951978Y-95417524D01*
X82992936Y-95428500D01*
X82992938Y-95428500D01*
X83072064Y-95428500D01*
X83098730Y-95421354D01*
X83148489Y-95408021D01*
X83217011Y-95368460D01*
X83272960Y-95312511D01*
X83312521Y-95243989D01*
X83333000Y-95167562D01*
X83333000Y-95088438D01*
X83333000Y-95088436D01*
X83322834Y-95050500D01*
X83312521Y-95012011D01*
X83312520Y-95012009D01*
X83312520Y-95012008D01*
X83284879Y-94964134D01*
X83272960Y-94943489D01*
X83217011Y-94887540D01*
X83184251Y-94868626D01*
X83148490Y-94847979D01*
X83072064Y-94827500D01*
X83072062Y-94827500D01*
X82992938Y-94827500D01*
X82992936Y-94827500D01*
X82916510Y-94847979D01*
X82916508Y-94847979D01*
X82847988Y-94887540D01*
X82847988Y-94887541D01*
X82792041Y-94943488D01*
X82792040Y-94943488D01*
X82752479Y-95012008D01*
X82752479Y-95012010D01*
X82732000Y-95088436D01*
X78073717Y-95088436D01*
X78113973Y-94991251D01*
X78150500Y-94807616D01*
X78150500Y-94644550D01*
X85374949Y-94644550D01*
X85374949Y-94723677D01*
X85395428Y-94800103D01*
X85395428Y-94800105D01*
X85423130Y-94848085D01*
X85434989Y-94868625D01*
X85490938Y-94924574D01*
X85523698Y-94943488D01*
X85552164Y-94959923D01*
X85559460Y-94964135D01*
X85594927Y-94973638D01*
X85635885Y-94984614D01*
X85635887Y-94984614D01*
X85715013Y-94984614D01*
X85741679Y-94977468D01*
X85791438Y-94964135D01*
X85859960Y-94924574D01*
X85915909Y-94868625D01*
X85955470Y-94800103D01*
X85975949Y-94723676D01*
X85975949Y-94679900D01*
X89718964Y-94679900D01*
X89718964Y-94759027D01*
X89739443Y-94835453D01*
X89739443Y-94835455D01*
X89779004Y-94903975D01*
X89834953Y-94959924D01*
X89903475Y-94999485D01*
X89938942Y-95008988D01*
X89979900Y-95019964D01*
X89979902Y-95019964D01*
X90059028Y-95019964D01*
X90088710Y-95012010D01*
X90135453Y-94999485D01*
X90203975Y-94959924D01*
X90259924Y-94903975D01*
X90299485Y-94835453D01*
X90319964Y-94759026D01*
X90319964Y-94679902D01*
X90319964Y-94679899D01*
X90319963Y-94679898D01*
X90306770Y-94630659D01*
X90304016Y-94620384D01*
X96249500Y-94620384D01*
X96249500Y-94807616D01*
X96266426Y-94892709D01*
X96286026Y-94991248D01*
X96286029Y-94991258D01*
X96357675Y-95164225D01*
X96357676Y-95164227D01*
X96357678Y-95164231D01*
X96428397Y-95270069D01*
X96458744Y-95315488D01*
X96461698Y-95319908D01*
X96594092Y-95452302D01*
X96749769Y-95556322D01*
X96749774Y-95556324D01*
X96922741Y-95627970D01*
X96922743Y-95627970D01*
X96922749Y-95627973D01*
X97106384Y-95664500D01*
X97106387Y-95664500D01*
X97293613Y-95664500D01*
X97293616Y-95664500D01*
X97477251Y-95627973D01*
X97520318Y-95610134D01*
X97593708Y-95579735D01*
X97593710Y-95579734D01*
X97602733Y-95575996D01*
X97650231Y-95556322D01*
X97805908Y-95452302D01*
X97938302Y-95319908D01*
X98042322Y-95164231D01*
X98113973Y-94991251D01*
X98150500Y-94807616D01*
X98150500Y-94620384D01*
X98147136Y-94603474D01*
X98128396Y-94509259D01*
X98126877Y-94501623D01*
X104125000Y-94501623D01*
X104125000Y-94698376D01*
X104155778Y-94892706D01*
X104155779Y-94892709D01*
X104216580Y-95079834D01*
X104305902Y-95255140D01*
X104305907Y-95255149D01*
X104331319Y-95290125D01*
X104331320Y-95290125D01*
X104936944Y-94684501D01*
X104960326Y-94771764D01*
X105018911Y-94873236D01*
X105101764Y-94956089D01*
X105203236Y-95014674D01*
X105290497Y-95038055D01*
X104684873Y-95643678D01*
X104719857Y-95669096D01*
X104719859Y-95669097D01*
X104895165Y-95758419D01*
X105082290Y-95819220D01*
X105082293Y-95819221D01*
X105276624Y-95850000D01*
X105473376Y-95850000D01*
X105667706Y-95819221D01*
X105667709Y-95819220D01*
X105854834Y-95758419D01*
X106030140Y-95669097D01*
X106065126Y-95643679D01*
X105881883Y-95460436D01*
X119699500Y-95460436D01*
X119699500Y-95539563D01*
X119719979Y-95615989D01*
X119719979Y-95615991D01*
X119750640Y-95669096D01*
X119759540Y-95684511D01*
X119815489Y-95740460D01*
X119884011Y-95780021D01*
X119919478Y-95789524D01*
X119960436Y-95800500D01*
X119960438Y-95800500D01*
X120039564Y-95800500D01*
X120066230Y-95793354D01*
X120115989Y-95780021D01*
X120184511Y-95740460D01*
X120240460Y-95684511D01*
X120280021Y-95615989D01*
X120300500Y-95539562D01*
X120300500Y-95460438D01*
X120300500Y-95460436D01*
X120280021Y-95384011D01*
X120278702Y-95381727D01*
X120278701Y-95381725D01*
X120266410Y-95360436D01*
X124699500Y-95360436D01*
X124699500Y-95439563D01*
X124719979Y-95515989D01*
X124719979Y-95515991D01*
X124756782Y-95579734D01*
X124759540Y-95584511D01*
X124815489Y-95640460D01*
X124852263Y-95661691D01*
X124886792Y-95681627D01*
X124886211Y-95682632D01*
X124909828Y-95706252D01*
X124909825Y-95743755D01*
X124886211Y-95767368D01*
X124886792Y-95768373D01*
X124815488Y-95809540D01*
X124815488Y-95809541D01*
X124759541Y-95865488D01*
X124759540Y-95865488D01*
X124719979Y-95934008D01*
X124719979Y-95934010D01*
X124699500Y-96010436D01*
X124699500Y-96089563D01*
X124719979Y-96165989D01*
X124719979Y-96165991D01*
X124758509Y-96232726D01*
X124759540Y-96234511D01*
X124815489Y-96290460D01*
X124832879Y-96300500D01*
X124879753Y-96327563D01*
X124884011Y-96330021D01*
X124919478Y-96339524D01*
X124960436Y-96350500D01*
X124960438Y-96350500D01*
X125039564Y-96350500D01*
X125066230Y-96343354D01*
X125115989Y-96330021D01*
X125120247Y-96327563D01*
X125129565Y-96322183D01*
X125184511Y-96290460D01*
X125214535Y-96260436D01*
X133499500Y-96260436D01*
X133499500Y-96339563D01*
X133519979Y-96415989D01*
X133519979Y-96415991D01*
X133545959Y-96460988D01*
X133559540Y-96484511D01*
X133615489Y-96540460D01*
X133684011Y-96580021D01*
X133719386Y-96589500D01*
X133760436Y-96600500D01*
X133760438Y-96600500D01*
X133839564Y-96600500D01*
X133866230Y-96593354D01*
X133915989Y-96580021D01*
X133984511Y-96540460D01*
X134040460Y-96484511D01*
X134080021Y-96415989D01*
X134100500Y-96339562D01*
X134100500Y-96260438D01*
X134100500Y-96260436D01*
X134089547Y-96219562D01*
X134080021Y-96184011D01*
X134080020Y-96184009D01*
X134080020Y-96184008D01*
X134054863Y-96140436D01*
X134040460Y-96115489D01*
X133984511Y-96059540D01*
X133972208Y-96052437D01*
X133915990Y-96019979D01*
X133839564Y-95999500D01*
X133839562Y-95999500D01*
X133760438Y-95999500D01*
X133760436Y-95999500D01*
X133684010Y-96019979D01*
X133684008Y-96019979D01*
X133615488Y-96059540D01*
X133615488Y-96059541D01*
X133559541Y-96115488D01*
X133559540Y-96115488D01*
X133519979Y-96184008D01*
X133519979Y-96184010D01*
X133499500Y-96260436D01*
X125214535Y-96260436D01*
X125240460Y-96234511D01*
X125280021Y-96165989D01*
X125300500Y-96089562D01*
X125300500Y-96010438D01*
X125300500Y-96010436D01*
X125287102Y-95960438D01*
X125280021Y-95934011D01*
X125280020Y-95934009D01*
X125280020Y-95934008D01*
X125249188Y-95880606D01*
X125240460Y-95865489D01*
X125184511Y-95809540D01*
X125168853Y-95800500D01*
X125113208Y-95768373D01*
X125113789Y-95767365D01*
X125090174Y-95743755D01*
X125090172Y-95706252D01*
X125113787Y-95682631D01*
X125113208Y-95681627D01*
X125142872Y-95664500D01*
X125184511Y-95640460D01*
X125240460Y-95584511D01*
X125280021Y-95515989D01*
X125300500Y-95439562D01*
X125300500Y-95360438D01*
X125300500Y-95360436D01*
X125289640Y-95319908D01*
X125280021Y-95284011D01*
X125280020Y-95284009D01*
X125280020Y-95284008D01*
X125240459Y-95215488D01*
X125184511Y-95159540D01*
X125115990Y-95119979D01*
X125039564Y-95099500D01*
X125039562Y-95099500D01*
X124960438Y-95099500D01*
X124960436Y-95099500D01*
X124884010Y-95119979D01*
X124884008Y-95119979D01*
X124815488Y-95159540D01*
X124815488Y-95159541D01*
X124759541Y-95215488D01*
X124759540Y-95215488D01*
X124719979Y-95284008D01*
X124719979Y-95284010D01*
X124699500Y-95360436D01*
X120266410Y-95360436D01*
X120240460Y-95315489D01*
X120184511Y-95259540D01*
X120176890Y-95255140D01*
X120115990Y-95219979D01*
X120039564Y-95199500D01*
X120039562Y-95199500D01*
X119960438Y-95199500D01*
X119960436Y-95199500D01*
X119884010Y-95219979D01*
X119884008Y-95219979D01*
X119815488Y-95259540D01*
X119815488Y-95259541D01*
X119759541Y-95315488D01*
X119759540Y-95315488D01*
X119719979Y-95384008D01*
X119719979Y-95384010D01*
X119699500Y-95460436D01*
X105881883Y-95460436D01*
X105459502Y-95038055D01*
X105546764Y-95014674D01*
X105648236Y-94956089D01*
X105731089Y-94873236D01*
X105789674Y-94771764D01*
X105813055Y-94684502D01*
X106418679Y-95290126D01*
X106444097Y-95255140D01*
X106533419Y-95079834D01*
X106594220Y-94892709D01*
X106594221Y-94892706D01*
X106625000Y-94698376D01*
X106625000Y-94516233D01*
X107064500Y-94516233D01*
X107064500Y-94683767D01*
X107079470Y-94759026D01*
X107097183Y-94848079D01*
X107097185Y-94848085D01*
X107161296Y-95002862D01*
X107254371Y-95142159D01*
X107372840Y-95260628D01*
X107454944Y-95315488D01*
X107512137Y-95353703D01*
X107666918Y-95417816D01*
X107831233Y-95450500D01*
X107831236Y-95450500D01*
X107998764Y-95450500D01*
X107998767Y-95450500D01*
X108163082Y-95417816D01*
X108317863Y-95353703D01*
X108457162Y-95260626D01*
X108575626Y-95142162D01*
X108668703Y-95002863D01*
X108732816Y-94848082D01*
X108765500Y-94683767D01*
X108765500Y-94516233D01*
X109604500Y-94516233D01*
X109604500Y-94683767D01*
X109619470Y-94759026D01*
X109637183Y-94848079D01*
X109637185Y-94848085D01*
X109701296Y-95002862D01*
X109794371Y-95142159D01*
X109912840Y-95260628D01*
X109994944Y-95315488D01*
X110052137Y-95353703D01*
X110206918Y-95417816D01*
X110371233Y-95450500D01*
X110371236Y-95450500D01*
X110538764Y-95450500D01*
X110538767Y-95450500D01*
X110703082Y-95417816D01*
X110857863Y-95353703D01*
X110997162Y-95260626D01*
X111115626Y-95142162D01*
X111208703Y-95002863D01*
X111272816Y-94848082D01*
X111305500Y-94683767D01*
X111305500Y-94516233D01*
X112144500Y-94516233D01*
X112144500Y-94683767D01*
X112159470Y-94759026D01*
X112177183Y-94848079D01*
X112177185Y-94848085D01*
X112241296Y-95002862D01*
X112334371Y-95142159D01*
X112452840Y-95260628D01*
X112534944Y-95315488D01*
X112592137Y-95353703D01*
X112746918Y-95417816D01*
X112911233Y-95450500D01*
X112911236Y-95450500D01*
X113078764Y-95450500D01*
X113078767Y-95450500D01*
X113243082Y-95417816D01*
X113397863Y-95353703D01*
X113537162Y-95260626D01*
X113655626Y-95142162D01*
X113748703Y-95002863D01*
X113812816Y-94848082D01*
X113834402Y-94739562D01*
X113840196Y-94710436D01*
X117924500Y-94710436D01*
X117924500Y-94789563D01*
X117944979Y-94865989D01*
X117944979Y-94865991D01*
X117978802Y-94924573D01*
X117984540Y-94934511D01*
X118040489Y-94990460D01*
X118109011Y-95030021D01*
X118144478Y-95039524D01*
X118185436Y-95050500D01*
X118185438Y-95050500D01*
X118264564Y-95050500D01*
X118291230Y-95043354D01*
X118340989Y-95030021D01*
X118409511Y-94990460D01*
X118465460Y-94934511D01*
X118505021Y-94865989D01*
X118522675Y-94800105D01*
X118525500Y-94789563D01*
X118525500Y-94710436D01*
X118512102Y-94660438D01*
X118505021Y-94634011D01*
X118505020Y-94634009D01*
X118505020Y-94634008D01*
X118465459Y-94565488D01*
X118409511Y-94509540D01*
X118340990Y-94469979D01*
X118264564Y-94449500D01*
X118264562Y-94449500D01*
X118185438Y-94449500D01*
X118185436Y-94449500D01*
X118109010Y-94469979D01*
X118109008Y-94469979D01*
X118040488Y-94509540D01*
X118040488Y-94509541D01*
X117984541Y-94565488D01*
X117984540Y-94565488D01*
X117944979Y-94634008D01*
X117944979Y-94634010D01*
X117924500Y-94710436D01*
X113840196Y-94710436D01*
X113842734Y-94697675D01*
X113842735Y-94697668D01*
X113845500Y-94683765D01*
X113845500Y-94516236D01*
X113845500Y-94516233D01*
X113812816Y-94351918D01*
X113748703Y-94197137D01*
X113740811Y-94185326D01*
X113673408Y-94084449D01*
X113657363Y-94060436D01*
X123299500Y-94060436D01*
X123299500Y-94139563D01*
X123319979Y-94215989D01*
X123319979Y-94215991D01*
X123359540Y-94284511D01*
X123415489Y-94340460D01*
X123465649Y-94369420D01*
X123471001Y-94372510D01*
X123484011Y-94380021D01*
X123519478Y-94389524D01*
X123560436Y-94400500D01*
X123560438Y-94400500D01*
X123639564Y-94400500D01*
X123666230Y-94393354D01*
X123715989Y-94380021D01*
X123784511Y-94340460D01*
X123840460Y-94284511D01*
X123880021Y-94215989D01*
X123900349Y-94140125D01*
X123900500Y-94139563D01*
X123900500Y-94060436D01*
X123888455Y-94015486D01*
X123880021Y-93984011D01*
X123880020Y-93984009D01*
X123880020Y-93984008D01*
X123854248Y-93939371D01*
X123840460Y-93915489D01*
X123784511Y-93859540D01*
X123765363Y-93848485D01*
X123715990Y-93819979D01*
X123639564Y-93799500D01*
X123639562Y-93799500D01*
X123560438Y-93799500D01*
X123560436Y-93799500D01*
X123484010Y-93819979D01*
X123484008Y-93819979D01*
X123415488Y-93859540D01*
X123415488Y-93859541D01*
X123359541Y-93915488D01*
X123359540Y-93915488D01*
X123319979Y-93984008D01*
X123319979Y-93984010D01*
X123299500Y-94060436D01*
X113657363Y-94060436D01*
X113655628Y-94057840D01*
X113537159Y-93939371D01*
X113397862Y-93846296D01*
X113243085Y-93782185D01*
X113243079Y-93782183D01*
X113149150Y-93763500D01*
X113078767Y-93749500D01*
X112911233Y-93749500D01*
X112840850Y-93763500D01*
X112746920Y-93782183D01*
X112746914Y-93782185D01*
X112592137Y-93846296D01*
X112452840Y-93939371D01*
X112334371Y-94057840D01*
X112241296Y-94197137D01*
X112177185Y-94351914D01*
X112177183Y-94351920D01*
X112161960Y-94428457D01*
X112144500Y-94516233D01*
X111305500Y-94516233D01*
X111272816Y-94351918D01*
X111208703Y-94197137D01*
X111200811Y-94185326D01*
X111115628Y-94057840D01*
X110997159Y-93939371D01*
X110857862Y-93846296D01*
X110703085Y-93782185D01*
X110703079Y-93782183D01*
X110609150Y-93763500D01*
X110538767Y-93749500D01*
X110371233Y-93749500D01*
X110300850Y-93763500D01*
X110206920Y-93782183D01*
X110206914Y-93782185D01*
X110052137Y-93846296D01*
X109912840Y-93939371D01*
X109794371Y-94057840D01*
X109701296Y-94197137D01*
X109637185Y-94351914D01*
X109637183Y-94351920D01*
X109621960Y-94428457D01*
X109604500Y-94516233D01*
X108765500Y-94516233D01*
X108732816Y-94351918D01*
X108668703Y-94197137D01*
X108660811Y-94185326D01*
X108575628Y-94057840D01*
X108457159Y-93939371D01*
X108317862Y-93846296D01*
X108163085Y-93782185D01*
X108163079Y-93782183D01*
X108069150Y-93763500D01*
X107998767Y-93749500D01*
X107831233Y-93749500D01*
X107760850Y-93763500D01*
X107666920Y-93782183D01*
X107666914Y-93782185D01*
X107512137Y-93846296D01*
X107372840Y-93939371D01*
X107254371Y-94057840D01*
X107161296Y-94197137D01*
X107097185Y-94351914D01*
X107097183Y-94351920D01*
X107081960Y-94428457D01*
X107064500Y-94516233D01*
X106625000Y-94516233D01*
X106625000Y-94501623D01*
X106594221Y-94307293D01*
X106594220Y-94307290D01*
X106533419Y-94120165D01*
X106444097Y-93944859D01*
X106444096Y-93944857D01*
X106418678Y-93909873D01*
X105813055Y-94515496D01*
X105789674Y-94428236D01*
X105731089Y-94326764D01*
X105648236Y-94243911D01*
X105546764Y-94185326D01*
X105459500Y-94161944D01*
X106065125Y-93556320D01*
X106065125Y-93556319D01*
X106030149Y-93530907D01*
X106030140Y-93530902D01*
X105854834Y-93441580D01*
X105667709Y-93380779D01*
X105667706Y-93380778D01*
X105473376Y-93350000D01*
X105276624Y-93350000D01*
X105082293Y-93380778D01*
X105082290Y-93380779D01*
X104895171Y-93441578D01*
X104719859Y-93530902D01*
X104719856Y-93530903D01*
X104684873Y-93556320D01*
X105290497Y-94161944D01*
X105203236Y-94185326D01*
X105101764Y-94243911D01*
X105018911Y-94326764D01*
X104960326Y-94428236D01*
X104936944Y-94515497D01*
X104331320Y-93909873D01*
X104305903Y-93944856D01*
X104305902Y-93944859D01*
X104216578Y-94120171D01*
X104155779Y-94307290D01*
X104155778Y-94307293D01*
X104125000Y-94501623D01*
X98126877Y-94501623D01*
X98113973Y-94436749D01*
X98110538Y-94428457D01*
X98042324Y-94263774D01*
X98042322Y-94263769D01*
X97938302Y-94108092D01*
X97805908Y-93975698D01*
X97801804Y-93972956D01*
X97718072Y-93917008D01*
X97650231Y-93871678D01*
X97650227Y-93871676D01*
X97650225Y-93871675D01*
X97477258Y-93800029D01*
X97477248Y-93800026D01*
X97403194Y-93785296D01*
X97293616Y-93763500D01*
X97106384Y-93763500D01*
X97028259Y-93779040D01*
X96922751Y-93800026D01*
X96922741Y-93800029D01*
X96749774Y-93871675D01*
X96749770Y-93871677D01*
X96749769Y-93871678D01*
X96710195Y-93898120D01*
X96594092Y-93975697D01*
X96461697Y-94108092D01*
X96357675Y-94263774D01*
X96286029Y-94436741D01*
X96286026Y-94436751D01*
X96270217Y-94516233D01*
X96249500Y-94620384D01*
X90304016Y-94620384D01*
X90302731Y-94615592D01*
X90299485Y-94603475D01*
X90299484Y-94603473D01*
X90299484Y-94603472D01*
X90260606Y-94536135D01*
X90259924Y-94534953D01*
X90203975Y-94479004D01*
X90188343Y-94469979D01*
X90135454Y-94439443D01*
X90059028Y-94418964D01*
X90059026Y-94418964D01*
X89979902Y-94418964D01*
X89979900Y-94418964D01*
X89903474Y-94439443D01*
X89903472Y-94439443D01*
X89834952Y-94479004D01*
X89834952Y-94479005D01*
X89779005Y-94534952D01*
X89779004Y-94534952D01*
X89739443Y-94603472D01*
X89739443Y-94603474D01*
X89718964Y-94679900D01*
X85975949Y-94679900D01*
X85975949Y-94644552D01*
X85975949Y-94644550D01*
X85964011Y-94599999D01*
X85955470Y-94568125D01*
X85955469Y-94568123D01*
X85955469Y-94568122D01*
X85925080Y-94515488D01*
X85915909Y-94499603D01*
X85859960Y-94443654D01*
X85833255Y-94428236D01*
X85791439Y-94404093D01*
X85715013Y-94383614D01*
X85715011Y-94383614D01*
X85635887Y-94383614D01*
X85635885Y-94383614D01*
X85559459Y-94404093D01*
X85559457Y-94404093D01*
X85490937Y-94443654D01*
X85490937Y-94443655D01*
X85434990Y-94499602D01*
X85434989Y-94499602D01*
X85395428Y-94568122D01*
X85395428Y-94568124D01*
X85374949Y-94644550D01*
X78150500Y-94644550D01*
X78150500Y-94620384D01*
X78113973Y-94436749D01*
X78110538Y-94428457D01*
X78042324Y-94263774D01*
X78042322Y-94263769D01*
X77938302Y-94108092D01*
X77805908Y-93975698D01*
X77801804Y-93972956D01*
X77718072Y-93917008D01*
X77650231Y-93871678D01*
X77650227Y-93871676D01*
X77650225Y-93871675D01*
X77477258Y-93800029D01*
X77477248Y-93800026D01*
X77403194Y-93785296D01*
X77293616Y-93763500D01*
X77106384Y-93763500D01*
X77028259Y-93779040D01*
X76922751Y-93800026D01*
X76922741Y-93800029D01*
X76749774Y-93871675D01*
X76749770Y-93871677D01*
X76749769Y-93871678D01*
X76710195Y-93898120D01*
X76594092Y-93975697D01*
X76461697Y-94108092D01*
X76357675Y-94263774D01*
X76286029Y-94436741D01*
X76286026Y-94436751D01*
X76270217Y-94516233D01*
X76249500Y-94620384D01*
X68025500Y-94620384D01*
X68025500Y-93391840D01*
X83773733Y-93391840D01*
X83773733Y-93470967D01*
X83794212Y-93547393D01*
X83794212Y-93547395D01*
X83833773Y-93615915D01*
X83891993Y-93674135D01*
X83890480Y-93675647D01*
X83905966Y-93702291D01*
X83896365Y-93738544D01*
X83892060Y-93743469D01*
X83892042Y-93743486D01*
X83892035Y-93743495D01*
X83852479Y-93812008D01*
X83852479Y-93812010D01*
X83832000Y-93888436D01*
X83832000Y-93967563D01*
X83852479Y-94043989D01*
X83852479Y-94043991D01*
X83875838Y-94084449D01*
X83892040Y-94112511D01*
X83947989Y-94168460D01*
X84016511Y-94208021D01*
X84051978Y-94217524D01*
X84092936Y-94228500D01*
X84092938Y-94228500D01*
X84172064Y-94228500D01*
X84198730Y-94221354D01*
X84248489Y-94208021D01*
X84317011Y-94168460D01*
X84337037Y-94148434D01*
X86651998Y-94148434D01*
X86651998Y-94227561D01*
X86672477Y-94303987D01*
X86672477Y-94303989D01*
X86700151Y-94351920D01*
X86712038Y-94372509D01*
X86767987Y-94428458D01*
X86836509Y-94468019D01*
X86871976Y-94477522D01*
X86912934Y-94488498D01*
X86912936Y-94488498D01*
X86992062Y-94488498D01*
X87018728Y-94481352D01*
X87068487Y-94468019D01*
X87137009Y-94428458D01*
X87192958Y-94372509D01*
X87232519Y-94303987D01*
X87252998Y-94227560D01*
X87252998Y-94148436D01*
X87252998Y-94148434D01*
X87243372Y-94112511D01*
X87232519Y-94072009D01*
X87232518Y-94072007D01*
X87232518Y-94072006D01*
X87206926Y-94027680D01*
X87192958Y-94003487D01*
X87137009Y-93947538D01*
X87132364Y-93944856D01*
X87068488Y-93907977D01*
X86992062Y-93887498D01*
X86992060Y-93887498D01*
X86912936Y-93887498D01*
X86912934Y-93887498D01*
X86836508Y-93907977D01*
X86836506Y-93907977D01*
X86767986Y-93947538D01*
X86767986Y-93947539D01*
X86712039Y-94003486D01*
X86712038Y-94003486D01*
X86672477Y-94072006D01*
X86672477Y-94072008D01*
X86651998Y-94148434D01*
X84337037Y-94148434D01*
X84372960Y-94112511D01*
X84412521Y-94043989D01*
X84433000Y-93967562D01*
X84433000Y-93888438D01*
X84433000Y-93888436D01*
X84421229Y-93844508D01*
X84412521Y-93812011D01*
X84412520Y-93812009D01*
X84412520Y-93812008D01*
X84372959Y-93743488D01*
X84314740Y-93685269D01*
X84316157Y-93683851D01*
X84300700Y-93656596D01*
X84307366Y-93625275D01*
X84310452Y-93620154D01*
X84314693Y-93615915D01*
X84354254Y-93547393D01*
X84372188Y-93480463D01*
X84374733Y-93470967D01*
X84374733Y-93391840D01*
X84364612Y-93354070D01*
X84354254Y-93315415D01*
X84354253Y-93315413D01*
X84354253Y-93315412D01*
X84314692Y-93246892D01*
X84258744Y-93190944D01*
X84190223Y-93151383D01*
X84113797Y-93130904D01*
X84113795Y-93130904D01*
X84034671Y-93130904D01*
X84034669Y-93130904D01*
X83958243Y-93151383D01*
X83958241Y-93151383D01*
X83889721Y-93190944D01*
X83889721Y-93190945D01*
X83833774Y-93246892D01*
X83833773Y-93246892D01*
X83794212Y-93315412D01*
X83794212Y-93315414D01*
X83773733Y-93391840D01*
X68025500Y-93391840D01*
X68025500Y-92879900D01*
X89518964Y-92879900D01*
X89518964Y-92959027D01*
X89539443Y-93035453D01*
X89539443Y-93035455D01*
X89567767Y-93084512D01*
X89579004Y-93103975D01*
X89634953Y-93159924D01*
X89703475Y-93199485D01*
X89738942Y-93208988D01*
X89779900Y-93219964D01*
X89779902Y-93219964D01*
X89859028Y-93219964D01*
X89885694Y-93212818D01*
X89935453Y-93199485D01*
X90003975Y-93159924D01*
X90059924Y-93103975D01*
X90095483Y-93042385D01*
X90099484Y-93035455D01*
X90099484Y-93035454D01*
X90099485Y-93035453D01*
X90109052Y-92999751D01*
X124674477Y-92999751D01*
X124674477Y-93078878D01*
X124694956Y-93155304D01*
X124694956Y-93155306D01*
X124734517Y-93223826D01*
X124778550Y-93267859D01*
X124792902Y-93302507D01*
X124778551Y-93337154D01*
X124761636Y-93354069D01*
X124722075Y-93422589D01*
X124722075Y-93422591D01*
X124701596Y-93499017D01*
X124701596Y-93578144D01*
X124722075Y-93654570D01*
X124722075Y-93654572D01*
X124761636Y-93723092D01*
X124817585Y-93779041D01*
X124823029Y-93782184D01*
X124886104Y-93818601D01*
X124886106Y-93818601D01*
X124886107Y-93818602D01*
X124891246Y-93819979D01*
X124897586Y-93821678D01*
X124927339Y-93844508D01*
X124932234Y-93881690D01*
X124909404Y-93911443D01*
X124897587Y-93916338D01*
X124884010Y-93919976D01*
X124884008Y-93919976D01*
X124815488Y-93959537D01*
X124815488Y-93959538D01*
X124759541Y-94015485D01*
X124759540Y-94015485D01*
X124719979Y-94084005D01*
X124719979Y-94084007D01*
X124699500Y-94160433D01*
X124699500Y-94239560D01*
X124719979Y-94315986D01*
X124719979Y-94315988D01*
X124759540Y-94384508D01*
X124790382Y-94415350D01*
X124804734Y-94449998D01*
X124790383Y-94484646D01*
X124759539Y-94515490D01*
X124719979Y-94584008D01*
X124719979Y-94584010D01*
X124699500Y-94660436D01*
X124699500Y-94739563D01*
X124719979Y-94815989D01*
X124719979Y-94815991D01*
X124750368Y-94868625D01*
X124759540Y-94884511D01*
X124815489Y-94940460D01*
X124884011Y-94980021D01*
X124919478Y-94989524D01*
X124960436Y-95000500D01*
X124960438Y-95000500D01*
X125039564Y-95000500D01*
X125066230Y-94993354D01*
X125115989Y-94980021D01*
X125184511Y-94940460D01*
X125240460Y-94884511D01*
X125280021Y-94815989D01*
X125300500Y-94739562D01*
X125300500Y-94660438D01*
X125300500Y-94660436D01*
X125292521Y-94630660D01*
X125292521Y-94630659D01*
X125289768Y-94620384D01*
X155482000Y-94620384D01*
X155482000Y-94807616D01*
X155498926Y-94892709D01*
X155518526Y-94991248D01*
X155518529Y-94991258D01*
X155590175Y-95164225D01*
X155590176Y-95164227D01*
X155590178Y-95164231D01*
X155660897Y-95270069D01*
X155691244Y-95315488D01*
X155694198Y-95319908D01*
X155826592Y-95452302D01*
X155982269Y-95556322D01*
X155982274Y-95556324D01*
X156155241Y-95627970D01*
X156155243Y-95627970D01*
X156155249Y-95627973D01*
X156338884Y-95664500D01*
X156338887Y-95664500D01*
X156526113Y-95664500D01*
X156526116Y-95664500D01*
X156709751Y-95627973D01*
X156882731Y-95556322D01*
X157038408Y-95452302D01*
X157170802Y-95319908D01*
X157204103Y-95270070D01*
X163248063Y-95270070D01*
X163248063Y-95349197D01*
X163268542Y-95425623D01*
X163268542Y-95425625D01*
X163300203Y-95480462D01*
X163308103Y-95494145D01*
X163364052Y-95550094D01*
X163432574Y-95589655D01*
X163468041Y-95599158D01*
X163508999Y-95610134D01*
X163509001Y-95610134D01*
X163588127Y-95610134D01*
X163614793Y-95602988D01*
X163664552Y-95589655D01*
X163733074Y-95550094D01*
X163789023Y-95494145D01*
X163828584Y-95425623D01*
X163847242Y-95355991D01*
X163849063Y-95349197D01*
X163849063Y-95270069D01*
X163832943Y-95209913D01*
X163832943Y-95209912D01*
X163830404Y-95200438D01*
X166379502Y-95200438D01*
X166379502Y-95279565D01*
X166399981Y-95355991D01*
X166399981Y-95355993D01*
X166439542Y-95424513D01*
X166495491Y-95480462D01*
X166564013Y-95520023D01*
X166599480Y-95529526D01*
X166640438Y-95540502D01*
X166640440Y-95540502D01*
X166719566Y-95540502D01*
X166746232Y-95533356D01*
X166795991Y-95520023D01*
X166864513Y-95480462D01*
X166884539Y-95460436D01*
X169199500Y-95460436D01*
X169199500Y-95539563D01*
X169219979Y-95615989D01*
X169219979Y-95615991D01*
X169259540Y-95684511D01*
X169317760Y-95742731D01*
X169316247Y-95744243D01*
X169331733Y-95770887D01*
X169322132Y-95807140D01*
X169317827Y-95812065D01*
X169317809Y-95812082D01*
X169317802Y-95812091D01*
X169278246Y-95880604D01*
X169278246Y-95880606D01*
X169257767Y-95957032D01*
X169257767Y-96036159D01*
X169278246Y-96112585D01*
X169278246Y-96112587D01*
X169310505Y-96168460D01*
X169317807Y-96181107D01*
X169373756Y-96237056D01*
X169442278Y-96276617D01*
X169477745Y-96286120D01*
X169518703Y-96297096D01*
X169518705Y-96297096D01*
X169597831Y-96297096D01*
X169626177Y-96289500D01*
X169674256Y-96276617D01*
X169742778Y-96237056D01*
X169798727Y-96181107D01*
X169838288Y-96112585D01*
X169858767Y-96036158D01*
X169858767Y-95957034D01*
X169858767Y-95957032D01*
X169848967Y-95920460D01*
X169838288Y-95880607D01*
X169838287Y-95880605D01*
X169838287Y-95880604D01*
X169800692Y-95815489D01*
X169798727Y-95812085D01*
X169742778Y-95756136D01*
X169740507Y-95753865D01*
X169741924Y-95752447D01*
X169726467Y-95725192D01*
X169736453Y-95689043D01*
X169740447Y-95684523D01*
X169740460Y-95684511D01*
X169780021Y-95615989D01*
X169800500Y-95539562D01*
X169800500Y-95460438D01*
X169800500Y-95460436D01*
X169787509Y-95411956D01*
X169780021Y-95384011D01*
X169780020Y-95384009D01*
X169780020Y-95384008D01*
X169743011Y-95319908D01*
X169740460Y-95315489D01*
X169684511Y-95259540D01*
X169676890Y-95255140D01*
X169615990Y-95219979D01*
X169539564Y-95199500D01*
X169539562Y-95199500D01*
X169460438Y-95199500D01*
X169460436Y-95199500D01*
X169384010Y-95219979D01*
X169384008Y-95219979D01*
X169315488Y-95259540D01*
X169315488Y-95259541D01*
X169259541Y-95315488D01*
X169259540Y-95315488D01*
X169219979Y-95384008D01*
X169219979Y-95384010D01*
X169199500Y-95460436D01*
X166884539Y-95460436D01*
X166920462Y-95424513D01*
X166960023Y-95355991D01*
X166977672Y-95290125D01*
X166980502Y-95279565D01*
X166980502Y-95200438D01*
X166969543Y-95159541D01*
X166960023Y-95124013D01*
X166960022Y-95124011D01*
X166960022Y-95124010D01*
X166928362Y-95069174D01*
X166920462Y-95055491D01*
X166864513Y-94999542D01*
X166850158Y-94991254D01*
X166795992Y-94959981D01*
X166719566Y-94939502D01*
X166719564Y-94939502D01*
X166640440Y-94939502D01*
X166640438Y-94939502D01*
X166564012Y-94959981D01*
X166564010Y-94959981D01*
X166495490Y-94999542D01*
X166495490Y-94999543D01*
X166439543Y-95055490D01*
X166439542Y-95055490D01*
X166399981Y-95124010D01*
X166399981Y-95124012D01*
X166379502Y-95200438D01*
X163830404Y-95200438D01*
X163828583Y-95193642D01*
X163789022Y-95125122D01*
X163733074Y-95069174D01*
X163664553Y-95029613D01*
X163588127Y-95009134D01*
X163588125Y-95009134D01*
X163509001Y-95009134D01*
X163508999Y-95009134D01*
X163432573Y-95029613D01*
X163432571Y-95029613D01*
X163364051Y-95069174D01*
X163364051Y-95069175D01*
X163308104Y-95125122D01*
X163308103Y-95125122D01*
X163268542Y-95193642D01*
X163268542Y-95193644D01*
X163248063Y-95270070D01*
X157204103Y-95270070D01*
X157274822Y-95164231D01*
X157346473Y-94991251D01*
X157383000Y-94807616D01*
X157383000Y-94660436D01*
X168899500Y-94660436D01*
X168899500Y-94739563D01*
X168919979Y-94815989D01*
X168919979Y-94815991D01*
X168950368Y-94868625D01*
X168959540Y-94884511D01*
X169015489Y-94940460D01*
X169084011Y-94980021D01*
X169119478Y-94989524D01*
X169160436Y-95000500D01*
X169160438Y-95000500D01*
X169239564Y-95000500D01*
X169266230Y-94993354D01*
X169315989Y-94980021D01*
X169384511Y-94940460D01*
X169440460Y-94884511D01*
X169480021Y-94815989D01*
X169500500Y-94739562D01*
X169500500Y-94660438D01*
X169500500Y-94660436D01*
X169489768Y-94620387D01*
X169489767Y-94620384D01*
X175482000Y-94620384D01*
X175482000Y-94807616D01*
X175498926Y-94892709D01*
X175518526Y-94991248D01*
X175518529Y-94991258D01*
X175590175Y-95164225D01*
X175590176Y-95164227D01*
X175590178Y-95164231D01*
X175660897Y-95270069D01*
X175691244Y-95315488D01*
X175694198Y-95319908D01*
X175826592Y-95452302D01*
X175982269Y-95556322D01*
X175982274Y-95556324D01*
X176155241Y-95627970D01*
X176155243Y-95627970D01*
X176155249Y-95627973D01*
X176338884Y-95664500D01*
X176338887Y-95664500D01*
X176526113Y-95664500D01*
X176526116Y-95664500D01*
X176709751Y-95627973D01*
X176882731Y-95556322D01*
X177038408Y-95452302D01*
X177170802Y-95319908D01*
X177274822Y-95164231D01*
X177346473Y-94991251D01*
X177383000Y-94807616D01*
X177383000Y-94620384D01*
X177346473Y-94436749D01*
X177343038Y-94428457D01*
X177274824Y-94263774D01*
X177274822Y-94263769D01*
X177170802Y-94108092D01*
X177038408Y-93975698D01*
X177034304Y-93972956D01*
X176950572Y-93917008D01*
X176882731Y-93871678D01*
X176882727Y-93871676D01*
X176882725Y-93871675D01*
X176709758Y-93800029D01*
X176709748Y-93800026D01*
X176635694Y-93785296D01*
X176526116Y-93763500D01*
X176338884Y-93763500D01*
X176260759Y-93779040D01*
X176155251Y-93800026D01*
X176155241Y-93800029D01*
X175982274Y-93871675D01*
X175982270Y-93871677D01*
X175982269Y-93871678D01*
X175942695Y-93898120D01*
X175826592Y-93975697D01*
X175694197Y-94108092D01*
X175590175Y-94263774D01*
X175518529Y-94436741D01*
X175518526Y-94436751D01*
X175502717Y-94516233D01*
X175482000Y-94620384D01*
X169489767Y-94620384D01*
X169480021Y-94584011D01*
X169480020Y-94584009D01*
X169480020Y-94584008D01*
X169440891Y-94516236D01*
X169440460Y-94515489D01*
X169384511Y-94459540D01*
X169367121Y-94449500D01*
X169315990Y-94419979D01*
X169239564Y-94399500D01*
X169239562Y-94399500D01*
X169160438Y-94399500D01*
X169160436Y-94399500D01*
X169084010Y-94419979D01*
X169084008Y-94419979D01*
X169015488Y-94459540D01*
X169015488Y-94459541D01*
X168959541Y-94515488D01*
X168959540Y-94515488D01*
X168919979Y-94584008D01*
X168919979Y-94584010D01*
X168899500Y-94660436D01*
X157383000Y-94660436D01*
X157383000Y-94620384D01*
X157346473Y-94436749D01*
X157343038Y-94428457D01*
X157274824Y-94263774D01*
X157274821Y-94263768D01*
X157259319Y-94240567D01*
X157259316Y-94240563D01*
X157250628Y-94227561D01*
X157243271Y-94216550D01*
X165742449Y-94216550D01*
X165742449Y-94295677D01*
X165762928Y-94372103D01*
X165762928Y-94372105D01*
X165789983Y-94418964D01*
X165802489Y-94440625D01*
X165858438Y-94496574D01*
X165880896Y-94509540D01*
X165924912Y-94534953D01*
X165926960Y-94536135D01*
X165962427Y-94545638D01*
X166003385Y-94556614D01*
X166003387Y-94556614D01*
X166082513Y-94556614D01*
X166109179Y-94549468D01*
X166158938Y-94536135D01*
X166160986Y-94534953D01*
X166194696Y-94515490D01*
X166227460Y-94496574D01*
X166283409Y-94440625D01*
X166322970Y-94372103D01*
X166340337Y-94307290D01*
X166343449Y-94295677D01*
X166343449Y-94260436D01*
X170299500Y-94260436D01*
X170299500Y-94339563D01*
X170319979Y-94415989D01*
X170319979Y-94415991D01*
X170356361Y-94479005D01*
X170359540Y-94484511D01*
X170415489Y-94540460D01*
X170484011Y-94580021D01*
X170519478Y-94589524D01*
X170560436Y-94600500D01*
X170560438Y-94600500D01*
X170639564Y-94600500D01*
X170701102Y-94584010D01*
X170715989Y-94580021D01*
X170784511Y-94540460D01*
X170840460Y-94484511D01*
X170880021Y-94415989D01*
X170897190Y-94351914D01*
X170900500Y-94339563D01*
X170900500Y-94260436D01*
X170891690Y-94227560D01*
X170880021Y-94184011D01*
X170880020Y-94184009D01*
X170880020Y-94184008D01*
X170843163Y-94120171D01*
X170840460Y-94115489D01*
X170784511Y-94059540D01*
X170715990Y-94019979D01*
X170639564Y-93999500D01*
X170639562Y-93999500D01*
X170560438Y-93999500D01*
X170560436Y-93999500D01*
X170484010Y-94019979D01*
X170484008Y-94019979D01*
X170415488Y-94059540D01*
X170359541Y-94115488D01*
X170359540Y-94115488D01*
X170319979Y-94184008D01*
X170319979Y-94184010D01*
X170299500Y-94260436D01*
X166343449Y-94260436D01*
X166343449Y-94216550D01*
X166334729Y-94184008D01*
X166322970Y-94140125D01*
X166322969Y-94140123D01*
X166322969Y-94140122D01*
X166297888Y-94096682D01*
X166283409Y-94071603D01*
X166242032Y-94030226D01*
X166227680Y-93995578D01*
X166242032Y-93960930D01*
X166285954Y-93917008D01*
X166285955Y-93917007D01*
X166325516Y-93848485D01*
X166341666Y-93788209D01*
X166345995Y-93772059D01*
X166345995Y-93692932D01*
X166327865Y-93625275D01*
X166325516Y-93616507D01*
X166325515Y-93616505D01*
X166325515Y-93616504D01*
X166300434Y-93573064D01*
X166285955Y-93547985D01*
X166230006Y-93492036D01*
X166209959Y-93480462D01*
X166161485Y-93452475D01*
X166085059Y-93431996D01*
X166085057Y-93431996D01*
X166005933Y-93431996D01*
X166005931Y-93431996D01*
X165929505Y-93452475D01*
X165929503Y-93452475D01*
X165860983Y-93492036D01*
X165860983Y-93492037D01*
X165805036Y-93547984D01*
X165805035Y-93547984D01*
X165765474Y-93616504D01*
X165765474Y-93616506D01*
X165744995Y-93692932D01*
X165744995Y-93772059D01*
X165765474Y-93848485D01*
X165765474Y-93848487D01*
X165805035Y-93917007D01*
X165846412Y-93958384D01*
X165860764Y-93993032D01*
X165846412Y-94027680D01*
X165802490Y-94071602D01*
X165802489Y-94071602D01*
X165762928Y-94140122D01*
X165762928Y-94140124D01*
X165742449Y-94216550D01*
X157243271Y-94216550D01*
X157170802Y-94108092D01*
X157038408Y-93975698D01*
X157034304Y-93972956D01*
X156950572Y-93917008D01*
X156882731Y-93871678D01*
X156882727Y-93871676D01*
X156882725Y-93871675D01*
X156709758Y-93800029D01*
X156709748Y-93800026D01*
X156635694Y-93785296D01*
X156526116Y-93763500D01*
X156338884Y-93763500D01*
X156260759Y-93779040D01*
X156155251Y-93800026D01*
X156155241Y-93800029D01*
X155982274Y-93871675D01*
X155982270Y-93871677D01*
X155982269Y-93871678D01*
X155942695Y-93898120D01*
X155826592Y-93975697D01*
X155694197Y-94108092D01*
X155590175Y-94263774D01*
X155518529Y-94436741D01*
X155518526Y-94436751D01*
X155502717Y-94516233D01*
X155482000Y-94620384D01*
X125289768Y-94620384D01*
X125285236Y-94603474D01*
X125280021Y-94584011D01*
X125280020Y-94584009D01*
X125280020Y-94584008D01*
X125240891Y-94516236D01*
X125240460Y-94515489D01*
X125209617Y-94484646D01*
X125195265Y-94449998D01*
X125209616Y-94415351D01*
X125240460Y-94384508D01*
X125280021Y-94315986D01*
X125300500Y-94239559D01*
X125300500Y-94160435D01*
X125300500Y-94160433D01*
X125287659Y-94112512D01*
X125280021Y-94084008D01*
X125280020Y-94084006D01*
X125280020Y-94084005D01*
X125240459Y-94015485D01*
X125184511Y-93959537D01*
X125115990Y-93919976D01*
X125104507Y-93916899D01*
X125074755Y-93894067D01*
X125069861Y-93856885D01*
X125092693Y-93827133D01*
X125104502Y-93822241D01*
X125118085Y-93818602D01*
X125186607Y-93779041D01*
X125242556Y-93723092D01*
X125282117Y-93654570D01*
X125302596Y-93578143D01*
X125302596Y-93499019D01*
X125302596Y-93499017D01*
X125284832Y-93432725D01*
X125282117Y-93422592D01*
X125282116Y-93422590D01*
X125282116Y-93422589D01*
X125257035Y-93379149D01*
X125242556Y-93354070D01*
X125198521Y-93310035D01*
X125189480Y-93288208D01*
X125184170Y-93275388D01*
X125187289Y-93267859D01*
X125190364Y-93260436D01*
X132099500Y-93260436D01*
X132099500Y-93339563D01*
X132119979Y-93415989D01*
X132119979Y-93415991D01*
X132151720Y-93470966D01*
X132159540Y-93484511D01*
X132215489Y-93540460D01*
X132284011Y-93580021D01*
X132319478Y-93589524D01*
X132360436Y-93600500D01*
X132360438Y-93600500D01*
X132439564Y-93600500D01*
X132466230Y-93593354D01*
X132515989Y-93580021D01*
X132584511Y-93540460D01*
X132640460Y-93484511D01*
X132680021Y-93415989D01*
X132700500Y-93339562D01*
X132700500Y-93260438D01*
X132700500Y-93260436D01*
X132684439Y-93200500D01*
X132680021Y-93184011D01*
X132680020Y-93184009D01*
X132680020Y-93184008D01*
X132640459Y-93115488D01*
X132584511Y-93059540D01*
X132515990Y-93019979D01*
X132439564Y-92999500D01*
X132439562Y-92999500D01*
X132360438Y-92999500D01*
X132360436Y-92999500D01*
X132284010Y-93019979D01*
X132284008Y-93019979D01*
X132215488Y-93059540D01*
X132215488Y-93059541D01*
X132159541Y-93115488D01*
X132159540Y-93115488D01*
X132119979Y-93184008D01*
X132119979Y-93184010D01*
X132099500Y-93260436D01*
X125190364Y-93260436D01*
X125194331Y-93250858D01*
X125198521Y-93240741D01*
X125215437Y-93223826D01*
X125254998Y-93155304D01*
X125273967Y-93084512D01*
X125275477Y-93078878D01*
X125275477Y-92999751D01*
X125264564Y-92959026D01*
X125254998Y-92923326D01*
X125218689Y-92860436D01*
X133399500Y-92860436D01*
X133399500Y-92939563D01*
X133419979Y-93015989D01*
X133419979Y-93015991D01*
X133456287Y-93078877D01*
X133459540Y-93084511D01*
X133515489Y-93140460D01*
X133584011Y-93180021D01*
X133619478Y-93189524D01*
X133660436Y-93200500D01*
X133660438Y-93200500D01*
X133739564Y-93200500D01*
X133739792Y-93200439D01*
X165099499Y-93200439D01*
X165099499Y-93279566D01*
X165119978Y-93355992D01*
X165119978Y-93355994D01*
X165154617Y-93415989D01*
X165159539Y-93424514D01*
X165215488Y-93480463D01*
X165284010Y-93520024D01*
X165319477Y-93529527D01*
X165360435Y-93540503D01*
X165360437Y-93540503D01*
X165439563Y-93540503D01*
X165466229Y-93533357D01*
X165515988Y-93520024D01*
X165584510Y-93480463D01*
X165640459Y-93424514D01*
X165680020Y-93355992D01*
X165700499Y-93279565D01*
X165700499Y-93243281D01*
X166982345Y-93243281D01*
X166982345Y-93322408D01*
X167002824Y-93398834D01*
X167002824Y-93398836D01*
X167027502Y-93441578D01*
X167042385Y-93467356D01*
X167098334Y-93523305D01*
X167166856Y-93562866D01*
X167202323Y-93572369D01*
X167243281Y-93583345D01*
X167243283Y-93583345D01*
X167322409Y-93583345D01*
X167349075Y-93576199D01*
X167398834Y-93562866D01*
X167467356Y-93523305D01*
X167523305Y-93467356D01*
X167527300Y-93460436D01*
X169299500Y-93460436D01*
X169299500Y-93539563D01*
X169319979Y-93615989D01*
X169319979Y-93615991D01*
X169352238Y-93671864D01*
X169359540Y-93684511D01*
X169415489Y-93740460D01*
X169420746Y-93743495D01*
X169482313Y-93779041D01*
X169484011Y-93780021D01*
X169519478Y-93789524D01*
X169560436Y-93800500D01*
X169560438Y-93800500D01*
X169639564Y-93800500D01*
X169666230Y-93793354D01*
X169715989Y-93780021D01*
X169717687Y-93779041D01*
X169744604Y-93763500D01*
X169784511Y-93740460D01*
X169840460Y-93684511D01*
X169880021Y-93615989D01*
X169900248Y-93540503D01*
X169900500Y-93539563D01*
X169900500Y-93460436D01*
X169888590Y-93415991D01*
X169880021Y-93384011D01*
X169880020Y-93384009D01*
X169880020Y-93384008D01*
X169852968Y-93337154D01*
X169840460Y-93315489D01*
X169784511Y-93259540D01*
X169756353Y-93243283D01*
X169715990Y-93219979D01*
X169639564Y-93199500D01*
X169639562Y-93199500D01*
X169560438Y-93199500D01*
X169560436Y-93199500D01*
X169484010Y-93219979D01*
X169484008Y-93219979D01*
X169415488Y-93259540D01*
X169415488Y-93259541D01*
X169359541Y-93315488D01*
X169359540Y-93315488D01*
X169319979Y-93384008D01*
X169319979Y-93384010D01*
X169299500Y-93460436D01*
X167527300Y-93460436D01*
X167549150Y-93422592D01*
X167562865Y-93398836D01*
X167562865Y-93398835D01*
X167562866Y-93398834D01*
X167583345Y-93322407D01*
X167583345Y-93243283D01*
X167583345Y-93243281D01*
X167571609Y-93199484D01*
X167562866Y-93166856D01*
X167562865Y-93166854D01*
X167562865Y-93166853D01*
X167526562Y-93103976D01*
X167523305Y-93098334D01*
X167467356Y-93042385D01*
X167461160Y-93038807D01*
X167438331Y-93009055D01*
X167443227Y-92971873D01*
X167461158Y-92953942D01*
X167484511Y-92940460D01*
X167540460Y-92884511D01*
X167580021Y-92815989D01*
X167600500Y-92739562D01*
X167600500Y-92660438D01*
X167600500Y-92660436D01*
X167584171Y-92599500D01*
X167580021Y-92584011D01*
X167580020Y-92584009D01*
X167580020Y-92584008D01*
X167553367Y-92537844D01*
X167540460Y-92515489D01*
X167484511Y-92459540D01*
X167415990Y-92419979D01*
X167339564Y-92399500D01*
X167339562Y-92399500D01*
X167260438Y-92399500D01*
X167260436Y-92399500D01*
X167184010Y-92419979D01*
X167184008Y-92419979D01*
X167115488Y-92459540D01*
X167115488Y-92459541D01*
X167059541Y-92515488D01*
X167059540Y-92515488D01*
X167019979Y-92584008D01*
X167019979Y-92584010D01*
X166999500Y-92660436D01*
X166999500Y-92739563D01*
X167019979Y-92815989D01*
X167019979Y-92815991D01*
X167056878Y-92879900D01*
X167059540Y-92884511D01*
X167115489Y-92940460D01*
X167121683Y-92944036D01*
X167144512Y-92973790D01*
X167139615Y-93010972D01*
X167121682Y-93028905D01*
X167098331Y-93042387D01*
X167042386Y-93098333D01*
X167042385Y-93098333D01*
X167002824Y-93166853D01*
X167002824Y-93166855D01*
X166982345Y-93243281D01*
X165700499Y-93243281D01*
X165700499Y-93200441D01*
X165700499Y-93200439D01*
X165688404Y-93155304D01*
X165680020Y-93124014D01*
X165680019Y-93124012D01*
X165680019Y-93124011D01*
X165653960Y-93078877D01*
X165640459Y-93055492D01*
X165584510Y-92999543D01*
X165550697Y-92980021D01*
X165515989Y-92959982D01*
X165439563Y-92939503D01*
X165439561Y-92939503D01*
X165360437Y-92939503D01*
X165360435Y-92939503D01*
X165284009Y-92959982D01*
X165284007Y-92959982D01*
X165215487Y-92999543D01*
X165215487Y-92999544D01*
X165159540Y-93055491D01*
X165159539Y-93055491D01*
X165119978Y-93124011D01*
X165119978Y-93124013D01*
X165099499Y-93200439D01*
X133739792Y-93200439D01*
X133766230Y-93193354D01*
X133815989Y-93180021D01*
X133884511Y-93140460D01*
X133940460Y-93084511D01*
X133980021Y-93015989D01*
X133999301Y-92944036D01*
X134000500Y-92939563D01*
X134000500Y-92860436D01*
X133991843Y-92828134D01*
X133980021Y-92784011D01*
X133980020Y-92784009D01*
X133980020Y-92784008D01*
X133948190Y-92728878D01*
X133940460Y-92715489D01*
X133884511Y-92659540D01*
X133870147Y-92651247D01*
X133815990Y-92619979D01*
X133739564Y-92599500D01*
X133739562Y-92599500D01*
X133660438Y-92599500D01*
X133660436Y-92599500D01*
X133584010Y-92619979D01*
X133584008Y-92619979D01*
X133515488Y-92659540D01*
X133515488Y-92659541D01*
X133459541Y-92715488D01*
X133459540Y-92715488D01*
X133419979Y-92784008D01*
X133419979Y-92784010D01*
X133399500Y-92860436D01*
X125218689Y-92860436D01*
X125215437Y-92854804D01*
X125208450Y-92847817D01*
X125205724Y-92843694D01*
X125203023Y-92829769D01*
X125197597Y-92816668D01*
X125199563Y-92811921D01*
X125198585Y-92806877D01*
X125206521Y-92795121D01*
X125211949Y-92782020D01*
X125267433Y-92726536D01*
X125267434Y-92726535D01*
X125306113Y-92659541D01*
X125306994Y-92658015D01*
X125306994Y-92658014D01*
X125306995Y-92658013D01*
X125326824Y-92584011D01*
X125327474Y-92581587D01*
X125327474Y-92502460D01*
X125313110Y-92448856D01*
X125306995Y-92426035D01*
X125306994Y-92426033D01*
X125306994Y-92426032D01*
X125276846Y-92373815D01*
X125267434Y-92357513D01*
X125232424Y-92322503D01*
X125225310Y-92305328D01*
X125218074Y-92288183D01*
X125218141Y-92288018D01*
X125218073Y-92287854D01*
X125229323Y-92260436D01*
X165499500Y-92260436D01*
X165499500Y-92339563D01*
X165519979Y-92415989D01*
X165519979Y-92415991D01*
X165559540Y-92484511D01*
X165615489Y-92540460D01*
X165684011Y-92580021D01*
X165719478Y-92589524D01*
X165760436Y-92600500D01*
X165760438Y-92600500D01*
X165839564Y-92600500D01*
X165866230Y-92593354D01*
X165915989Y-92580021D01*
X165984511Y-92540460D01*
X166040460Y-92484511D01*
X166080021Y-92415989D01*
X166100500Y-92339562D01*
X166100500Y-92260438D01*
X166100500Y-92260436D01*
X166399500Y-92260436D01*
X166399500Y-92339563D01*
X166419979Y-92415989D01*
X166419979Y-92415991D01*
X166459540Y-92484511D01*
X166515489Y-92540460D01*
X166584011Y-92580021D01*
X166619478Y-92589524D01*
X166660436Y-92600500D01*
X166660438Y-92600500D01*
X166739564Y-92600500D01*
X166766230Y-92593354D01*
X166815989Y-92580021D01*
X166884511Y-92540460D01*
X166940460Y-92484511D01*
X166980021Y-92415989D01*
X167000500Y-92339562D01*
X167000500Y-92260438D01*
X167000500Y-92260435D01*
X166991737Y-92227732D01*
X166989199Y-92218260D01*
X167739650Y-92218260D01*
X167739650Y-92297387D01*
X167760129Y-92373813D01*
X167760129Y-92373815D01*
X167790279Y-92426035D01*
X167799690Y-92442335D01*
X167855639Y-92498284D01*
X167924161Y-92537845D01*
X167959628Y-92547348D01*
X168000586Y-92558324D01*
X168000588Y-92558324D01*
X168079714Y-92558324D01*
X168130663Y-92544671D01*
X168156139Y-92537845D01*
X168178512Y-92524927D01*
X168215692Y-92520032D01*
X168245446Y-92542862D01*
X168275720Y-92595298D01*
X168331669Y-92651247D01*
X168400191Y-92690808D01*
X168435658Y-92700311D01*
X168476616Y-92711287D01*
X168476618Y-92711287D01*
X168555744Y-92711287D01*
X168582410Y-92704141D01*
X168632169Y-92690808D01*
X168700691Y-92651247D01*
X168756640Y-92595298D01*
X168796201Y-92526776D01*
X168816680Y-92450349D01*
X168816680Y-92371225D01*
X168816680Y-92371223D01*
X168806064Y-92331608D01*
X168810958Y-92294426D01*
X168840711Y-92271595D01*
X168877893Y-92276489D01*
X168884011Y-92280021D01*
X168928134Y-92291843D01*
X168960436Y-92300500D01*
X168960438Y-92300500D01*
X169039564Y-92300500D01*
X169066230Y-92293354D01*
X169115989Y-92280021D01*
X169184511Y-92240460D01*
X169240460Y-92184511D01*
X169280021Y-92115989D01*
X169300500Y-92039562D01*
X169300500Y-91960438D01*
X169300500Y-91960436D01*
X169290779Y-91924158D01*
X169280021Y-91884011D01*
X169280020Y-91884009D01*
X169280020Y-91884008D01*
X169240459Y-91815488D01*
X169184511Y-91759540D01*
X169115990Y-91719979D01*
X169039564Y-91699500D01*
X169039562Y-91699500D01*
X168960438Y-91699500D01*
X168960436Y-91699500D01*
X168884010Y-91719979D01*
X168884008Y-91719979D01*
X168815488Y-91759540D01*
X168815488Y-91759541D01*
X168759541Y-91815488D01*
X168759540Y-91815488D01*
X168719979Y-91884008D01*
X168719979Y-91884010D01*
X168699500Y-91960436D01*
X168699500Y-92039563D01*
X168710115Y-92079178D01*
X168705221Y-92116361D01*
X168675468Y-92139191D01*
X168638287Y-92134298D01*
X168632168Y-92130765D01*
X168555744Y-92110287D01*
X168555742Y-92110287D01*
X168476618Y-92110287D01*
X168476616Y-92110287D01*
X168400190Y-92130766D01*
X168377817Y-92143683D01*
X168340635Y-92148577D01*
X168310883Y-92125747D01*
X168285426Y-92081655D01*
X168280610Y-92073313D01*
X168224661Y-92017364D01*
X168198968Y-92002530D01*
X168156140Y-91977803D01*
X168079714Y-91957324D01*
X168079712Y-91957324D01*
X168000588Y-91957324D01*
X168000586Y-91957324D01*
X167924160Y-91977803D01*
X167924158Y-91977803D01*
X167855638Y-92017364D01*
X167855638Y-92017365D01*
X167799691Y-92073312D01*
X167799690Y-92073312D01*
X167760129Y-92141832D01*
X167760129Y-92141834D01*
X167739650Y-92218260D01*
X166989199Y-92218260D01*
X166985856Y-92205788D01*
X166980021Y-92184011D01*
X166980020Y-92184009D01*
X166980020Y-92184008D01*
X166949280Y-92130766D01*
X166940460Y-92115489D01*
X166884511Y-92059540D01*
X166849908Y-92039562D01*
X166815990Y-92019979D01*
X166739564Y-91999500D01*
X166739562Y-91999500D01*
X166660438Y-91999500D01*
X166660436Y-91999500D01*
X166584010Y-92019979D01*
X166584008Y-92019979D01*
X166515488Y-92059540D01*
X166515488Y-92059541D01*
X166459541Y-92115488D01*
X166459540Y-92115488D01*
X166419979Y-92184008D01*
X166419979Y-92184010D01*
X166399500Y-92260436D01*
X166100500Y-92260436D01*
X166089198Y-92218260D01*
X166080021Y-92184011D01*
X166080020Y-92184009D01*
X166080020Y-92184008D01*
X166049280Y-92130766D01*
X166040460Y-92115489D01*
X165984511Y-92059540D01*
X165949908Y-92039562D01*
X165915990Y-92019979D01*
X165839564Y-91999500D01*
X165839562Y-91999500D01*
X165760438Y-91999500D01*
X165760436Y-91999500D01*
X165684010Y-92019979D01*
X165684008Y-92019979D01*
X165615488Y-92059540D01*
X165615488Y-92059541D01*
X165559541Y-92115488D01*
X165559540Y-92115488D01*
X165519979Y-92184008D01*
X165519979Y-92184010D01*
X165499500Y-92260436D01*
X125229323Y-92260436D01*
X125232194Y-92253439D01*
X125259030Y-92226603D01*
X125292691Y-92168299D01*
X125298590Y-92158083D01*
X125298590Y-92158082D01*
X125298591Y-92158081D01*
X125319070Y-92081654D01*
X125319070Y-92002530D01*
X125319070Y-92002528D01*
X125306957Y-91957324D01*
X125298591Y-91926103D01*
X125298590Y-91926101D01*
X125298590Y-91926100D01*
X125270012Y-91876603D01*
X125259030Y-91857581D01*
X125230701Y-91829252D01*
X125216349Y-91794604D01*
X125230701Y-91759956D01*
X125230701Y-91759955D01*
X125232656Y-91757999D01*
X125232661Y-91757997D01*
X125288610Y-91702048D01*
X125328171Y-91633526D01*
X125348650Y-91557099D01*
X125348650Y-91477975D01*
X125348650Y-91477973D01*
X125338597Y-91440459D01*
X125328171Y-91401548D01*
X125328170Y-91401546D01*
X125328170Y-91401545D01*
X125288609Y-91333025D01*
X125232661Y-91277077D01*
X125164140Y-91237516D01*
X125087714Y-91217037D01*
X125087712Y-91217037D01*
X125008588Y-91217037D01*
X125008586Y-91217037D01*
X124932160Y-91237516D01*
X124932158Y-91237516D01*
X124863638Y-91277077D01*
X124863638Y-91277078D01*
X124807691Y-91333025D01*
X124807690Y-91333025D01*
X124768129Y-91401545D01*
X124768129Y-91401547D01*
X124747650Y-91477973D01*
X124747650Y-91557100D01*
X124768129Y-91633526D01*
X124768129Y-91633528D01*
X124807690Y-91702048D01*
X124836018Y-91730376D01*
X124850370Y-91765024D01*
X124836019Y-91799672D01*
X124778109Y-91857582D01*
X124738549Y-91926100D01*
X124738549Y-91926102D01*
X124718070Y-92002528D01*
X124718070Y-92081655D01*
X124738549Y-92158081D01*
X124738549Y-92158083D01*
X124778110Y-92226603D01*
X124813118Y-92261611D01*
X124827470Y-92296259D01*
X124813119Y-92330906D01*
X124786515Y-92357511D01*
X124786514Y-92357512D01*
X124746953Y-92426032D01*
X124746953Y-92426034D01*
X124726474Y-92502460D01*
X124726474Y-92581587D01*
X124746953Y-92658013D01*
X124746953Y-92658015D01*
X124786514Y-92726535D01*
X124790002Y-92730023D01*
X124804354Y-92764671D01*
X124790002Y-92799319D01*
X124734518Y-92854803D01*
X124734517Y-92854803D01*
X124694956Y-92923323D01*
X124694956Y-92923325D01*
X124674477Y-92999751D01*
X90109052Y-92999751D01*
X90119964Y-92959026D01*
X90119964Y-92879902D01*
X90119964Y-92879900D01*
X90110262Y-92843694D01*
X90099485Y-92803475D01*
X90099484Y-92803473D01*
X90099484Y-92803472D01*
X90074403Y-92760032D01*
X90059924Y-92734953D01*
X90003975Y-92679004D01*
X89971818Y-92660438D01*
X89953308Y-92649751D01*
X122499500Y-92649751D01*
X122499500Y-92728878D01*
X122519979Y-92805304D01*
X122519979Y-92805306D01*
X122551809Y-92860436D01*
X122559540Y-92873826D01*
X122615489Y-92929775D01*
X122684011Y-92969336D01*
X122719478Y-92978839D01*
X122760436Y-92989815D01*
X122760438Y-92989815D01*
X122839564Y-92989815D01*
X122890513Y-92976162D01*
X122915989Y-92969336D01*
X122984511Y-92929775D01*
X123040460Y-92873826D01*
X123080021Y-92805304D01*
X123100500Y-92728877D01*
X123100500Y-92649753D01*
X123100500Y-92649751D01*
X123085909Y-92595300D01*
X123080021Y-92573326D01*
X123080020Y-92573324D01*
X123080020Y-92573323D01*
X123053145Y-92526776D01*
X123040460Y-92504804D01*
X122984511Y-92448855D01*
X122973218Y-92442335D01*
X122915990Y-92409294D01*
X122839564Y-92388815D01*
X122839562Y-92388815D01*
X122760438Y-92388815D01*
X122760436Y-92388815D01*
X122684010Y-92409294D01*
X122684008Y-92409294D01*
X122615488Y-92448855D01*
X122615488Y-92448856D01*
X122559541Y-92504803D01*
X122559540Y-92504803D01*
X122519979Y-92573323D01*
X122519979Y-92573325D01*
X122499500Y-92649751D01*
X89953308Y-92649751D01*
X89935454Y-92639443D01*
X89859028Y-92618964D01*
X89859026Y-92618964D01*
X89779902Y-92618964D01*
X89779900Y-92618964D01*
X89703474Y-92639443D01*
X89703472Y-92639443D01*
X89634952Y-92679004D01*
X89634952Y-92679005D01*
X89579005Y-92734952D01*
X89579004Y-92734952D01*
X89539443Y-92803472D01*
X89539443Y-92803474D01*
X89518964Y-92879900D01*
X68025500Y-92879900D01*
X68025500Y-91845032D01*
X90553832Y-91845032D01*
X90553832Y-91924159D01*
X90574311Y-92000585D01*
X90574311Y-92000587D01*
X90608349Y-92059541D01*
X90613872Y-92069107D01*
X90669821Y-92125056D01*
X90738343Y-92164617D01*
X90759653Y-92170327D01*
X90814768Y-92185096D01*
X90814770Y-92185096D01*
X90893896Y-92185096D01*
X90920562Y-92177950D01*
X90970321Y-92164617D01*
X91038843Y-92125056D01*
X91094792Y-92069107D01*
X91134353Y-92000585D01*
X91154832Y-91924158D01*
X91154832Y-91845034D01*
X91154832Y-91845032D01*
X91139644Y-91788353D01*
X91134353Y-91768607D01*
X91134352Y-91768605D01*
X91134352Y-91768604D01*
X91094791Y-91700084D01*
X91047235Y-91652528D01*
X122099500Y-91652528D01*
X122099500Y-91731655D01*
X122119979Y-91808081D01*
X122119979Y-91808083D01*
X122148558Y-91857582D01*
X122159540Y-91876603D01*
X122215489Y-91932552D01*
X122284011Y-91972113D01*
X122319478Y-91981616D01*
X122360436Y-91992592D01*
X122360438Y-91992592D01*
X122439564Y-91992592D01*
X122466230Y-91985446D01*
X122515989Y-91972113D01*
X122584511Y-91932552D01*
X122640460Y-91876603D01*
X122680021Y-91808081D01*
X122700500Y-91731654D01*
X122700500Y-91652530D01*
X122700500Y-91652528D01*
X122687650Y-91604575D01*
X122680021Y-91576103D01*
X122680020Y-91576101D01*
X122680020Y-91576100D01*
X122640459Y-91507580D01*
X122584511Y-91451632D01*
X122515990Y-91412071D01*
X122439564Y-91391592D01*
X122439562Y-91391592D01*
X122360438Y-91391592D01*
X122360436Y-91391592D01*
X122284010Y-91412071D01*
X122284008Y-91412071D01*
X122215488Y-91451632D01*
X122215488Y-91451633D01*
X122159541Y-91507580D01*
X122159540Y-91507580D01*
X122119979Y-91576100D01*
X122119979Y-91576102D01*
X122099500Y-91652528D01*
X91047235Y-91652528D01*
X91038843Y-91644136D01*
X90970322Y-91604575D01*
X90893896Y-91584096D01*
X90893894Y-91584096D01*
X90814770Y-91584096D01*
X90814768Y-91584096D01*
X90738342Y-91604575D01*
X90738340Y-91604575D01*
X90669820Y-91644136D01*
X90669820Y-91644137D01*
X90613873Y-91700084D01*
X90613872Y-91700084D01*
X90574311Y-91768604D01*
X90574311Y-91768606D01*
X90553832Y-91845032D01*
X68025500Y-91845032D01*
X68025500Y-91200561D01*
X104615750Y-91200561D01*
X104615750Y-91279688D01*
X104636229Y-91356114D01*
X104636229Y-91356116D01*
X104675790Y-91424636D01*
X104731739Y-91480585D01*
X104800261Y-91520146D01*
X104835728Y-91529649D01*
X104876686Y-91540625D01*
X104876688Y-91540625D01*
X104955814Y-91540625D01*
X104982480Y-91533479D01*
X105032239Y-91520146D01*
X105100761Y-91480585D01*
X105156710Y-91424636D01*
X105196271Y-91356114D01*
X105215457Y-91284512D01*
X105216750Y-91279688D01*
X105216750Y-91200561D01*
X105208536Y-91169909D01*
X105208536Y-91169908D01*
X105205998Y-91160436D01*
X123299500Y-91160436D01*
X123299500Y-91239563D01*
X123319979Y-91315989D01*
X123319979Y-91315991D01*
X123334107Y-91340460D01*
X123359540Y-91384511D01*
X123415489Y-91440460D01*
X123484011Y-91480021D01*
X123519478Y-91489524D01*
X123560436Y-91500500D01*
X123560438Y-91500500D01*
X123639564Y-91500500D01*
X123666230Y-91493354D01*
X123715989Y-91480021D01*
X123784511Y-91440460D01*
X123840460Y-91384511D01*
X123880021Y-91315989D01*
X123900500Y-91239562D01*
X123900500Y-91160438D01*
X123900500Y-91160436D01*
X123880021Y-91084011D01*
X123878702Y-91081727D01*
X123878701Y-91081725D01*
X123866410Y-91060436D01*
X127199500Y-91060436D01*
X127199500Y-91139563D01*
X127219979Y-91215989D01*
X127219979Y-91215991D01*
X127256755Y-91279687D01*
X127259540Y-91284511D01*
X127315489Y-91340460D01*
X127384011Y-91380021D01*
X127419478Y-91389524D01*
X127460436Y-91400500D01*
X127460438Y-91400500D01*
X127539564Y-91400500D01*
X127572806Y-91391592D01*
X127615989Y-91380021D01*
X127684511Y-91340460D01*
X127740460Y-91284511D01*
X127780021Y-91215989D01*
X127800500Y-91139562D01*
X127800500Y-91060438D01*
X127800500Y-91060436D01*
X127791843Y-91028134D01*
X127780021Y-90984011D01*
X127780020Y-90984009D01*
X127780020Y-90984008D01*
X127740459Y-90915488D01*
X127684511Y-90859540D01*
X127615990Y-90819979D01*
X127539564Y-90799500D01*
X127539562Y-90799500D01*
X127460438Y-90799500D01*
X127460436Y-90799500D01*
X127384010Y-90819979D01*
X127384008Y-90819979D01*
X127315488Y-90859540D01*
X127315488Y-90859541D01*
X127259541Y-90915488D01*
X127259540Y-90915488D01*
X127219979Y-90984008D01*
X127219979Y-90984010D01*
X127199500Y-91060436D01*
X123866410Y-91060436D01*
X123840459Y-91015488D01*
X123784511Y-90959540D01*
X123715990Y-90919979D01*
X123639564Y-90899500D01*
X123639562Y-90899500D01*
X123560438Y-90899500D01*
X123560436Y-90899500D01*
X123484010Y-90919979D01*
X123484008Y-90919979D01*
X123415488Y-90959540D01*
X123415488Y-90959541D01*
X123359541Y-91015488D01*
X123359540Y-91015488D01*
X123319979Y-91084008D01*
X123319979Y-91084010D01*
X123299500Y-91160436D01*
X105205998Y-91160436D01*
X105196271Y-91124137D01*
X105196270Y-91124133D01*
X105156709Y-91055613D01*
X105100761Y-90999665D01*
X105032240Y-90960104D01*
X104955814Y-90939625D01*
X104955812Y-90939625D01*
X104876688Y-90939625D01*
X104876686Y-90939625D01*
X104800260Y-90960104D01*
X104800258Y-90960104D01*
X104731738Y-90999665D01*
X104731738Y-90999666D01*
X104675791Y-91055613D01*
X104675790Y-91055613D01*
X104636229Y-91124133D01*
X104636229Y-91124135D01*
X104615750Y-91200561D01*
X68025500Y-91200561D01*
X68025500Y-90300561D01*
X104615750Y-90300561D01*
X104615750Y-90379688D01*
X104636229Y-90456114D01*
X104636229Y-90456116D01*
X104675790Y-90524636D01*
X104731739Y-90580585D01*
X104800261Y-90620146D01*
X104835728Y-90629649D01*
X104876686Y-90640625D01*
X104876688Y-90640625D01*
X104955814Y-90640625D01*
X104982480Y-90633479D01*
X105032239Y-90620146D01*
X105100761Y-90580585D01*
X105156710Y-90524636D01*
X105196271Y-90456114D01*
X105216750Y-90379687D01*
X105216750Y-90300563D01*
X105216750Y-90300561D01*
X105208093Y-90268259D01*
X105196271Y-90224136D01*
X105196270Y-90224134D01*
X105196270Y-90224133D01*
X105156709Y-90155613D01*
X105100761Y-90099665D01*
X105032240Y-90060104D01*
X104955814Y-90039625D01*
X104955812Y-90039625D01*
X104876688Y-90039625D01*
X104876686Y-90039625D01*
X104800260Y-90060104D01*
X104800258Y-90060104D01*
X104731738Y-90099665D01*
X104731738Y-90099666D01*
X104675791Y-90155613D01*
X104675790Y-90155613D01*
X104636229Y-90224133D01*
X104636229Y-90224135D01*
X104615750Y-90300561D01*
X68025500Y-90300561D01*
X68025500Y-89895028D01*
X86438592Y-89895028D01*
X86438592Y-89974155D01*
X86459071Y-90050581D01*
X86459071Y-90050583D01*
X86487410Y-90099666D01*
X86498632Y-90119103D01*
X86554581Y-90175052D01*
X86623103Y-90214613D01*
X86658570Y-90224116D01*
X86699528Y-90235092D01*
X86699530Y-90235092D01*
X86778656Y-90235092D01*
X86805322Y-90227946D01*
X86855081Y-90214613D01*
X86923603Y-90175052D01*
X86979552Y-90119103D01*
X87019113Y-90050581D01*
X87037920Y-89980393D01*
X87039592Y-89974155D01*
X87039592Y-89895028D01*
X87026803Y-89847302D01*
X87019113Y-89818603D01*
X87019112Y-89818601D01*
X87019112Y-89818600D01*
X86995444Y-89777607D01*
X86983152Y-89756317D01*
X126150627Y-89756317D01*
X126150627Y-89835444D01*
X126171106Y-89911870D01*
X126171106Y-89911872D01*
X126207066Y-89974155D01*
X126210667Y-89980392D01*
X126266616Y-90036341D01*
X126335138Y-90075902D01*
X126370605Y-90085405D01*
X126411563Y-90096381D01*
X126411565Y-90096381D01*
X126490691Y-90096381D01*
X126517357Y-90089235D01*
X126567116Y-90075902D01*
X126635638Y-90036341D01*
X126691587Y-89980392D01*
X126697593Y-89969987D01*
X126727342Y-89947157D01*
X126764524Y-89952049D01*
X126774676Y-89959838D01*
X126811891Y-89997053D01*
X126880413Y-90036614D01*
X126915880Y-90046117D01*
X126956838Y-90057093D01*
X126956840Y-90057093D01*
X127035966Y-90057093D01*
X127062632Y-90049947D01*
X127112391Y-90036614D01*
X127180913Y-89997053D01*
X127236862Y-89941104D01*
X127276423Y-89872582D01*
X127296902Y-89796155D01*
X127296902Y-89717031D01*
X127296902Y-89717028D01*
X127296901Y-89717027D01*
X127292666Y-89701219D01*
X127290128Y-89691747D01*
X127463182Y-89691747D01*
X127463182Y-89770874D01*
X127483661Y-89847300D01*
X127483661Y-89847302D01*
X127520940Y-89911870D01*
X127523222Y-89915822D01*
X127579171Y-89971771D01*
X127647693Y-90011332D01*
X127683160Y-90020835D01*
X127724118Y-90031811D01*
X127724120Y-90031811D01*
X127803246Y-90031811D01*
X127829912Y-90024665D01*
X127879671Y-90011332D01*
X127948193Y-89971771D01*
X128004142Y-89915822D01*
X128043703Y-89847300D01*
X128064182Y-89770873D01*
X128064182Y-89691749D01*
X128064182Y-89691747D01*
X128058330Y-89669909D01*
X128055792Y-89660436D01*
X132299500Y-89660436D01*
X132299500Y-89739563D01*
X132319979Y-89815989D01*
X132319979Y-89815991D01*
X132352653Y-89872582D01*
X132359540Y-89884511D01*
X132415489Y-89940460D01*
X132427089Y-89947157D01*
X132469721Y-89971771D01*
X132484011Y-89980021D01*
X132519478Y-89989524D01*
X132560436Y-90000500D01*
X132560438Y-90000500D01*
X132639564Y-90000500D01*
X132666230Y-89993354D01*
X132715989Y-89980021D01*
X132784511Y-89940460D01*
X132840460Y-89884511D01*
X132878512Y-89818603D01*
X132880020Y-89815991D01*
X132880020Y-89815990D01*
X132880021Y-89815989D01*
X132900500Y-89739562D01*
X132900500Y-89660438D01*
X132900500Y-89660436D01*
X132885730Y-89605318D01*
X132880021Y-89584011D01*
X132879400Y-89582936D01*
X133349500Y-89582936D01*
X133349500Y-89662063D01*
X133369979Y-89738489D01*
X133369979Y-89738491D01*
X133403272Y-89796155D01*
X133409540Y-89807011D01*
X133465489Y-89862960D01*
X133534011Y-89902521D01*
X133568901Y-89911870D01*
X133610436Y-89923000D01*
X133610438Y-89923000D01*
X133689564Y-89923000D01*
X133716350Y-89915822D01*
X133765989Y-89902521D01*
X133834511Y-89862960D01*
X133890460Y-89807011D01*
X133930021Y-89738489D01*
X133950500Y-89662062D01*
X133950500Y-89582938D01*
X133950500Y-89582936D01*
X133940816Y-89546799D01*
X133930021Y-89506511D01*
X133930020Y-89506509D01*
X133930020Y-89506508D01*
X133890459Y-89437988D01*
X133834511Y-89382040D01*
X133765990Y-89342479D01*
X133689564Y-89322000D01*
X133689562Y-89322000D01*
X133610438Y-89322000D01*
X133610436Y-89322000D01*
X133534010Y-89342479D01*
X133534008Y-89342479D01*
X133465488Y-89382040D01*
X133465488Y-89382041D01*
X133409541Y-89437988D01*
X133409540Y-89437988D01*
X133369979Y-89506508D01*
X133369979Y-89506510D01*
X133349500Y-89582936D01*
X132879400Y-89582936D01*
X132840832Y-89516134D01*
X132840460Y-89515489D01*
X132784511Y-89459540D01*
X132770222Y-89451290D01*
X132715990Y-89419979D01*
X132639564Y-89399500D01*
X132639562Y-89399500D01*
X132560438Y-89399500D01*
X132560436Y-89399500D01*
X132484010Y-89419979D01*
X132484008Y-89419979D01*
X132415488Y-89459540D01*
X132415488Y-89459541D01*
X132359541Y-89515488D01*
X132359540Y-89515488D01*
X132319979Y-89584008D01*
X132319979Y-89584010D01*
X132299500Y-89660436D01*
X128055792Y-89660436D01*
X128054220Y-89654571D01*
X128043703Y-89615322D01*
X128043702Y-89615320D01*
X128043702Y-89615319D01*
X128004141Y-89546799D01*
X127948193Y-89490851D01*
X127879672Y-89451290D01*
X127803246Y-89430811D01*
X127803244Y-89430811D01*
X127724120Y-89430811D01*
X127724118Y-89430811D01*
X127647692Y-89451290D01*
X127647690Y-89451290D01*
X127579170Y-89490851D01*
X127579170Y-89490852D01*
X127523223Y-89546799D01*
X127523222Y-89546799D01*
X127483661Y-89615319D01*
X127483661Y-89615321D01*
X127463182Y-89691747D01*
X127290128Y-89691747D01*
X127282173Y-89662062D01*
X127276423Y-89640604D01*
X127276422Y-89640602D01*
X127276422Y-89640601D01*
X127243749Y-89584011D01*
X127236862Y-89572082D01*
X127180913Y-89516133D01*
X127164247Y-89506511D01*
X127112392Y-89476572D01*
X127035966Y-89456093D01*
X127035964Y-89456093D01*
X126956840Y-89456093D01*
X126956838Y-89456093D01*
X126880412Y-89476572D01*
X126880410Y-89476572D01*
X126811890Y-89516133D01*
X126811890Y-89516134D01*
X126755943Y-89572081D01*
X126755942Y-89572081D01*
X126749932Y-89582490D01*
X126720177Y-89605318D01*
X126682995Y-89600419D01*
X126672851Y-89592634D01*
X126635638Y-89555421D01*
X126567117Y-89515860D01*
X126490691Y-89495381D01*
X126490689Y-89495381D01*
X126411565Y-89495381D01*
X126411563Y-89495381D01*
X126335137Y-89515860D01*
X126335135Y-89515860D01*
X126266615Y-89555421D01*
X126266615Y-89555422D01*
X126210668Y-89611369D01*
X126210667Y-89611369D01*
X126171106Y-89679889D01*
X126171106Y-89679891D01*
X126150627Y-89756317D01*
X86983152Y-89756317D01*
X86979551Y-89750080D01*
X86923603Y-89694132D01*
X86855082Y-89654571D01*
X86778656Y-89634092D01*
X86778654Y-89634092D01*
X86699530Y-89634092D01*
X86699528Y-89634092D01*
X86623102Y-89654571D01*
X86623100Y-89654571D01*
X86554580Y-89694132D01*
X86554580Y-89694133D01*
X86498633Y-89750080D01*
X86498632Y-89750080D01*
X86459071Y-89818600D01*
X86459071Y-89818602D01*
X86438592Y-89895028D01*
X68025500Y-89895028D01*
X68025500Y-88001286D01*
X68025567Y-87998722D01*
X68030864Y-87897648D01*
X69699500Y-87897648D01*
X69699500Y-88102351D01*
X69731522Y-88304531D01*
X69731523Y-88304534D01*
X69794779Y-88499217D01*
X69887714Y-88681612D01*
X69887716Y-88681615D01*
X70008035Y-88847220D01*
X70008039Y-88847225D01*
X70152775Y-88991961D01*
X70152779Y-88991964D01*
X70152781Y-88991966D01*
X70318390Y-89112287D01*
X70500781Y-89205220D01*
X70695466Y-89268477D01*
X70897648Y-89300500D01*
X70897649Y-89300500D01*
X71102351Y-89300500D01*
X71102352Y-89300500D01*
X71304534Y-89268477D01*
X71499219Y-89205220D01*
X71681610Y-89112287D01*
X71752977Y-89060436D01*
X81749500Y-89060436D01*
X81749500Y-89139563D01*
X81769979Y-89215989D01*
X81769979Y-89215991D01*
X81800282Y-89268476D01*
X81809540Y-89284511D01*
X81865489Y-89340460D01*
X81934011Y-89380021D01*
X81969478Y-89389524D01*
X82010436Y-89400500D01*
X82010438Y-89400500D01*
X82089564Y-89400500D01*
X82116230Y-89393354D01*
X82165989Y-89380021D01*
X82234511Y-89340460D01*
X82290460Y-89284511D01*
X82330021Y-89215989D01*
X82350500Y-89139562D01*
X82350500Y-89060438D01*
X82350500Y-89060436D01*
X167949500Y-89060436D01*
X167949500Y-89139563D01*
X167969979Y-89215989D01*
X167969979Y-89215991D01*
X168000282Y-89268476D01*
X168009540Y-89284511D01*
X168065489Y-89340460D01*
X168134011Y-89380021D01*
X168169478Y-89389524D01*
X168210436Y-89400500D01*
X168210438Y-89400500D01*
X168289564Y-89400500D01*
X168316230Y-89393354D01*
X168365989Y-89380021D01*
X168434511Y-89340460D01*
X168490460Y-89284511D01*
X168530021Y-89215989D01*
X168550500Y-89139562D01*
X168550500Y-89060438D01*
X168550500Y-89060436D01*
X168539017Y-89017584D01*
X168530021Y-88984011D01*
X168530020Y-88984009D01*
X168530020Y-88984008D01*
X168490459Y-88915488D01*
X168434511Y-88859540D01*
X168365990Y-88819979D01*
X168289564Y-88799500D01*
X168289562Y-88799500D01*
X168210438Y-88799500D01*
X168210436Y-88799500D01*
X168134010Y-88819979D01*
X168134008Y-88819979D01*
X168065488Y-88859540D01*
X168065488Y-88859541D01*
X168009541Y-88915488D01*
X168009540Y-88915488D01*
X167969979Y-88984008D01*
X167969979Y-88984010D01*
X167949500Y-89060436D01*
X82350500Y-89060436D01*
X82339017Y-89017584D01*
X82330021Y-88984011D01*
X82330020Y-88984009D01*
X82330020Y-88984008D01*
X82290459Y-88915488D01*
X82234511Y-88859540D01*
X82165990Y-88819979D01*
X82089564Y-88799500D01*
X82089562Y-88799500D01*
X82010438Y-88799500D01*
X82010436Y-88799500D01*
X81934010Y-88819979D01*
X81934008Y-88819979D01*
X81865488Y-88859540D01*
X81865488Y-88859541D01*
X81809541Y-88915488D01*
X81809540Y-88915488D01*
X81769979Y-88984008D01*
X81769979Y-88984010D01*
X81749500Y-89060436D01*
X71752977Y-89060436D01*
X71847219Y-88991966D01*
X71855177Y-88984008D01*
X71991961Y-88847225D01*
X71991962Y-88847222D01*
X71991966Y-88847219D01*
X72112287Y-88681610D01*
X72205220Y-88499219D01*
X72268477Y-88304534D01*
X72300500Y-88102352D01*
X72300500Y-88060436D01*
X83449500Y-88060436D01*
X83449500Y-88139563D01*
X83469979Y-88215989D01*
X83469979Y-88215991D01*
X83509540Y-88284511D01*
X83565489Y-88340460D01*
X83634011Y-88380021D01*
X83669478Y-88389524D01*
X83710436Y-88400500D01*
X83710438Y-88400500D01*
X83789564Y-88400500D01*
X83816230Y-88393354D01*
X83865989Y-88380021D01*
X83934511Y-88340460D01*
X83990460Y-88284511D01*
X84030021Y-88215989D01*
X84050500Y-88139562D01*
X84050500Y-88060438D01*
X84050500Y-88060436D01*
X84041843Y-88028134D01*
X84030021Y-87984011D01*
X84030020Y-87984009D01*
X84030020Y-87984008D01*
X83993195Y-87920227D01*
X83990460Y-87915489D01*
X83972619Y-87897648D01*
X181199500Y-87897648D01*
X181199500Y-88102351D01*
X181231522Y-88304531D01*
X181231523Y-88304534D01*
X181294779Y-88499217D01*
X181387714Y-88681612D01*
X181387716Y-88681615D01*
X181508035Y-88847220D01*
X181508039Y-88847225D01*
X181652775Y-88991961D01*
X181652779Y-88991964D01*
X181652781Y-88991966D01*
X181818390Y-89112287D01*
X182000781Y-89205220D01*
X182195466Y-89268477D01*
X182397648Y-89300500D01*
X182397649Y-89300500D01*
X182602351Y-89300500D01*
X182602352Y-89300500D01*
X182804534Y-89268477D01*
X182999219Y-89205220D01*
X183181610Y-89112287D01*
X183347219Y-88991966D01*
X183347222Y-88991962D01*
X183347225Y-88991961D01*
X183491961Y-88847225D01*
X183491962Y-88847222D01*
X183491966Y-88847219D01*
X183612287Y-88681610D01*
X183705220Y-88499219D01*
X183768477Y-88304534D01*
X183800500Y-88102352D01*
X183800500Y-87897648D01*
X183768477Y-87695466D01*
X183705220Y-87500781D01*
X183612287Y-87318390D01*
X183491966Y-87152781D01*
X183491964Y-87152779D01*
X183491961Y-87152775D01*
X183347225Y-87008039D01*
X183347220Y-87008035D01*
X183181615Y-86887716D01*
X183181612Y-86887714D01*
X182999217Y-86794779D01*
X182804534Y-86731523D01*
X182804531Y-86731522D01*
X182649220Y-86706923D01*
X182602352Y-86699500D01*
X182397648Y-86699500D01*
X182359599Y-86705526D01*
X182195468Y-86731522D01*
X182195465Y-86731523D01*
X182000782Y-86794779D01*
X181818387Y-86887714D01*
X181818384Y-86887716D01*
X181652779Y-87008035D01*
X181508035Y-87152779D01*
X181387716Y-87318384D01*
X181387714Y-87318387D01*
X181294779Y-87500782D01*
X181231523Y-87695465D01*
X181231522Y-87695468D01*
X181199500Y-87897648D01*
X83972619Y-87897648D01*
X83934511Y-87859540D01*
X83903161Y-87841440D01*
X83865990Y-87819979D01*
X83789564Y-87799500D01*
X83789562Y-87799500D01*
X83710438Y-87799500D01*
X83710436Y-87799500D01*
X83634010Y-87819979D01*
X83634008Y-87819979D01*
X83565488Y-87859540D01*
X83565488Y-87859541D01*
X83509541Y-87915488D01*
X83509540Y-87915488D01*
X83469979Y-87984008D01*
X83469979Y-87984010D01*
X83449500Y-88060436D01*
X72300500Y-88060436D01*
X72300500Y-87897648D01*
X72268477Y-87695466D01*
X72205220Y-87500781D01*
X72112287Y-87318390D01*
X71991966Y-87152781D01*
X71991964Y-87152779D01*
X71991961Y-87152775D01*
X71847225Y-87008039D01*
X71847220Y-87008035D01*
X71681615Y-86887716D01*
X71681612Y-86887714D01*
X71499217Y-86794779D01*
X71304534Y-86731523D01*
X71304531Y-86731522D01*
X71149220Y-86706923D01*
X71102352Y-86699500D01*
X70897648Y-86699500D01*
X70859599Y-86705526D01*
X70695468Y-86731522D01*
X70695465Y-86731523D01*
X70500782Y-86794779D01*
X70318387Y-86887714D01*
X70318384Y-86887716D01*
X70152779Y-87008035D01*
X70008035Y-87152779D01*
X69887716Y-87318384D01*
X69887714Y-87318387D01*
X69794779Y-87500782D01*
X69731523Y-87695465D01*
X69731522Y-87695468D01*
X69699500Y-87897648D01*
X68030864Y-87897648D01*
X68031099Y-87893159D01*
X68033810Y-87841440D01*
X68041661Y-87691634D01*
X68042194Y-87686556D01*
X68090100Y-87384091D01*
X68091166Y-87379080D01*
X68151803Y-87152781D01*
X68170420Y-87083300D01*
X68172000Y-87078439D01*
X68281742Y-86792550D01*
X68283817Y-86787888D01*
X68422848Y-86515026D01*
X68425399Y-86510607D01*
X68592190Y-86253771D01*
X68595182Y-86249652D01*
X68787911Y-86011652D01*
X68791324Y-86007862D01*
X69007862Y-85791324D01*
X69011652Y-85787911D01*
X69249652Y-85595182D01*
X69253771Y-85592190D01*
X69510607Y-85425399D01*
X69515026Y-85422848D01*
X69787888Y-85283817D01*
X69792550Y-85281742D01*
X70078439Y-85172000D01*
X70083300Y-85170420D01*
X70379087Y-85091164D01*
X70384091Y-85090100D01*
X70686556Y-85042194D01*
X70691634Y-85041661D01*
X70963603Y-85027407D01*
X70998723Y-85025567D01*
X71001287Y-85025500D01*
X71008285Y-85025500D01*
X182491715Y-85025500D01*
X182498713Y-85025500D01*
X182501277Y-85025567D01*
G37*
G04 #@! TD.AperFunction*
G04 #@! TD*
M02*
