G04 #@! TF.GenerationSoftware,KiCad,Pcbnew,10.0.5*
G04 #@! TF.CreationDate,2026-08-10T10:17:43+02:00*
G04 #@! TF.ProjectId,4reel_ee,34726565-6c5f-4656-952e-6b696361645f,rev?*
G04 #@! TF.SameCoordinates,Original*
G04 #@! TF.FileFunction,Other,ECO2*
%FSLAX46Y46*%
G04 Gerber Fmt 4.6, Leading zero omitted, Abs format (unit mm)*
G04 Created by KiCad (PCBNEW 10.0.5) date 2026-08-10 10:17:43*
%MOMM*%
%LPD*%
G01*
G04 APERTURE LIST*
%ADD10C,0.100000*%
%ADD11C,0.125000*%
G04 APERTURE END LIST*
D10*
X84800000Y-95800000D02*
X84900000Y-94400000D01*
X84900000Y-94400000D02*
X93700000Y-85800000D01*
X85200000Y-94600000D02*
X85200000Y-95700000D01*
X85200000Y-95700000D02*
X86200000Y-96700000D01*
X85700000Y-96600000D02*
X84800000Y-95800000D01*
X85700000Y-97000000D02*
X85700000Y-96600000D01*
X86200000Y-95700000D02*
X86300000Y-95000000D01*
X86300000Y-95000000D02*
X86700000Y-94600000D01*
X86300000Y-96200000D02*
X86200000Y-95700000D01*
X86500000Y-95300000D02*
X86500000Y-95800000D01*
X86500000Y-95800000D02*
X86900000Y-96200000D01*
X86700000Y-94600000D02*
X87200000Y-94600000D01*
X86800000Y-94900000D02*
X86500000Y-95300000D01*
X87200000Y-94600000D02*
X94200000Y-87600000D01*
X87300000Y-94900000D02*
X86800000Y-94900000D01*
X87500000Y-96200000D02*
X87000000Y-95600000D01*
X87600000Y-95600000D02*
X87800000Y-95900000D01*
X87800000Y-95900000D02*
X89000000Y-95900000D01*
X89000000Y-95900000D02*
X89500000Y-95300000D01*
X89000000Y-96300000D02*
X87500000Y-96200000D01*
X89500000Y-95300000D02*
X91700000Y-95200000D01*
X89800000Y-95500000D02*
X89000000Y-96300000D01*
X91700000Y-95200000D02*
X98000000Y-89000000D01*
X91900000Y-95500000D02*
X89800000Y-95500000D01*
X93700000Y-85800000D02*
X128000000Y-85800000D01*
X93700000Y-86200000D02*
X85200000Y-94600000D01*
X94200000Y-87600000D02*
X115400000Y-87700000D01*
X94300000Y-88000000D02*
X87300000Y-94900000D01*
X98000000Y-89000000D02*
X116700000Y-89000000D01*
X98200000Y-89300000D02*
X91900000Y-95500000D01*
X110400000Y-96800000D02*
X108400000Y-94900000D01*
X110500000Y-97000000D02*
X110500000Y-97700000D01*
X110500000Y-97700000D02*
X112600000Y-99700000D01*
X111800000Y-98400000D02*
X111600000Y-97200000D01*
X112600000Y-99700000D02*
X114900000Y-99700000D01*
X112700000Y-99400000D02*
X111800000Y-98400000D01*
X112900000Y-97400000D02*
X112700000Y-94600000D01*
X113800000Y-98200000D02*
X112900000Y-97400000D01*
X114200000Y-96500000D02*
X114500000Y-96000000D01*
X114500000Y-94200000D02*
X120000000Y-88900000D01*
X114500000Y-96000000D02*
X114500000Y-94200000D01*
X114600000Y-98200000D02*
X113800000Y-98200000D01*
X114900000Y-94500000D02*
X114900000Y-95900000D01*
X114900000Y-95900000D02*
X115400000Y-96500000D01*
X114900000Y-99400000D02*
X112700000Y-99400000D01*
X114900000Y-99700000D02*
X116800000Y-97900000D01*
X115400000Y-87700000D02*
X116300000Y-86800000D01*
X115400000Y-96500000D02*
X115400000Y-97600000D01*
X115400000Y-97700000D02*
X114700000Y-98200000D01*
X115600000Y-88000000D02*
X94300000Y-88000000D01*
X116300000Y-86800000D02*
X127600000Y-86900000D01*
X116400000Y-87100000D02*
X115600000Y-88000000D01*
X116400000Y-94500000D02*
X116400000Y-97800000D01*
X116400000Y-97800000D02*
X114900000Y-99400000D01*
X116700000Y-89000000D02*
X117900000Y-87800000D01*
X116800000Y-89300000D02*
X98200000Y-89300000D01*
X116800000Y-94600000D02*
X121000000Y-90400000D01*
X116800000Y-97900000D02*
X116800000Y-94600000D01*
X117900000Y-87800000D02*
X127200000Y-87800000D01*
X117900000Y-88200000D02*
X116800000Y-89300000D01*
X120000000Y-88900000D02*
X125600000Y-88900000D01*
X120100000Y-89300000D02*
X114900000Y-94500000D01*
X120800000Y-90100000D02*
X116400000Y-94500000D01*
X121000000Y-90400000D02*
X125000000Y-90400000D01*
X124400000Y-90100000D02*
X120800000Y-90100000D01*
X124700000Y-89800000D02*
X124400000Y-90100000D01*
X125100000Y-89800000D02*
X124700000Y-89800000D01*
X125400000Y-90100000D02*
X125100000Y-89800000D01*
X125600000Y-88900000D02*
X126100000Y-89500000D01*
X125600000Y-89300000D02*
X120100000Y-89300000D01*
X125600000Y-89300000D02*
X125700000Y-90500000D01*
X126100000Y-89500000D02*
X126100000Y-90600000D01*
X126900000Y-88200000D02*
X117900000Y-88200000D01*
X127200000Y-87800000D02*
X128500000Y-89200000D01*
X127500000Y-87200000D02*
X116400000Y-87100000D01*
X127600000Y-86900000D02*
X129200000Y-88500000D01*
X128000000Y-85800000D02*
X129900000Y-87700000D01*
X128000000Y-86100000D02*
X93700000Y-86200000D01*
X128200000Y-89400000D02*
X126900000Y-88200000D01*
X128200000Y-90500000D02*
X128200000Y-89400000D01*
X128500000Y-89200000D02*
X128500000Y-90500000D01*
X128900000Y-88600000D02*
X127500000Y-87200000D01*
X128900000Y-90400000D02*
X128900000Y-88600000D01*
X129200000Y-88500000D02*
X129200000Y-90500000D01*
X129600000Y-87800000D02*
X128000000Y-86100000D01*
X129600000Y-90400000D02*
X129600000Y-87800000D01*
X129900000Y-87700000D02*
X129900000Y-90500000D01*
X130400000Y-88100000D02*
X132000000Y-86700000D01*
X130400000Y-90300000D02*
X130400000Y-88100000D01*
X130700000Y-90300000D02*
X130800000Y-88200000D01*
X130800000Y-88200000D02*
X132300000Y-86700000D01*
X131000000Y-90300000D02*
X131100000Y-89000000D01*
X131100000Y-89000000D02*
X132200000Y-87800000D01*
X131300000Y-89000000D02*
X132300000Y-88100000D01*
X131300000Y-90300000D02*
X131300000Y-89000000D01*
X131700000Y-90400000D02*
X131800000Y-89300000D01*
X131800000Y-89300000D02*
X132400000Y-88900000D01*
X132000000Y-86700000D02*
X156500000Y-86500000D01*
X132100000Y-89700000D02*
X132500000Y-89300000D01*
X132100000Y-90400000D02*
X132100000Y-89700000D01*
X132200000Y-87800000D02*
X149500000Y-87800000D01*
X132300000Y-88100000D02*
X149300000Y-88100000D01*
X132400000Y-88900000D02*
X135100000Y-88900000D01*
X132500000Y-86900000D02*
X156200000Y-86800000D01*
X132500000Y-89300000D02*
X135000000Y-89300000D01*
X135000000Y-89300000D02*
X136900000Y-91200000D01*
X135100000Y-88900000D02*
X137000000Y-90800000D01*
X136900000Y-91200000D02*
X148300000Y-91200000D01*
X137000000Y-90800000D02*
X148400000Y-90900000D01*
X148300000Y-91200000D02*
X154900000Y-98000000D01*
X148400000Y-90900000D02*
X155000000Y-97600000D01*
X149300000Y-88100000D02*
X153600000Y-92400000D01*
X149500000Y-87800000D02*
X153600000Y-92000000D01*
X153600000Y-92000000D02*
X158000000Y-92000000D01*
X153600000Y-92400000D02*
X157800000Y-92300000D01*
X154900000Y-98000000D02*
X167900000Y-98000000D01*
X155000000Y-97600000D02*
X167700000Y-97600000D01*
X156200000Y-86800000D02*
X164000000Y-95200000D01*
X156500000Y-86500000D02*
X164000000Y-94800000D01*
X157800000Y-92300000D02*
X162000000Y-96500000D01*
X158000000Y-92000000D02*
X162000000Y-96200000D01*
X162000000Y-96200000D02*
X166900000Y-96100000D01*
X162000000Y-96500000D02*
X166700000Y-96600000D01*
X164000000Y-94800000D02*
X165900000Y-95100000D01*
X164000000Y-95200000D02*
X165900000Y-95400000D01*
X165900000Y-95100000D02*
X166200000Y-94200000D01*
X166700000Y-93200000D02*
X167300000Y-92600000D01*
X166700000Y-94000000D02*
X166700000Y-93200000D01*
X166700000Y-96600000D02*
X167500000Y-95800000D01*
X166900000Y-96100000D02*
X167200000Y-95700000D01*
X167000000Y-93900000D02*
X167300000Y-93200000D01*
X167200000Y-94700000D02*
X166700000Y-94000000D01*
X167200000Y-95700000D02*
X167200000Y-94700000D01*
X167500000Y-95800000D02*
X167600000Y-94400000D01*
X167600000Y-94400000D02*
X167000000Y-93900000D01*
X167900000Y-98000000D02*
X168900000Y-96900000D01*
X168000000Y-93000000D02*
X168000000Y-92200000D01*
X168500000Y-93400000D02*
X168000000Y-93000000D01*
X168500000Y-96900000D02*
X167700000Y-97600000D01*
X168500000Y-96900000D02*
X168500000Y-93400000D01*
X168900000Y-96900000D02*
X168900000Y-93300000D01*
D11*
X138663188Y-85432309D02*
X138377474Y-85432309D01*
X138520331Y-85432309D02*
X138520331Y-84932309D01*
X138520331Y-84932309D02*
X138472712Y-85003738D01*
X138472712Y-85003738D02*
X138425093Y-85051357D01*
X138425093Y-85051357D02*
X138377474Y-85075166D01*
X138972711Y-84932309D02*
X139020330Y-84932309D01*
X139020330Y-84932309D02*
X139067949Y-84956119D01*
X139067949Y-84956119D02*
X139091759Y-84979928D01*
X139091759Y-84979928D02*
X139115568Y-85027547D01*
X139115568Y-85027547D02*
X139139378Y-85122785D01*
X139139378Y-85122785D02*
X139139378Y-85241833D01*
X139139378Y-85241833D02*
X139115568Y-85337071D01*
X139115568Y-85337071D02*
X139091759Y-85384690D01*
X139091759Y-85384690D02*
X139067949Y-85408500D01*
X139067949Y-85408500D02*
X139020330Y-85432309D01*
X139020330Y-85432309D02*
X138972711Y-85432309D01*
X138972711Y-85432309D02*
X138925092Y-85408500D01*
X138925092Y-85408500D02*
X138901283Y-85384690D01*
X138901283Y-85384690D02*
X138877473Y-85337071D01*
X138877473Y-85337071D02*
X138853664Y-85241833D01*
X138853664Y-85241833D02*
X138853664Y-85122785D01*
X138853664Y-85122785D02*
X138877473Y-85027547D01*
X138877473Y-85027547D02*
X138901283Y-84979928D01*
X138901283Y-84979928D02*
X138925092Y-84956119D01*
X138925092Y-84956119D02*
X138972711Y-84932309D01*
X139448901Y-84932309D02*
X139496520Y-84932309D01*
X139496520Y-84932309D02*
X139544139Y-84956119D01*
X139544139Y-84956119D02*
X139567949Y-84979928D01*
X139567949Y-84979928D02*
X139591758Y-85027547D01*
X139591758Y-85027547D02*
X139615568Y-85122785D01*
X139615568Y-85122785D02*
X139615568Y-85241833D01*
X139615568Y-85241833D02*
X139591758Y-85337071D01*
X139591758Y-85337071D02*
X139567949Y-85384690D01*
X139567949Y-85384690D02*
X139544139Y-85408500D01*
X139544139Y-85408500D02*
X139496520Y-85432309D01*
X139496520Y-85432309D02*
X139448901Y-85432309D01*
X139448901Y-85432309D02*
X139401282Y-85408500D01*
X139401282Y-85408500D02*
X139377473Y-85384690D01*
X139377473Y-85384690D02*
X139353663Y-85337071D01*
X139353663Y-85337071D02*
X139329854Y-85241833D01*
X139329854Y-85241833D02*
X139329854Y-85122785D01*
X139329854Y-85122785D02*
X139353663Y-85027547D01*
X139353663Y-85027547D02*
X139377473Y-84979928D01*
X139377473Y-84979928D02*
X139401282Y-84956119D01*
X139401282Y-84956119D02*
X139448901Y-84932309D01*
X140306043Y-84932309D02*
X140401281Y-84932309D01*
X140401281Y-84932309D02*
X140448900Y-84956119D01*
X140448900Y-84956119D02*
X140496519Y-85003738D01*
X140496519Y-85003738D02*
X140520329Y-85098976D01*
X140520329Y-85098976D02*
X140520329Y-85265642D01*
X140520329Y-85265642D02*
X140496519Y-85360880D01*
X140496519Y-85360880D02*
X140448900Y-85408500D01*
X140448900Y-85408500D02*
X140401281Y-85432309D01*
X140401281Y-85432309D02*
X140306043Y-85432309D01*
X140306043Y-85432309D02*
X140258424Y-85408500D01*
X140258424Y-85408500D02*
X140210805Y-85360880D01*
X140210805Y-85360880D02*
X140186996Y-85265642D01*
X140186996Y-85265642D02*
X140186996Y-85098976D01*
X140186996Y-85098976D02*
X140210805Y-85003738D01*
X140210805Y-85003738D02*
X140258424Y-84956119D01*
X140258424Y-84956119D02*
X140306043Y-84932309D01*
X140734615Y-85432309D02*
X140734615Y-84932309D01*
X140734615Y-85170404D02*
X141020329Y-85170404D01*
X141020329Y-85432309D02*
X141020329Y-84932309D01*
X141258425Y-85432309D02*
X141258425Y-84932309D01*
X141258425Y-84932309D02*
X141425092Y-85289452D01*
X141425092Y-85289452D02*
X141591758Y-84932309D01*
X141591758Y-84932309D02*
X141591758Y-85432309D01*
X142496520Y-85384690D02*
X142472711Y-85408500D01*
X142472711Y-85408500D02*
X142401282Y-85432309D01*
X142401282Y-85432309D02*
X142353663Y-85432309D01*
X142353663Y-85432309D02*
X142282235Y-85408500D01*
X142282235Y-85408500D02*
X142234616Y-85360880D01*
X142234616Y-85360880D02*
X142210806Y-85313261D01*
X142210806Y-85313261D02*
X142186997Y-85218023D01*
X142186997Y-85218023D02*
X142186997Y-85146595D01*
X142186997Y-85146595D02*
X142210806Y-85051357D01*
X142210806Y-85051357D02*
X142234616Y-85003738D01*
X142234616Y-85003738D02*
X142282235Y-84956119D01*
X142282235Y-84956119D02*
X142353663Y-84932309D01*
X142353663Y-84932309D02*
X142401282Y-84932309D01*
X142401282Y-84932309D02*
X142472711Y-84956119D01*
X142472711Y-84956119D02*
X142496520Y-84979928D01*
X142782235Y-85432309D02*
X142734616Y-85408500D01*
X142734616Y-85408500D02*
X142710806Y-85384690D01*
X142710806Y-85384690D02*
X142686997Y-85337071D01*
X142686997Y-85337071D02*
X142686997Y-85194214D01*
X142686997Y-85194214D02*
X142710806Y-85146595D01*
X142710806Y-85146595D02*
X142734616Y-85122785D01*
X142734616Y-85122785D02*
X142782235Y-85098976D01*
X142782235Y-85098976D02*
X142853663Y-85098976D01*
X142853663Y-85098976D02*
X142901282Y-85122785D01*
X142901282Y-85122785D02*
X142925092Y-85146595D01*
X142925092Y-85146595D02*
X142948901Y-85194214D01*
X142948901Y-85194214D02*
X142948901Y-85337071D01*
X142948901Y-85337071D02*
X142925092Y-85384690D01*
X142925092Y-85384690D02*
X142901282Y-85408500D01*
X142901282Y-85408500D02*
X142853663Y-85432309D01*
X142853663Y-85432309D02*
X142782235Y-85432309D01*
X143163187Y-85098976D02*
X143163187Y-85432309D01*
X143163187Y-85146595D02*
X143186997Y-85122785D01*
X143186997Y-85122785D02*
X143234616Y-85098976D01*
X143234616Y-85098976D02*
X143306044Y-85098976D01*
X143306044Y-85098976D02*
X143353663Y-85122785D01*
X143353663Y-85122785D02*
X143377473Y-85170404D01*
X143377473Y-85170404D02*
X143377473Y-85432309D01*
X143544140Y-85098976D02*
X143734616Y-85098976D01*
X143615568Y-84932309D02*
X143615568Y-85360880D01*
X143615568Y-85360880D02*
X143639378Y-85408500D01*
X143639378Y-85408500D02*
X143686997Y-85432309D01*
X143686997Y-85432309D02*
X143734616Y-85432309D01*
X143901282Y-85432309D02*
X143901282Y-85098976D01*
X143901282Y-85194214D02*
X143925092Y-85146595D01*
X143925092Y-85146595D02*
X143948901Y-85122785D01*
X143948901Y-85122785D02*
X143996520Y-85098976D01*
X143996520Y-85098976D02*
X144044139Y-85098976D01*
X144282235Y-85432309D02*
X144234616Y-85408500D01*
X144234616Y-85408500D02*
X144210806Y-85384690D01*
X144210806Y-85384690D02*
X144186997Y-85337071D01*
X144186997Y-85337071D02*
X144186997Y-85194214D01*
X144186997Y-85194214D02*
X144210806Y-85146595D01*
X144210806Y-85146595D02*
X144234616Y-85122785D01*
X144234616Y-85122785D02*
X144282235Y-85098976D01*
X144282235Y-85098976D02*
X144353663Y-85098976D01*
X144353663Y-85098976D02*
X144401282Y-85122785D01*
X144401282Y-85122785D02*
X144425092Y-85146595D01*
X144425092Y-85146595D02*
X144448901Y-85194214D01*
X144448901Y-85194214D02*
X144448901Y-85337071D01*
X144448901Y-85337071D02*
X144425092Y-85384690D01*
X144425092Y-85384690D02*
X144401282Y-85408500D01*
X144401282Y-85408500D02*
X144353663Y-85432309D01*
X144353663Y-85432309D02*
X144282235Y-85432309D01*
X144734616Y-85432309D02*
X144686997Y-85408500D01*
X144686997Y-85408500D02*
X144663187Y-85360880D01*
X144663187Y-85360880D02*
X144663187Y-84932309D01*
X144996521Y-85432309D02*
X144948902Y-85408500D01*
X144948902Y-85408500D02*
X144925092Y-85360880D01*
X144925092Y-85360880D02*
X144925092Y-84932309D01*
X145377473Y-85408500D02*
X145329854Y-85432309D01*
X145329854Y-85432309D02*
X145234616Y-85432309D01*
X145234616Y-85432309D02*
X145186997Y-85408500D01*
X145186997Y-85408500D02*
X145163188Y-85360880D01*
X145163188Y-85360880D02*
X145163188Y-85170404D01*
X145163188Y-85170404D02*
X145186997Y-85122785D01*
X145186997Y-85122785D02*
X145234616Y-85098976D01*
X145234616Y-85098976D02*
X145329854Y-85098976D01*
X145329854Y-85098976D02*
X145377473Y-85122785D01*
X145377473Y-85122785D02*
X145401283Y-85170404D01*
X145401283Y-85170404D02*
X145401283Y-85218023D01*
X145401283Y-85218023D02*
X145163188Y-85265642D01*
X145829854Y-85432309D02*
X145829854Y-84932309D01*
X145829854Y-85408500D02*
X145782235Y-85432309D01*
X145782235Y-85432309D02*
X145686997Y-85432309D01*
X145686997Y-85432309D02*
X145639378Y-85408500D01*
X145639378Y-85408500D02*
X145615568Y-85384690D01*
X145615568Y-85384690D02*
X145591759Y-85337071D01*
X145591759Y-85337071D02*
X145591759Y-85194214D01*
X145591759Y-85194214D02*
X145615568Y-85146595D01*
X145615568Y-85146595D02*
X145639378Y-85122785D01*
X145639378Y-85122785D02*
X145686997Y-85098976D01*
X145686997Y-85098976D02*
X145782235Y-85098976D01*
X145782235Y-85098976D02*
X145829854Y-85122785D01*
X146448901Y-85432309D02*
X146448901Y-84932309D01*
X146686996Y-85432309D02*
X146686996Y-85098976D01*
X146686996Y-85146595D02*
X146710806Y-85122785D01*
X146710806Y-85122785D02*
X146758425Y-85098976D01*
X146758425Y-85098976D02*
X146829853Y-85098976D01*
X146829853Y-85098976D02*
X146877472Y-85122785D01*
X146877472Y-85122785D02*
X146901282Y-85170404D01*
X146901282Y-85170404D02*
X146901282Y-85432309D01*
X146901282Y-85170404D02*
X146925091Y-85122785D01*
X146925091Y-85122785D02*
X146972710Y-85098976D01*
X146972710Y-85098976D02*
X147044139Y-85098976D01*
X147044139Y-85098976D02*
X147091758Y-85122785D01*
X147091758Y-85122785D02*
X147115568Y-85170404D01*
X147115568Y-85170404D02*
X147115568Y-85432309D01*
X147353663Y-85098976D02*
X147353663Y-85598976D01*
X147353663Y-85122785D02*
X147401282Y-85098976D01*
X147401282Y-85098976D02*
X147496520Y-85098976D01*
X147496520Y-85098976D02*
X147544139Y-85122785D01*
X147544139Y-85122785D02*
X147567949Y-85146595D01*
X147567949Y-85146595D02*
X147591758Y-85194214D01*
X147591758Y-85194214D02*
X147591758Y-85337071D01*
X147591758Y-85337071D02*
X147567949Y-85384690D01*
X147567949Y-85384690D02*
X147544139Y-85408500D01*
X147544139Y-85408500D02*
X147496520Y-85432309D01*
X147496520Y-85432309D02*
X147401282Y-85432309D01*
X147401282Y-85432309D02*
X147353663Y-85408500D01*
X147996520Y-85408500D02*
X147948901Y-85432309D01*
X147948901Y-85432309D02*
X147853663Y-85432309D01*
X147853663Y-85432309D02*
X147806044Y-85408500D01*
X147806044Y-85408500D02*
X147782235Y-85360880D01*
X147782235Y-85360880D02*
X147782235Y-85170404D01*
X147782235Y-85170404D02*
X147806044Y-85122785D01*
X147806044Y-85122785D02*
X147853663Y-85098976D01*
X147853663Y-85098976D02*
X147948901Y-85098976D01*
X147948901Y-85098976D02*
X147996520Y-85122785D01*
X147996520Y-85122785D02*
X148020330Y-85170404D01*
X148020330Y-85170404D02*
X148020330Y-85218023D01*
X148020330Y-85218023D02*
X147782235Y-85265642D01*
X148448901Y-85432309D02*
X148448901Y-84932309D01*
X148448901Y-85408500D02*
X148401282Y-85432309D01*
X148401282Y-85432309D02*
X148306044Y-85432309D01*
X148306044Y-85432309D02*
X148258425Y-85408500D01*
X148258425Y-85408500D02*
X148234615Y-85384690D01*
X148234615Y-85384690D02*
X148210806Y-85337071D01*
X148210806Y-85337071D02*
X148210806Y-85194214D01*
X148210806Y-85194214D02*
X148234615Y-85146595D01*
X148234615Y-85146595D02*
X148258425Y-85122785D01*
X148258425Y-85122785D02*
X148306044Y-85098976D01*
X148306044Y-85098976D02*
X148401282Y-85098976D01*
X148401282Y-85098976D02*
X148448901Y-85122785D01*
X148901282Y-85432309D02*
X148901282Y-85170404D01*
X148901282Y-85170404D02*
X148877472Y-85122785D01*
X148877472Y-85122785D02*
X148829853Y-85098976D01*
X148829853Y-85098976D02*
X148734615Y-85098976D01*
X148734615Y-85098976D02*
X148686996Y-85122785D01*
X148901282Y-85408500D02*
X148853663Y-85432309D01*
X148853663Y-85432309D02*
X148734615Y-85432309D01*
X148734615Y-85432309D02*
X148686996Y-85408500D01*
X148686996Y-85408500D02*
X148663187Y-85360880D01*
X148663187Y-85360880D02*
X148663187Y-85313261D01*
X148663187Y-85313261D02*
X148686996Y-85265642D01*
X148686996Y-85265642D02*
X148734615Y-85241833D01*
X148734615Y-85241833D02*
X148853663Y-85241833D01*
X148853663Y-85241833D02*
X148901282Y-85218023D01*
X149139377Y-85098976D02*
X149139377Y-85432309D01*
X149139377Y-85146595D02*
X149163187Y-85122785D01*
X149163187Y-85122785D02*
X149210806Y-85098976D01*
X149210806Y-85098976D02*
X149282234Y-85098976D01*
X149282234Y-85098976D02*
X149329853Y-85122785D01*
X149329853Y-85122785D02*
X149353663Y-85170404D01*
X149353663Y-85170404D02*
X149353663Y-85432309D01*
X149806044Y-85408500D02*
X149758425Y-85432309D01*
X149758425Y-85432309D02*
X149663187Y-85432309D01*
X149663187Y-85432309D02*
X149615568Y-85408500D01*
X149615568Y-85408500D02*
X149591758Y-85384690D01*
X149591758Y-85384690D02*
X149567949Y-85337071D01*
X149567949Y-85337071D02*
X149567949Y-85194214D01*
X149567949Y-85194214D02*
X149591758Y-85146595D01*
X149591758Y-85146595D02*
X149615568Y-85122785D01*
X149615568Y-85122785D02*
X149663187Y-85098976D01*
X149663187Y-85098976D02*
X149758425Y-85098976D01*
X149758425Y-85098976D02*
X149806044Y-85122785D01*
X150210805Y-85408500D02*
X150163186Y-85432309D01*
X150163186Y-85432309D02*
X150067948Y-85432309D01*
X150067948Y-85432309D02*
X150020329Y-85408500D01*
X150020329Y-85408500D02*
X149996520Y-85360880D01*
X149996520Y-85360880D02*
X149996520Y-85170404D01*
X149996520Y-85170404D02*
X150020329Y-85122785D01*
X150020329Y-85122785D02*
X150067948Y-85098976D01*
X150067948Y-85098976D02*
X150163186Y-85098976D01*
X150163186Y-85098976D02*
X150210805Y-85122785D01*
X150210805Y-85122785D02*
X150234615Y-85170404D01*
X150234615Y-85170404D02*
X150234615Y-85218023D01*
X150234615Y-85218023D02*
X149996520Y-85265642D01*
M02*
