M48
; DRILL file KiCad 10.0.5 date 2026-08-10T10:17:44
; FORMAT={-:-/ absolute / metric / decimal}
; #@! TF.CreationDate,2026-08-10T10:17:44+02:00
; #@! TF.GenerationSoftware,Kicad,Pcbnew,10.0.5
; #@! TF.FileFunction,Plated,1,4,PTH
FMAT,2
METRIC
; #@! TA.AperFunction,Plated,PTH,ViaDrill
T1C0.200
; #@! TA.AperFunction,Plated,PTH,ComponentDrill
T2C0.600
; #@! TA.AperFunction,Plated,PTH,ComponentDrill
T3C0.890
; #@! TA.AperFunction,Plated,PTH,ComponentDrill
T4C1.020
; #@! TA.AperFunction,Plated,PTH,ComponentDrill
T5C1.630
%
G90
G05
T1
X77.3Y-108.9
X78.1Y-112.4
X79.1Y-110.5
X79.55Y-112.75
X79.7Y-108.9
X80.25Y-104.15
X80.25Y-104.6
X81.0Y-114.1
X82.05Y-89.1
X82.2Y-108.7
X82.7Y-109.2
X82.7Y-108.7
X82.9Y-107.3
X83.032Y-95.128
X83.132Y-94.628
X83.5Y-110.0
X83.532Y-92.028
X83.733Y-90.028
X83.75Y-88.1
X84.032Y-95.928
X84.074Y-93.431
X84.132Y-93.928
X84.2Y-95.2
X84.233Y-96.528
X84.332Y-92.528
X84.4Y-108.2
X84.4Y-108.7
X84.4Y-109.2
X84.632Y-88.428
X84.632Y-97.428
X84.8Y-96.9
X84.8Y-104.2
X84.859Y-106.55
X84.894Y-110.879
X84.9Y-108.2
X84.9Y-108.7
X84.9Y-109.2
X85.2Y-113.2
X85.381Y-106.69
X85.4Y-99.5
X85.4Y-108.2
X85.4Y-108.7
X85.4Y-109.2
X85.675Y-94.684
X85.74Y-96.89
X85.8Y-92.5
X85.8Y-104.2
X86.132Y-89.428
X86.2Y-109.9
X86.2Y-110.4
X86.2Y-113.2
X86.27Y-96.72
X86.31Y-96.18
X86.332Y-90.828
X86.4Y-107.3
X86.739Y-89.935
X86.8Y-104.5
X86.9Y-99.5
X86.93Y-96.2
X86.932Y-97.128
X86.952Y-94.188
X86.96Y-95.67
X87.052Y-109.116
X87.3Y-109.55
X87.59Y-95.68
X87.8Y-104.5
X87.8Y-109.55
X87.8Y-110.0
X87.8Y-110.5
X87.832Y-99.528
X87.882Y-98.1
X87.9Y-111.9
X88.2Y-96.728
X88.233Y-95.168
X88.3Y-87.75
X88.7Y-92.4
X88.7Y-104.5
X88.823Y-96.723
X89.45Y-91.675
X89.7Y-93.5
X89.775Y-89.125
X89.8Y-96.2
X89.819Y-92.919
X90.019Y-94.719
X90.2Y-112.9
X90.2Y-113.9
X90.6Y-109.7
X90.854Y-91.885
X90.95Y-87.95
X91.25Y-110.75
X91.675Y-88.725
X91.95Y-113.25
X91.975Y-104.65
X92.118Y-89.143
X92.5Y-86.35
X92.5Y-92.5
X92.7Y-95.45
X92.95Y-110.2
X92.95Y-111.15
X93.225Y-87.175
X93.525Y-89.4
X93.7Y-87.55
X93.7Y-107.7
X93.9Y-94.25
X94.2Y-107.7
X94.4Y-85.475
X94.4Y-86.55
X94.575Y-105.35
X94.7Y-106.8
X95.1Y-90.55
X95.3Y-88.325
X96.0Y-112.55
X96.1Y-89.6
X96.875Y-88.325
X96.9Y-85.475
X96.95Y-91.95
X97.45Y-87.275
X97.5Y-88.9
X98.5Y-88.575
X99.35Y-88.575
X99.35Y-89.65
X99.45Y-85.475
X99.45Y-86.575
X99.45Y-87.25
X101.85Y-89.675
X101.95Y-85.475
X101.95Y-86.55
X101.95Y-87.275
X102.25Y-88.575
X104.35Y-89.65
X104.45Y-85.475
X104.45Y-86.55
X104.45Y-87.25
X104.916Y-90.34
X104.916Y-91.24
X105.5Y-88.575
X106.6Y-91.6
X106.85Y-89.65
X106.95Y-85.475
X106.95Y-86.525
X107.975Y-88.575
X108.2Y-90.8
X109.35Y-89.65
X109.5Y-85.475
X109.5Y-86.525
X109.5Y-87.25
X109.775Y-88.575
X111.775Y-88.575
X111.85Y-89.65
X111.95Y-85.475
X111.95Y-86.525
X111.95Y-87.25
X113.8Y-91.2
X114.45Y-85.45
X114.45Y-86.525
X114.45Y-87.25
X114.5Y-88.4
X115.05Y-89.65
X116.0Y-88.4
X116.25Y-89.65
X117.0Y-85.475
X117.0Y-87.6
X117.4Y-89.6
X118.2Y-88.8
X118.225Y-94.75
X119.5Y-85.475
X119.5Y-88.55
X119.55Y-104.08
X119.9Y-98.7
X120.0Y-95.5
X121.0Y-93.9
X121.2Y-98.9
X121.3Y-91.1
X121.3Y-95.9
X121.962Y-103.8
X122.05Y-85.475
X122.05Y-88.55
X122.4Y-91.692
X122.6Y-99.6
X122.8Y-92.689
X123.6Y-91.2
X123.6Y-94.1
X123.6Y-96.0
X123.697Y-97.787
X124.1Y-102.2
X124.55Y-85.475
X124.55Y-88.55
X124.975Y-93.039
X125.0Y-94.2
X125.0Y-94.7
X125.0Y-95.4
X125.0Y-96.05
X125.0Y-96.8
X125.0Y-97.3
X125.0Y-98.6
X125.002Y-93.539
X125.019Y-92.042
X125.027Y-92.542
X125.048Y-91.518
X125.2Y-100.0
X125.4Y-102.2
X125.465Y-106.6
X125.5Y-104.1
X126.451Y-89.796
X126.804Y-99.87
X126.9Y-102.2
X126.996Y-89.757
X127.0Y-108.7
X127.05Y-85.475
X127.5Y-91.1
X127.764Y-89.731
X127.9Y-102.2
X128.2Y-94.4
X128.2Y-94.9
X128.2Y-95.4
X128.5Y-99.9
X128.669Y-98.428
X128.7Y-94.4
X128.7Y-94.9
X128.7Y-95.4
X128.75Y-85.925
X128.9Y-102.2
X128.9Y-104.935
X129.168Y-98.4
X129.2Y-94.4
X129.2Y-94.9
X129.2Y-95.4
X129.66Y-108.845
X129.668Y-98.4
X129.825Y-87.025
X130.168Y-98.4
X130.436Y-102.12
X130.655Y-98.513
X131.0Y-100.0
X131.225Y-86.75
X132.3Y-96.8
X132.4Y-86.175
X132.4Y-87.3
X132.4Y-93.3
X132.4Y-99.9
X132.6Y-89.7
X133.65Y-89.623
X133.7Y-92.9
X133.8Y-96.3
X133.818Y-97.862
X134.0Y-106.85
X134.6Y-86.175
X134.6Y-87.3
X134.6Y-88.5
X134.8Y-100.4
X135.2Y-90.5
X136.2Y-92.9
X136.6Y-86.175
X136.6Y-87.3
X136.6Y-88.5
X137.1Y-90.45
X137.3Y-103.0
X139.175Y-86.175
X139.2Y-87.3
X139.2Y-88.5
X139.6Y-90.45
X139.6Y-91.55
X140.6Y-104.95
X141.65Y-99.3
X141.875Y-86.175
X141.9Y-87.3
X141.9Y-88.5
X142.2Y-90.45
X142.2Y-91.55
X142.75Y-99.3
X143.9Y-99.3
X144.775Y-86.175
X144.8Y-87.3
X144.8Y-88.6
X144.9Y-90.45
X144.9Y-91.55
X144.925Y-97.375
X147.675Y-86.175
X147.7Y-87.3
X147.7Y-88.6
X147.7Y-90.45
X147.7Y-91.525
X148.25Y-99.3
X148.875Y-92.6
X149.35Y-99.3
X149.5Y-89.7
X149.725Y-91.825
X150.25Y-86.175
X150.3Y-99.3
X150.675Y-88.4
X151.0Y-87.4
X151.05Y-94.7
X151.8Y-93.875
X153.0Y-90.4
X153.1Y-96.9
X153.9Y-96.025
X154.4Y-99.869
X154.5Y-91.575
X154.5Y-92.625
X154.75Y-86.15
X154.75Y-87.25
X155.1Y-99.9
X155.3Y-100.811
X155.8Y-97.275
X155.8Y-98.325
X156.05Y-87.675
X156.475Y-92.625
X156.5Y-91.575
X156.5Y-100.811
X156.875Y-86.175
X157.5Y-89.5
X157.75Y-107.375
X158.0Y-91.5
X158.1Y-93.15
X158.4Y-90.4
X158.5Y-88.0
X158.5Y-97.275
X158.5Y-98.325
X159.15Y-94.25
X159.3Y-91.2
X159.95Y-111.75
X160.0Y-89.9
X160.3Y-92.2
X160.3Y-107.375
X160.35Y-111.35
X160.5Y-94.0
X160.725Y-95.775
X161.0Y-90.9
X161.1Y-97.275
X161.1Y-98.325
X161.2Y-93.2
X161.7Y-95.2
X161.9Y-91.9
X163.549Y-95.31
X163.85Y-96.85
X163.9Y-99.4
X164.0Y-92.7
X164.0Y-94.1
X164.3Y-97.1
X164.76Y-95.75
X164.8Y-99.4
X165.0Y-97.0
X165.4Y-94.26
X165.4Y-93.24
X165.8Y-89.9
X165.8Y-92.3
X166.043Y-94.256
X166.045Y-93.732
X166.3Y-99.37
X166.68Y-95.24
X166.7Y-89.9
X166.7Y-92.3
X167.25Y-98.35
X167.25Y-100.0
X167.283Y-93.283
X167.3Y-92.7
X167.93Y-96.8
X167.96Y-94.75
X168.04Y-92.258
X168.2Y-89.9
X168.25Y-89.1
X168.5Y-99.4
X168.516Y-92.411
X169.0Y-92.0
X169.2Y-94.7
X169.3Y-96.9
X169.4Y-92.9
X169.5Y-95.5
X169.558Y-95.997
X169.6Y-93.5
X169.9Y-99.4
X170.1Y-97.4
X170.5Y-94.8
X170.6Y-94.3
X171.6Y-100.35
T3
X105.375Y-94.6
X106.635Y-97.14
X107.915Y-94.6
X109.175Y-97.14
X110.455Y-94.6
X111.715Y-97.14
X112.995Y-94.6
X114.255Y-97.14
T4
X103.19Y-108.4
X105.73Y-108.4
X113.9Y-108.4
X116.44Y-108.4
T5
X102.07Y-100.45
X117.56Y-100.45
T2
X124.01Y-108.765G85X124.01Y-107.665
G05
X124.01Y-112.795G85X124.01Y-111.995
G05
X132.65Y-108.765G85X132.65Y-107.665
G05
X132.65Y-112.795G85X132.65Y-111.995
G05
M30
