ISO-10303-21;
HEADER;
/* Generated by software containing ST-Developer
 * from STEP Tools, Inc. (www.steptools.com) 
 */
/* OPTION: using custom renumber hook */

FILE_DESCRIPTION(
/* description */ ('STEP AP242 Edition 2',
'CAx-IF Rec.Pracs.---Representation and Presentation of Product Manufa
cturing Information (PMI)---4.0---2014-10-13',
'CAx-IF Rec.Pracs.---3D Tessellated Geometry---0.4---2014-09-14','2;1',
'CAx-IF Rec.Pracs.---User Defined Attributes---1.5---2016-08-15'),
/* implementation_level */ '2;1');

FILE_NAME(
/* name */ 'Arducam U0756',
/* time_stamp */ '2026-09-25T09:11:28Z',
/* author */ (''),
/* organization */ (''),
/* preprocessor_version */ 'ST-DEVELOPER v20',
/* originating_system */ 'ONSHAPE BY PTC INC, 1.221',
/* authorisation */ '  ');

FILE_SCHEMA (('AP242_MANAGED_MODEL_BASED_3D_ENGINEERING_MIM_LF { 1 0 10303 442 3 1 4 }'));
ENDSEC;

DATA;
#10=TOROIDAL_SURFACE('',#865,0.0065,0.0005);
#11=LINE('',#1134,#85);
#12=LINE('',#1137,#86);
#13=LINE('',#1139,#87);
#14=LINE('',#1141,#88);
#15=LINE('',#1143,#89);
#16=LINE('',#1145,#90);
#17=LINE('',#1147,#91);
#18=LINE('',#1149,#92);
#19=LINE('',#1153,#93);
#20=LINE('',#1155,#94);
#21=LINE('',#1157,#95);
#22=LINE('',#1159,#96);
#23=LINE('',#1161,#97);
#24=LINE('',#1165,#98);
#25=LINE('',#1167,#99);
#26=LINE('',#1170,#100);
#27=LINE('',#1171,#101);
#28=LINE('',#1173,#102);
#29=LINE('',#1175,#103);
#30=LINE('',#1177,#104);
#31=LINE('',#1179,#105);
#32=LINE('',#1181,#106);
#33=LINE('',#1183,#107);
#34=LINE('',#1185,#108);
#35=LINE('',#1187,#109);
#36=LINE('',#1191,#110);
#37=LINE('',#1193,#111);
#38=LINE('',#1195,#112);
#39=LINE('',#1197,#113);
#40=LINE('',#1201,#114);
#41=LINE('',#1203,#115);
#42=LINE('',#1206,#116);
#43=LINE('',#1207,#117);
#44=LINE('',#1210,#118);
#45=LINE('',#1212,#119);
#46=LINE('',#1214,#120);
#47=LINE('',#1216,#121);
#48=LINE('',#1229,#122);
#49=LINE('',#1230,#123);
#50=LINE('',#1232,#124);
#51=LINE('',#1234,#125);
#52=LINE('',#1236,#126);
#53=LINE('',#1238,#127);
#54=LINE('',#1240,#128);
#55=LINE('',#1242,#129);
#56=LINE('',#1244,#130);
#57=LINE('',#1261,#131);
#58=LINE('',#1264,#132);
#59=LINE('',#1266,#133);
#60=LINE('',#1268,#134);
#61=LINE('',#1270,#135);
#62=LINE('',#1272,#136);
#63=LINE('',#1274,#137);
#64=LINE('',#1276,#138);
#65=LINE('',#1278,#139);
#66=LINE('',#1280,#140);
#67=LINE('',#1282,#141);
#68=LINE('',#1285,#142);
#69=LINE('',#1287,#143);
#70=LINE('',#1289,#144);
#71=LINE('',#1291,#145);
#72=LINE('',#1294,#146);
#73=LINE('',#1296,#147);
#74=LINE('',#1298,#148);
#75=LINE('',#1300,#149);
#76=LINE('',#1303,#150);
#77=LINE('',#1305,#151);
#78=LINE('',#1307,#152);
#79=LINE('',#1309,#153);
#80=LINE('',#1312,#154);
#81=LINE('',#1314,#155);
#82=LINE('',#1316,#156);
#83=LINE('',#1318,#157);
#84=LINE('',#1319,#158);
#85=VECTOR('',#918,1.);
#86=VECTOR('',#919,1.);
#87=VECTOR('',#920,1.);
#88=VECTOR('',#921,1.);
#89=VECTOR('',#922,1.);
#90=VECTOR('',#923,1.);
#91=VECTOR('',#924,1.);
#92=VECTOR('',#925,1.);
#93=VECTOR('',#928,1.);
#94=VECTOR('',#929,1.);
#95=VECTOR('',#930,1.);
#96=VECTOR('',#931,1.);
#97=VECTOR('',#932,1.);
#98=VECTOR('',#935,1.);
#99=VECTOR('',#938,1.);
#100=VECTOR('',#939,1.);
#101=VECTOR('',#940,1.);
#102=VECTOR('',#943,1.);
#103=VECTOR('',#944,1.);
#104=VECTOR('',#947,1.);
#105=VECTOR('',#948,1.);
#106=VECTOR('',#951,1.);
#107=VECTOR('',#952,1.);
#108=VECTOR('',#955,1.);
#109=VECTOR('',#956,1.);
#110=VECTOR('',#961,1.);
#111=VECTOR('',#964,1.);
#112=VECTOR('',#965,1.);
#113=VECTOR('',#968,1.);
#114=VECTOR('',#971,1.);
#115=VECTOR('',#974,1.);
#116=VECTOR('',#975,1.);
#117=VECTOR('',#976,1.);
#118=VECTOR('',#981,1.);
#119=VECTOR('',#982,1.);
#120=VECTOR('',#985,1.);
#121=VECTOR('',#986,1.);
#122=VECTOR('',#1005,1.);
#123=VECTOR('',#1006,1.);
#124=VECTOR('',#1007,1.);
#125=VECTOR('',#1008,1.);
#126=VECTOR('',#1011,1.);
#127=VECTOR('',#1012,1.);
#128=VECTOR('',#1015,1.);
#129=VECTOR('',#1016,1.);
#130=VECTOR('',#1019,1.);
#131=VECTOR('',#1044,1.);
#132=VECTOR('',#1045,1.);
#133=VECTOR('',#1046,1.);
#134=VECTOR('',#1047,1.);
#135=VECTOR('',#1050,1.);
#136=VECTOR('',#1051,1.);
#137=VECTOR('',#1052,1.);
#138=VECTOR('',#1055,1.);
#139=VECTOR('',#1056,1.);
#140=VECTOR('',#1057,1.);
#141=VECTOR('',#1060,1.);
#142=VECTOR('',#1061,1.);
#143=VECTOR('',#1062,1.);
#144=VECTOR('',#1063,1.);
#145=VECTOR('',#1066,1.);
#146=VECTOR('',#1067,1.);
#147=VECTOR('',#1068,1.);
#148=VECTOR('',#1069,1.);
#149=VECTOR('',#1072,1.);
#150=VECTOR('',#1073,1.);
#151=VECTOR('',#1074,1.);
#152=VECTOR('',#1075,1.);
#153=VECTOR('',#1078,1.);
#154=VECTOR('',#1079,1.);
#155=VECTOR('',#1080,1.);
#156=VECTOR('',#1081,1.);
#157=VECTOR('',#1084,1.);
#158=VECTOR('',#1085,1.);
#159=SHAPE_REPRESENTATION_RELATIONSHIP('','',#812,#162);
#160=SHAPE_REPRESENTATION_RELATIONSHIP('','',#813,#163);
#161=SHAPE_REPRESENTATION_RELATIONSHIP('','',#814,#164);
#162=ADVANCED_BREP_SHAPE_REPRESENTATION('',(#806),#1337);
#163=ADVANCED_BREP_SHAPE_REPRESENTATION('',(#807),#1338);
#164=ADVANCED_BREP_SHAPE_REPRESENTATION('',(#808),#1339);
#165=PLANE('',#819);
#166=PLANE('',#823);
#167=PLANE('',#824);
#168=PLANE('',#826);
#169=PLANE('',#831);
#170=PLANE('',#832);
#171=PLANE('',#833);
#172=PLANE('',#834);
#173=PLANE('',#835);
#174=PLANE('',#838);
#175=PLANE('',#839);
#176=PLANE('',#841);
#177=PLANE('',#842);
#178=PLANE('',#844);
#179=PLANE('',#851);
#180=PLANE('',#853);
#181=PLANE('',#854);
#182=PLANE('',#855);
#183=PLANE('',#856);
#184=PLANE('',#857);
#185=PLANE('',#861);
#186=PLANE('',#868);
#187=PLANE('',#869);
#188=PLANE('',#870);
#189=PLANE('',#871);
#190=PLANE('',#872);
#191=PLANE('',#873);
#192=PLANE('',#874);
#193=PLANE('',#875);
#194=PLANE('',#876);
#195=PLANE('',#881);
#196=ORIENTED_EDGE('',*,*,#398,.F.);
#197=ORIENTED_EDGE('',*,*,#399,.T.);
#198=ORIENTED_EDGE('',*,*,#399,.F.);
#199=ORIENTED_EDGE('',*,*,#400,.F.);
#200=ORIENTED_EDGE('',*,*,#401,.T.);
#201=ORIENTED_EDGE('',*,*,#400,.T.);
#202=ORIENTED_EDGE('',*,*,#398,.T.);
#203=ORIENTED_EDGE('',*,*,#401,.F.);
#204=ORIENTED_EDGE('',*,*,#402,.T.);
#205=ORIENTED_EDGE('',*,*,#403,.F.);
#206=ORIENTED_EDGE('',*,*,#404,.F.);
#207=ORIENTED_EDGE('',*,*,#405,.T.);
#208=ORIENTED_EDGE('',*,*,#406,.T.);
#209=ORIENTED_EDGE('',*,*,#407,.F.);
#210=ORIENTED_EDGE('',*,*,#408,.F.);
#211=ORIENTED_EDGE('',*,*,#409,.T.);
#212=ORIENTED_EDGE('',*,*,#410,.T.);
#213=ORIENTED_EDGE('',*,*,#411,.T.);
#214=ORIENTED_EDGE('',*,*,#412,.T.);
#215=ORIENTED_EDGE('',*,*,#413,.F.);
#216=ORIENTED_EDGE('',*,*,#414,.T.);
#217=ORIENTED_EDGE('',*,*,#415,.T.);
#218=ORIENTED_EDGE('',*,*,#416,.F.);
#219=ORIENTED_EDGE('',*,*,#417,.T.);
#220=ORIENTED_EDGE('',*,*,#418,.F.);
#221=ORIENTED_EDGE('',*,*,#419,.F.);
#222=ORIENTED_EDGE('',*,*,#420,.F.);
#223=ORIENTED_EDGE('',*,*,#421,.F.);
#224=ORIENTED_EDGE('',*,*,#413,.T.);
#225=ORIENTED_EDGE('',*,*,#422,.T.);
#226=ORIENTED_EDGE('',*,*,#423,.T.);
#227=ORIENTED_EDGE('',*,*,#424,.F.);
#228=ORIENTED_EDGE('',*,*,#414,.F.);
#229=ORIENTED_EDGE('',*,*,#421,.T.);
#230=ORIENTED_EDGE('',*,*,#425,.T.);
#231=ORIENTED_EDGE('',*,*,#426,.F.);
#232=ORIENTED_EDGE('',*,*,#415,.F.);
#233=ORIENTED_EDGE('',*,*,#424,.T.);
#234=ORIENTED_EDGE('',*,*,#427,.F.);
#235=ORIENTED_EDGE('',*,*,#428,.F.);
#236=ORIENTED_EDGE('',*,*,#416,.T.);
#237=ORIENTED_EDGE('',*,*,#426,.T.);
#238=ORIENTED_EDGE('',*,*,#429,.T.);
#239=ORIENTED_EDGE('',*,*,#430,.F.);
#240=ORIENTED_EDGE('',*,*,#417,.F.);
#241=ORIENTED_EDGE('',*,*,#428,.T.);
#242=ORIENTED_EDGE('',*,*,#431,.F.);
#243=ORIENTED_EDGE('',*,*,#432,.F.);
#244=ORIENTED_EDGE('',*,*,#418,.T.);
#245=ORIENTED_EDGE('',*,*,#430,.T.);
#246=ORIENTED_EDGE('',*,*,#433,.F.);
#247=ORIENTED_EDGE('',*,*,#434,.F.);
#248=ORIENTED_EDGE('',*,*,#419,.T.);
#249=ORIENTED_EDGE('',*,*,#432,.T.);
#250=ORIENTED_EDGE('',*,*,#435,.F.);
#251=ORIENTED_EDGE('',*,*,#436,.T.);
#252=ORIENTED_EDGE('',*,*,#404,.T.);
#253=ORIENTED_EDGE('',*,*,#434,.T.);
#254=ORIENTED_EDGE('',*,*,#437,.F.);
#255=ORIENTED_EDGE('',*,*,#438,.F.);
#256=ORIENTED_EDGE('',*,*,#439,.T.);
#257=ORIENTED_EDGE('',*,*,#435,.T.);
#258=ORIENTED_EDGE('',*,*,#440,.F.);
#259=ORIENTED_EDGE('',*,*,#410,.F.);
#260=ORIENTED_EDGE('',*,*,#441,.T.);
#261=ORIENTED_EDGE('',*,*,#438,.T.);
#262=ORIENTED_EDGE('',*,*,#442,.T.);
#263=ORIENTED_EDGE('',*,*,#443,.F.);
#264=ORIENTED_EDGE('',*,*,#444,.T.);
#265=ORIENTED_EDGE('',*,*,#445,.F.);
#266=ORIENTED_EDGE('',*,*,#411,.F.);
#267=ORIENTED_EDGE('',*,*,#443,.T.);
#268=ORIENTED_EDGE('',*,*,#403,.T.);
#269=ORIENTED_EDGE('',*,*,#446,.F.);
#270=ORIENTED_EDGE('',*,*,#402,.F.);
#271=ORIENTED_EDGE('',*,*,#447,.T.);
#272=ORIENTED_EDGE('',*,*,#448,.T.);
#273=ORIENTED_EDGE('',*,*,#422,.F.);
#274=ORIENTED_EDGE('',*,*,#412,.F.);
#275=ORIENTED_EDGE('',*,*,#445,.T.);
#276=ORIENTED_EDGE('',*,*,#449,.F.);
#277=ORIENTED_EDGE('',*,*,#447,.F.);
#278=ORIENTED_EDGE('',*,*,#446,.T.);
#279=ORIENTED_EDGE('',*,*,#420,.T.);
#280=ORIENTED_EDGE('',*,*,#448,.F.);
#281=ORIENTED_EDGE('',*,*,#444,.F.);
#282=ORIENTED_EDGE('',*,*,#442,.F.);
#283=ORIENTED_EDGE('',*,*,#440,.T.);
#284=ORIENTED_EDGE('',*,*,#437,.T.);
#285=ORIENTED_EDGE('',*,*,#433,.T.);
#286=ORIENTED_EDGE('',*,*,#431,.T.);
#287=ORIENTED_EDGE('',*,*,#429,.F.);
#288=ORIENTED_EDGE('',*,*,#427,.T.);
#289=ORIENTED_EDGE('',*,*,#425,.F.);
#290=ORIENTED_EDGE('',*,*,#423,.F.);
#291=ORIENTED_EDGE('',*,*,#450,.F.);
#292=ORIENTED_EDGE('',*,*,#451,.F.);
#293=ORIENTED_EDGE('',*,*,#452,.T.);
#294=ORIENTED_EDGE('',*,*,#453,.T.);
#295=ORIENTED_EDGE('',*,*,#408,.T.);
#296=ORIENTED_EDGE('',*,*,#454,.F.);
#297=ORIENTED_EDGE('',*,*,#455,.F.);
#298=ORIENTED_EDGE('',*,*,#451,.T.);
#299=ORIENTED_EDGE('',*,*,#407,.T.);
#300=ORIENTED_EDGE('',*,*,#456,.F.);
#301=ORIENTED_EDGE('',*,*,#457,.F.);
#302=ORIENTED_EDGE('',*,*,#454,.T.);
#303=ORIENTED_EDGE('',*,*,#406,.F.);
#304=ORIENTED_EDGE('',*,*,#453,.F.);
#305=ORIENTED_EDGE('',*,*,#458,.T.);
#306=ORIENTED_EDGE('',*,*,#456,.T.);
#307=ORIENTED_EDGE('',*,*,#459,.F.);
#308=ORIENTED_EDGE('',*,*,#452,.F.);
#309=ORIENTED_EDGE('',*,*,#455,.T.);
#310=ORIENTED_EDGE('',*,*,#457,.T.);
#311=ORIENTED_EDGE('',*,*,#458,.F.);
#312=ORIENTED_EDGE('',*,*,#460,.F.);
#313=ORIENTED_EDGE('',*,*,#449,.T.);
#314=ORIENTED_EDGE('',*,*,#461,.T.);
#315=ORIENTED_EDGE('',*,*,#460,.T.);
#316=ORIENTED_EDGE('',*,*,#462,.T.);
#317=ORIENTED_EDGE('',*,*,#459,.T.);
#318=ORIENTED_EDGE('',*,*,#461,.F.);
#319=ORIENTED_EDGE('',*,*,#462,.F.);
#320=ORIENTED_EDGE('',*,*,#450,.T.);
#321=ORIENTED_EDGE('',*,*,#405,.F.);
#322=ORIENTED_EDGE('',*,*,#436,.F.);
#323=ORIENTED_EDGE('',*,*,#439,.F.);
#324=ORIENTED_EDGE('',*,*,#441,.F.);
#325=ORIENTED_EDGE('',*,*,#409,.F.);
#326=ORIENTED_EDGE('',*,*,#463,.F.);
#327=ORIENTED_EDGE('',*,*,#464,.F.);
#328=ORIENTED_EDGE('',*,*,#465,.T.);
#329=ORIENTED_EDGE('',*,*,#466,.T.);
#330=ORIENTED_EDGE('',*,*,#467,.T.);
#331=ORIENTED_EDGE('',*,*,#468,.F.);
#332=ORIENTED_EDGE('',*,*,#469,.F.);
#333=ORIENTED_EDGE('',*,*,#464,.T.);
#334=ORIENTED_EDGE('',*,*,#470,.T.);
#335=ORIENTED_EDGE('',*,*,#471,.F.);
#336=ORIENTED_EDGE('',*,*,#472,.F.);
#337=ORIENTED_EDGE('',*,*,#468,.T.);
#338=ORIENTED_EDGE('',*,*,#473,.F.);
#339=ORIENTED_EDGE('',*,*,#474,.T.);
#340=ORIENTED_EDGE('',*,*,#475,.T.);
#341=ORIENTED_EDGE('',*,*,#476,.T.);
#342=ORIENTED_EDGE('',*,*,#477,.T.);
#343=ORIENTED_EDGE('',*,*,#478,.T.);
#344=ORIENTED_EDGE('',*,*,#479,.F.);
#345=ORIENTED_EDGE('',*,*,#480,.T.);
#346=ORIENTED_EDGE('',*,*,#481,.F.);
#347=ORIENTED_EDGE('',*,*,#482,.T.);
#348=ORIENTED_EDGE('',*,*,#483,.T.);
#349=ORIENTED_EDGE('',*,*,#484,.T.);
#350=ORIENTED_EDGE('',*,*,#485,.T.);
#351=ORIENTED_EDGE('',*,*,#486,.T.);
#352=ORIENTED_EDGE('',*,*,#487,.F.);
#353=ORIENTED_EDGE('',*,*,#488,.T.);
#354=ORIENTED_EDGE('',*,*,#489,.F.);
#355=ORIENTED_EDGE('',*,*,#466,.F.);
#356=ORIENTED_EDGE('',*,*,#490,.T.);
#357=ORIENTED_EDGE('',*,*,#471,.T.);
#358=ORIENTED_EDGE('',*,*,#487,.T.);
#359=ORIENTED_EDGE('',*,*,#491,.T.);
#360=ORIENTED_EDGE('',*,*,#473,.T.);
#361=ORIENTED_EDGE('',*,*,#492,.T.);
#362=ORIENTED_EDGE('',*,*,#477,.F.);
#363=ORIENTED_EDGE('',*,*,#493,.T.);
#364=ORIENTED_EDGE('',*,*,#483,.F.);
#365=ORIENTED_EDGE('',*,*,#494,.T.);
#366=ORIENTED_EDGE('',*,*,#465,.F.);
#367=ORIENTED_EDGE('',*,*,#469,.T.);
#368=ORIENTED_EDGE('',*,*,#472,.T.);
#369=ORIENTED_EDGE('',*,*,#490,.F.);
#370=ORIENTED_EDGE('',*,*,#475,.F.);
#371=ORIENTED_EDGE('',*,*,#495,.T.);
#372=ORIENTED_EDGE('',*,*,#485,.F.);
#373=ORIENTED_EDGE('',*,*,#496,.T.);
#374=ORIENTED_EDGE('',*,*,#481,.T.);
#375=ORIENTED_EDGE('',*,*,#497,.T.);
#376=ORIENTED_EDGE('',*,*,#479,.T.);
#377=ORIENTED_EDGE('',*,*,#498,.T.);
#378=ORIENTED_EDGE('',*,*,#463,.T.);
#379=ORIENTED_EDGE('',*,*,#489,.T.);
#380=ORIENTED_EDGE('',*,*,#470,.F.);
#381=ORIENTED_EDGE('',*,*,#467,.F.);
#382=ORIENTED_EDGE('',*,*,#491,.F.);
#383=ORIENTED_EDGE('',*,*,#486,.F.);
#384=ORIENTED_EDGE('',*,*,#495,.F.);
#385=ORIENTED_EDGE('',*,*,#474,.F.);
#386=ORIENTED_EDGE('',*,*,#492,.F.);
#387=ORIENTED_EDGE('',*,*,#476,.F.);
#388=ORIENTED_EDGE('',*,*,#498,.F.);
#389=ORIENTED_EDGE('',*,*,#478,.F.);
#390=ORIENTED_EDGE('',*,*,#494,.F.);
#391=ORIENTED_EDGE('',*,*,#482,.F.);
#392=ORIENTED_EDGE('',*,*,#496,.F.);
#393=ORIENTED_EDGE('',*,*,#488,.F.);
#394=ORIENTED_EDGE('',*,*,#493,.F.);
#395=ORIENTED_EDGE('',*,*,#480,.F.);
#396=ORIENTED_EDGE('',*,*,#497,.F.);
#397=ORIENTED_EDGE('',*,*,#484,.F.);
#398=EDGE_CURVE('',#499,#499,#570,.T.);
#399=EDGE_CURVE('',#500,#500,#571,.T.);
#400=EDGE_CURVE('',#501,#501,#572,.T.);
#401=EDGE_CURVE('',#502,#502,#573,.T.);
#402=EDGE_CURVE('',#503,#503,#574,.T.);
#403=EDGE_CURVE('',#504,#504,#575,.T.);
#404=EDGE_CURVE('',#505,#506,#11,.T.);
#405=EDGE_CURVE('',#505,#507,#12,.F.);
#406=EDGE_CURVE('',#507,#508,#13,.T.);
#407=EDGE_CURVE('',#509,#508,#14,.T.);
#408=EDGE_CURVE('',#510,#509,#15,.T.);
#409=EDGE_CURVE('',#510,#511,#16,.F.);
#410=EDGE_CURVE('',#511,#512,#17,.T.);
#411=EDGE_CURVE('',#512,#513,#18,.T.);
#412=EDGE_CURVE('',#513,#514,#576,.T.);
#413=EDGE_CURVE('',#515,#514,#19,.T.);
#414=EDGE_CURVE('',#515,#516,#20,.T.);
#415=EDGE_CURVE('',#516,#517,#21,.T.);
#416=EDGE_CURVE('',#518,#517,#22,.T.);
#417=EDGE_CURVE('',#518,#519,#23,.T.);
#418=EDGE_CURVE('',#520,#519,#577,.T.);
#419=EDGE_CURVE('',#506,#520,#24,.T.);
#420=EDGE_CURVE('',#521,#522,#25,.T.);
#421=EDGE_CURVE('',#515,#521,#26,.T.);
#422=EDGE_CURVE('',#514,#522,#27,.T.);
#423=EDGE_CURVE('',#521,#523,#28,.T.);
#424=EDGE_CURVE('',#516,#523,#29,.T.);
#425=EDGE_CURVE('',#523,#524,#30,.T.);
#426=EDGE_CURVE('',#517,#524,#31,.T.);
#427=EDGE_CURVE('',#525,#524,#32,.T.);
#428=EDGE_CURVE('',#518,#525,#33,.T.);
#429=EDGE_CURVE('',#525,#526,#34,.T.);
#430=EDGE_CURVE('',#519,#526,#35,.T.);
#431=EDGE_CURVE('',#527,#526,#578,.T.);
#432=EDGE_CURVE('',#520,#527,#36,.T.);
#433=EDGE_CURVE('',#528,#527,#37,.T.);
#434=EDGE_CURVE('',#506,#528,#38,.T.);
#435=EDGE_CURVE('',#529,#530,#39,.T.);
#436=EDGE_CURVE('',#529,#505,#579,.T.);
#437=EDGE_CURVE('',#530,#528,#40,.T.);
#438=EDGE_CURVE('',#531,#532,#41,.T.);
#439=EDGE_CURVE('',#531,#529,#42,.T.);
#440=EDGE_CURVE('',#532,#530,#43,.T.);
#441=EDGE_CURVE('',#511,#531,#580,.F.);
#442=EDGE_CURVE('',#532,#533,#44,.T.);
#443=EDGE_CURVE('',#512,#533,#45,.T.);
#444=EDGE_CURVE('',#533,#534,#46,.T.);
#445=EDGE_CURVE('',#513,#534,#47,.T.);
#446=EDGE_CURVE('',#535,#535,#581,.T.);
#447=EDGE_CURVE('',#536,#536,#582,.T.);
#448=EDGE_CURVE('',#534,#522,#583,.T.);
#449=EDGE_CURVE('',#537,#537,#584,.T.);
#450=EDGE_CURVE('',#510,#507,#48,.T.);
#451=EDGE_CURVE('',#538,#510,#49,.T.);
#452=EDGE_CURVE('',#538,#539,#50,.T.);
#453=EDGE_CURVE('',#539,#507,#51,.T.);
#454=EDGE_CURVE('',#540,#509,#52,.T.);
#455=EDGE_CURVE('',#538,#540,#53,.T.);
#456=EDGE_CURVE('',#541,#508,#54,.T.);
#457=EDGE_CURVE('',#540,#541,#55,.T.);
#458=EDGE_CURVE('',#539,#541,#56,.T.);
#459=EDGE_CURVE('',#542,#542,#585,.T.);
#460=EDGE_CURVE('',#543,#543,#586,.T.);
#461=EDGE_CURVE('',#544,#544,#587,.F.);
#462=EDGE_CURVE('',#545,#545,#588,.T.);
#463=EDGE_CURVE('',#546,#547,#57,.T.);
#464=EDGE_CURVE('',#548,#546,#58,.T.);
#465=EDGE_CURVE('',#548,#549,#59,.T.);
#466=EDGE_CURVE('',#549,#547,#60,.T.);
#467=EDGE_CURVE('',#546,#550,#61,.T.);
#468=EDGE_CURVE('',#551,#550,#62,.T.);
#469=EDGE_CURVE('',#548,#551,#63,.T.);
#470=EDGE_CURVE('',#550,#552,#64,.T.);
#471=EDGE_CURVE('',#553,#552,#65,.T.);
#472=EDGE_CURVE('',#551,#553,#66,.T.);
#473=EDGE_CURVE('',#554,#555,#67,.T.);
#474=EDGE_CURVE('',#554,#556,#68,.T.);
#475=EDGE_CURVE('',#556,#557,#69,.T.);
#476=EDGE_CURVE('',#557,#555,#70,.F.);
#477=EDGE_CURVE('',#558,#559,#71,.T.);
#478=EDGE_CURVE('',#559,#560,#72,.T.);
#479=EDGE_CURVE('',#561,#560,#73,.T.);
#480=EDGE_CURVE('',#561,#558,#74,.F.);
#481=EDGE_CURVE('',#562,#563,#75,.T.);
#482=EDGE_CURVE('',#562,#564,#76,.F.);
#483=EDGE_CURVE('',#564,#565,#77,.T.);
#484=EDGE_CURVE('',#565,#563,#78,.T.);
#485=EDGE_CURVE('',#566,#567,#79,.T.);
#486=EDGE_CURVE('',#567,#568,#80,.F.);
#487=EDGE_CURVE('',#569,#568,#81,.T.);
#488=EDGE_CURVE('',#569,#566,#82,.T.);
#489=EDGE_CURVE('',#547,#552,#83,.T.);
#490=EDGE_CURVE('',#549,#553,#84,.T.);
#491=EDGE_CURVE('',#568,#554,#589,.T.);
#492=EDGE_CURVE('',#555,#559,#590,.T.);
#493=EDGE_CURVE('',#558,#565,#591,.T.);
#494=EDGE_CURVE('',#564,#569,#592,.T.);
#495=EDGE_CURVE('',#556,#567,#593,.F.);
#496=EDGE_CURVE('',#566,#562,#594,.F.);
#497=EDGE_CURVE('',#563,#561,#595,.F.);
#498=EDGE_CURVE('',#560,#557,#596,.F.);
#499=VERTEX_POINT('',#1117);
#500=VERTEX_POINT('',#1119);
#501=VERTEX_POINT('',#1123);
#502=VERTEX_POINT('',#1125);
#503=VERTEX_POINT('',#1131);
#504=VERTEX_POINT('',#1133);
#505=VERTEX_POINT('',#1135);
#506=VERTEX_POINT('',#1136);
#507=VERTEX_POINT('',#1138);
#508=VERTEX_POINT('',#1140);
#509=VERTEX_POINT('',#1142);
#510=VERTEX_POINT('',#1144);
#511=VERTEX_POINT('',#1146);
#512=VERTEX_POINT('',#1148);
#513=VERTEX_POINT('',#1150);
#514=VERTEX_POINT('',#1152);
#515=VERTEX_POINT('',#1154);
#516=VERTEX_POINT('',#1156);
#517=VERTEX_POINT('',#1158);
#518=VERTEX_POINT('',#1160);
#519=VERTEX_POINT('',#1162);
#520=VERTEX_POINT('',#1164);
#521=VERTEX_POINT('',#1168);
#522=VERTEX_POINT('',#1169);
#523=VERTEX_POINT('',#1174);
#524=VERTEX_POINT('',#1178);
#525=VERTEX_POINT('',#1182);
#526=VERTEX_POINT('',#1186);
#527=VERTEX_POINT('',#1190);
#528=VERTEX_POINT('',#1194);
#529=VERTEX_POINT('',#1198);
#530=VERTEX_POINT('',#1199);
#531=VERTEX_POINT('',#1204);
#532=VERTEX_POINT('',#1205);
#533=VERTEX_POINT('',#1211);
#534=VERTEX_POINT('',#1215);
#535=VERTEX_POINT('',#1219);
#536=VERTEX_POINT('',#1222);
#537=VERTEX_POINT('',#1227);
#538=VERTEX_POINT('',#1231);
#539=VERTEX_POINT('',#1233);
#540=VERTEX_POINT('',#1237);
#541=VERTEX_POINT('',#1241);
#542=VERTEX_POINT('',#1247);
#543=VERTEX_POINT('',#1250);
#544=VERTEX_POINT('',#1253);
#545=VERTEX_POINT('',#1256);
#546=VERTEX_POINT('',#1262);
#547=VERTEX_POINT('',#1263);
#548=VERTEX_POINT('',#1265);
#549=VERTEX_POINT('',#1267);
#550=VERTEX_POINT('',#1271);
#551=VERTEX_POINT('',#1273);
#552=VERTEX_POINT('',#1277);
#553=VERTEX_POINT('',#1279);
#554=VERTEX_POINT('',#1283);
#555=VERTEX_POINT('',#1284);
#556=VERTEX_POINT('',#1286);
#557=VERTEX_POINT('',#1288);
#558=VERTEX_POINT('',#1292);
#559=VERTEX_POINT('',#1293);
#560=VERTEX_POINT('',#1295);
#561=VERTEX_POINT('',#1297);
#562=VERTEX_POINT('',#1301);
#563=VERTEX_POINT('',#1302);
#564=VERTEX_POINT('',#1304);
#565=VERTEX_POINT('',#1306);
#566=VERTEX_POINT('',#1310);
#567=VERTEX_POINT('',#1311);
#568=VERTEX_POINT('',#1313);
#569=VERTEX_POINT('',#1315);
#570=CIRCLE('',#817,0.0060385727266768);
#571=CIRCLE('',#818,0.0060385727266768);
#572=CIRCLE('',#821,0.007);
#573=CIRCLE('',#822,0.007);
#574=CIRCLE('',#827,0.001);
#575=CIRCLE('',#828,0.001);
#576=CIRCLE('',#829,0.002);
#577=CIRCLE('',#830,0.002);
#578=CIRCLE('',#837,0.002);
#579=CIRCLE('',#840,0.001);
#580=CIRCLE('',#843,0.001);
#581=CIRCLE('',#846,0.001);
#582=CIRCLE('',#848,0.001);
#583=CIRCLE('',#850,0.002);
#584=CIRCLE('',#852,0.0075);
#585=CIRCLE('',#858,0.006);
#586=CIRCLE('',#860,0.0075);
#587=CIRCLE('',#862,0.0065);
#588=CIRCLE('',#864,0.006);
#589=CIRCLE('',#877,0.001);
#590=CIRCLE('',#878,0.001);
#591=CIRCLE('',#879,0.001);
#592=CIRCLE('',#880,0.001);
#593=CIRCLE('',#882,0.001);
#594=CIRCLE('',#883,0.001);
#595=CIRCLE('',#884,0.001);
#596=CIRCLE('',#885,0.001);
#597=EDGE_LOOP('',(#196));
#598=EDGE_LOOP('',(#197));
#599=EDGE_LOOP('',(#198));
#600=EDGE_LOOP('',(#199));
#601=EDGE_LOOP('',(#200));
#602=EDGE_LOOP('',(#201));
#603=EDGE_LOOP('',(#202));
#604=EDGE_LOOP('',(#203));
#605=EDGE_LOOP('',(#204));
#606=EDGE_LOOP('',(#205));
#607=EDGE_LOOP('',(#206,#207,#208,#209,#210,#211,#212,#213,#214,#215,#216,
#217,#218,#219,#220,#221));
#608=EDGE_LOOP('',(#222,#223,#224,#225));
#609=EDGE_LOOP('',(#226,#227,#228,#229));
#610=EDGE_LOOP('',(#230,#231,#232,#233));
#611=EDGE_LOOP('',(#234,#235,#236,#237));
#612=EDGE_LOOP('',(#238,#239,#240,#241));
#613=EDGE_LOOP('',(#242,#243,#244,#245));
#614=EDGE_LOOP('',(#246,#247,#248,#249));
#615=EDGE_LOOP('',(#250,#251,#252,#253,#254));
#616=EDGE_LOOP('',(#255,#256,#257,#258));
#617=EDGE_LOOP('',(#259,#260,#261,#262,#263));
#618=EDGE_LOOP('',(#264,#265,#266,#267));
#619=EDGE_LOOP('',(#268));
#620=EDGE_LOOP('',(#269));
#621=EDGE_LOOP('',(#270));
#622=EDGE_LOOP('',(#271));
#623=EDGE_LOOP('',(#272,#273,#274,#275));
#624=EDGE_LOOP('',(#276));
#625=EDGE_LOOP('',(#277));
#626=EDGE_LOOP('',(#278));
#627=EDGE_LOOP('',(#279,#280,#281,#282,#283,#284,#285,#286,#287,#288,#289,
#290));
#628=EDGE_LOOP('',(#291,#292,#293,#294));
#629=EDGE_LOOP('',(#295,#296,#297,#298));
#630=EDGE_LOOP('',(#299,#300,#301,#302));
#631=EDGE_LOOP('',(#303,#304,#305,#306));
#632=EDGE_LOOP('',(#307));
#633=EDGE_LOOP('',(#308,#309,#310,#311));
#634=EDGE_LOOP('',(#312));
#635=EDGE_LOOP('',(#313));
#636=EDGE_LOOP('',(#314));
#637=EDGE_LOOP('',(#315));
#638=EDGE_LOOP('',(#316));
#639=EDGE_LOOP('',(#317));
#640=EDGE_LOOP('',(#318));
#641=EDGE_LOOP('',(#319));
#642=EDGE_LOOP('',(#320,#321,#322,#323,#324,#325));
#643=EDGE_LOOP('',(#326,#327,#328,#329));
#644=EDGE_LOOP('',(#330,#331,#332,#333));
#645=EDGE_LOOP('',(#334,#335,#336,#337));
#646=EDGE_LOOP('',(#338,#339,#340,#341));
#647=EDGE_LOOP('',(#342,#343,#344,#345));
#648=EDGE_LOOP('',(#346,#347,#348,#349));
#649=EDGE_LOOP('',(#350,#351,#352,#353));
#650=EDGE_LOOP('',(#354,#355,#356,#357));
#651=EDGE_LOOP('',(#358,#359,#360,#361,#362,#363,#364,#365));
#652=EDGE_LOOP('',(#366,#367,#368,#369));
#653=EDGE_LOOP('',(#370,#371,#372,#373,#374,#375,#376,#377));
#654=EDGE_LOOP('',(#378,#379,#380,#381));
#655=EDGE_LOOP('',(#382,#383,#384,#385));
#656=EDGE_LOOP('',(#386,#387,#388,#389));
#657=EDGE_LOOP('',(#390,#391,#392,#393));
#658=EDGE_LOOP('',(#394,#395,#396,#397));
#659=FACE_BOUND('',#597,.T.);
#660=FACE_BOUND('',#598,.T.);
#661=FACE_BOUND('',#599,.T.);
#662=FACE_BOUND('',#600,.T.);
#663=FACE_BOUND('',#601,.T.);
#664=FACE_BOUND('',#602,.T.);
#665=FACE_BOUND('',#603,.T.);
#666=FACE_BOUND('',#604,.T.);
#667=FACE_BOUND('',#605,.T.);
#668=FACE_BOUND('',#606,.T.);
#669=FACE_BOUND('',#607,.T.);
#670=FACE_BOUND('',#608,.T.);
#671=FACE_BOUND('',#609,.T.);
#672=FACE_BOUND('',#610,.T.);
#673=FACE_BOUND('',#611,.T.);
#674=FACE_BOUND('',#612,.T.);
#675=FACE_BOUND('',#613,.T.);
#676=FACE_BOUND('',#614,.T.);
#677=FACE_BOUND('',#615,.T.);
#678=FACE_BOUND('',#616,.T.);
#679=FACE_BOUND('',#617,.T.);
#680=FACE_BOUND('',#618,.T.);
#681=FACE_BOUND('',#619,.T.);
#682=FACE_BOUND('',#620,.T.);
#683=FACE_BOUND('',#621,.T.);
#684=FACE_BOUND('',#622,.T.);
#685=FACE_BOUND('',#623,.T.);
#686=FACE_BOUND('',#624,.T.);
#687=FACE_BOUND('',#625,.T.);
#688=FACE_BOUND('',#626,.T.);
#689=FACE_BOUND('',#627,.T.);
#690=FACE_BOUND('',#628,.T.);
#691=FACE_BOUND('',#629,.T.);
#692=FACE_BOUND('',#630,.T.);
#693=FACE_BOUND('',#631,.T.);
#694=FACE_BOUND('',#632,.T.);
#695=FACE_BOUND('',#633,.T.);
#696=FACE_BOUND('',#634,.T.);
#697=FACE_BOUND('',#635,.T.);
#698=FACE_BOUND('',#636,.T.);
#699=FACE_BOUND('',#637,.T.);
#700=FACE_BOUND('',#638,.T.);
#701=FACE_BOUND('',#639,.T.);
#702=FACE_BOUND('',#640,.T.);
#703=FACE_BOUND('',#641,.T.);
#704=FACE_BOUND('',#642,.T.);
#705=FACE_BOUND('',#643,.T.);
#706=FACE_BOUND('',#644,.T.);
#707=FACE_BOUND('',#645,.T.);
#708=FACE_BOUND('',#646,.T.);
#709=FACE_BOUND('',#647,.T.);
#710=FACE_BOUND('',#648,.T.);
#711=FACE_BOUND('',#649,.T.);
#712=FACE_BOUND('',#650,.T.);
#713=FACE_BOUND('',#651,.T.);
#714=FACE_BOUND('',#652,.T.);
#715=FACE_BOUND('',#653,.T.);
#716=FACE_BOUND('',#654,.T.);
#717=FACE_BOUND('',#655,.T.);
#718=FACE_BOUND('',#656,.T.);
#719=FACE_BOUND('',#657,.T.);
#720=FACE_BOUND('',#658,.T.);
#721=CYLINDRICAL_SURFACE('',#816,0.0060385727266768);
#722=CYLINDRICAL_SURFACE('',#820,0.007);
#723=CYLINDRICAL_SURFACE('',#836,0.002);
#724=CYLINDRICAL_SURFACE('',#845,0.001);
#725=CYLINDRICAL_SURFACE('',#847,0.001);
#726=CYLINDRICAL_SURFACE('',#849,0.002);
#727=CYLINDRICAL_SURFACE('',#859,0.0075);
#728=CYLINDRICAL_SURFACE('',#863,0.006);
#729=CYLINDRICAL_SURFACE('',#866,0.001);
#730=CYLINDRICAL_SURFACE('',#886,0.001);
#731=CYLINDRICAL_SURFACE('',#887,0.001);
#732=CYLINDRICAL_SURFACE('',#888,0.001);
#733=CYLINDRICAL_SURFACE('',#889,0.001);
#734=ADVANCED_FACE('',(#659,#660),#721,.T.);
#735=ADVANCED_FACE('',(#661),#165,.F.);
#736=ADVANCED_FACE('',(#662,#663),#722,.T.);
#737=ADVANCED_FACE('',(#664),#166,.T.);
#738=ADVANCED_FACE('',(#665,#666),#167,.F.);
#739=ADVANCED_FACE('',(#667,#668,#669),#168,.T.);
#740=ADVANCED_FACE('',(#670),#169,.T.);
#741=ADVANCED_FACE('',(#671),#170,.F.);
#742=ADVANCED_FACE('',(#672),#171,.F.);
#743=ADVANCED_FACE('',(#673),#172,.T.);
#744=ADVANCED_FACE('',(#674),#173,.F.);
#745=ADVANCED_FACE('',(#675),#723,.T.);
#746=ADVANCED_FACE('',(#676),#174,.T.);
#747=ADVANCED_FACE('',(#677),#175,.T.);
#748=ADVANCED_FACE('',(#678),#176,.T.);
#749=ADVANCED_FACE('',(#679),#177,.F.);
#750=ADVANCED_FACE('',(#680),#178,.F.);
#751=ADVANCED_FACE('',(#681,#682),#724,.F.);
#752=ADVANCED_FACE('',(#683,#684),#725,.F.);
#753=ADVANCED_FACE('',(#685),#726,.T.);
#754=ADVANCED_FACE('',(#686,#687,#688,#689),#179,.F.);
#755=ADVANCED_FACE('',(#690),#180,.T.);
#756=ADVANCED_FACE('',(#691),#181,.F.);
#757=ADVANCED_FACE('',(#692),#182,.F.);
#758=ADVANCED_FACE('',(#693),#183,.T.);
#759=ADVANCED_FACE('',(#694,#695),#184,.T.);
#760=ADVANCED_FACE('',(#696,#697),#727,.T.);
#761=ADVANCED_FACE('',(#698,#699),#185,.T.);
#762=ADVANCED_FACE('',(#700,#701),#728,.F.);
#763=ADVANCED_FACE('',(#702,#703),#10,.T.);
#764=ADVANCED_FACE('',(#704),#729,.T.);
#765=ADVANCED_FACE('',(#705),#186,.T.);
#766=ADVANCED_FACE('',(#706),#187,.F.);
#767=ADVANCED_FACE('',(#707),#188,.F.);
#768=ADVANCED_FACE('',(#708),#189,.F.);
#769=ADVANCED_FACE('',(#709),#190,.T.);
#770=ADVANCED_FACE('',(#710),#191,.T.);
#771=ADVANCED_FACE('',(#711),#192,.F.);
#772=ADVANCED_FACE('',(#712),#193,.T.);
#773=ADVANCED_FACE('',(#713,#714),#194,.T.);
#774=ADVANCED_FACE('',(#715,#716),#195,.F.);
#775=ADVANCED_FACE('',(#717),#730,.T.);
#776=ADVANCED_FACE('',(#718),#731,.T.);
#777=ADVANCED_FACE('',(#719),#732,.T.);
#778=ADVANCED_FACE('',(#720),#733,.T.);
#779=CLOSED_SHELL('',(#734,#735,#736,#737,#738));
#780=CLOSED_SHELL('',(#739,#740,#741,#742,#743,#744,#745,#746,#747,#748,
#749,#750,#751,#752,#753,#754,#755,#756,#757,#758,#759,#760,#761,#762,#763,
#764));
#781=CLOSED_SHELL('',(#765,#766,#767,#768,#769,#770,#771,#772,#773,#774,
#775,#776,#777,#778));
#782=STYLED_ITEM('',(#785),#806);
#783=STYLED_ITEM('',(#786),#807);
#784=STYLED_ITEM('',(#787),#808);
#785=PRESENTATION_STYLE_ASSIGNMENT((#788));
#786=PRESENTATION_STYLE_ASSIGNMENT((#789));
#787=PRESENTATION_STYLE_ASSIGNMENT((#790));
#788=SURFACE_STYLE_USAGE(.BOTH.,#791);
#789=SURFACE_STYLE_USAGE(.BOTH.,#792);
#790=SURFACE_STYLE_USAGE(.BOTH.,#793);
#791=SURFACE_SIDE_STYLE('',(#794));
#792=SURFACE_SIDE_STYLE('',(#795));
#793=SURFACE_SIDE_STYLE('',(#796));
#794=SURFACE_STYLE_FILL_AREA(#797);
#795=SURFACE_STYLE_FILL_AREA(#798);
#796=SURFACE_STYLE_FILL_AREA(#799);
#797=FILL_AREA_STYLE('',(#800));
#798=FILL_AREA_STYLE('',(#801));
#799=FILL_AREA_STYLE('',(#802));
#800=FILL_AREA_STYLE_COLOUR('',#803);
#801=FILL_AREA_STYLE_COLOUR('',#804);
#802=FILL_AREA_STYLE_COLOUR('',#805);
#803=COLOUR_RGB('',0.231372549019608,0.380392156862745,0.705882352941177);
#804=COLOUR_RGB('',0.615686274509804,0.811764705882353,0.929411764705882);
#805=COLOUR_RGB('',0.647058823529412,0.647058823529412,0.647058823529412);
#806=MANIFOLD_SOLID_BREP('Lens',#779);
#807=MANIFOLD_SOLID_BREP('Metal_Lens_Holder',#780);
#808=MANIFOLD_SOLID_BREP('Flange',#781);
#809=SHAPE_DEFINITION_REPRESENTATION(#1352,#812);
#810=SHAPE_DEFINITION_REPRESENTATION(#1353,#813);
#811=SHAPE_DEFINITION_REPRESENTATION(#1354,#814);
#812=SHAPE_REPRESENTATION('Lens',(#815),#1337);
#813=SHAPE_REPRESENTATION('Metal_Lens_Holder',(#825),#1338);
#814=SHAPE_REPRESENTATION('Flange',(#867),#1339);
#815=AXIS2_PLACEMENT_3D('',#1114,#890,#891);
#816=AXIS2_PLACEMENT_3D('',#1115,#892,#893);
#817=AXIS2_PLACEMENT_3D('',#1116,#894,#895);
#818=AXIS2_PLACEMENT_3D('',#1118,#896,#897);
#819=AXIS2_PLACEMENT_3D('',#1120,#898,#899);
#820=AXIS2_PLACEMENT_3D('',#1121,#900,#901);
#821=AXIS2_PLACEMENT_3D('',#1122,#902,#903);
#822=AXIS2_PLACEMENT_3D('',#1124,#904,#905);
#823=AXIS2_PLACEMENT_3D('',#1126,#906,#907);
#824=AXIS2_PLACEMENT_3D('',#1127,#908,#909);
#825=AXIS2_PLACEMENT_3D('',#1128,#910,#911);
#826=AXIS2_PLACEMENT_3D('',#1129,#912,#913);
#827=AXIS2_PLACEMENT_3D('',#1130,#914,#915);
#828=AXIS2_PLACEMENT_3D('',#1132,#916,#917);
#829=AXIS2_PLACEMENT_3D('',#1151,#926,#927);
#830=AXIS2_PLACEMENT_3D('',#1163,#933,#934);
#831=AXIS2_PLACEMENT_3D('',#1166,#936,#937);
#832=AXIS2_PLACEMENT_3D('',#1172,#941,#942);
#833=AXIS2_PLACEMENT_3D('',#1176,#945,#946);
#834=AXIS2_PLACEMENT_3D('',#1180,#949,#950);
#835=AXIS2_PLACEMENT_3D('',#1184,#953,#954);
#836=AXIS2_PLACEMENT_3D('',#1188,#957,#958);
#837=AXIS2_PLACEMENT_3D('',#1189,#959,#960);
#838=AXIS2_PLACEMENT_3D('',#1192,#962,#963);
#839=AXIS2_PLACEMENT_3D('',#1196,#966,#967);
#840=AXIS2_PLACEMENT_3D('',#1200,#969,#970);
#841=AXIS2_PLACEMENT_3D('',#1202,#972,#973);
#842=AXIS2_PLACEMENT_3D('',#1208,#977,#978);
#843=AXIS2_PLACEMENT_3D('',#1209,#979,#980);
#844=AXIS2_PLACEMENT_3D('',#1213,#983,#984);
#845=AXIS2_PLACEMENT_3D('',#1217,#987,#988);
#846=AXIS2_PLACEMENT_3D('',#1218,#989,#990);
#847=AXIS2_PLACEMENT_3D('',#1220,#991,#992);
#848=AXIS2_PLACEMENT_3D('',#1221,#993,#994);
#849=AXIS2_PLACEMENT_3D('',#1223,#995,#996);
#850=AXIS2_PLACEMENT_3D('',#1224,#997,#998);
#851=AXIS2_PLACEMENT_3D('',#1225,#999,#1000);
#852=AXIS2_PLACEMENT_3D('',#1226,#1001,#1002);
#853=AXIS2_PLACEMENT_3D('',#1228,#1003,#1004);
#854=AXIS2_PLACEMENT_3D('',#1235,#1009,#1010);
#855=AXIS2_PLACEMENT_3D('',#1239,#1013,#1014);
#856=AXIS2_PLACEMENT_3D('',#1243,#1017,#1018);
#857=AXIS2_PLACEMENT_3D('',#1245,#1020,#1021);
#858=AXIS2_PLACEMENT_3D('',#1246,#1022,#1023);
#859=AXIS2_PLACEMENT_3D('',#1248,#1024,#1025);
#860=AXIS2_PLACEMENT_3D('',#1249,#1026,#1027);
#861=AXIS2_PLACEMENT_3D('',#1251,#1028,#1029);
#862=AXIS2_PLACEMENT_3D('',#1252,#1030,#1031);
#863=AXIS2_PLACEMENT_3D('',#1254,#1032,#1033);
#864=AXIS2_PLACEMENT_3D('',#1255,#1034,#1035);
#865=AXIS2_PLACEMENT_3D('',#1257,#1036,#1037);
#866=AXIS2_PLACEMENT_3D('',#1258,#1038,#1039);
#867=AXIS2_PLACEMENT_3D('',#1259,#1040,#1041);
#868=AXIS2_PLACEMENT_3D('',#1260,#1042,#1043);
#869=AXIS2_PLACEMENT_3D('',#1269,#1048,#1049);
#870=AXIS2_PLACEMENT_3D('',#1275,#1053,#1054);
#871=AXIS2_PLACEMENT_3D('',#1281,#1058,#1059);
#872=AXIS2_PLACEMENT_3D('',#1290,#1064,#1065);
#873=AXIS2_PLACEMENT_3D('',#1299,#1070,#1071);
#874=AXIS2_PLACEMENT_3D('',#1308,#1076,#1077);
#875=AXIS2_PLACEMENT_3D('',#1317,#1082,#1083);
#876=AXIS2_PLACEMENT_3D('',#1320,#1086,#1087);
#877=AXIS2_PLACEMENT_3D('',#1321,#1088,#1089);
#878=AXIS2_PLACEMENT_3D('',#1322,#1090,#1091);
#879=AXIS2_PLACEMENT_3D('',#1323,#1092,#1093);
#880=AXIS2_PLACEMENT_3D('',#1324,#1094,#1095);
#881=AXIS2_PLACEMENT_3D('',#1325,#1096,#1097);
#882=AXIS2_PLACEMENT_3D('',#1326,#1098,#1099);
#883=AXIS2_PLACEMENT_3D('',#1327,#1100,#1101);
#884=AXIS2_PLACEMENT_3D('',#1328,#1102,#1103);
#885=AXIS2_PLACEMENT_3D('',#1329,#1104,#1105);
#886=AXIS2_PLACEMENT_3D('',#1330,#1106,#1107);
#887=AXIS2_PLACEMENT_3D('',#1331,#1108,#1109);
#888=AXIS2_PLACEMENT_3D('',#1332,#1110,#1111);
#889=AXIS2_PLACEMENT_3D('',#1333,#1112,#1113);
#890=DIRECTION('',(0.,0.,1.));
#891=DIRECTION('',(1.,0.,0.));
#892=DIRECTION('',(0.,0.,1.));
#893=DIRECTION('',(1.,0.,0.));
#894=DIRECTION('',(0.,0.,-1.));
#895=DIRECTION('',(1.,6.12323399573677E-17,0.));
#896=DIRECTION('',(0.,0.,-1.));
#897=DIRECTION('',(1.,6.12323399573677E-17,0.));
#898=DIRECTION('',(0.,0.,-1.));
#899=DIRECTION('',(1.,0.,0.));
#900=DIRECTION('',(0.,0.,1.));
#901=DIRECTION('',(1.,0.,0.));
#902=DIRECTION('',(0.,0.,-1.));
#903=DIRECTION('',(1.,6.12323399573677E-17,0.));
#904=DIRECTION('',(0.,0.,-1.));
#905=DIRECTION('',(1.,6.12323399573677E-17,0.));
#906=DIRECTION('',(0.,0.,-1.));
#907=DIRECTION('',(1.,0.,0.));
#908=DIRECTION('',(0.,0.,-1.));
#909=DIRECTION('',(1.,0.,0.));
#910=DIRECTION('',(0.,0.,1.));
#911=DIRECTION('',(1.,0.,0.));
#912=DIRECTION('',(0.,0.,1.));
#913=DIRECTION('',(1.,0.,0.));
#914=DIRECTION('',(0.,0.,-1.));
#915=DIRECTION('',(1.,0.,0.));
#916=DIRECTION('',(0.,0.,1.));
#917=DIRECTION('',(1.,0.,0.));
#918=DIRECTION('',(-1.,0.,0.));
#919=DIRECTION('',(0.,-1.,0.));
#920=DIRECTION('',(-1.,0.,0.));
#921=DIRECTION('',(0.,-1.,0.));
#922=DIRECTION('',(-1.,-6.19544098563145E-17,0.));
#923=DIRECTION('',(0.,-1.,0.));
#924=DIRECTION('',(-1.,0.,0.));
#925=DIRECTION('',(0.,1.,0.));
#926=DIRECTION('',(0.,0.,1.));
#927=DIRECTION('',(1.,0.,0.));
#928=DIRECTION('',(0.,1.,0.));
#929=DIRECTION('',(-1.,0.,0.));
#930=DIRECTION('',(0.,-1.,0.));
#931=DIRECTION('',(-1.,0.,0.));
#932=DIRECTION('',(0.,-1.,0.));
#933=DIRECTION('',(0.,0.,-1.));
#934=DIRECTION('',(1.,0.,0.));
#935=DIRECTION('',(0.,-1.,0.));
#936=DIRECTION('',(-1.,0.,0.));
#937=DIRECTION('',(0.,0.,1.));
#938=DIRECTION('',(0.,1.,0.));
#939=DIRECTION('',(0.,0.,-1.));
#940=DIRECTION('',(0.,0.,-1.));
#941=DIRECTION('',(0.,-1.,0.));
#942=DIRECTION('',(0.,0.,-1.));
#943=DIRECTION('',(-1.,0.,0.));
#944=DIRECTION('',(0.,0.,-1.));
#945=DIRECTION('',(1.,0.,0.));
#946=DIRECTION('',(0.,0.,-1.));
#947=DIRECTION('',(0.,-1.,0.));
#948=DIRECTION('',(0.,0.,-1.));
#949=DIRECTION('',(0.,-1.,0.));
#950=DIRECTION('',(0.,0.,-1.));
#951=DIRECTION('',(-1.,0.,0.));
#952=DIRECTION('',(0.,0.,-1.));
#953=DIRECTION('',(1.,0.,0.));
#954=DIRECTION('',(0.,0.,-1.));
#955=DIRECTION('',(0.,-1.,0.));
#956=DIRECTION('',(0.,0.,-1.));
#957=DIRECTION('',(0.,0.,-1.));
#958=DIRECTION('',(-1.,0.,0.));
#959=DIRECTION('',(0.,0.,-1.));
#960=DIRECTION('',(1.,0.,0.));
#961=DIRECTION('',(0.,0.,-1.));
#962=DIRECTION('',(1.,0.,0.));
#963=DIRECTION('',(0.,0.,-1.));
#964=DIRECTION('',(0.,-1.,0.));
#965=DIRECTION('',(0.,0.,-1.));
#966=DIRECTION('',(0.,-1.,0.));
#967=DIRECTION('',(0.,0.,-1.));
#968=DIRECTION('',(0.,0.,-1.));
#969=DIRECTION('',(0.,-1.,0.));
#970=DIRECTION('',(0.,0.,-1.));
#971=DIRECTION('',(-1.,0.,0.));
#972=DIRECTION('',(1.,0.,0.));
#973=DIRECTION('',(0.,0.,-1.));
#974=DIRECTION('',(0.,0.,-1.));
#975=DIRECTION('',(0.,-1.,0.));
#976=DIRECTION('',(0.,-1.,0.));
#977=DIRECTION('',(0.,-1.,0.));
#978=DIRECTION('',(0.,0.,-1.));
#979=DIRECTION('',(0.,-1.,0.));
#980=DIRECTION('',(0.,0.,-1.));
#981=DIRECTION('',(-1.,0.,0.));
#982=DIRECTION('',(0.,0.,-1.));
#983=DIRECTION('',(-1.,0.,0.));
#984=DIRECTION('',(0.,0.,1.));
#985=DIRECTION('',(0.,1.,0.));
#986=DIRECTION('',(0.,0.,-1.));
#987=DIRECTION('',(0.,0.,-1.));
#988=DIRECTION('',(-1.,0.,0.));
#989=DIRECTION('',(0.,0.,1.));
#990=DIRECTION('',(1.,0.,0.));
#991=DIRECTION('',(0.,0.,-1.));
#992=DIRECTION('',(-1.,0.,0.));
#993=DIRECTION('',(0.,0.,-1.));
#994=DIRECTION('',(1.,0.,0.));
#995=DIRECTION('',(0.,0.,-1.));
#996=DIRECTION('',(-1.,0.,0.));
#997=DIRECTION('',(0.,0.,1.));
#998=DIRECTION('',(1.,0.,0.));
#999=DIRECTION('',(0.,0.,1.));
#1000=DIRECTION('',(1.,0.,0.));
#1001=DIRECTION('',(0.,0.,-1.));
#1002=DIRECTION('',(1.,6.12323399573677E-17,0.));
#1003=DIRECTION('',(-1.,0.,0.));
#1004=DIRECTION('',(0.,0.,1.));
#1005=DIRECTION('',(0.,-1.,0.));
#1006=DIRECTION('',(0.,0.,1.));
#1007=DIRECTION('',(0.,-1.,0.));
#1008=DIRECTION('',(0.,0.,1.));
#1009=DIRECTION('',(-6.19544098563145E-17,1.,0.));
#1010=DIRECTION('',(-1.,-6.19544098563145E-17,0.));
#1011=DIRECTION('',(0.,0.,1.));
#1012=DIRECTION('',(-1.,-6.19544098563145E-17,0.));
#1013=DIRECTION('',(-1.,0.,0.));
#1014=DIRECTION('',(0.,0.,1.));
#1015=DIRECTION('',(0.,0.,1.));
#1016=DIRECTION('',(0.,-1.,0.));
#1017=DIRECTION('',(0.,1.,0.));
#1018=DIRECTION('',(0.,0.,1.));
#1019=DIRECTION('',(-1.,0.,0.));
#1020=DIRECTION('',(0.,0.,1.));
#1021=DIRECTION('',(1.,0.,0.));
#1022=DIRECTION('',(0.,0.,1.));
#1023=DIRECTION('',(1.,-6.12323399573677E-17,0.));
#1024=DIRECTION('',(0.,0.,1.));
#1025=DIRECTION('',(1.,0.,0.));
#1026=DIRECTION('',(0.,0.,-1.));
#1027=DIRECTION('',(1.,6.12323399573677E-17,0.));
#1028=DIRECTION('',(0.,0.,-1.));
#1029=DIRECTION('',(1.,0.,0.));
#1030=DIRECTION('',(0.,0.,-1.));
#1031=DIRECTION('',(-1.,0.,0.));
#1032=DIRECTION('',(0.,0.,1.));
#1033=DIRECTION('',(1.,0.,0.));
#1034=DIRECTION('',(0.,0.,-1.));
#1035=DIRECTION('',(-1.,0.,0.));
#1036=DIRECTION('',(0.,0.,-1.));
#1037=DIRECTION('',(-1.,0.,0.));
#1038=DIRECTION('',(0.,-1.,0.));
#1039=DIRECTION('',(0.,0.,-1.));
#1040=DIRECTION('',(0.,0.,1.));
#1041=DIRECTION('',(1.,0.,0.));
#1042=DIRECTION('',(6.19544098563145E-17,-1.,0.));
#1043=DIRECTION('',(1.,6.19544098563145E-17,0.));
#1044=DIRECTION('',(-1.,-6.19544098563145E-17,0.));
#1045=DIRECTION('',(0.,0.,-1.));
#1046=DIRECTION('',(-1.,-6.19544098563145E-17,0.));
#1047=DIRECTION('',(0.,0.,-1.));
#1048=DIRECTION('',(1.,0.,0.));
#1049=DIRECTION('',(0.,0.,-1.));
#1050=DIRECTION('',(0.,-1.,0.));
#1051=DIRECTION('',(0.,0.,-1.));
#1052=DIRECTION('',(0.,-1.,0.));
#1053=DIRECTION('',(0.,-1.,0.));
#1054=DIRECTION('',(0.,0.,-1.));
#1055=DIRECTION('',(-1.,0.,0.));
#1056=DIRECTION('',(0.,0.,-1.));
#1057=DIRECTION('',(-1.,0.,0.));
#1058=DIRECTION('',(0.,1.,0.));
#1059=DIRECTION('',(0.,0.,1.));
#1060=DIRECTION('',(1.,0.,0.));
#1061=DIRECTION('',(0.,0.,-1.));
#1062=DIRECTION('',(1.,0.,0.));
#1063=DIRECTION('',(0.,0.,-1.));
#1064=DIRECTION('',(1.,0.,0.));
#1065=DIRECTION('',(0.,0.,-1.));
#1066=DIRECTION('',(0.,-1.,0.));
#1067=DIRECTION('',(0.,0.,-1.));
#1068=DIRECTION('',(0.,-1.,0.));
#1069=DIRECTION('',(0.,0.,-1.));
#1070=DIRECTION('',(0.,1.,0.));
#1071=DIRECTION('',(0.,0.,1.));
#1072=DIRECTION('',(1.,0.,0.));
#1073=DIRECTION('',(0.,0.,-1.));
#1074=DIRECTION('',(1.,0.,0.));
#1075=DIRECTION('',(0.,0.,-1.));
#1076=DIRECTION('',(1.,0.,0.));
#1077=DIRECTION('',(0.,0.,-1.));
#1078=DIRECTION('',(0.,-1.,0.));
#1079=DIRECTION('',(0.,0.,-1.));
#1080=DIRECTION('',(0.,-1.,0.));
#1081=DIRECTION('',(0.,0.,-1.));
#1082=DIRECTION('',(1.,0.,0.));
#1083=DIRECTION('',(0.,0.,-1.));
#1084=DIRECTION('',(0.,-1.,0.));
#1085=DIRECTION('',(0.,-1.,0.));
#1086=DIRECTION('',(0.,0.,1.));
#1087=DIRECTION('',(1.,0.,0.));
#1088=DIRECTION('',(0.,0.,1.));
#1089=DIRECTION('',(1.,0.,0.));
#1090=DIRECTION('',(0.,0.,1.));
#1091=DIRECTION('',(1.,0.,0.));
#1092=DIRECTION('',(0.,0.,1.));
#1093=DIRECTION('',(1.,0.,0.));
#1094=DIRECTION('',(0.,0.,1.));
#1095=DIRECTION('',(1.,0.,0.));
#1096=DIRECTION('',(0.,0.,1.));
#1097=DIRECTION('',(1.,0.,0.));
#1098=DIRECTION('',(0.,0.,1.));
#1099=DIRECTION('',(1.,0.,0.));
#1100=DIRECTION('',(0.,0.,1.));
#1101=DIRECTION('',(1.,0.,0.));
#1102=DIRECTION('',(0.,0.,1.));
#1103=DIRECTION('',(1.,0.,0.));
#1104=DIRECTION('',(0.,0.,1.));
#1105=DIRECTION('',(1.,0.,0.));
#1106=DIRECTION('',(0.,0.,-1.));
#1107=DIRECTION('',(-1.,0.,0.));
#1108=DIRECTION('',(0.,0.,1.));
#1109=DIRECTION('',(1.,0.,0.));
#1110=DIRECTION('',(0.,0.,1.));
#1111=DIRECTION('',(1.,0.,0.));
#1112=DIRECTION('',(0.,0.,-1.));
#1113=DIRECTION('',(-1.,0.,0.));
#1114=CARTESIAN_POINT('',(0.,0.,0.));
#1115=CARTESIAN_POINT('',(0.,-3.69755938057163E-19,-0.009));
#1116=CARTESIAN_POINT('',(0.,-3.69755938057163E-19,-0.009));
#1117=CARTESIAN_POINT('',(0.0060385727266768,4.81482486096809E-35,-0.009));
#1118=CARTESIAN_POINT('',(0.,-3.69755938057163E-19,0.));
#1119=CARTESIAN_POINT('',(0.0060385727266768,4.81482486096809E-35,0.));
#1120=CARTESIAN_POINT('',(0.,0.,0.));
#1121=CARTESIAN_POINT('',(0.,-7.98382317758736E-19,-0.013));
#1122=CARTESIAN_POINT('',(0.,-7.98382317758736E-19,-0.013));
#1123=CARTESIAN_POINT('',(0.007,-3.69755938057162E-19,-0.013));
#1124=CARTESIAN_POINT('',(0.,-7.98382317758736E-19,-0.009));
#1125=CARTESIAN_POINT('',(0.007,-3.69755938057162E-19,-0.009));
#1126=CARTESIAN_POINT('',(0.,0.,-0.013));
#1127=CARTESIAN_POINT('',(0.,0.,-0.009));
#1128=CARTESIAN_POINT('',(0.,0.,0.));
#1129=CARTESIAN_POINT('',(-3.97581607103348E-5,0.,0.004));
#1130=CARTESIAN_POINT('',(0.,-0.01,0.004));
#1131=CARTESIAN_POINT('',(0.001,-0.01,0.004));
#1132=CARTESIAN_POINT('',(0.,0.01,0.004));
#1133=CARTESIAN_POINT('',(0.001,0.01,0.004));
#1134=CARTESIAN_POINT('',(0.005,-0.008,0.004));
#1135=CARTESIAN_POINT('',(0.007,-0.008,0.004));
#1136=CARTESIAN_POINT('',(0.002,-0.008,0.004));
#1137=CARTESIAN_POINT('',(0.007,0.,0.004));
#1138=CARTESIAN_POINT('',(0.007,-0.007,0.004));
#1139=CARTESIAN_POINT('',(-8.67361737988404E-19,-0.007,0.004));
#1140=CARTESIAN_POINT('',(-0.007,-0.007,0.004));
#1141=CARTESIAN_POINT('',(-0.007,0.,0.004));
#1142=CARTESIAN_POINT('',(-0.007,0.007,0.004));
#1143=CARTESIAN_POINT('',(-8.67361737988404E-19,0.007,0.004));
#1144=CARTESIAN_POINT('',(0.007,0.007,0.004));
#1145=CARTESIAN_POINT('',(0.007,0.,0.004));
#1146=CARTESIAN_POINT('',(0.007,0.008,0.004));
#1147=CARTESIAN_POINT('',(0.005,0.008,0.004));
#1148=CARTESIAN_POINT('',(0.002,0.008,0.004));
#1149=CARTESIAN_POINT('',(0.002,0.009,0.004));
#1150=CARTESIAN_POINT('',(0.002,0.01,0.004));
#1151=CARTESIAN_POINT('',(0.,0.01,0.004));
#1152=CARTESIAN_POINT('',(-0.002,0.01,0.004));
#1153=CARTESIAN_POINT('',(-0.002,0.009,0.004));
#1154=CARTESIAN_POINT('',(-0.002,0.008,0.004));
#1155=CARTESIAN_POINT('',(-0.005,0.008,0.004));
#1156=CARTESIAN_POINT('',(-0.008,0.008,0.004));
#1157=CARTESIAN_POINT('',(-0.008,0.004,0.004));
#1158=CARTESIAN_POINT('',(-0.008,-0.008,0.004));
#1159=CARTESIAN_POINT('',(-0.005,-0.008,0.004));
#1160=CARTESIAN_POINT('',(-0.002,-0.008,0.004));
#1161=CARTESIAN_POINT('',(-0.002,-0.009,0.004));
#1162=CARTESIAN_POINT('',(-0.002,-0.01,0.004));
#1163=CARTESIAN_POINT('',(0.,-0.01,0.004));
#1164=CARTESIAN_POINT('',(0.002,-0.01,0.004));
#1165=CARTESIAN_POINT('',(0.002,-0.009,0.004));
#1166=CARTESIAN_POINT('',(-0.002,0.009,0.004));
#1167=CARTESIAN_POINT('',(-0.002,0.009,0.));
#1168=CARTESIAN_POINT('',(-0.002,0.008,0.));
#1169=CARTESIAN_POINT('',(-0.002,0.01,0.));
#1170=CARTESIAN_POINT('',(-0.002,0.008,0.004));
#1171=CARTESIAN_POINT('',(-0.002,0.01,0.004));
#1172=CARTESIAN_POINT('',(-0.005,0.008,0.004));
#1173=CARTESIAN_POINT('',(-0.005,0.008,0.));
#1174=CARTESIAN_POINT('',(-0.008,0.008,0.));
#1175=CARTESIAN_POINT('',(-0.008,0.008,0.004));
#1176=CARTESIAN_POINT('',(-0.008,0.004,0.004));
#1177=CARTESIAN_POINT('',(-0.008,0.004,0.));
#1178=CARTESIAN_POINT('',(-0.008,-0.008,0.));
#1179=CARTESIAN_POINT('',(-0.008,-0.008,0.004));
#1180=CARTESIAN_POINT('',(-0.005,-0.008,0.004));
#1181=CARTESIAN_POINT('',(-0.005,-0.008,0.));
#1182=CARTESIAN_POINT('',(-0.002,-0.008,0.));
#1183=CARTESIAN_POINT('',(-0.002,-0.008,0.004));
#1184=CARTESIAN_POINT('',(-0.002,-0.009,0.004));
#1185=CARTESIAN_POINT('',(-0.002,-0.009,0.));
#1186=CARTESIAN_POINT('',(-0.002,-0.01,0.));
#1187=CARTESIAN_POINT('',(-0.002,-0.01,0.004));
#1188=CARTESIAN_POINT('',(0.,-0.01,0.004));
#1189=CARTESIAN_POINT('',(0.,-0.01,0.));
#1190=CARTESIAN_POINT('',(0.002,-0.01,0.));
#1191=CARTESIAN_POINT('',(0.002,-0.01,0.004));
#1192=CARTESIAN_POINT('',(0.002,-0.009,0.004));
#1193=CARTESIAN_POINT('',(0.002,-0.009,0.));
#1194=CARTESIAN_POINT('',(0.002,-0.008,0.));
#1195=CARTESIAN_POINT('',(0.002,-0.008,0.004));
#1196=CARTESIAN_POINT('',(0.005,-0.008,0.004));
#1197=CARTESIAN_POINT('',(0.008,-0.008,0.004));
#1198=CARTESIAN_POINT('',(0.008,-0.008,0.003));
#1199=CARTESIAN_POINT('',(0.008,-0.008,0.));
#1200=CARTESIAN_POINT('',(0.007,-0.008,0.003));
#1201=CARTESIAN_POINT('',(0.005,-0.008,0.));
#1202=CARTESIAN_POINT('',(0.008,-0.004,0.004));
#1203=CARTESIAN_POINT('',(0.008,0.008,0.004));
#1204=CARTESIAN_POINT('',(0.008,0.008,0.003));
#1205=CARTESIAN_POINT('',(0.008,0.008,0.));
#1206=CARTESIAN_POINT('',(0.008,-0.004,0.003));
#1207=CARTESIAN_POINT('',(0.008,-0.004,0.));
#1208=CARTESIAN_POINT('',(0.005,0.008,0.004));
#1209=CARTESIAN_POINT('',(0.007,0.008,0.003));
#1210=CARTESIAN_POINT('',(0.005,0.008,0.));
#1211=CARTESIAN_POINT('',(0.002,0.008,0.));
#1212=CARTESIAN_POINT('',(0.002,0.008,0.004));
#1213=CARTESIAN_POINT('',(0.002,0.009,0.004));
#1214=CARTESIAN_POINT('',(0.002,0.009,0.));
#1215=CARTESIAN_POINT('',(0.002,0.01,0.));
#1216=CARTESIAN_POINT('',(0.002,0.01,0.004));
#1217=CARTESIAN_POINT('',(0.,0.01,0.004));
#1218=CARTESIAN_POINT('',(0.,0.01,0.));
#1219=CARTESIAN_POINT('',(0.001,0.01,0.));
#1220=CARTESIAN_POINT('',(0.,-0.01,0.004));
#1221=CARTESIAN_POINT('',(0.,-0.01,0.));
#1222=CARTESIAN_POINT('',(0.001,-0.01,0.));
#1223=CARTESIAN_POINT('',(0.,0.01,0.004));
#1224=CARTESIAN_POINT('',(0.,0.01,0.));
#1225=CARTESIAN_POINT('',(-3.97581607103348E-5,0.,0.));
#1226=CARTESIAN_POINT('',(0.,-4.59242549680257E-19,0.));
#1227=CARTESIAN_POINT('',(0.0075,6.74075480535533E-34,0.));
#1228=CARTESIAN_POINT('',(0.007,0.,0.001));
#1229=CARTESIAN_POINT('',(0.007,0.,0.004));
#1230=CARTESIAN_POINT('',(0.007,0.007,0.001));
#1231=CARTESIAN_POINT('',(0.007,0.007,0.001));
#1232=CARTESIAN_POINT('',(0.007,0.,0.001));
#1233=CARTESIAN_POINT('',(0.007,-0.007,0.001));
#1234=CARTESIAN_POINT('',(0.007,-0.007,0.001));
#1235=CARTESIAN_POINT('',(-8.67361737988404E-19,0.007,0.001));
#1236=CARTESIAN_POINT('',(-0.007,0.007,0.001));
#1237=CARTESIAN_POINT('',(-0.007,0.007,0.001));
#1238=CARTESIAN_POINT('',(-8.67361737988404E-19,0.007,0.001));
#1239=CARTESIAN_POINT('',(-0.007,0.,0.001));
#1240=CARTESIAN_POINT('',(-0.007,-0.007,0.001));
#1241=CARTESIAN_POINT('',(-0.007,-0.007,0.001));
#1242=CARTESIAN_POINT('',(-0.007,0.,0.001));
#1243=CARTESIAN_POINT('',(-8.67361737988404E-19,-0.007,0.001));
#1244=CARTESIAN_POINT('',(-8.67361737988404E-19,-0.007,0.001));
#1245=CARTESIAN_POINT('',(0.,0.,0.001));
#1246=CARTESIAN_POINT('',(0.,3.67394039744206E-19,0.001));
#1247=CARTESIAN_POINT('',(0.006,-1.92592994438724E-34,0.001));
#1248=CARTESIAN_POINT('',(0.,-4.59242549680257E-19,-0.003));
#1249=CARTESIAN_POINT('',(0.,-4.59242549680257E-19,-0.003));
#1250=CARTESIAN_POINT('',(0.0075,6.74075480535533E-34,-0.003));
#1251=CARTESIAN_POINT('',(0.,0.,-0.003));
#1252=CARTESIAN_POINT('',(0.,3.67394039744206E-19,-0.003));
#1253=CARTESIAN_POINT('',(-0.0065,3.67394039744206E-19,-0.003));
#1254=CARTESIAN_POINT('',(0.,3.67394039744206E-19,-0.0286916441593116));
#1255=CARTESIAN_POINT('',(0.,3.67394039744206E-19,-0.0025));
#1256=CARTESIAN_POINT('',(-0.006,3.67394039744206E-19,-0.0025));
#1257=CARTESIAN_POINT('',(0.,3.67394039744206E-19,-0.0025));
#1258=CARTESIAN_POINT('',(0.007,-0.004,0.003));
#1259=CARTESIAN_POINT('',(0.,0.,0.));
#1260=CARTESIAN_POINT('',(-8.67361737988404E-19,0.007,0.0045));
#1261=CARTESIAN_POINT('',(-8.67361737988404E-19,0.007,0.004));
#1262=CARTESIAN_POINT('',(0.007,0.007,0.004));
#1263=CARTESIAN_POINT('',(-0.007,0.007,0.004));
#1264=CARTESIAN_POINT('',(0.007,0.007,0.0045));
#1265=CARTESIAN_POINT('',(0.007,0.007,0.0045));
#1266=CARTESIAN_POINT('',(-8.67361737988404E-19,0.007,0.0045));
#1267=CARTESIAN_POINT('',(-0.007,0.007,0.0045));
#1268=CARTESIAN_POINT('',(-0.007,0.007,0.0045));
#1269=CARTESIAN_POINT('',(0.007,0.,0.0045));
#1270=CARTESIAN_POINT('',(0.007,0.,0.004));
#1271=CARTESIAN_POINT('',(0.007,-0.007,0.004));
#1272=CARTESIAN_POINT('',(0.007,-0.007,0.0045));
#1273=CARTESIAN_POINT('',(0.007,-0.007,0.0045));
#1274=CARTESIAN_POINT('',(0.007,0.,0.0045));
#1275=CARTESIAN_POINT('',(-8.67361737988404E-19,-0.007,0.0045));
#1276=CARTESIAN_POINT('',(-8.67361737988404E-19,-0.007,0.004));
#1277=CARTESIAN_POINT('',(-0.007,-0.007,0.004));
#1278=CARTESIAN_POINT('',(-0.007,-0.007,0.0045));
#1279=CARTESIAN_POINT('',(-0.007,-0.007,0.0045));
#1280=CARTESIAN_POINT('',(-8.67361737988404E-19,-0.007,0.0045));
#1281=CARTESIAN_POINT('',(0.,-0.00904360909967295,0.0045));
#1282=CARTESIAN_POINT('',(0.,-0.00904360909967295,0.0045));
#1283=CARTESIAN_POINT('',(-0.008,-0.00904360909967295,0.0045));
#1284=CARTESIAN_POINT('',(0.008,-0.00904360909967295,0.0045));
#1285=CARTESIAN_POINT('',(-0.008,-0.00904360909967295,0.0045));
#1286=CARTESIAN_POINT('',(-0.008,-0.00904360909967295,0.004));
#1287=CARTESIAN_POINT('',(0.,-0.00904360909967295,0.004));
#1288=CARTESIAN_POINT('',(0.008,-0.00904360909967295,0.004));
#1289=CARTESIAN_POINT('',(0.008,-0.00904360909967295,0.0045));
#1290=CARTESIAN_POINT('',(0.009,-2.18045498364735E-5,0.0045));
#1291=CARTESIAN_POINT('',(0.009,-2.18045498364735E-5,0.0045));
#1292=CARTESIAN_POINT('',(0.009,0.008,0.0045));
#1293=CARTESIAN_POINT('',(0.009,-0.00804360909967295,0.0045));
#1294=CARTESIAN_POINT('',(0.009,-0.00804360909967295,0.004));
#1295=CARTESIAN_POINT('',(0.009,-0.00804360909967295,0.004));
#1296=CARTESIAN_POINT('',(0.009,-2.18045498364735E-5,0.004));
#1297=CARTESIAN_POINT('',(0.009,0.008,0.004));
#1298=CARTESIAN_POINT('',(0.009,0.008,0.0045));
#1299=CARTESIAN_POINT('',(0.,0.009,0.0045));
#1300=CARTESIAN_POINT('',(0.,0.009,0.004));
#1301=CARTESIAN_POINT('',(-0.008,0.009,0.004));
#1302=CARTESIAN_POINT('',(0.008,0.009,0.004));
#1303=CARTESIAN_POINT('',(-0.008,0.009,0.0045));
#1304=CARTESIAN_POINT('',(-0.008,0.009,0.0045));
#1305=CARTESIAN_POINT('',(0.,0.009,0.0045));
#1306=CARTESIAN_POINT('',(0.008,0.009,0.0045));
#1307=CARTESIAN_POINT('',(0.008,0.009,0.0045));
#1308=CARTESIAN_POINT('',(-0.009,-2.18045498364735E-5,0.0045));
#1309=CARTESIAN_POINT('',(-0.009,-2.18045498364735E-5,0.004));
#1310=CARTESIAN_POINT('',(-0.009,0.008,0.004));
#1311=CARTESIAN_POINT('',(-0.009,-0.00804360909967295,0.004));
#1312=CARTESIAN_POINT('',(-0.009,-0.00804360909967295,0.0045));
#1313=CARTESIAN_POINT('',(-0.009,-0.00804360909967295,0.0045));
#1314=CARTESIAN_POINT('',(-0.009,-2.18045498364735E-5,0.0045));
#1315=CARTESIAN_POINT('',(-0.009,0.008,0.0045));
#1316=CARTESIAN_POINT('',(-0.009,0.008,0.004));
#1317=CARTESIAN_POINT('',(-0.007,0.,0.0045));
#1318=CARTESIAN_POINT('',(-0.007,0.,0.004));
#1319=CARTESIAN_POINT('',(-0.007,0.,0.0045));
#1320=CARTESIAN_POINT('',(0.,0.,0.0045));
#1321=CARTESIAN_POINT('',(-0.008,-0.00804360909967295,0.0045));
#1322=CARTESIAN_POINT('',(0.008,-0.00804360909967295,0.0045));
#1323=CARTESIAN_POINT('',(0.008,0.008,0.0045));
#1324=CARTESIAN_POINT('',(-0.008,0.008,0.0045));
#1325=CARTESIAN_POINT('',(0.,0.,0.004));
#1326=CARTESIAN_POINT('',(-0.008,-0.00804360909967295,0.004));
#1327=CARTESIAN_POINT('',(-0.008,0.008,0.004));
#1328=CARTESIAN_POINT('',(0.008,0.008,0.004));
#1329=CARTESIAN_POINT('',(0.008,-0.00804360909967295,0.004));
#1330=CARTESIAN_POINT('',(-0.008,-0.00804360909967295,0.0045));
#1331=CARTESIAN_POINT('',(0.008,-0.00804360909967295,0.0045));
#1332=CARTESIAN_POINT('',(-0.008,0.008,0.0045));
#1333=CARTESIAN_POINT('',(0.008,0.008,0.0045));
#1334=MECHANICAL_DESIGN_GEOMETRIC_PRESENTATION_REPRESENTATION('',(#782),
#1337);
#1335=MECHANICAL_DESIGN_GEOMETRIC_PRESENTATION_REPRESENTATION('',(#783),
#1338);
#1336=MECHANICAL_DESIGN_GEOMETRIC_PRESENTATION_REPRESENTATION('',(#784),
#1339);
#1337=(
GEOMETRIC_REPRESENTATION_CONTEXT(3)
GLOBAL_UNCERTAINTY_ASSIGNED_CONTEXT((#1340))
GLOBAL_UNIT_ASSIGNED_CONTEXT((#1349,#1346,#1343))
REPRESENTATION_CONTEXT('Lens','TOP_LEVEL_ASSEMBLY_PART')
);
#1338=(
GEOMETRIC_REPRESENTATION_CONTEXT(3)
GLOBAL_UNCERTAINTY_ASSIGNED_CONTEXT((#1341))
GLOBAL_UNIT_ASSIGNED_CONTEXT((#1350,#1347,#1344))
REPRESENTATION_CONTEXT('Metal_Lens_Holder','TOP_LEVEL_ASSEMBLY_PART')
);
#1339=(
GEOMETRIC_REPRESENTATION_CONTEXT(3)
GLOBAL_UNCERTAINTY_ASSIGNED_CONTEXT((#1342))
GLOBAL_UNIT_ASSIGNED_CONTEXT((#1351,#1348,#1345))
REPRESENTATION_CONTEXT('Flange','TOP_LEVEL_ASSEMBLY_PART')
);
#1340=UNCERTAINTY_MEASURE_WITH_UNIT(LENGTH_MEASURE(1.E-8),#1349,
'DISTANCE_ACCURACY_VALUE','Maximum Tolerance applied to model');
#1341=UNCERTAINTY_MEASURE_WITH_UNIT(LENGTH_MEASURE(1.E-8),#1350,
'DISTANCE_ACCURACY_VALUE','Maximum Tolerance applied to model');
#1342=UNCERTAINTY_MEASURE_WITH_UNIT(LENGTH_MEASURE(1.E-8),#1351,
'DISTANCE_ACCURACY_VALUE','Maximum Tolerance applied to model');
#1343=(
NAMED_UNIT(*)
SI_UNIT($,.STERADIAN.)
SOLID_ANGLE_UNIT()
);
#1344=(
NAMED_UNIT(*)
SI_UNIT($,.STERADIAN.)
SOLID_ANGLE_UNIT()
);
#1345=(
NAMED_UNIT(*)
SI_UNIT($,.STERADIAN.)
SOLID_ANGLE_UNIT()
);
#1346=(
NAMED_UNIT(*)
PLANE_ANGLE_UNIT()
SI_UNIT($,.RADIAN.)
);
#1347=(
NAMED_UNIT(*)
PLANE_ANGLE_UNIT()
SI_UNIT($,.RADIAN.)
);
#1348=(
NAMED_UNIT(*)
PLANE_ANGLE_UNIT()
SI_UNIT($,.RADIAN.)
);
#1349=(
LENGTH_UNIT()
NAMED_UNIT(*)
SI_UNIT($,.METRE.)
);
#1350=(
LENGTH_UNIT()
NAMED_UNIT(*)
SI_UNIT($,.METRE.)
);
#1351=(
LENGTH_UNIT()
NAMED_UNIT(*)
SI_UNIT($,.METRE.)
);
#1352=PRODUCT_DEFINITION_SHAPE('','',#1355);
#1353=PRODUCT_DEFINITION_SHAPE('','',#1356);
#1354=PRODUCT_DEFINITION_SHAPE('','',#1357);
#1355=PRODUCT_DEFINITION('','',#1361,#1358);
#1356=PRODUCT_DEFINITION('','',#1362,#1359);
#1357=PRODUCT_DEFINITION('','',#1363,#1360);
#1358=PRODUCT_DEFINITION_CONTEXT('',#1379,'design');
#1359=PRODUCT_DEFINITION_CONTEXT('',#1380,'design');
#1360=PRODUCT_DEFINITION_CONTEXT('',#1381,'design');
#1361=PRODUCT_DEFINITION_FORMATION_WITH_SPECIFIED_SOURCE('','',#1367,
 .NOT_KNOWN.);
#1362=PRODUCT_DEFINITION_FORMATION_WITH_SPECIFIED_SOURCE('','',#1368,
 .NOT_KNOWN.);
#1363=PRODUCT_DEFINITION_FORMATION_WITH_SPECIFIED_SOURCE('','',#1369,
 .NOT_KNOWN.);
#1364=PRODUCT_RELATED_PRODUCT_CATEGORY('','',(#1367));
#1365=PRODUCT_RELATED_PRODUCT_CATEGORY('','',(#1368));
#1366=PRODUCT_RELATED_PRODUCT_CATEGORY('','',(#1369));
#1367=PRODUCT('Lens','Lens','Lens',(#1373));
#1368=PRODUCT('Metal_Lens_Holder','Metal_Lens_Holder',
'Metal_Lens_Holder',(#1374));
#1369=PRODUCT('Flange','Flange','Flange',(#1375));
#1370=PRODUCT_CATEGORY('','');
#1371=PRODUCT_CATEGORY('','');
#1372=PRODUCT_CATEGORY('','');
#1373=PRODUCT_CONTEXT('',#1379,'mechanical');
#1374=PRODUCT_CONTEXT('',#1380,'mechanical');
#1375=PRODUCT_CONTEXT('',#1381,'mechanical');
#1376=APPLICATION_PROTOCOL_DEFINITION('international standard',
'ap242_managed_model_based_3d_engineering',2020,#1379);
#1377=APPLICATION_PROTOCOL_DEFINITION('international standard',
'ap242_managed_model_based_3d_engineering',2020,#1380);
#1378=APPLICATION_PROTOCOL_DEFINITION('international standard',
'ap242_managed_model_based_3d_engineering',2020,#1381);
#1379=APPLICATION_CONTEXT('managed model based 3d engineering');
#1380=APPLICATION_CONTEXT('managed model based 3d engineering');
#1381=APPLICATION_CONTEXT('managed model based 3d engineering');
ENDSEC;
END-ISO-10303-21;
