G04 #@! TF.GenerationSoftware,KiCad,Pcbnew,10.0.5*
G04 #@! TF.CreationDate,2026-08-10T10:17:43+02:00*
G04 #@! TF.ProjectId,4reel_ee,34726565-6c5f-4656-952e-6b696361645f,rev?*
G04 #@! TF.SameCoordinates,Original*
G04 #@! TF.FileFunction,Other,ECO1*
%FSLAX46Y46*%
G04 Gerber Fmt 4.6, Leading zero omitted, Abs format (unit mm)*
G04 Created by KiCad (PCBNEW 10.0.5) date 2026-08-10 10:17:43*
%MOMM*%
%LPD*%
G01*
G04 APERTURE LIST*
%ADD10C,0.100000*%
%ADD11C,0.150000*%
G04 APERTURE END LIST*
D10*
X128400000Y-104700000D02*
X128400000Y-106100000D01*
X128600000Y-106100000D02*
X128600000Y-107800000D01*
X129000000Y-104600000D02*
X128400000Y-104700000D01*
X129300000Y-104700000D02*
X129100000Y-107900000D01*
X129300000Y-104700000D02*
X130500000Y-103500000D01*
X130500000Y-103100000D02*
X129000000Y-104600000D01*
X130500000Y-103500000D02*
X133900000Y-103500000D01*
X133200000Y-97500000D02*
X134400000Y-97500000D01*
X133800000Y-103000000D02*
X130500000Y-103100000D01*
X133900000Y-103500000D02*
X135700000Y-101700000D01*
X134400000Y-97500000D02*
X135300000Y-98400000D01*
X134700000Y-97100000D02*
X133000000Y-97100000D01*
X135300000Y-98400000D02*
X135300000Y-101500000D01*
X135300000Y-101500000D02*
X133800000Y-103000000D01*
X135700000Y-98200000D02*
X134700000Y-97100000D01*
X135700000Y-101700000D02*
X135700000Y-98200000D01*
D11*
X130570112Y-105718771D02*
X130684398Y-105718771D01*
X130684398Y-105718771D02*
X130741541Y-105690200D01*
X130741541Y-105690200D02*
X130770112Y-105661628D01*
X130770112Y-105661628D02*
X130827255Y-105575914D01*
X130827255Y-105575914D02*
X130855826Y-105461628D01*
X130855826Y-105461628D02*
X130855826Y-105233057D01*
X130855826Y-105233057D02*
X130827255Y-105175914D01*
X130827255Y-105175914D02*
X130798684Y-105147342D01*
X130798684Y-105147342D02*
X130741541Y-105118771D01*
X130741541Y-105118771D02*
X130627255Y-105118771D01*
X130627255Y-105118771D02*
X130570112Y-105147342D01*
X130570112Y-105147342D02*
X130541541Y-105175914D01*
X130541541Y-105175914D02*
X130512969Y-105233057D01*
X130512969Y-105233057D02*
X130512969Y-105375914D01*
X130512969Y-105375914D02*
X130541541Y-105433057D01*
X130541541Y-105433057D02*
X130570112Y-105461628D01*
X130570112Y-105461628D02*
X130627255Y-105490200D01*
X130627255Y-105490200D02*
X130741541Y-105490200D01*
X130741541Y-105490200D02*
X130798684Y-105461628D01*
X130798684Y-105461628D02*
X130827255Y-105433057D01*
X130827255Y-105433057D02*
X130855826Y-105375914D01*
X131227255Y-105118771D02*
X131284398Y-105118771D01*
X131284398Y-105118771D02*
X131341541Y-105147342D01*
X131341541Y-105147342D02*
X131370113Y-105175914D01*
X131370113Y-105175914D02*
X131398684Y-105233057D01*
X131398684Y-105233057D02*
X131427255Y-105347342D01*
X131427255Y-105347342D02*
X131427255Y-105490200D01*
X131427255Y-105490200D02*
X131398684Y-105604485D01*
X131398684Y-105604485D02*
X131370113Y-105661628D01*
X131370113Y-105661628D02*
X131341541Y-105690200D01*
X131341541Y-105690200D02*
X131284398Y-105718771D01*
X131284398Y-105718771D02*
X131227255Y-105718771D01*
X131227255Y-105718771D02*
X131170113Y-105690200D01*
X131170113Y-105690200D02*
X131141541Y-105661628D01*
X131141541Y-105661628D02*
X131112970Y-105604485D01*
X131112970Y-105604485D02*
X131084398Y-105490200D01*
X131084398Y-105490200D02*
X131084398Y-105347342D01*
X131084398Y-105347342D02*
X131112970Y-105233057D01*
X131112970Y-105233057D02*
X131141541Y-105175914D01*
X131141541Y-105175914D02*
X131170113Y-105147342D01*
X131170113Y-105147342D02*
X131227255Y-105118771D01*
X132255827Y-105118771D02*
X132370113Y-105118771D01*
X132370113Y-105118771D02*
X132427256Y-105147342D01*
X132427256Y-105147342D02*
X132484399Y-105204485D01*
X132484399Y-105204485D02*
X132512970Y-105318771D01*
X132512970Y-105318771D02*
X132512970Y-105518771D01*
X132512970Y-105518771D02*
X132484399Y-105633057D01*
X132484399Y-105633057D02*
X132427256Y-105690200D01*
X132427256Y-105690200D02*
X132370113Y-105718771D01*
X132370113Y-105718771D02*
X132255827Y-105718771D01*
X132255827Y-105718771D02*
X132198685Y-105690200D01*
X132198685Y-105690200D02*
X132141542Y-105633057D01*
X132141542Y-105633057D02*
X132112970Y-105518771D01*
X132112970Y-105518771D02*
X132112970Y-105318771D01*
X132112970Y-105318771D02*
X132141542Y-105204485D01*
X132141542Y-105204485D02*
X132198685Y-105147342D01*
X132198685Y-105147342D02*
X132255827Y-105118771D01*
X132770113Y-105718771D02*
X132770113Y-105118771D01*
X132770113Y-105404485D02*
X133112970Y-105404485D01*
X133112970Y-105718771D02*
X133112970Y-105118771D01*
X133398684Y-105718771D02*
X133398684Y-105118771D01*
X133398684Y-105118771D02*
X133598684Y-105547342D01*
X133598684Y-105547342D02*
X133798684Y-105118771D01*
X133798684Y-105118771D02*
X133798684Y-105718771D01*
X134884398Y-105661628D02*
X134855826Y-105690200D01*
X134855826Y-105690200D02*
X134770112Y-105718771D01*
X134770112Y-105718771D02*
X134712969Y-105718771D01*
X134712969Y-105718771D02*
X134627255Y-105690200D01*
X134627255Y-105690200D02*
X134570112Y-105633057D01*
X134570112Y-105633057D02*
X134541541Y-105575914D01*
X134541541Y-105575914D02*
X134512969Y-105461628D01*
X134512969Y-105461628D02*
X134512969Y-105375914D01*
X134512969Y-105375914D02*
X134541541Y-105261628D01*
X134541541Y-105261628D02*
X134570112Y-105204485D01*
X134570112Y-105204485D02*
X134627255Y-105147342D01*
X134627255Y-105147342D02*
X134712969Y-105118771D01*
X134712969Y-105118771D02*
X134770112Y-105118771D01*
X134770112Y-105118771D02*
X134855826Y-105147342D01*
X134855826Y-105147342D02*
X134884398Y-105175914D01*
X135227255Y-105718771D02*
X135170112Y-105690200D01*
X135170112Y-105690200D02*
X135141541Y-105661628D01*
X135141541Y-105661628D02*
X135112969Y-105604485D01*
X135112969Y-105604485D02*
X135112969Y-105433057D01*
X135112969Y-105433057D02*
X135141541Y-105375914D01*
X135141541Y-105375914D02*
X135170112Y-105347342D01*
X135170112Y-105347342D02*
X135227255Y-105318771D01*
X135227255Y-105318771D02*
X135312969Y-105318771D01*
X135312969Y-105318771D02*
X135370112Y-105347342D01*
X135370112Y-105347342D02*
X135398684Y-105375914D01*
X135398684Y-105375914D02*
X135427255Y-105433057D01*
X135427255Y-105433057D02*
X135427255Y-105604485D01*
X135427255Y-105604485D02*
X135398684Y-105661628D01*
X135398684Y-105661628D02*
X135370112Y-105690200D01*
X135370112Y-105690200D02*
X135312969Y-105718771D01*
X135312969Y-105718771D02*
X135227255Y-105718771D01*
X135684398Y-105318771D02*
X135684398Y-105718771D01*
X135684398Y-105375914D02*
X135712969Y-105347342D01*
X135712969Y-105347342D02*
X135770112Y-105318771D01*
X135770112Y-105318771D02*
X135855826Y-105318771D01*
X135855826Y-105318771D02*
X135912969Y-105347342D01*
X135912969Y-105347342D02*
X135941541Y-105404485D01*
X135941541Y-105404485D02*
X135941541Y-105718771D01*
X136141540Y-105318771D02*
X136370112Y-105318771D01*
X136227255Y-105118771D02*
X136227255Y-105633057D01*
X136227255Y-105633057D02*
X136255826Y-105690200D01*
X136255826Y-105690200D02*
X136312969Y-105718771D01*
X136312969Y-105718771D02*
X136370112Y-105718771D01*
X136570112Y-105718771D02*
X136570112Y-105318771D01*
X136570112Y-105433057D02*
X136598683Y-105375914D01*
X136598683Y-105375914D02*
X136627255Y-105347342D01*
X136627255Y-105347342D02*
X136684397Y-105318771D01*
X136684397Y-105318771D02*
X136741540Y-105318771D01*
X137027255Y-105718771D02*
X136970112Y-105690200D01*
X136970112Y-105690200D02*
X136941541Y-105661628D01*
X136941541Y-105661628D02*
X136912969Y-105604485D01*
X136912969Y-105604485D02*
X136912969Y-105433057D01*
X136912969Y-105433057D02*
X136941541Y-105375914D01*
X136941541Y-105375914D02*
X136970112Y-105347342D01*
X136970112Y-105347342D02*
X137027255Y-105318771D01*
X137027255Y-105318771D02*
X137112969Y-105318771D01*
X137112969Y-105318771D02*
X137170112Y-105347342D01*
X137170112Y-105347342D02*
X137198684Y-105375914D01*
X137198684Y-105375914D02*
X137227255Y-105433057D01*
X137227255Y-105433057D02*
X137227255Y-105604485D01*
X137227255Y-105604485D02*
X137198684Y-105661628D01*
X137198684Y-105661628D02*
X137170112Y-105690200D01*
X137170112Y-105690200D02*
X137112969Y-105718771D01*
X137112969Y-105718771D02*
X137027255Y-105718771D01*
X137570112Y-105718771D02*
X137512969Y-105690200D01*
X137512969Y-105690200D02*
X137484398Y-105633057D01*
X137484398Y-105633057D02*
X137484398Y-105118771D01*
X137884398Y-105718771D02*
X137827255Y-105690200D01*
X137827255Y-105690200D02*
X137798684Y-105633057D01*
X137798684Y-105633057D02*
X137798684Y-105118771D01*
X138341541Y-105690200D02*
X138284398Y-105718771D01*
X138284398Y-105718771D02*
X138170113Y-105718771D01*
X138170113Y-105718771D02*
X138112970Y-105690200D01*
X138112970Y-105690200D02*
X138084398Y-105633057D01*
X138084398Y-105633057D02*
X138084398Y-105404485D01*
X138084398Y-105404485D02*
X138112970Y-105347342D01*
X138112970Y-105347342D02*
X138170113Y-105318771D01*
X138170113Y-105318771D02*
X138284398Y-105318771D01*
X138284398Y-105318771D02*
X138341541Y-105347342D01*
X138341541Y-105347342D02*
X138370113Y-105404485D01*
X138370113Y-105404485D02*
X138370113Y-105461628D01*
X138370113Y-105461628D02*
X138084398Y-105518771D01*
X138884399Y-105718771D02*
X138884399Y-105118771D01*
X138884399Y-105690200D02*
X138827256Y-105718771D01*
X138827256Y-105718771D02*
X138712970Y-105718771D01*
X138712970Y-105718771D02*
X138655827Y-105690200D01*
X138655827Y-105690200D02*
X138627256Y-105661628D01*
X138627256Y-105661628D02*
X138598684Y-105604485D01*
X138598684Y-105604485D02*
X138598684Y-105433057D01*
X138598684Y-105433057D02*
X138627256Y-105375914D01*
X138627256Y-105375914D02*
X138655827Y-105347342D01*
X138655827Y-105347342D02*
X138712970Y-105318771D01*
X138712970Y-105318771D02*
X138827256Y-105318771D01*
X138827256Y-105318771D02*
X138884399Y-105347342D01*
X139627256Y-105718771D02*
X139627256Y-105318771D01*
X139627256Y-105118771D02*
X139598684Y-105147342D01*
X139598684Y-105147342D02*
X139627256Y-105175914D01*
X139627256Y-105175914D02*
X139655827Y-105147342D01*
X139655827Y-105147342D02*
X139627256Y-105118771D01*
X139627256Y-105118771D02*
X139627256Y-105175914D01*
X139912970Y-105718771D02*
X139912970Y-105318771D01*
X139912970Y-105375914D02*
X139941541Y-105347342D01*
X139941541Y-105347342D02*
X139998684Y-105318771D01*
X139998684Y-105318771D02*
X140084398Y-105318771D01*
X140084398Y-105318771D02*
X140141541Y-105347342D01*
X140141541Y-105347342D02*
X140170113Y-105404485D01*
X140170113Y-105404485D02*
X140170113Y-105718771D01*
X140170113Y-105404485D02*
X140198684Y-105347342D01*
X140198684Y-105347342D02*
X140255827Y-105318771D01*
X140255827Y-105318771D02*
X140341541Y-105318771D01*
X140341541Y-105318771D02*
X140398684Y-105347342D01*
X140398684Y-105347342D02*
X140427255Y-105404485D01*
X140427255Y-105404485D02*
X140427255Y-105718771D01*
X140712970Y-105318771D02*
X140712970Y-105918771D01*
X140712970Y-105347342D02*
X140770113Y-105318771D01*
X140770113Y-105318771D02*
X140884398Y-105318771D01*
X140884398Y-105318771D02*
X140941541Y-105347342D01*
X140941541Y-105347342D02*
X140970113Y-105375914D01*
X140970113Y-105375914D02*
X140998684Y-105433057D01*
X140998684Y-105433057D02*
X140998684Y-105604485D01*
X140998684Y-105604485D02*
X140970113Y-105661628D01*
X140970113Y-105661628D02*
X140941541Y-105690200D01*
X140941541Y-105690200D02*
X140884398Y-105718771D01*
X140884398Y-105718771D02*
X140770113Y-105718771D01*
X140770113Y-105718771D02*
X140712970Y-105690200D01*
X141484398Y-105690200D02*
X141427255Y-105718771D01*
X141427255Y-105718771D02*
X141312970Y-105718771D01*
X141312970Y-105718771D02*
X141255827Y-105690200D01*
X141255827Y-105690200D02*
X141227255Y-105633057D01*
X141227255Y-105633057D02*
X141227255Y-105404485D01*
X141227255Y-105404485D02*
X141255827Y-105347342D01*
X141255827Y-105347342D02*
X141312970Y-105318771D01*
X141312970Y-105318771D02*
X141427255Y-105318771D01*
X141427255Y-105318771D02*
X141484398Y-105347342D01*
X141484398Y-105347342D02*
X141512970Y-105404485D01*
X141512970Y-105404485D02*
X141512970Y-105461628D01*
X141512970Y-105461628D02*
X141227255Y-105518771D01*
X142027256Y-105718771D02*
X142027256Y-105118771D01*
X142027256Y-105690200D02*
X141970113Y-105718771D01*
X141970113Y-105718771D02*
X141855827Y-105718771D01*
X141855827Y-105718771D02*
X141798684Y-105690200D01*
X141798684Y-105690200D02*
X141770113Y-105661628D01*
X141770113Y-105661628D02*
X141741541Y-105604485D01*
X141741541Y-105604485D02*
X141741541Y-105433057D01*
X141741541Y-105433057D02*
X141770113Y-105375914D01*
X141770113Y-105375914D02*
X141798684Y-105347342D01*
X141798684Y-105347342D02*
X141855827Y-105318771D01*
X141855827Y-105318771D02*
X141970113Y-105318771D01*
X141970113Y-105318771D02*
X142027256Y-105347342D01*
X142570113Y-105718771D02*
X142570113Y-105404485D01*
X142570113Y-105404485D02*
X142541541Y-105347342D01*
X142541541Y-105347342D02*
X142484398Y-105318771D01*
X142484398Y-105318771D02*
X142370113Y-105318771D01*
X142370113Y-105318771D02*
X142312970Y-105347342D01*
X142570113Y-105690200D02*
X142512970Y-105718771D01*
X142512970Y-105718771D02*
X142370113Y-105718771D01*
X142370113Y-105718771D02*
X142312970Y-105690200D01*
X142312970Y-105690200D02*
X142284398Y-105633057D01*
X142284398Y-105633057D02*
X142284398Y-105575914D01*
X142284398Y-105575914D02*
X142312970Y-105518771D01*
X142312970Y-105518771D02*
X142370113Y-105490200D01*
X142370113Y-105490200D02*
X142512970Y-105490200D01*
X142512970Y-105490200D02*
X142570113Y-105461628D01*
X142855827Y-105318771D02*
X142855827Y-105718771D01*
X142855827Y-105375914D02*
X142884398Y-105347342D01*
X142884398Y-105347342D02*
X142941541Y-105318771D01*
X142941541Y-105318771D02*
X143027255Y-105318771D01*
X143027255Y-105318771D02*
X143084398Y-105347342D01*
X143084398Y-105347342D02*
X143112970Y-105404485D01*
X143112970Y-105404485D02*
X143112970Y-105718771D01*
X143655827Y-105690200D02*
X143598684Y-105718771D01*
X143598684Y-105718771D02*
X143484398Y-105718771D01*
X143484398Y-105718771D02*
X143427255Y-105690200D01*
X143427255Y-105690200D02*
X143398684Y-105661628D01*
X143398684Y-105661628D02*
X143370112Y-105604485D01*
X143370112Y-105604485D02*
X143370112Y-105433057D01*
X143370112Y-105433057D02*
X143398684Y-105375914D01*
X143398684Y-105375914D02*
X143427255Y-105347342D01*
X143427255Y-105347342D02*
X143484398Y-105318771D01*
X143484398Y-105318771D02*
X143598684Y-105318771D01*
X143598684Y-105318771D02*
X143655827Y-105347342D01*
X144141541Y-105690200D02*
X144084398Y-105718771D01*
X144084398Y-105718771D02*
X143970113Y-105718771D01*
X143970113Y-105718771D02*
X143912970Y-105690200D01*
X143912970Y-105690200D02*
X143884398Y-105633057D01*
X143884398Y-105633057D02*
X143884398Y-105404485D01*
X143884398Y-105404485D02*
X143912970Y-105347342D01*
X143912970Y-105347342D02*
X143970113Y-105318771D01*
X143970113Y-105318771D02*
X144084398Y-105318771D01*
X144084398Y-105318771D02*
X144141541Y-105347342D01*
X144141541Y-105347342D02*
X144170113Y-105404485D01*
X144170113Y-105404485D02*
X144170113Y-105461628D01*
X144170113Y-105461628D02*
X143884398Y-105518771D01*
M02*
