G04 #@! TF.GenerationSoftware,KiCad,Pcbnew,10.0.5*
G04 #@! TF.CreationDate,2026-08-10T10:17:43+02:00*
G04 #@! TF.ProjectId,4reel_ee,34726565-6c5f-4656-952e-6b696361645f,rev?*
G04 #@! TF.SameCoordinates,Original*
G04 #@! TF.FileFunction,Paste,Top*
G04 #@! TF.FilePolarity,Positive*
%FSLAX46Y46*%
G04 Gerber Fmt 4.6, Leading zero omitted, Abs format (unit mm)*
G04 Created by KiCad (PCBNEW 10.0.5) date 2026-08-10 10:17:43*
%MOMM*%
%LPD*%
G01*
G04 APERTURE LIST*
G04 Aperture macros list*
%AMRoundRect*
0 Rectangle with rounded corners*
0 $1 Rounding radius*
0 $2 $3 $4 $5 $6 $7 $8 $9 X,Y pos of 4 corners*
0 Add a 4 corners polygon primitive as box body*
4,1,4,$2,$3,$4,$5,$6,$7,$8,$9,$2,$3,0*
0 Add four circle primitives for the rounded corners*
1,1,$1+$1,$2,$3*
1,1,$1+$1,$4,$5*
1,1,$1+$1,$6,$7*
1,1,$1+$1,$8,$9*
0 Add four rect primitives between the rounded corners*
20,1,$1+$1,$2,$3,$4,$5,0*
20,1,$1+$1,$4,$5,$6,$7,0*
20,1,$1+$1,$6,$7,$8,$9,0*
20,1,$1+$1,$8,$9,$2,$3,0*%
G04 Aperture macros list end*
%ADD10RoundRect,0.140000X-0.140000X-0.170000X0.140000X-0.170000X0.140000X0.170000X-0.140000X0.170000X0*%
%ADD11RoundRect,0.140000X0.170000X-0.140000X0.170000X0.140000X-0.170000X0.140000X-0.170000X-0.140000X0*%
%ADD12RoundRect,0.140000X-0.170000X0.140000X-0.170000X-0.140000X0.170000X-0.140000X0.170000X0.140000X0*%
%ADD13RoundRect,0.135000X0.135000X0.185000X-0.135000X0.185000X-0.135000X-0.185000X0.135000X-0.185000X0*%
%ADD14RoundRect,0.140000X0.140000X0.170000X-0.140000X0.170000X-0.140000X-0.170000X0.140000X-0.170000X0*%
%ADD15R,0.320000X0.500000*%
%ADD16RoundRect,0.250000X0.435000X0.615000X-0.435000X0.615000X-0.435000X-0.615000X0.435000X-0.615000X0*%
%ADD17RoundRect,0.125000X0.250000X0.125000X-0.250000X0.125000X-0.250000X-0.125000X0.250000X-0.125000X0*%
%ADD18RoundRect,0.147500X0.172500X-0.147500X0.172500X0.147500X-0.172500X0.147500X-0.172500X-0.147500X0*%
%ADD19RoundRect,0.135000X0.185000X-0.135000X0.185000X0.135000X-0.185000X0.135000X-0.185000X-0.135000X0*%
%ADD20RoundRect,0.135000X-0.185000X0.135000X-0.185000X-0.135000X0.185000X-0.135000X0.185000X0.135000X0*%
%ADD21RoundRect,0.135000X-0.135000X-0.185000X0.135000X-0.185000X0.135000X0.185000X-0.135000X0.185000X0*%
%ADD22RoundRect,0.218750X-0.381250X0.218750X-0.381250X-0.218750X0.381250X-0.218750X0.381250X0.218750X0*%
%ADD23C,0.300000*%
%ADD24R,0.375000X0.350000*%
%ADD25R,0.350000X0.375000*%
%ADD26RoundRect,0.218750X0.381250X-0.218750X0.381250X0.218750X-0.381250X0.218750X-0.381250X-0.218750X0*%
G04 APERTURE END LIST*
D10*
G04 #@! TO.C,C48*
X166320000Y-100800000D03*
X167280000Y-100800000D03*
G04 #@! TD*
D11*
G04 #@! TO.C,C22*
X132800000Y-89230000D03*
X132800000Y-88270000D03*
G04 #@! TD*
D12*
G04 #@! TO.C,C67*
X86900000Y-97720000D03*
X86900000Y-98680000D03*
G04 #@! TD*
D10*
G04 #@! TO.C,C42*
X166320000Y-97805000D03*
X167280000Y-97805000D03*
G04 #@! TD*
D11*
G04 #@! TO.C,C25*
X126300000Y-89230000D03*
X126300000Y-88270000D03*
G04 #@! TD*
D13*
G04 #@! TO.C,R30*
X108410000Y-108400000D03*
X107390000Y-108400000D03*
G04 #@! TD*
D14*
G04 #@! TO.C,C73*
X109480000Y-93300000D03*
X108520000Y-93300000D03*
G04 #@! TD*
D11*
G04 #@! TO.C,C56*
X85132500Y-91708000D03*
X85132500Y-90748000D03*
G04 #@! TD*
D14*
G04 #@! TO.C,C46*
X163280000Y-94700000D03*
X162320000Y-94700000D03*
G04 #@! TD*
G04 #@! TO.C,C26*
X122980000Y-95900000D03*
X122020000Y-95900000D03*
G04 #@! TD*
D15*
G04 #@! TO.C,RN2*
X150075000Y-100375000D03*
X149575000Y-100375000D03*
X149075000Y-100375000D03*
X148575000Y-100375000D03*
X148575000Y-101375000D03*
X149075000Y-101375000D03*
X149575000Y-101375000D03*
X150075000Y-101375000D03*
G04 #@! TD*
D16*
G04 #@! TO.C,U7*
X138750000Y-107310000D03*
X138750000Y-105160000D03*
X137050000Y-107310000D03*
X137050000Y-105160000D03*
D17*
X140600000Y-108140000D03*
X140600000Y-106870000D03*
X140600000Y-105600000D03*
X140600000Y-104330000D03*
X135200000Y-104330000D03*
X135200000Y-105600000D03*
X135200000Y-106870000D03*
X135200000Y-108140000D03*
G04 #@! TD*
D10*
G04 #@! TO.C,C71*
X90420000Y-95400000D03*
X91380000Y-95400000D03*
G04 #@! TD*
D11*
G04 #@! TO.C,C64*
X88332500Y-89608000D03*
X88332500Y-88648000D03*
G04 #@! TD*
D10*
G04 #@! TO.C,C63*
X90420000Y-91400000D03*
X91380000Y-91400000D03*
G04 #@! TD*
D18*
G04 #@! TO.C,D1*
X118200000Y-96310000D03*
X118200000Y-95340000D03*
G04 #@! TD*
D10*
G04 #@! TO.C,C65*
X90420000Y-96400000D03*
X91380000Y-96400000D03*
G04 #@! TD*
D19*
G04 #@! TO.C,R32*
X87297500Y-90628000D03*
X87297500Y-89608000D03*
G04 #@! TD*
D20*
G04 #@! TO.C,R23*
X118200000Y-97490000D03*
X118200000Y-98510000D03*
G04 #@! TD*
D21*
G04 #@! TO.C,R21*
X121722500Y-102090000D03*
X122742500Y-102090000D03*
G04 #@! TD*
D19*
G04 #@! TO.C,R14*
X129650000Y-110545000D03*
X129650000Y-109525000D03*
G04 #@! TD*
D12*
G04 #@! TO.C,C41*
X164600000Y-97720000D03*
X164600000Y-98680000D03*
G04 #@! TD*
D15*
G04 #@! TO.C,RN1*
X144775000Y-100375000D03*
X144275000Y-100375000D03*
X143775000Y-100375000D03*
X143275000Y-100375000D03*
X143275000Y-101375000D03*
X143775000Y-101375000D03*
X144275000Y-101375000D03*
X144775000Y-101375000D03*
G04 #@! TD*
D10*
G04 #@! TO.C,C61*
X90420000Y-92400000D03*
X91380000Y-92400000D03*
G04 #@! TD*
G04 #@! TO.C,C60*
X90420000Y-93400000D03*
X91380000Y-93400000D03*
G04 #@! TD*
D21*
G04 #@! TO.C,R26*
X134290000Y-96300000D03*
X135310000Y-96300000D03*
G04 #@! TD*
D11*
G04 #@! TO.C,C18*
X128300000Y-89230000D03*
X128300000Y-88270000D03*
G04 #@! TD*
D20*
G04 #@! TO.C,R24*
X119200000Y-97490000D03*
X119200000Y-98510000D03*
G04 #@! TD*
G04 #@! TO.C,R25*
X127300000Y-88240000D03*
X127300000Y-89260000D03*
G04 #@! TD*
D12*
G04 #@! TO.C,C66*
X88900000Y-97720000D03*
X88900000Y-98680000D03*
G04 #@! TD*
D11*
G04 #@! TO.C,C53*
X165400000Y-91680000D03*
X165400000Y-90720000D03*
G04 #@! TD*
G04 #@! TO.C,C54*
X119000000Y-104080000D03*
X119000000Y-103120000D03*
G04 #@! TD*
D22*
G04 #@! TO.C,L7*
X83732500Y-88965500D03*
X83732500Y-91090500D03*
G04 #@! TD*
D12*
G04 #@! TO.C,C69*
X89900000Y-97720000D03*
X89900000Y-98680000D03*
G04 #@! TD*
D20*
G04 #@! TO.C,R16*
X129900000Y-100440000D03*
X129900000Y-101460000D03*
G04 #@! TD*
D23*
G04 #@! TO.C,U3*
X168920000Y-96500000D03*
X168280000Y-96500000D03*
X167640000Y-96500000D03*
X167000000Y-96500000D03*
X166360000Y-96500000D03*
X165720000Y-96500000D03*
X165080000Y-96500000D03*
X164440000Y-96500000D03*
X168920000Y-96000000D03*
X168280000Y-96000000D03*
X167640000Y-96000000D03*
X167000000Y-96000000D03*
X166360000Y-96000000D03*
X165720000Y-96000000D03*
X165080000Y-96000000D03*
X164440000Y-96000000D03*
X168920000Y-95500000D03*
X168280000Y-95500000D03*
X167640000Y-95500000D03*
X167000000Y-95500000D03*
X166360000Y-95500000D03*
X165720000Y-95500000D03*
X165080000Y-95500000D03*
X164440000Y-95500000D03*
X168920000Y-95000000D03*
X168280000Y-95000000D03*
X167640000Y-95000000D03*
X167000000Y-95000000D03*
X166360000Y-95000000D03*
X165720000Y-95000000D03*
X165080000Y-95000000D03*
X164440000Y-95000000D03*
X168920000Y-94500000D03*
X168280000Y-94500000D03*
X167640000Y-94500000D03*
X167000000Y-94500000D03*
X166360000Y-94500000D03*
X165720000Y-94500000D03*
X165080000Y-94500000D03*
X164440000Y-94500000D03*
X168920000Y-94000000D03*
X168280000Y-94000000D03*
X167640000Y-94000000D03*
X167000000Y-94000000D03*
X166360000Y-94000000D03*
X165720000Y-94000000D03*
X165080000Y-94000000D03*
X164440000Y-94000000D03*
X168920000Y-93500000D03*
X168280000Y-93500000D03*
X167640000Y-93500000D03*
X167000000Y-93500000D03*
X166360000Y-93500000D03*
X165720000Y-93500000D03*
X165080000Y-93500000D03*
X164440000Y-93500000D03*
X168920000Y-93000000D03*
X168280000Y-93000000D03*
X167640000Y-93000000D03*
X167000000Y-93000000D03*
X166360000Y-93000000D03*
X165720000Y-93000000D03*
X165080000Y-93000000D03*
X164440000Y-93000000D03*
G04 #@! TD*
D24*
G04 #@! TO.C,U8*
X122725000Y-104700000D03*
X122725000Y-104200000D03*
X122725000Y-103700000D03*
X122725000Y-103200000D03*
D25*
X122212500Y-103187500D03*
X121712500Y-103187500D03*
D24*
X121200000Y-103200000D03*
X121200000Y-103700000D03*
X121200000Y-104200000D03*
X121200000Y-104700000D03*
D25*
X121712500Y-104712500D03*
X122212500Y-104712500D03*
G04 #@! TD*
D10*
G04 #@! TO.C,C20*
X134320000Y-92950000D03*
X135280000Y-92950000D03*
G04 #@! TD*
D12*
G04 #@! TO.C,C68*
X87900000Y-97720000D03*
X87900000Y-98680000D03*
G04 #@! TD*
D26*
G04 #@! TO.C,L5*
X169900000Y-100462500D03*
X169900000Y-98337500D03*
G04 #@! TD*
D19*
G04 #@! TO.C,R18*
X134000000Y-106210000D03*
X134000000Y-105190000D03*
G04 #@! TD*
G04 #@! TO.C,R31*
X113850000Y-110960000D03*
X113850000Y-109940000D03*
G04 #@! TD*
D12*
G04 #@! TO.C,C74*
X109100000Y-98520000D03*
X109100000Y-99480000D03*
G04 #@! TD*
D20*
G04 #@! TO.C,R11*
X111600000Y-90690000D03*
X111600000Y-91710000D03*
G04 #@! TD*
D14*
G04 #@! TO.C,C40*
X163275000Y-93700000D03*
X162315000Y-93700000D03*
G04 #@! TD*
D11*
G04 #@! TO.C,C49*
X120132500Y-104080000D03*
X120132500Y-103120000D03*
G04 #@! TD*
D21*
G04 #@! TO.C,R22*
X121712500Y-105790000D03*
X122732500Y-105790000D03*
G04 #@! TD*
D14*
G04 #@! TO.C,C47*
X163280000Y-92700000D03*
X162320000Y-92700000D03*
G04 #@! TD*
D20*
G04 #@! TO.C,R12*
X112600000Y-90690000D03*
X112600000Y-91710000D03*
G04 #@! TD*
D21*
G04 #@! TO.C,R17*
X137990000Y-103000000D03*
X139010000Y-103000000D03*
G04 #@! TD*
D12*
G04 #@! TO.C,C55*
X168500000Y-97720000D03*
X168500000Y-98680000D03*
G04 #@! TD*
G04 #@! TO.C,C45*
X163625000Y-97745000D03*
X163625000Y-98705000D03*
G04 #@! TD*
D14*
G04 #@! TO.C,C44*
X163180000Y-96800000D03*
X162220000Y-96800000D03*
G04 #@! TD*
G04 #@! TO.C,C70*
X87312500Y-91623000D03*
X86352500Y-91623000D03*
G04 #@! TD*
D23*
G04 #@! TO.C,U9*
X84712500Y-92928000D03*
X85352500Y-92928000D03*
X85992500Y-92928000D03*
X86632500Y-92928000D03*
X87272500Y-92928000D03*
X87912500Y-92928000D03*
X88552500Y-92928000D03*
X89192500Y-92928000D03*
X84712500Y-93428000D03*
X85352500Y-93428000D03*
X85992500Y-93428000D03*
X86632500Y-93428000D03*
X87272500Y-93428000D03*
X87912500Y-93428000D03*
X88552500Y-93428000D03*
X89192500Y-93428000D03*
X84712500Y-93928000D03*
X85352500Y-93928000D03*
X85992500Y-93928000D03*
X86632500Y-93928000D03*
X87272500Y-93928000D03*
X87912500Y-93928000D03*
X88552500Y-93928000D03*
X89192500Y-93928000D03*
X84712500Y-94428000D03*
X85352500Y-94428000D03*
X85992500Y-94428000D03*
X86632500Y-94428000D03*
X87272500Y-94428000D03*
X87912500Y-94428000D03*
X88552500Y-94428000D03*
X89192500Y-94428000D03*
X84712500Y-94928000D03*
X85352500Y-94928000D03*
X85992500Y-94928000D03*
X86632500Y-94928000D03*
X87272500Y-94928000D03*
X87912500Y-94928000D03*
X88552500Y-94928000D03*
X89192500Y-94928000D03*
X84712500Y-95428000D03*
X85352500Y-95428000D03*
X85992500Y-95428000D03*
X86632500Y-95428000D03*
X87272500Y-95428000D03*
X87912500Y-95428000D03*
X88552500Y-95428000D03*
X89192500Y-95428000D03*
X84712500Y-95928000D03*
X85352500Y-95928000D03*
X85992500Y-95928000D03*
X86632500Y-95928000D03*
X87272500Y-95928000D03*
X87912500Y-95928000D03*
X88552500Y-95928000D03*
X89192500Y-95928000D03*
X84712500Y-96428000D03*
X85352500Y-96428000D03*
X85992500Y-96428000D03*
X86632500Y-96428000D03*
X87272500Y-96428000D03*
X87912500Y-96428000D03*
X88552500Y-96428000D03*
X89192500Y-96428000D03*
G04 #@! TD*
D18*
G04 #@! TO.C,D2*
X119200000Y-96310000D03*
X119200000Y-95340000D03*
G04 #@! TD*
D10*
G04 #@! TO.C,C23*
X134320000Y-97300000D03*
X135280000Y-97300000D03*
G04 #@! TD*
D12*
G04 #@! TO.C,C31*
X135200000Y-109470000D03*
X135200000Y-110430000D03*
G04 #@! TD*
D20*
G04 #@! TO.C,R15*
X127000000Y-109525000D03*
X127000000Y-110545000D03*
G04 #@! TD*
D14*
G04 #@! TO.C,C35*
X163280000Y-95725000D03*
X162320000Y-95725000D03*
G04 #@! TD*
D10*
G04 #@! TO.C,C58*
X90420000Y-94400000D03*
X91380000Y-94400000D03*
G04 #@! TD*
D20*
G04 #@! TO.C,R13*
X166335000Y-98800000D03*
X166335000Y-99820000D03*
G04 #@! TD*
M02*
